<svg xmlns="http://www.w3.org/2000/svg" width="4032" height="3024" viewBox="0 0 384 384"><rect width="384" height="384" fill="#786891"/><polygon points="0,0 0,84 195,5 294,36 346,85 383,84 383,0" fill="#3c4794"/><polygon points="333,143 236,50 190,43 107,93 9,106 52,107 0,175 81,169 155,133 153,121 201,110 217,84 256,103 286,160" fill="#8380c7"/><polygon points="383,201 257,201 363,180 256,165 293,182 218,199 297,214 52,195 82,217 4,226 354,247 138,230" fill="#de9e93"/><polygon points="353,133 333,119 341,81 316,53 208,6 169,7 0,85 0,164 51,107 9,105 107,92 190,42 236,49 319,136" fill="#6364af"/><polygon points="69,186 194,224 300,212 228,208 218,197 249,192 233,187 295,179 232,158 172,154 154,180 148,168" fill="#e8c2c0"/><polygon points="292,163 255,103 217,85 195,101 201,111 146,125 155,134 81,170 43,169 19,193 103,202 56,182 148,167 154,179 172,153" fill="#b39ed0"/><polygon points="383,269 268,268 337,289 259,329 90,305 0,353 121,318 147,358 382,383 309,369 334,347 285,314 347,320 332,296" fill="#3e3558"/><polygon points="0,329 72,296 200,327 141,298 173,284 118,290 211,281 128,269 336,288 79,262 121,282" fill="#6b5673"/><polygon points="0,197 15,221 0,235 32,244 1,243 65,259 383,251 60,247 3,226 82,215" fill="#a67a89"/><polygon points="87,298 190,293 207,307 165,306 205,328 234,322 176,304 308,301 213,282" fill="#a67a89"/><polygon points="383,234 344,220 364,211 275,217 302,223 268,234 245,229 263,224 139,230 196,231 146,237 179,236 154,244" fill="#e8c2c0"/><polygon points="0,354 0,383 322,383 280,380 247,348 241,362 203,352 183,363 176,350 168,363 162,352 147,359 140,328 121,319 94,324 102,347 67,337 55,356" fill="#1b1b42"/><polygon points="383,170 370,164 366,142 358,136 334,139 327,152 284,169 329,168 339,178 362,182 266,199 283,205 374,205 383,200 383,186 375,182" fill="#a67a89"/><polygon points="342,83 334,119 351,128 355,137 358,135 367,142 371,164 383,169 383,85 366,83 360,86 351,83 346,86" fill="#6b5673"/><polygon points="381,284 360,281 357,293 348,285 333,296 341,306 328,303 330,309 338,306 347,321 321,311 304,326 307,317 286,314 308,341 335,347 323,351 326,363 323,357 304,364 335,372 383,362" fill="#1b1b42"/><polygon points="383,252 329,258 306,266 282,266 383,268" fill="#6b5673"/><polygon points="0,306 41,296 35,290 104,286 81,283 106,276 78,272 99,261 0,259 0,270 21,270 3,269 10,262 50,280 13,278 41,284 0,290" fill="#3e3558"/><polygon points="112,274 174,281 231,280 189,272 161,276 154,272 139,275 136,273 143,270 137,270 141,271 135,275 126,273 128,270" fill="#3e3558"/><polygon points="0,236 0,258 97,260 65,260 47,255 49,252 24,250 6,243 31,244" fill="#6b5673"/><polygon points="383,204 372,211 365,211 348,216 345,220 366,224 366,228 360,232 383,233" fill="#b39ed0"/><polygon points="215,312 245,317 259,328 261,322 283,322 282,312 226,308 276,314 269,318" fill="#6b5673"/><polygon points="161,299 173,299 174,302 166,301 178,308 239,322 196,311 199,306 207,306 184,297 182,300 175,297 171,299 166,295" fill="#de9e93"/><polygon points="0,271 3,278 0,278 0,289 5,291 5,287 25,288 18,285 40,284 14,280 16,277 49,281 25,270 32,270 25,266 11,267 13,264 9,263 9,266 3,266 5,270" fill="#1b1b42"/><polygon points="117,199 117,201 118,202 117,204 119,206 123,206 124,207 141,207 144,205 141,203 131,202 125,199 121,199 120,198 118,198" fill="#b39ed0"/><polygon points="93,177 92,176 89,180 64,181 63,183 58,184 56,183 56,184 68,187 70,185 83,189 81,187 92,181 90,179" fill="#de9e93"/><polygon points="154,316 162,321 163,319 164,321 167,320 168,323 170,324 169,323 170,321 175,319 176,317 179,317 180,314 182,316 183,314 184,316 185,315 180,313 176,314 175,313 176,312 165,309 170,311 169,312 156,309 155,310 156,315" fill="#a67a89"/><polygon points="0,176 0,184 2,184 5,186 6,184 8,185 10,185 11,184 21,184 26,182 22,179 15,179 10,177 1,177" fill="#a67a89"/><polygon points="212,305 265,307 262,304 257,304 259,305 257,308 256,306 243,307 242,305 238,306 235,303 232,304 221,300 223,303 214,300 214,302 221,304" fill="#de9e93"/><polygon points="267,356 267,363 270,361 272,364 275,363 281,371 281,368 284,368 287,371 285,368 286,366 289,370 295,365 292,365 288,361 290,357 293,362 297,361 302,364 298,360 296,361 295,357 293,359 289,355 287,357 285,355 272,355 272,358" fill="#1b1b42"/><polygon points="243,334 241,334 240,336 238,335 236,332 234,333 231,327 229,329 225,329 222,332 220,332 220,333 222,334 222,336 223,335 225,336 227,341 227,340 230,338 232,338 234,340 237,340 239,337 240,338 240,336 243,335" fill="#1b1b42"/><polygon points="77,301 73,304 75,298 72,297 64,304 58,303 47,305 47,308 52,310 53,313 56,313 59,311 62,312 63,310 53,310 50,308 51,307 67,307 69,309 66,311 69,312 68,311 73,308 70,307 76,306" fill="#a67a89"/><polygon points="262,326 263,328 267,329 264,335 266,333 269,335 269,337 272,338 271,339 279,340 280,341 278,342 283,340 286,342 285,343 286,346 287,345 288,339 287,340 284,337 281,337 279,332 274,328 271,327 272,329 269,330 268,329 269,325 266,324" fill="#1b1b42"/><polygon points="383,177 376,181 377,184 379,186 383,185" fill="#6b5673"/><polygon points="0,196 1,195 4,195 5,196 7,195 7,193 8,192 9,193 11,191 12,192 14,191 17,192 19,189 19,186 21,185 11,185 10,186 6,185 5,187 2,185 0,185" fill="#8380c7"/><polygon points="323,297 321,296 317,297 309,296 308,297 307,295 304,297 299,296 281,298 305,299 306,297 309,301 311,300 313,301 312,300 313,299 318,300" fill="#6b5673"/><polygon points="136,212 134,212 131,216 123,216 121,217 132,217 135,214 136,214" fill="#e8c2c0"/><polygon points="165,265 161,265 160,264 159,265 155,265 151,268 150,267 146,269 149,269 151,268 152,269 158,269 159,270 159,269 157,268 158,267 160,267 162,269 164,269 166,268" fill="#3e3558"/><polygon points="286,326 286,330 288,330 290,332 290,334 292,336 294,336 297,339 298,338 300,341 302,340 302,337 299,335 300,334 299,332 296,333 295,332 295,330 289,327 287,325" fill="#1b1b42"/><polygon points="312,307 310,306 308,308 306,305 310,303 308,304 305,302 306,303 305,305 301,305 299,303 298,305 284,305 297,306 298,307 296,309 294,308 295,309 294,311 296,314 300,314 304,309 308,309 310,311 311,310 310,307 311,306" fill="#6b5673"/><polygon points="248,159 248,161 250,161 251,162 255,162 256,163 259,163 260,164 259,165 260,164 257,160 255,160 254,159" fill="#e8c2c0"/><polygon points="290,188 300,189 300,187 293,187 292,188" fill="#b39ed0"/><polygon points="173,286 179,287 179,289 182,292 189,292 180,290 182,288 187,289 190,287 196,290 195,292 189,290 192,292 199,292 197,290 198,289 196,290 193,288 194,287 189,288 183,285 180,286 178,284" fill="#6b5673"/><polygon points="152,318 152,320 151,321 152,323 150,324 154,326 156,326 158,324 159,324 160,326 159,322 158,321 156,322 155,321 156,320" fill="#a67a89"/><polygon points="306,276 308,275 310,277 312,276 323,278 324,276 336,277 333,276 334,275 338,276 347,275 313,274 314,275 313,276 309,276 308,275 309,273 307,273 308,275" fill="#6b5673"/><polygon points="238,276 255,278 256,276 267,278 268,277 278,278 274,278 273,277 274,276 273,277 262,277 256,275 252,276 246,273 245,274 248,275 247,276 244,276 242,274 243,273 241,273" fill="#3e3558"/><polygon points="218,295 219,296 220,295 221,296 225,295 227,296 229,299 233,299 234,297 235,298 237,298 238,297 232,296 231,295 227,295 226,296 225,295" fill="#6b5673"/><polygon points="0,219 0,222 12,222 14,221 10,221 9,220 4,220 3,219" fill="#6b5673"/><polygon points="225,315 226,316 225,317 226,316 228,317 227,318 229,317 230,319 232,319 233,318 235,320 239,321 240,322 239,323 236,323 239,323 241,320 243,319 244,320 246,319 245,318 240,318 239,317 235,317 234,316 226,316" fill="#a67a89"/><polygon points="352,114 354,117 358,117 358,115" fill="#3c4794"/><polygon points="190,269 192,269 194,271 191,272 193,273 194,272 198,272 200,273 204,271 210,271 211,269 207,271 203,270 199,272 193,270 195,268 199,269 199,268 193,268" fill="#a67a89"/><polygon points="114,268 116,268 117,267 118,267 119,269 120,268 128,268 127,267 124,267 123,266 124,265 129,265 130,266 139,267 134,266 133,265 124,265 123,264 122,265 117,266 116,268" fill="#3e3558"/><polygon points="247,322 246,323 241,324 240,326 238,326 238,329 241,327 243,328 246,325 248,327 248,329 247,330 246,330 248,329 248,326 246,323" fill="#1b1b42"/><polygon points="112,229 119,229 120,230 123,230 124,231 133,231 135,230 120,230 119,229" fill="#e8c2c0"/><polygon points="245,295 244,295 241,292 240,293 237,293 236,292 237,291 239,291 238,290 234,291 233,292 231,292 230,291 227,292 229,293 234,293 235,294 237,293 238,294 237,295 240,295 241,294 242,296" fill="#6b5673"/><polygon points="195,298 205,303 208,303 207,302 208,301 211,302 207,301 206,300 207,299 205,299 204,301 203,300 199,300" fill="#de9e93"/><polygon points="212,272 219,272 217,271 213,271" fill="#a67a89"/><polygon points="203,345 202,344 201,345 199,343 200,342 196,339 197,342 194,345 191,345 189,343 189,342 188,344 186,344 186,345 188,345 190,347 192,346 196,346 198,344 199,344 200,346" fill="#6b5673"/><polygon points="216,232 220,232 221,233 227,233 225,232" fill="#de9e93"/><polygon points="255,199 257,200 264,200 265,199 263,199 262,200 261,199" fill="#b39ed0"/></svg>