<svg xmlns="http://www.w3.org/2000/svg" width="1279" height="1706" viewBox="0 0 384 384"><rect width="384" height="384" fill="#9a91a4"/><polygon points="2,7 79,12 115,56 156,64 123,81 196,68 259,102 245,65 293,87 383,81 383,0" fill="#8dc2fd"/><polygon points="119,138 86,202 110,302 127,275 197,335 176,329 202,372 233,372 253,231 215,256 227,316 156,279 126,200 98,212" fill="#211528"/><polygon points="137,169 128,188 137,214 174,247 174,259 164,258 169,267 163,266 170,285 216,298 207,285 210,256 255,227 267,192 241,190 220,164 218,182 196,202 195,195 162,202 147,169" fill="#bf7e71"/><polygon points="150,108 75,215 99,310 177,383 191,333 110,304 82,188 127,170 99,212 127,200 161,281 124,190 175,125" fill="#4f3446"/><polygon points="0,92 0,182 64,183 70,157 65,153 72,150 68,150 88,114 24,105" fill="#f4fbfa"/><polygon points="207,96 195,118 188,118 181,127 178,143 204,147 223,162 243,143 260,135 246,115 227,106 222,107" fill="#bf7e71"/><polygon points="271,108 268,117 279,122 271,125 277,144 286,147 292,162 281,184 383,183 383,122 366,120 383,116 327,104 312,108 318,110 310,114 314,118 291,123 301,108 274,113" fill="#f4fbfa"/><polygon points="383,187 270,188 282,235 261,260 276,239 344,268 336,228 302,227 330,251 285,239 295,215 350,214 377,254 383,213 359,213 383,211" fill="#b7b7bc"/><polygon points="0,91 88,119 134,63 136,72 155,64 115,57 92,33 91,13 78,22 70,16 79,13 38,5 20,12 71,23 104,54 24,48 41,61 0,53" fill="#bce4f6"/><polygon points="0,285 0,310 13,313 2,314 146,356 108,322 71,311 81,305 41,280 47,263 24,261" fill="#eca2bc"/><polygon points="266,254 278,311 268,319 276,301 267,311 250,291 235,366 259,376 269,367 263,383 291,383 278,342 291,322 284,308 295,320 292,309 305,313 320,298 336,307 317,284 266,264" fill="#997c92"/><polygon points="269,243 293,269 327,289 361,331 383,333 383,311 354,320 362,306 356,302 382,292 383,282 365,272 353,222 339,229 347,263 341,274 276,240" fill="#bf7e71"/><polygon points="222,97 180,72 203,71 163,73 188,102 152,73 122,85 152,102 108,95 82,135 105,107 110,131 118,107" fill="#997c92"/><polygon points="245,66 244,78 252,80 243,85 259,92 262,99 254,94 265,111 269,108 267,114 271,107 274,112 301,107 304,111 289,120 304,122 316,114 315,104 383,115 381,81 293,88" fill="#bce4f6"/><polygon points="72,168 64,188 0,184 0,206 14,204 2,228 59,225 10,238 55,233 73,245 63,206 55,222 14,217 22,206 58,209" fill="#b7b7bc"/><polygon points="383,358 338,318 328,322 339,310 362,332 333,299 336,313 323,299 292,310 294,320 285,308 292,322 277,347 292,383 344,382 332,341 295,358 344,332 360,349 351,356" fill="#7c556a"/><polygon points="160,149 154,156 153,168 160,153 173,148 174,151 160,157 157,171 163,171 158,176 161,175 163,181 166,177 167,181 169,174 174,179 180,175 182,185 188,162 200,150" fill="#4f3446"/><polygon points="0,20 3,53 41,60 23,48 48,44 69,54 103,54 89,45 94,41 79,33 80,39 70,30 71,24 54,16 19,12" fill="#f4fbfa"/><polygon points="200,105 188,114 196,101 187,113 175,114 177,121 165,130 171,130 144,147 131,165 139,165 138,159 151,155 149,160 157,147 191,145 178,144 177,136" fill="#7c556a"/><polygon points="130,168 124,183 133,214 159,241 152,244 161,256 156,255 161,280 173,287 162,267 164,263 168,267 166,259 178,264 173,261 173,247 139,220 127,189 136,171" fill="#7c556a"/><polygon points="91,342 94,369 92,375 90,372 86,376 86,383 97,383 101,365 115,383 130,383 142,377 146,361 138,354 113,346 127,362 122,365 109,357 103,348 105,344" fill="#4f3446"/><polygon points="170,94 160,100 163,96 141,89 139,82 124,89 134,78 110,92 98,107 108,97 107,106 127,94 123,105 126,99 133,104 143,94 142,105 159,99 158,108 170,101 166,100" fill="#b7b7bc"/><polygon points="75,161 73,185 59,209 19,209 15,217 30,216 19,224 47,214 72,224 62,217 76,216 69,203 72,188 78,188 73,187" fill="#997c92"/><polygon points="295,359 332,340 335,375 347,378 342,383 376,383 379,380 383,383 383,365 362,352 353,356 359,349 344,333" fill="#4f3446"/><polygon points="80,224 73,239 81,237 75,255 87,287 72,280 74,287 68,286 58,254 55,262 68,287 95,299 85,301 99,299 100,308 100,296 88,290 93,289 88,277 94,279" fill="#7c556a"/><polygon points="75,228 70,233 71,241 73,236 69,252 56,254 66,278 76,280 74,285 77,282 84,289 86,287 82,282 85,279 87,282 79,257 74,255 78,254 74,243 78,241 78,235 78,240 73,241" fill="#997c92"/><polygon points="249,255 248,266 251,270 246,283 250,275 250,290 266,308 265,300 253,283 261,277 263,284 264,281 274,292 276,283 261,269 264,263 259,267 257,262 260,261 252,257 251,260" fill="#4f3446"/><polygon points="248,95 248,103 252,105 247,110 254,105 255,113 258,114 256,120 250,112 248,113 257,123 262,136 264,136 263,142 269,143 269,131 262,110" fill="#4f3446"/><polygon points="55,256 53,261 48,265 46,273 41,278 49,282 64,295 67,294 67,297 71,301 73,299 78,305 77,301 73,299 76,298 67,287 54,262" fill="#997c92"/><polygon points="143,85 153,81 150,88 156,85 159,89 161,85 162,91 166,85 164,88 169,89 171,96 177,92 177,97 182,92 181,99 194,89 186,87 185,93 183,84 180,86 173,77 171,83 169,76 173,73 152,74" fill="#7c556a"/><polygon points="274,193 279,194 280,187 289,199 289,192 280,192 285,186 292,197 298,185 308,187 306,193 321,187 322,194 322,189 335,184 355,189 355,184 368,189 383,184 283,184" fill="#bce4f6"/><polygon points="84,152 78,153 74,201 70,202 77,224 83,213 78,214 78,220 74,215 79,211 75,209 79,208 77,199 81,198 76,196 82,196 86,189 81,196 76,192 82,184 90,185 90,189 93,185 87,178 80,180 88,166" fill="#7c556a"/><polygon points="272,161 266,166 263,159 265,165 259,170 255,164 260,156 252,160 256,187 251,176 248,181 244,178 248,170 239,181 234,165 233,172 246,189 261,190 267,177 257,181 254,174 260,175 261,169 264,174" fill="#7c556a"/><polygon points="253,151 257,161 247,171 252,173 255,171 249,169 255,163 259,165 261,172 255,178 268,177 263,186 267,188 261,189 270,190 270,199 278,209 269,188 274,186 269,173 274,163 265,167 264,175 259,166 262,162 264,165 264,158" fill="#997c92"/><polygon points="153,158 150,170 155,180 157,176 160,184 165,183 163,186 172,182 169,186 172,189 182,186 179,184 180,176 175,179 174,176 172,179 169,175 168,181 164,178 166,181 163,182 161,176 157,176 162,171 155,171 157,163" fill="#7c556a"/><polygon points="198,73 213,77 211,82 217,81 215,84 225,87 220,90 230,92 221,94 226,93 228,95 225,97 229,102 245,111 245,105 236,100 239,97 244,101 244,92 229,82 226,84 225,80 215,80 213,75 208,74 207,77 206,74" fill="#4f3446"/><polygon points="254,149 245,150 235,164 239,180 241,177 246,182 244,186 246,182 241,177 240,169 244,166 245,171 254,161 251,154 247,159 250,155 254,162 246,168 242,160 247,155 243,153" fill="#4f3446"/><polygon points="62,336 64,340 62,360 64,361 59,383 62,381 63,383 78,383 79,381 83,383 84,376 79,377 79,365 77,363 79,357 76,355 74,342 79,340 76,338 72,343 72,339 68,340" fill="#4f3446"/><polygon points="259,278 254,284 256,284 255,287 257,287 261,295 266,300 269,307 267,308 264,305 267,309 276,299 275,283 275,289 270,289 268,286 267,288 264,282 265,281 263,285 261,280 262,279" fill="#211528"/><polygon points="235,371 234,383 257,383 256,382 257,381 259,382 258,380 259,378 261,380 256,374 255,375 253,372 246,367 240,366" fill="#eca2bc"/><polygon points="202,72 207,74 202,77 218,87 215,89 223,97 219,102 222,106 245,115 246,112 258,127 246,110 233,103 235,100 233,103 225,100 227,95 222,96 225,92 219,90 224,87 210,82 214,77 224,79" fill="#7c556a"/><polygon points="0,225 0,239 19,236 2,243 0,248 8,247 11,256 17,251 18,256 28,253 15,249 17,244 35,254 26,250 30,249 27,241 46,242 45,233 43,240 35,239 38,233 11,237 13,222 6,230 1,228 5,224" fill="#997c92"/><polygon points="215,253 212,254 209,265 208,285 217,294 217,299 219,300 221,295 220,291 215,286 213,281 209,280 210,266" fill="#7c556a"/><polygon points="71,338 72,342 76,341 77,355 80,357 78,372 80,372 80,377 81,374 85,376 85,383 85,376 90,371 92,374 92,343 94,343 93,341 91,343 84,340 82,344 80,339 76,341" fill="#211528"/><polygon points="194,63 214,65 216,69 218,65 225,71 224,74 223,72 222,74 218,71 219,73 226,74 228,77 235,76 235,74 242,77 244,64 229,65 227,61 226,64 216,66 216,64 214,65 206,60 206,64 202,62" fill="#bce4f6"/><polygon points="131,382 170,383 170,381 168,381 168,379 166,379 164,377 165,376 163,376 162,373 156,369 158,366 157,365 158,366 155,368 154,365 153,367 151,362 148,362 149,360 146,360 143,377 137,378" fill="#7c556a"/><polygon points="26,333 37,339 49,355 48,374 46,367 33,365 20,352 13,354 34,380 26,383 36,383 19,356 34,367 42,383 56,383 56,356 41,339" fill="#7c556a"/><polygon points="216,176 213,180 210,174 212,178 207,178 210,181 204,186 201,184 204,186 200,189 197,182 192,185 194,179 188,175 197,176 192,172 195,169 198,174 201,167 205,169 203,166 191,173 187,169 189,176 183,178 193,187 183,193 196,192 211,179 207,188 217,182" fill="#7c556a"/><polygon points="99,367 99,372 98,373 98,383 114,383 109,376 106,369 102,366" fill="#7c556a"/><polygon points="215,254 211,266 210,280 213,280 221,291 220,301 227,303 225,315 227,315 227,306 229,303 220,300 222,298 222,292 216,279 213,266" fill="#4f3446"/><polygon points="281,163 273,162 275,163 275,165 273,167 274,168 274,170 271,173 270,172 271,174 271,182 272,184 274,184 274,182 276,181 278,178 278,176 280,173 281,167 282,166 282,164" fill="#b7b7bc"/></svg>