<svg xmlns="http://www.w3.org/2000/svg" width="605" height="320" viewBox="0 0 384 384"><rect width="384" height="384" fill="#3e6387"/><polygon points="0,17 52,53 9,78 145,119 84,150 178,176 234,139 145,119 228,121 238,75 253,164 344,153 264,126 352,135 300,103 383,113 383,0" fill="#2a5a89"/><polygon points="0,30 0,283 122,250 108,185 161,249 151,190 235,184 148,158 180,132 84,151 169,131 9,79 103,66" fill="#1e4c78"/><polygon points="383,242 340,223 276,339 231,334 283,342 118,380 383,383 383,306 351,281 383,293 383,271 350,260 383,257 344,244" fill="#143c5a"/><polygon points="301,222 104,304 101,328 135,329 128,347 250,291 234,306 273,304 270,292 244,303 281,252 254,262 253,250 288,232 291,244" fill="#d6dbe2"/><polygon points="266,124 345,151 261,152 327,188 356,177 308,159 376,150 383,194 338,224 382,243 383,140 347,110 383,114" fill="#1e4c78"/><polygon points="301,289 236,334 223,330 235,316 190,341 170,334 136,363 137,346 99,361 95,383 155,372 171,354 168,375 201,361 210,375 205,358 235,346 269,356 283,343 258,355 264,331 275,339 278,310" fill="#3b556a"/><polygon points="274,203 272,207 238,222 238,238 244,239 242,244 238,240 238,250 286,227 286,218 284,226 282,223 279,225 277,223" fill="#d6dbe2"/><polygon points="356,181 308,199 324,192 329,205 337,201 331,213 313,216 314,200 294,211 294,227 305,223 270,285 296,277 285,278 286,269 308,251 293,261 293,249 316,229 317,214 321,226 344,194 350,201 362,190 350,190" fill="#8b97aa"/><polygon points="15,321 38,329 42,340 91,327 92,341 64,353 126,341 117,356 149,339 134,343 135,330 109,337 112,330 101,326 108,323 96,316 96,323 93,316 87,327 74,327 64,318 78,312 61,317 46,307" fill="#b1b9c6"/><polygon points="199,191 194,197 193,201 195,202 194,205 199,211 202,212 202,214 210,217 213,215 213,205 212,204 212,201 209,195 205,191" fill="#d6dbe2"/><polygon points="174,215 167,219 163,218 163,221 159,224 161,231 164,233 167,232 169,236 171,237 175,237 185,233 187,231 188,227 187,223 179,222 178,221 180,220" fill="#143c5a"/><polygon points="188,181 192,184 187,190 195,190 193,186 207,187 220,197 219,203 227,202 230,206 227,201 230,186 236,204 235,178 235,185 233,179 231,186 219,183 223,194 215,188 214,181 210,181 211,177 194,175 196,181" fill="#2a5a89"/><polygon points="191,262 204,259 206,265 203,266 206,267 232,255 231,253 217,260 215,256 230,250 236,253 234,255 238,252 217,246 216,241 208,237 205,245 209,252 202,257 194,257 195,261" fill="#8b97aa"/><polygon points="200,96 197,92 184,95 173,88 162,90 166,93 158,93 158,96 138,92 138,89 134,93 132,90 98,91 102,96 115,98 117,94 124,99 133,97 134,100 150,96 155,99" fill="#1e4c78"/><polygon points="294,241 270,254 281,253 278,261 275,257 278,263 254,288 261,295 245,303 266,299 262,292 268,285 272,289 267,294 275,289 270,287 274,284 280,288 283,279 270,284 285,265" fill="#b1b9c6"/><polygon points="131,275 108,284 107,292 105,290 105,285 105,299 121,294 123,281 126,283 126,291 135,289 135,286 131,281" fill="#d6dbe2"/><polygon points="193,214 192,225 187,233 190,235 189,236 195,235 196,237 200,236 204,238 201,237 201,235 208,233 212,234 212,231 216,227 212,224 209,230 208,226 201,224" fill="#2a5a89"/><polygon points="146,119 154,126 158,126 155,123 159,120 162,127 168,124 196,126 205,132 219,129 229,139 224,130 228,127 201,122 212,125 203,131 199,125 189,124 198,121 197,117 184,120 175,117 173,123 155,116" fill="#1e4c78"/><polygon points="251,292 215,311 215,307 154,335 176,326 179,330 185,321 199,322 203,314 203,319 210,319 202,328 210,327 209,317 214,313 218,319 220,313 233,312 232,307 250,307 233,305" fill="#b1b9c6"/><polygon points="289,230 282,231 287,227 241,250 237,248 237,254 230,251 215,257 231,252 233,255 203,269" fill="#b1b9c6"/><polygon points="0,284 0,297 8,294 3,299 20,292 31,300 36,297 39,303 62,293 62,287 49,288 44,294 31,289 27,280 21,281 23,278 31,283 44,282 26,275 19,279 17,276 7,278 7,274 14,272 4,275 7,286" fill="#143c5a"/><polygon points="151,191 156,198 159,196 166,200 172,198 177,203 185,202 184,206 186,207 188,205 188,209 190,207 189,199 183,199 177,196 175,199 174,195 171,194 176,192 171,192 169,188 162,186 161,188 158,188 158,190 161,191 160,192" fill="#2a5a89"/><polygon points="130,203 128,206 128,212 131,215 131,216 132,216 134,218 136,218 137,219 139,218 142,220 142,218 143,217 143,213 142,212 141,206 135,201" fill="#d6dbe2"/><polygon points="21,341 35,362 59,357 61,365 67,356 113,345 95,362 138,343 135,352 142,353 146,341 117,357 113,350 126,342 48,353 45,344 54,337 40,344 32,331 42,350 34,356" fill="#8b97aa"/><polygon points="186,238 174,241 173,253 174,254 176,249 178,250 179,258 176,261 181,261 178,266 179,267 182,265 181,256 184,253 186,254 186,264 190,264 186,261 188,258 186,256" fill="#d6dbe2"/><polygon points="271,191 268,192 269,195 266,198 265,197 265,193 259,197 258,196 255,198 255,211 261,207 262,208 264,206 270,204 272,202 272,197 271,199 269,197" fill="#d6dbe2"/><polygon points="288,197 289,193 308,197 292,189 296,182 302,186 298,180 302,178 318,187 317,191 328,185 322,181 314,184 314,179 311,182 307,177 322,169 309,171 301,167 308,171 304,173 307,177 288,179 291,181" fill="#2a5a89"/><polygon points="330,189 287,208 286,205 281,212 277,211 281,199 278,199 279,222 284,222 286,207 289,211 297,205 301,209 306,205 312,206 307,204 314,199 318,204 315,202 317,197 328,203 320,197" fill="#61768c"/><polygon points="263,155 259,158 258,162 265,170 267,169 268,170 268,179 269,180 267,182 266,179 266,183 269,182 269,163 267,158" fill="#d6dbe2"/><polygon points="17,339 27,360 21,360 35,374 31,363 46,372 80,361 73,368 81,364 94,383 96,362 121,354 95,363 98,357 87,358 83,367 79,357 101,356 113,346 67,357 61,366 59,358 37,364" fill="#61768c"/><polygon points="351,260 367,268 364,272 353,268 363,275 362,280 359,277 352,281 358,284 354,286 361,287 367,297 383,305 379,301 383,300 382,291 365,279 370,276 376,281 383,274 374,276 364,272 372,267 372,271 383,268" fill="#1e4c78"/><polygon points="375,150 365,149 361,143 361,162 355,159 360,168 354,162 346,165 336,159 322,164 311,158 306,162 321,167 338,164 333,172 341,173 343,168 344,173 349,168 351,173 347,175 358,178 361,167 362,177 363,173 369,176 362,165 367,166 370,159 363,163 361,152" fill="#2a5a89"/><polygon points="258,163 263,171 263,184 271,184 267,188 256,186 258,190 252,194 256,195 255,213 243,214 242,208 244,215 238,221 275,202 254,211 254,198 265,192 266,197 268,194 262,192 267,188 272,190 270,181 265,183 267,170" fill="#b1b9c6"/><polygon points="300,274 295,279 294,277 293,277 290,281 288,281 289,283 287,287 281,292 282,293 281,297 293,293 296,289 298,289 300,287 300,280 301,279" fill="#d6dbe2"/><polygon points="250,197 244,200 242,199 242,203 241,205 243,208 243,213 245,211 249,210 249,206 250,205 249,198" fill="#d6dbe2"/><polygon points="231,320 217,320 214,314 203,320 203,315 199,323 185,322 179,331 177,327 174,331 168,329 149,340 157,335 161,338 157,343 159,353 159,349 163,350 158,347 164,344 160,335 165,331 181,331 198,322 202,330 208,328 210,332 219,320 226,323 220,327" fill="#8b97aa"/><polygon points="217,331 210,333 208,329 202,331 201,325 199,326 198,323 181,332 165,332 161,336 165,342 166,336 170,333 171,338 176,336 176,340 179,341 181,337 190,340 189,338 194,336 194,339 199,329 204,331 202,336 205,333 208,335" fill="#61768c"/><polygon points="311,233 307,236 305,234 299,241 298,247 294,249 295,256 293,260 298,252 305,249 309,251 307,257 298,263 296,267 308,259 316,245 308,245 306,243 307,241 305,241 306,237" fill="#61768c"/><polygon points="242,89 246,92 245,94 255,91 258,94 266,90 282,94 284,97 292,97 289,90 276,90 273,85 275,83 287,85 265,80 270,83 268,86 275,87 274,90 256,88 246,92" fill="#1e4c78"/><polygon points="103,123 86,117 84,119 84,112 80,120 70,118 62,120 61,123 54,123 52,120 44,120 44,123 37,122 39,128 41,125 45,127 45,123 56,123 66,127 78,126 85,123 86,120 93,126 93,122 101,125" fill="#2a5a89"/><polygon points="72,208 67,202 57,203 56,198 42,195 39,197 39,192 44,190 41,188 38,191 21,192 26,195 22,198 8,200 5,197 2,201 10,202 30,197 32,202 33,197 38,197 57,206 67,203" fill="#143c5a"/><polygon points="343,232 338,235 336,227 336,235 332,240 329,237 323,237 324,229 320,235 318,232 308,236 307,243 317,245 309,258 312,255 317,257 316,254 321,247 318,243 319,237 322,243 330,243 339,237 342,238 341,241 345,240 345,236 342,236" fill="#2a5a89"/><polygon points="218,212 216,213 215,225 213,226 213,228 215,225 217,227 213,231 216,233 214,235 210,234 214,237 218,229 218,223 221,220 228,226 225,229 227,231 225,235 226,241 228,242 230,234 227,231 232,223 229,222 228,225 226,218 223,218" fill="#1e4c78"/><polygon points="101,53 110,52 111,54 109,56 112,58 114,56 116,58 110,62 108,60 106,64 116,64 119,66 122,64 130,65 125,68 130,69 134,62 126,55 122,59 121,56 123,53 120,52 116,53 107,50" fill="#1e4c78"/><polygon points="271,159 274,170 274,166 276,166 276,172 278,169 280,174 283,172 285,175 296,176 291,171 284,172 278,169 283,163 286,164 285,166 287,163 290,163 291,166 297,167 299,166 298,164 296,166 292,165 294,161 290,161 283,155 281,157 278,156 277,159" fill="#2a5a89"/></svg>