<svg xmlns="http://www.w3.org/2000/svg" width="605" height="320" viewBox="0 0 384 384"><rect width="384" height="384" fill="#3e6387"/><path d="M0,17Q4,28 8,25Q9,36 5,41Q57,57 52,61Q54,70 49,73Q42,66 51,65Q24,52 2,49Q23,62 9,61Q18,75 10,78Q71,89 86,96Q90,106 100,105Q137,125 127,127Q108,113 97,112Q120,129 115,128Q105,136 96,133Q107,141 123,144Q116,158 133,162Q168,167 178,176Q193,177 196,181Q197,188 207,187Q225,203 230,204Q233,198 236,201Q227,180 219,183Q216,185 211,178Q195,169 195,165Q169,156 177,155Q170,139 175,133Q205,150 205,158Q225,158 236,155Q215,131 208,130Q229,108 236,111Q242,103 245,124Q257,141 252,142Q256,154 259,148Q275,161 274,170Q291,186 289,195Q316,192 328,186Q311,174 314,169Q302,173 302,178Q289,168 299,165Q297,150 312,150Q306,145 313,143Q322,141 299,131Q283,133 280,129Q272,130 266,123Q302,124 292,121Q313,120 330,127Q317,128 317,132Q341,126 333,118Q306,111 303,114Q303,103 308,102Q356,119 365,125Q359,132 362,134Q376,131 383,134Q380,123 383,118Q352,115 339,107Q368,107 383,113Q378,96 375,96Q373,83 364,81Q375,73 383,74Q377,16 371,12Q383,7 383,0Q80,3 82,6Q17,9 26,19" fill="#2a5a89"/><path d="M31,22Q14,30 0,30Q3,59 6,60Q3,65 6,69Q3,72 6,76Q0,134 0,189Q2,190 0,191Q12,220 24,223Q0,238 0,246Q18,250 26,256Q1,258 0,264Q3,275 0,283Q52,289 61,286Q60,276 68,274Q64,269 70,269Q78,253 76,247Q92,244 95,233Q98,230 107,228Q116,234 122,234Q114,222 106,223Q112,217 123,217Q131,195 138,187Q143,192 137,197Q146,218 150,236Q161,233 162,219Q182,220 190,226Q182,206 172,199Q162,202 159,197Q149,199 147,197Q154,194 153,190Q171,192 179,199Q188,190 187,181Q194,178 195,174Q213,183 219,191Q224,184 231,185Q230,175 223,171Q219,161 214,163Q204,156 209,154Q196,141 185,140Q178,136 166,142Q164,149 158,148Q150,142 142,143Q153,137 165,137Q155,130 142,129Q144,121 141,118Q123,120 127,126Q138,133 130,134Q105,112 118,112Q80,104 79,101Q92,102 93,99Q65,93 60,97Q47,86 51,84Q61,87 61,84Q25,74 24,70Q10,63 10,60Q26,56 16,50Q48,61 52,65Q47,69 58,69Q65,75 76,76Q56,66 51,61Q62,63 70,70Q81,67 91,70Q97,66 91,67Q53,52 53,55Q30,49 25,51Q15,42 5,42Q8,34 12,33Q48,42 38,40Q36,33 30,32Q45,30 58,34" fill="#1e4c78"/><path d="M383,242Q365,243 360,240Q355,240 353,237Q349,229 339,225Q340,231 342,230Q342,247 338,256Q331,249 334,244Q324,249 319,254Q314,266 304,273Q290,300 279,310Q277,321 272,326Q277,338 274,341Q267,332 268,335Q263,343 267,342Q265,349 261,353Q268,354 269,357Q243,352 235,347Q208,357 208,359Q212,363 209,368Q197,368 196,366Q196,362 191,363Q177,367 177,363Q165,358 159,361Q158,369 154,373Q134,373 131,377Q122,377 118,380Q136,380 137,378Q147,379 149,383Q215,380 219,378Q236,381 252,379Q302,383 350,383Q343,376 348,374Q353,381 358,383Q383,379 383,375Q378,369 383,370Q381,324 379,324Q383,314 383,306Q358,288 351,281Q358,271 355,268Q369,263 383,267Q379,256 376,259Q366,255 368,257Q353,255 345,251Q348,247 345,245Q354,246 360,250Q374,247 379,248" fill="#143c5a"/><path d="M280,253Q263,258 258,262Q253,259 252,257Q253,248 252,248Q246,252 248,251Q249,258 249,263Q227,275 209,283Q206,274 207,268Q203,272 204,273Q201,284 199,287Q160,300 157,299Q156,287 153,289Q154,295 154,299Q131,311 113,318Q109,309 111,303Q106,303 104,305Q105,311 105,315Q102,325 105,327Q110,328 112,330Q114,334 118,335Q134,335 138,338Q142,340 148,339Q174,324 187,320Q195,315 200,315Q212,309 215,310Q224,306 226,307Q241,302 243,308Q253,305 255,304Q270,304 273,303Q273,298 272,299Q266,296 265,299Q253,300 252,299Q258,291 255,291Q265,275 278,262L276,256Z" fill="#d6dbe2"/><path d="M199,191Q194,198 193,201Q197,209 199,211Q209,217 210,217Q212,210 213,205Q210,198 209,195L205,191Z" fill="#d6dbe2"/><path d="M264,194Q258,196 258,196Q256,204 257,210Q261,207 262,208Q265,206 266,206Q272,204 273,205Q264,210 259,212Q253,215 250,216Q244,219 240,221Q238,236 239,249Q242,248 243,247Q252,244 257,242Q268,236 272,235Q285,228 286,227Q284,223 283,224Q278,224 277,223Q273,203 272,201L272,199Z" fill="#d6dbe2"/><path d="M174,215Q165,218 164,218Q160,230 162,232Q165,233 167,233Q173,237 175,237Q186,232 187,231Q187,225 187,223Q183,222 182,222" fill="#143c5a"/><path d="M267,125Q287,136 297,136Q291,130 292,129Q317,138 323,143Q326,139 326,137Q330,141 328,143Q336,151 328,151Q303,145 300,149Q309,152 305,154Q299,152 298,153Q291,151 288,153Q288,148 291,146Q284,145 282,148Q272,145 268,146Q279,149 282,152Q276,153 274,152Q269,155 271,158Q289,158 295,162Q284,162 283,159Q285,170 290,170Q291,175 288,176Q296,178 302,177Q303,169 301,168Q310,168 316,171Q311,180 315,183Q325,183 330,187Q352,177 352,175Q349,171 343,169Q334,172 333,171Q336,166 336,165Q320,166 309,165Q309,160 313,159Q324,161 326,159Q341,161 346,164Q362,166 370,172Q368,178 373,180Q374,187 380,192Q371,191 368,189Q364,203 368,206Q356,206 356,203Q341,225 344,230Q354,231 353,230Q359,228 362,229Q359,233 360,234Q356,238 358,240Q358,242 361,242Q360,239 362,238Q376,243 383,242Q379,219 375,222Q374,216 375,214Q383,211 383,210Q381,208 383,208Q379,153 376,152Q382,149 382,148Q379,145 383,143Q379,134 375,133Q356,121 355,122Q342,114 337,115Q322,108 314,108Q304,103 301,104Q304,107 307,108Q306,110 310,107Q326,115 332,116Q336,124 332,127Q347,131 351,135Q339,134 330,132Q317,131 314,127Q318,126 320,129Q328,128 329,127Q313,121 301,118Q293,115 290,119Q306,124 312,128Q296,126 283,122L277,126Z" fill="#1e4c78"/><path d="M130,203Q128,209 128,212Q137,218 140,219Q143,215 143,213Q139,204 137,202L135,201Z" fill="#d6dbe2"/><path d="M299,293Q275,304 274,308Q266,313 269,316Q258,319 256,317Q245,323 244,327Q233,332 231,331Q234,326 234,325Q238,324 239,325Q238,319 235,316Q218,330 208,336Q204,335 203,336Q201,333 202,332Q198,333 198,336Q191,341 193,342Q205,337 206,339Q197,344 194,344Q187,344 186,343Q185,339 182,338Q181,344 183,347Q186,349 191,350Q197,347 199,347Q203,352 206,353Q198,355 194,355Q180,361 179,360Q176,368 177,371Q187,363 192,362Q196,363 197,362Q198,365 197,367Q201,372 200,373Q207,376 208,379Q210,376 209,373Q204,367 207,365Q210,365 210,364Q212,358 211,360Q208,356 210,354Q219,352 224,349Q243,351 251,356Q267,356 270,355Q270,351 271,350Q276,347 280,343Q268,351 266,354Q261,354 260,353Q265,346 266,343Q261,343 260,342Q266,337 267,338Q273,338 275,339Q275,335 277,334Q278,333 277,332Q274,328 271,326Q280,314 277,313Q287,302 287,302Q291,299 293,300" fill="#3b556a"/><path d="M263,155Q258,160 258,162Q263,168 267,172Q268,182 269,181Q268,160 267,158" fill="#d6dbe2"/><path d="M98,154Q104,150 107,150Q105,146 106,145Q114,147 115,148Q119,146 121,145Q121,142 120,141Q125,141 128,143Q129,145 132,145Q135,142 136,143Q136,145 139,146Q144,149 147,149Q151,151 152,151Q160,152 165,152Q169,151 171,152Q175,150 176,151Q176,154 178,156Q174,158 172,158Q165,156 163,157Q170,160 174,161Q185,161 186,162Q188,163 191,164Q195,167 196,166Q197,169 197,171Q192,174 193,175Q190,176 189,175Q186,172 183,172Q182,175 181,176Q175,168 176,167Q167,166 166,165Q161,163 160,162Q159,160 158,159Q151,157 148,155Q145,157 144,157Q139,157 137,160Q131,162 130,161Q134,155 138,151Q129,153 128,156Q130,159 129,160Q122,158 121,160Q112,155 107,155L100,156Z" fill="#1e4c78"/><path d="M153,191Q154,196 156,198Q161,198 162,199Q169,199 172,199Q180,202 183,202Q185,205 185,207Q188,207 189,208Q189,200 188,198Q181,198 180,197Q175,196 174,195Q173,192 171,192Q169,189 169,189Q161,187 159,188L156,192Z" fill="#2a5a89"/><path d="M187,233Q193,235 194,235Q199,237 202,237Q207,234 209,234Q213,230 216,227Q210,225 208,226Q203,225 201,224Q193,220 192,225Q192,228 194,228Q197,233 196,234Q192,232 191,233L189,231Z" fill="#2a5a89"/><path d="M131,278Q124,277 120,279Q113,282 111,282Q106,285 105,287Q107,298 108,298Q115,295 117,295Q122,288 122,283Q125,282 126,283Q128,291 129,291Q135,287 135,286L131,281Z" fill="#d6dbe2"/><path d="M199,167Q202,164 204,164Q215,164 218,165Q221,170 220,171Q213,170 212,169L201,169Z" fill="#1e4c78"/><path d="M208,237Q205,242 205,245Q209,250 209,252Q204,256 202,257Q194,259 195,260Q194,262 195,263Q198,261 199,261Q201,259 202,260Q205,260 206,261Q205,265 204,266Q209,265 212,263Q215,262 217,261Q223,259 224,258Q227,257 229,256Q228,251 230,250Q226,248 224,249Q219,246 217,246Q215,243 216,242L214,240Z" fill="#8b97aa"/><path d="M234,221Q231,225 230,227Q228,234 229,238Q231,243 231,245Q234,245 235,244" fill="#2a5a89"/><path d="M147,119Q153,116 155,116Q162,117 163,117Q165,119 165,120Q174,120 176,118Q189,118 194,118Q198,118 200,120Q194,122 191,123Q197,124 199,124Q200,128 199,129Q187,127 183,127Q174,127 170,127Q166,126 165,128Q161,127 160,126Q160,122 159,121Q157,124 158,125Q155,127 154,127Q152,124 152,123" fill="#2a5a89"/><path d="M119,139Q121,137 122,138Q125,132 126,131Q129,132 130,133Q137,132 139,132Q143,133 145,133Q142,131 142,132Q141,128 143,127Q153,130 154,130Q162,132 164,131Q170,132 171,134Q165,137 163,138Q157,136 154,136Q151,136 152,137Q147,138 144,138Q142,142 145,144Q149,142 151,143Q156,140 157,141Q160,141 161,142Q158,145 158,147Q165,148 167,150Q169,149 171,149Q172,152 171,153Q166,152 165,153Q151,151 150,150Q140,148 139,147Q134,146 133,145Q130,144 127,147Q126,144 127,143Q122,141 121,141" fill="#2a5a89"/><path d="M170,91Q168,97 169,98Q164,99 161,99Q155,99 154,98Q144,98 139,99Q134,100 133,99Q125,99 124,100Q118,95 117,95Q108,97 102,97Q98,90 99,89Q102,89 104,89Q109,90 112,89Q122,90 125,90Q131,90 132,89Q151,91 150,90Q155,86 156,87Q159,86 160,87Q156,94 157,95Q161,92 163,92Q165,89 168,89" fill="#2a5a89"/></svg>