<svg xmlns="http://www.w3.org/2000/svg" width="605" height="320" viewBox="0 0 384 384"><rect width="384" height="384" fill="#3e6387"/><polygon points="0,17 0,31 8,25 13,32 5,41 62,54 52,61 60,68 49,73 34,68 51,65 46,56 2,49 38,63 9,61 27,73 10,78 57,82 86,96 81,107 100,105 148,124 127,127 119,115 97,112 125,130 115,128 115,139 96,133 91,138 123,144 99,154 133,162 158,158 178,176 191,173 196,181 187,189 207,187 220,203 230,204 230,195 236,201 235,178 219,183 221,193 211,178 195,174 195,165 162,157 177,155 166,145 175,133 205,142 205,158 214,162 236,155 222,132 208,130 222,105 236,111 239,82 245,124 263,141 252,142 254,161 259,148 277,152 274,170 294,177 289,195 304,198 328,186 309,180 314,169 302,168 302,178 280,171 299,165 282,151 312,150 300,147 313,143 345,152 299,131 286,138 280,129 278,137 266,123 312,128 292,121 297,113 330,127 317,125 317,132 350,135 333,118 310,108 303,114 299,105 308,102 347,113 365,125 356,130 362,134 369,128 383,134 377,128 383,118 366,123 339,107 353,102 383,113 382,96 375,96 383,85 364,81 367,72 383,74 383,20 371,12 383,14 383,0 79,0 82,6 9,0 26,19" fill="#2a5a89"/><polygon points="31,22 28,30 0,30 0,59 6,60 0,62 6,69 0,69 6,76 0,79 0,189 5,189 0,191 0,218 24,223 0,230 0,246 10,245 26,256 2,253 0,264 6,267 0,283 44,293 61,286 52,279 68,274 59,269 70,269 80,259 76,247 90,255 95,233 90,232 107,228 110,235 122,234 122,221 106,223 102,217 123,217 124,204 138,187 149,188 137,197 143,201 150,236 161,248 162,219 174,214 190,226 192,213 172,199 166,207 159,197 152,202 147,197 155,198 153,190 163,185 179,199 190,200 187,181 194,182 195,174 207,175 219,191 218,183 231,185 237,179 223,171 224,159 214,163 200,158 209,154 208,142 185,140 191,131 166,142 170,151 158,148 159,141 142,143 141,138 165,137 168,131 142,129 147,124 141,118 120,115 127,126 146,133 130,134 93,113 118,112 81,107 79,101 91,105 93,99 71,90 60,97 44,89 51,84 62,90 61,84 27,79 24,70 10,67 10,60 37,63 16,50 44,57 52,65 37,70 58,69 55,75 76,76 61,72 51,61 55,57 70,70 72,64 91,70 103,66 91,67 53,49 53,55 36,47 25,51 25,43 5,42 4,36 12,33 58,44 38,40 42,34 30,32 32,27 58,34" fill="#1e4c78"/><polygon points="383,242 370,246 360,240 357,244 353,237 359,234 339,225 339,233 342,230 347,238 338,256 329,254 334,244 330,244 319,254 325,260 304,273 302,290 279,310 283,316 272,326 280,335 274,341 267,330 268,335 259,344 267,342 269,345 261,353 268,352 269,357 251,357 235,347 209,355 208,359 215,359 209,368 199,370 196,366 201,362 191,363 177,372 177,363 171,355 159,361 162,365 154,373 137,369 131,377 127,374 118,380 136,383 137,378 146,376 149,383 212,383 219,378 220,383 252,379 255,383 350,383 339,378 348,374 349,379 358,383 383,383 383,375 373,369 383,370 383,325 379,324 383,323 383,306 365,296 351,281 362,275 355,268 355,259 383,267 382,253 376,259 365,254 368,257 362,260 345,251 352,250 345,245 348,243 360,250 370,246 379,248" fill="#143c5a"/><polygon points="280,253 269,255 258,262 254,262 252,257 255,248 252,248 245,253 248,251 250,253 249,263 246,267 209,283 206,280 207,268 202,271 204,273 203,282 199,287 163,301 157,299 159,286 153,289 155,291 154,299 150,305 113,318 108,316 111,303 109,302 104,305 106,307 105,315 100,324 105,327 108,326 112,330 110,334 118,335 130,332 138,338 137,341 148,339 162,328 187,320 191,316 200,315 209,309 215,310 222,306 226,307 239,297 243,308 252,307 255,304 267,306 273,303 274,297 272,299 268,294 265,299 254,301 252,299 261,292 255,291 253,288 278,262 276,256" fill="#d6dbe2"/><polygon points="199,191 195,195 193,201 195,207 199,211 208,217 210,217 212,216 213,205 212,201 209,195 205,191" fill="#d6dbe2"/><polygon points="264,194 259,197 258,196 255,199 257,210 261,207 262,208 264,206 266,206 271,203 273,205 270,208 259,212 257,214 250,216 248,218 240,221 238,223 239,249 241,249 243,247 248,246 257,242 265,237 272,235 284,229 286,227 285,222 283,224 279,225 277,223 275,206 272,201 272,199" fill="#d6dbe2"/><polygon points="174,215 167,219 164,218 159,228 162,232 164,233 167,233 171,237 175,237 185,233 187,231 188,227 187,223 185,222 182,222" fill="#143c5a"/><polygon points="267,125 278,136 297,136 290,131 292,129 311,134 323,143 326,142 326,137 333,140 328,143 345,151 328,151 306,142 300,149 313,150 305,154 300,151 298,153 295,149 288,153 285,150 291,146 286,143 282,148 276,145 268,146 277,146 282,152 279,155 274,152 267,153 271,158 283,154 295,162 286,165 283,159 280,170 290,170 295,175 288,176 290,179 302,177 305,170 301,168 305,166 316,171 308,177 315,183 321,180 330,187 353,180 352,175 356,173 343,169 335,174 333,171 337,168 336,165 332,168 309,165 305,162 313,159 322,163 326,159 336,158 346,164 354,161 370,172 363,176 373,180 368,183 380,192 375,194 368,189 360,201 368,206 357,209 356,203 338,220 344,230 355,232 353,230 357,227 362,229 358,232 360,234 354,237 358,240 356,242 361,242 359,240 362,238 370,245 383,242 383,217 375,222 373,219 375,214 383,213 383,210 379,209 383,208 383,155 376,152 383,151 382,148 376,147 383,143 383,135 375,133 358,121 355,122 347,114 337,115 330,108 314,108 308,103 301,104 301,107 307,108 303,113 310,107 321,115 332,116 341,122 332,127 343,128 351,135 349,137 330,132 321,135 314,127 317,124 320,129 327,129 329,127 326,124 301,118 296,111 290,119 301,120 312,128 310,130 283,122 277,126" fill="#1e4c78"/><polygon points="130,203 128,206 128,212 134,218 140,219 143,217 143,213 141,206 137,202 135,201" fill="#d6dbe2"/><polygon points="299,293 277,301 274,308 264,311 269,316 261,322 256,317 247,320 244,327 235,334 231,331 234,328 234,325 237,323 239,325 242,322 235,316 229,325 208,336 205,334 203,336 201,334 202,332 198,331 198,336 190,340 193,342 204,336 206,339 200,345 194,344 189,346 186,343 188,341 182,338 180,342 183,347 182,349 191,350 195,347 199,347 201,351 206,353 202,356 194,355 182,362 179,360 176,365 177,371 182,365 192,362 195,364 197,362 199,364 197,367 202,371 200,373 206,374 208,379 211,379 209,373 201,370 207,365 211,366 210,364 214,357 211,360 206,358 210,354 215,355 224,349 236,346 251,356 265,357 270,355 269,352 271,350 273,351 280,343 270,348 266,354 262,355 260,353 264,350 266,343 262,344 260,342 265,336 267,338 271,337 275,339 274,337 277,334 280,335 277,332 278,331 271,326 283,316 277,313 288,303 287,302 290,299 293,300" fill="#3b556a"/><polygon points="263,155 259,158 258,162 259,164 267,172 267,183 269,181 269,163 267,158" fill="#d6dbe2"/><polygon points="98,154 101,151 107,150 104,147 106,145 113,146 115,148 117,148 121,145 122,143 120,141 122,139 128,143 126,145 132,145 134,141 136,143 134,145 139,146 142,149 147,149 150,152 152,151 155,152 165,152 167,151 171,152 174,149 176,151 175,153 178,156 176,158 172,158 168,156 163,157 167,160 174,161 184,160 186,162 185,163 191,164 194,168 196,166 198,168 197,171 192,174 193,175 191,177 189,175 189,172 183,172 183,174 181,176 174,169 176,167 169,167 166,165 163,165 160,162 161,161 158,159 155,160 148,155 146,157 144,157 142,155 137,160 132,163 130,161 130,159 138,151 130,150 128,156 131,158 129,160 124,157 121,160 117,156 107,155 100,156" fill="#1e4c78"/><polygon points="153,191 152,194 156,198 160,197 162,199 166,200 172,199 177,203 183,202 185,204 185,207 187,206 189,208 190,203 188,198 183,199 180,197 176,197 174,195 176,193 171,192 169,190 169,189 163,186 159,188 156,192" fill="#2a5a89"/><polygon points="187,233 192,235 194,235 196,237 202,237 205,234 209,234 211,233 216,227 212,224 208,226 205,226 201,224 194,216 192,225 190,229 194,228 198,232 196,234 194,232 191,233 189,231" fill="#2a5a89"/><polygon points="131,278 129,276 120,279 116,282 111,282 108,284 105,287 106,298 108,298 114,295 117,295 122,293 122,283 124,281 126,283 127,291 129,291 135,288 135,286 131,281" fill="#d6dbe2"/><polygon points="199,167 201,165 204,164 213,164 218,165 222,169 220,171 214,171 212,169 201,169" fill="#1e4c78"/><polygon points="208,237 206,239 205,245 209,249 209,252 206,255 202,257 194,259 195,260 193,262 195,263 197,261 199,261 201,259 202,260 204,259 206,261 206,264 204,266 206,267 212,263 213,264 217,261 222,260 224,258 226,258 229,256 226,253 230,250 228,248 224,249 221,247 217,246 215,244 216,242 214,240" fill="#8b97aa"/><polygon points="234,221 233,224 230,227 228,231 229,238 231,242 231,245 233,247 235,244" fill="#2a5a89"/><polygon points="147,119 151,116 155,116 161,118 163,117 165,119 165,120 173,122 176,118 184,119 194,118 197,116 200,120 198,122 191,123 196,125 199,124 201,127 199,129 191,127 183,127 178,128 170,127 168,125 165,128 162,128 160,126 161,123 159,121 157,123 158,125 156,127 154,127 152,125 152,123" fill="#2a5a89"/><polygon points="119,139 121,137 122,138 124,133 126,131 128,131 130,133 135,132 139,132 141,134 145,133 143,131 142,132 140,130 143,127 152,131 154,130 161,133 164,131 169,131 171,134 168,137 163,138 161,136 154,136 150,135 152,137 150,139 144,138 140,140 145,144 147,142 151,143 155,139 157,141 159,140 161,142 158,144 158,147 163,146 167,150 168,149 171,149 173,151 171,153 167,152 165,153 153,153 150,150 142,150 139,147 135,147 133,145 134,142 127,147 125,145 127,143 124,141 121,141" fill="#2a5a89"/><polygon points="170,91 167,96 169,98 167,100 161,99 156,100 154,98 150,97 139,99 135,101 133,99 126,99 124,100 120,96 117,95 114,98 102,97 97,91 99,89 101,90 104,89 107,91 112,89 119,91 125,90 130,91 132,89 152,92 150,90 154,86 156,87 158,85 160,87 155,93 157,95 160,92 163,92 162,90 168,89" fill="#2a5a89"/></svg>