<svg xmlns="http://www.w3.org/2000/svg" width="605" height="320" viewBox="0 0 384 384"><rect width="384" height="384" fill="#3e6387"/><path d="M0,0Q5,51 9,52Q0,81 0,108Q23,108 28,116Q30,104 27,102Q40,103 35,111Q31,121 19,122Q0,117 0,122Q9,129 0,131Q24,137 37,135Q49,146 48,151Q73,150 71,156Q27,163 32,170Q27,186 23,187Q45,190 44,193Q81,216 72,215Q60,216 52,209Q19,212 36,219Q51,219 50,222Q70,231 66,236Q85,230 89,233Q82,243 85,249Q69,244 58,248Q75,246 75,250Q91,249 90,241Q97,233 91,228Q98,221 96,214Q109,241 105,246Q121,220 119,207Q88,201 80,206Q79,189 74,187Q99,181 90,186Q106,188 109,192Q103,196 107,198Q131,183 138,183Q133,193 139,196Q183,180 183,184Q167,201 176,205Q193,182 189,178Q204,173 213,164Q229,184 226,191Q235,183 235,177Q225,154 237,147Q234,144 233,148Q224,136 230,128Q212,119 204,108Q192,112 192,105Q159,99 162,93Q190,100 201,96Q213,106 210,109Q227,110 232,114Q225,99 223,103Q215,90 209,90Q221,84 220,81Q204,83 195,79Q229,75 223,71Q236,72 242,82Q254,90 245,94Q261,100 250,102Q297,126 291,129Q279,125 279,129Q254,116 250,110Q270,131 297,140Q345,131 348,134Q347,143 357,147Q327,149 323,154Q313,147 306,149Q253,136 252,142Q272,151 266,152Q277,159 274,163Q280,167 281,163Q296,171 289,171Q295,202 298,200Q298,193 304,198Q315,188 321,189Q320,184 328,187Q318,174 322,171Q338,178 339,174Q354,171 353,166Q332,166 328,160Q372,145 362,137Q383,124 383,107Q368,116 366,114Q368,107 361,108Q359,99 353,97Q382,100 383,105Q375,77 368,76Q370,51 357,43Q349,48 360,56Q330,53 325,58Q280,46 279,50Q272,50 285,56Q309,58 316,65Q325,64 352,63Q357,70 363,70Q367,81 374,84Q353,85 336,80Q345,105 339,107Q344,119 341,121Q317,104 303,102Q297,107 292,104Q285,104 286,97Q293,95 289,90Q281,89 286,86Q243,69 233,59Q218,66 220,73Q200,71 208,76Q181,77 177,82Q169,65 176,60Q139,55 144,59Q138,63 139,60Q112,52 102,52Q106,39 120,41Q115,25 119,24Q94,27 78,35Q77,40 67,36Q59,37 61,31Q71,27 67,23Q82,20 78,15Q100,17 96,16Q88,11 72,10Q63,15 54,9Q49,13 46,7Q59,0 22,0Q25,5 20,7Q14,6 14,11" fill="#235280"/><path d="M32,4Q60,11 62,8Q72,11 74,8Q76,14 72,19Q78,24 66,25Q75,31 71,35Q81,39 77,35Q90,31 92,35Q96,27 91,27Q109,20 110,18Q120,27 130,26Q125,20 127,18Q168,30 171,29Q166,26 168,24Q179,29 175,31Q193,38 190,40Q211,50 199,56Q195,49 198,47Q185,49 183,47Q172,41 157,38Q134,29 131,31Q149,43 144,47Q137,43 139,40Q129,40 128,44Q118,40 119,43Q113,40 114,37Q102,41 99,38Q97,45 102,51Q129,58 136,65Q138,54 135,50Q151,52 153,54Q159,57 170,56Q169,62 164,63Q182,71 195,74Q216,93 235,104Q230,108 236,111Q236,85 239,82Q255,88 263,86Q241,79 242,76Q231,66 233,65Q220,63 217,58Q238,63 236,66Q248,70 245,70Q266,79 286,82Q290,93 298,101Q284,99 287,103Q286,107 291,109Q289,104 292,103Q302,106 303,101Q342,109 338,106Q346,102 341,99Q342,91 335,89Q346,83 355,83Q357,89 359,86Q375,88 372,83Q358,74 364,72Q324,66 318,69Q292,54 285,57Q277,50 282,48Q275,43 277,42Q321,56 318,58Q338,54 340,51Q335,48 340,46Q345,51 344,53Q377,65 373,73Q382,60 382,46Q371,39 368,41Q355,30 362,29Q356,21 358,18Q375,27 381,28Q374,33 368,32Q383,30 383,23Q365,12 368,9Q381,7 381,0Q292,2 291,4Q256,0 233,0Q164,2 97,0Q73,5 62,3Q40,4 35,0" fill="#2d5c8c"/><path d="M286,250Q267,256 251,265Q237,270 226,277Q206,280 204,278Q204,275 203,277Q182,292 159,301Q152,301 149,305Q109,315 107,313Q125,298 140,293Q106,305 108,307Q106,312 107,314Q95,324 90,326Q92,332 91,335Q99,340 102,341Q124,338 126,339Q136,339 139,341Q151,325 157,322Q163,317 164,318Q164,324 165,324Q181,321 196,315Q196,312 199,311Q206,312 212,310Q215,310 217,309Q218,313 217,314Q221,315 222,315Q221,309 224,307Q239,304 240,303Q244,306 244,305Q250,296 248,295Q260,295 265,299Q264,280 270,273Q281,263 282,260L279,256Z" fill="#cad0da"/><path d="M0,132Q4,154 9,155Q0,181 0,202Q6,206 5,208Q0,222 1,239Q3,243 0,244Q1,262 0,263Q2,277 1,286Q15,286 18,285Q23,285 25,282Q33,289 39,292Q34,300 39,303Q45,293 51,291Q56,287 61,287Q41,276 38,277Q43,267 48,264Q64,274 68,275Q68,264 66,262Q72,260 71,259Q76,258 79,259Q77,244 81,241Q87,244 88,241Q86,237 90,235Q92,240 94,239Q78,233 68,232Q69,225 66,224Q68,219 67,218Q84,214 79,212Q81,208 81,210Q55,201 54,204Q45,197 49,196Q46,189 44,188Q31,185 27,181Q49,176 57,179Q63,178 64,179Q47,180 42,177Q44,182 49,183Q61,186 68,182Q67,189 64,191Q70,189 69,188Q75,176 69,173Q79,171 81,168Q66,167 65,164Q54,156 57,154Q63,155 67,153Q87,159 91,163Q102,163 107,166Q119,167 118,171Q130,174 135,178Q147,176 148,178Q138,187 150,185Q151,179 154,178Q142,171 138,172Q130,161 124,158Q116,159 116,157Q101,156 90,152Q74,150 72,147Q59,147 45,152Q46,146 49,142Q40,140 38,137Q26,138 20,136Q8,136 6,132" fill="#1a4770"/><path d="M358,258Q345,249 344,245Q336,254 335,253Q328,253 327,252Q326,249 320,254Q318,266 311,273Q303,280 303,287Q300,300 302,306Q292,303 290,301Q285,307 279,312Q280,321 273,326Q283,328 285,327Q288,334 292,334Q292,342 286,344Q298,348 300,351Q289,352 289,350Q276,349 271,353Q262,357 254,358Q234,350 233,353Q221,352 219,355Q210,357 210,359Q215,357 216,359Q207,370 210,370Q219,379 228,382Q249,377 252,373Q262,375 262,377Q260,381 266,383Q268,380 272,383Q338,379 329,375Q323,375 322,372Q327,371 330,373Q337,373 339,376Q353,378 359,383Q380,380 377,378Q376,374 372,375Q370,368 367,367Q383,355 383,341Q380,334 383,329Q380,322 383,322Q379,319 376,321Q352,308 345,306Q358,304 366,306Q366,303 368,302Q380,313 383,313Q378,305 374,305Q365,298 361,298Q356,288 352,286Q352,282 350,281Q356,271 352,268Q353,262 350,260" fill="#133957"/><path d="M164,218Q161,222 160,224Q161,229 162,232Q168,234 170,236Q173,237 175,237Q185,232 187,231Q186,223 184,222Q181,222 180,222Q172,216 170,217L168,219Z" fill="#133957"/><path d="M200,191Q195,195 195,196Q197,204 200,209Q203,210 205,212Q208,213 210,214Q213,208 213,206Q210,197 209,195Q205,191 204,191" fill="#e3e8ed"/><path d="M274,206Q269,209 268,211Q267,218 265,220Q263,216 263,214Q263,212 262,213Q254,216 253,218Q249,218 248,219Q239,223 238,224Q239,236 241,238Q244,239 244,240Q248,239 250,238Q256,235 258,234Q259,230 261,229Q267,230 270,229Q272,225 273,224Q273,221 274,220Q275,223 275,224Q277,223 275,221Q275,213 274,211Q272,211 271,210Q273,208 274,209" fill="#e3e8ed"/><path d="M131,203Q129,208 130,210Q138,215 139,215Q141,213 142,210Q138,203 136,202" fill="#e3e8ed"/><path d="M201,175Q203,178 203,180Q208,181 210,181Q218,191 221,193Q222,188 221,186Q225,183 227,182Q222,177 219,176Q216,178 215,178Q212,176 211,176Q205,173 204,173" fill="#235280"/><path d="M269,191Q268,196 267,197Q263,194 262,194Q255,200 254,202Q255,205 256,207Q254,214 252,217Q256,220 259,220Q260,215 263,213Q263,216 261,218Q262,224 260,226Q255,230 253,231Q254,235 255,236Q246,242 240,245Q240,248 241,249Q261,240 262,239Q273,234 275,233Q279,231 281,230Q285,226 285,224Q276,227 273,230Q268,231 267,232Q267,228 269,226Q266,224 266,225Q265,222 266,221Q267,217 269,216Q271,219 272,221Q276,221 277,220Q275,216 276,215Q274,210 273,208Q273,205 272,204Q272,202 271,201Q271,194 271,193" fill="#cad0da"/><path d="M185,238Q175,242 174,244Q174,249 174,251Q177,252 178,254Q175,259 176,260Q179,265 179,267Q181,261 182,256Q185,253 186,254Q187,249 186,248" fill="#cad0da"/><path d="M208,237Q205,239 205,241Q207,247 209,249Q207,253 205,255Q205,258 207,260Q206,265 205,267Q211,261 210,260Q216,255 217,256Q227,250 229,249Q225,248 224,249Q219,246 217,246Q214,240 213,240" fill="#8592a6"/><path d="M364,196Q346,217 349,220Q343,219 340,216Q338,221 339,225Q342,225 343,226Q347,231 351,231Q351,227 353,226Q351,215 355,209Q369,213 374,217Q379,216 380,217Q372,220 370,219Q364,221 361,221Q356,219 353,220Q358,225 357,226Q359,225 359,225Q364,224 367,225Q375,225 379,226Q382,231 381,232Q371,230 371,229Q362,230 360,232Q352,235 353,237Q347,241 346,240Q345,245 348,248Q347,253 350,255Q350,252 348,250Q354,249 358,251Q359,258 357,260Q354,262 357,265Q356,271 360,274Q352,284 354,287Q357,287 359,286Q361,294 360,296Q363,296 367,298Q373,295 377,298Q383,281 383,264Q378,264 377,263Q366,261 365,260Q371,258 376,259Q381,257 383,259Q380,222 378,221Q383,214 383,212Q374,206 372,203Q375,202 377,204Q382,202 382,201" fill="#1a4770"/><path d="M98,160Q102,158 104,159Q103,156 104,155Q104,151 107,150Q110,155 109,156Q114,159 116,160Q119,157 119,156Q118,152 120,151Q125,155 126,154Q127,157 126,158Q126,162 127,161Q130,162 132,163Q137,163 138,164Q138,169 138,171Q140,169 140,169Q144,168 147,170Q153,167 156,167Q162,163 165,164Q166,161 168,160Q165,155 166,154Q169,152 171,152Q173,158 170,160Q177,161 179,161Q182,166 183,165Q191,168 195,171Q191,172 190,172Q184,173 183,171Q179,172 177,171Q175,167 176,166Q172,165 170,167Q172,174 171,175Q162,168 158,169Q154,172 152,173Q153,176 155,178Q150,178 149,177Q145,177 144,178Q140,177 139,176Q134,177 133,176Q127,174 126,172Q120,170 119,169Q119,166 117,166Q113,164 112,165Q109,168 108,168Q103,164 100,163" fill="#235280"/><path d="M242,322Q234,319 233,320Q214,333 208,336Q202,335 201,334Q200,331 198,331Q197,336 195,338Q185,339 182,338Q181,345 183,348Q177,350 176,349Q176,345 175,344Q175,339 174,337Q167,337 168,338Q165,348 166,349Q172,347 173,349Q166,352 165,351Q156,353 155,352Q151,348 147,348Q143,357 139,362Q134,358 131,354Q132,348 132,347Q114,359 113,358Q107,364 107,367Q106,372 103,375Q102,365 105,361Q99,363 100,364Q94,371 93,374Q96,382 95,383Q89,381 88,383Q109,381 115,379Q116,382 116,383Q119,381 118,380Q128,375 131,377Q138,369 139,370Q144,368 147,369Q150,372 151,371Q154,370 154,369Q159,365 162,365Q156,358 157,357Q165,359 168,358Q172,355 174,357Q187,350 191,350Q199,350 204,354Q198,355 194,355Q181,361 180,360Q177,362 178,363Q176,368 177,371Q184,364 186,365Q197,366 202,371Q205,374 208,374Q204,367 207,365Q211,362 214,357Q208,359 206,358Q212,354 215,355Q226,349 229,349Q231,345 230,344Q233,339 232,338Q236,334 237,333Q233,332 231,331Q238,324 239,325" fill="#3a5469"/></svg>