<svg xmlns="http://www.w3.org/2000/svg" width="605" height="320" viewBox="0 0 384 384"><rect width="384" height="384" fill="#3e6387"/><polygon points="0,0 1,50 9,52 0,54 0,108 19,101 28,116 34,106 27,102 45,96 35,111 43,120 19,122 1,113 0,122 19,127 0,131 12,139 37,135 50,142 48,151 76,144 71,156 23,156 32,170 31,185 23,187 47,188 44,193 90,217 72,215 68,223 52,209 2,206 36,219 53,216 50,222 74,227 66,236 82,228 89,233 80,237 85,249 80,241 58,248 76,242 75,250 92,258 90,241 103,238 91,228 101,229 96,214 113,237 105,246 123,234 119,207 96,197 80,206 84,192 74,187 109,177 90,186 103,184 109,192 99,195 107,198 125,184 138,183 128,191 139,196 183,176 183,184 159,198 176,205 197,187 189,178 195,182 213,164 232,177 226,191 235,189 235,177 214,161 237,147 235,140 233,148 218,144 230,128 221,130 204,108 193,119 192,105 156,106 162,93 180,104 201,96 216,104 210,109 223,106 232,114 228,96 223,103 221,91 209,90 222,88 220,81 213,88 195,79 235,80 223,71 231,63 242,82 264,86 245,94 272,99 250,102 304,124 291,129 280,122 279,129 259,123 250,110 244,123 297,140 342,129 348,134 337,139 357,147 331,144 323,154 321,146 306,149 254,131 252,142 278,150 266,152 280,156 274,163 280,171 281,163 303,172 289,171 292,204 298,200 292,189 304,198 309,188 321,189 312,181 328,187 314,177 322,171 338,183 339,174 356,176 353,166 337,172 328,160 383,153 362,137 383,142 383,107 371,119 366,114 375,107 361,108 366,102 353,97 381,96 383,105 383,78 368,76 383,60 357,43 339,40 360,56 336,48 325,58 282,42 279,50 259,44 285,56 303,52 316,65 299,66 352,63 352,71 363,70 360,78 374,84 371,90 336,80 351,104 339,107 348,118 341,121 331,107 303,102 303,111 292,104 284,112 286,97 297,100 289,90 276,92 286,86 254,79 233,59 216,60 220,73 193,66 208,76 186,72 177,82 162,71 176,60 134,52 144,59 137,67 139,60 123,52 102,52 93,38 120,41 112,27 119,24 111,20 78,35 88,45 67,36 58,44 61,31 76,32 67,23 87,25 78,15 104,19 96,16 104,13 72,10 73,21 54,9 52,19 46,7 96,0 22,0 31,3 20,7 14,1 14,11" fill="#235280"/><polygon points="32,4 59,15 62,8 71,14 74,8 81,10 72,19 91,24 66,25 79,28 71,35 86,44 77,35 88,28 92,35 101,27 91,27 109,23 110,18 111,29 130,26 123,23 127,18 165,32 171,29 164,29 168,24 183,27 175,31 196,37 190,40 224,44 199,56 192,52 198,47 188,51 183,47 187,44 157,38 138,27 131,31 154,39 144,47 136,46 139,40 131,37 128,44 117,37 119,43 113,43 114,37 105,44 99,38 92,40 102,51 123,51 136,65 142,58 135,50 149,50 153,54 149,59 170,56 175,62 164,63 169,69 195,74 197,83 235,104 224,106 236,111 234,88 239,82 247,90 263,86 241,82 242,76 229,68 233,65 224,68 217,58 241,60 236,66 252,70 245,70 247,76 286,82 282,86 298,101 282,96 287,103 281,106 291,109 287,105 292,103 301,111 303,101 346,113 338,106 352,106 341,99 350,94 335,89 338,83 355,83 355,92 359,86 378,93 372,83 352,76 364,72 330,64 318,69 299,52 285,57 272,52 282,48 274,45 277,42 324,54 318,58 337,57 340,51 330,51 340,46 347,50 344,53 381,58 373,73 383,74 382,46 374,38 368,41 349,32 362,29 355,24 358,18 369,27 381,28 381,34 368,32 383,37 383,23 363,15 368,9 382,14 381,0 293,0 291,4 280,0 233,0 232,4 97,0 84,8 62,3 45,8 35,0" fill="#2d5c8c"/><polygon points="286,250 284,248 251,265 248,264 226,277 209,283 204,278 206,274 203,277 205,283 159,301 155,298 149,305 111,318 107,313 111,303 140,293 105,304 108,307 105,310 107,314 100,322 90,326 93,329 91,335 96,340 102,341 123,337 126,339 134,337 139,341 146,328 157,322 162,316 164,318 163,325 165,324 167,328 196,315 194,313 199,311 201,315 212,310 214,312 217,309 219,312 217,314 220,316 222,315 219,312 224,307 239,306 240,303 245,307 244,305 253,298 248,295 255,291 265,299 258,287 270,273 280,267 282,260 279,256" fill="#cad0da"/><polygon points="0,132 0,153 9,155 0,160 0,202 8,205 5,208 0,206 1,239 6,242 0,244 3,261 0,263 3,268 1,286 13,288 18,285 21,288 25,282 27,287 39,292 29,298 39,303 39,295 51,291 52,287 61,287 44,275 38,277 38,270 48,264 60,274 68,275 70,266 66,262 74,262 71,259 74,257 79,259 73,248 81,241 86,247 88,241 83,239 90,235 91,242 94,239 89,234 68,232 73,227 66,224 70,221 67,218 89,217 79,212 81,206 81,210 56,199 54,204 42,198 49,196 49,191 44,188 35,190 27,181 41,174 57,179 62,177 64,179 52,184 42,177 40,182 49,183 54,190 68,182 70,187 64,191 71,190 69,188 82,179 69,173 78,174 81,168 67,170 65,164 51,159 57,154 60,157 67,153 83,155 91,163 98,160 107,166 120,164 118,171 125,170 135,178 146,175 148,178 126,189 150,185 149,181 154,178 146,170 138,172 137,164 124,158 116,161 116,157 112,160 90,152 77,153 72,147 73,142 45,152 43,150 49,142 42,144 38,137 33,140 20,136 11,140 6,132" fill="#1a4770"/><polygon points="358,258 346,254 344,245 338,256 335,253 329,255 327,252 332,244 320,254 326,259 311,273 304,273 303,287 298,294 302,306 294,306 290,301 292,303 279,312 288,316 273,326 281,330 285,327 285,334 292,334 299,341 286,344 296,346 300,351 290,355 289,350 281,346 271,353 271,357 254,358 235,347 233,353 224,350 219,355 210,355 210,359 214,356 216,359 204,371 210,370 210,376 228,382 247,381 252,373 262,373 262,377 254,380 266,383 265,378 272,383 347,383 329,375 325,378 322,372 325,369 330,373 336,371 339,376 348,373 359,383 383,383 377,378 380,374 372,375 373,370 367,367 383,369 383,341 378,339 383,329 377,323 383,322 383,317 376,321 360,310 345,306 351,302 366,306 364,304 368,302 378,313 383,313 382,306 374,305 370,298 361,298 361,290 352,286 354,284 350,281 361,275 352,268 356,265 350,260" fill="#133957"/><polygon points="164,218 163,221 160,224 160,227 162,232 167,232 170,236 172,237 175,237 183,234 187,231 188,225 184,222 182,223 180,222 175,216 170,217 168,219" fill="#133957"/><polygon points="200,191 196,194 195,196 195,199 200,209 202,209 205,212 207,212 210,214 213,211 213,206 211,199 209,195 206,192 204,191" fill="#e3e8ed"/><polygon points="274,206 270,208 268,211 269,217 265,220 263,218 263,214 264,211 262,213 256,215 253,218 250,217 248,219 240,222 238,224 238,235 241,238 244,239 244,240 246,241 250,238 255,237 258,234 258,232 261,229 264,232 270,229 271,226 273,224 272,222 274,220 276,222 275,224 279,225 275,221 276,216 274,211 273,212 271,210 273,208 274,209" fill="#e3e8ed"/><polygon points="131,203 128,207 130,210 137,216 139,215 141,217 142,210 140,205 136,202" fill="#e3e8ed"/><polygon points="201,175 203,177 203,180 207,182 210,181 216,189 221,193 224,191 221,186 223,184 227,182 225,178 219,176 217,178 215,178 213,176 211,176 207,173 204,173" fill="#235280"/><polygon points="269,191 269,195 267,197 264,194 262,194 256,198 254,202 254,204 256,207 256,212 252,217 253,221 259,220 257,218 263,213 265,215 261,218 265,222 260,226 258,229 253,231 253,234 255,236 252,239 240,245 239,247 241,249 260,241 262,239 271,236 275,233 277,233 281,230 286,228 285,224 280,224 273,230 269,230 267,232 265,230 269,226 267,224 266,225 264,223 266,221 266,219 269,216 271,218 272,221 275,223 277,220 274,217 276,215 276,212 273,208 275,206 272,204 273,203 271,201 272,196 271,193" fill="#cad0da"/><polygon points="185,238 177,240 174,244 175,247 174,251 176,251 178,254 175,258 176,260 180,263 179,267 181,266 182,256 185,253 186,254 188,250 186,248" fill="#cad0da"/><polygon points="208,237 206,238 205,241 205,245 209,249 209,252 205,255 204,257 207,260 207,263 205,267 212,263 210,260 215,255 217,256 226,252 229,249 226,248 224,249 221,247 217,246 215,240 213,240" fill="#8592a6"/><polygon points="364,196 343,215 349,220 346,223 340,216 338,218 339,225 341,224 343,226 344,231 351,231 350,229 353,226 348,221 355,209 365,210 374,217 378,215 380,217 375,222 370,219 368,221 361,221 359,219 353,220 359,224 357,226 360,226 359,225 361,223 367,225 371,224 379,226 383,230 381,232 372,232 371,229 365,228 360,232 352,233 353,237 348,242 346,240 343,243 348,248 345,252 350,255 353,254 348,250 350,248 358,251 362,256 357,260 351,260 357,265 353,268 360,274 351,281 354,287 356,288 359,286 363,293 360,296 359,295 367,298 369,293 377,298 383,299 383,264 380,266 377,263 368,263 365,260 367,258 376,259 380,256 383,259 383,224 378,221 383,217 383,212 377,209 372,203 374,201 377,204 383,204 382,201" fill="#1a4770"/><polygon points="98,160 100,158 104,159 102,157 104,155 102,153 107,150 111,154 109,156 112,159 116,160 119,158 119,156 117,154 120,151 124,156 126,154 128,156 126,158 125,163 127,161 129,161 132,163 136,162 138,164 139,167 138,171 141,170 140,169 142,167 147,170 151,167 156,167 159,162 165,164 164,163 168,160 165,157 166,154 168,152 171,152 176,156 170,160 175,162 179,161 181,167 183,165 187,166 195,171 193,173 190,172 186,175 183,171 181,173 177,171 175,169 176,166 174,164 170,167 174,173 171,175 166,168 158,169 157,172 152,173 152,175 155,178 152,180 149,177 146,176 144,178 141,178 139,176 135,179 133,176 129,176 126,172 121,172 119,169 122,166 117,166 115,164 112,165 110,168 108,168 106,165 100,163" fill="#235280"/><polygon points="242,322 236,319 233,320 220,331 208,336 203,336 201,334 202,332 198,331 199,334 195,338 188,341 182,338 180,342 183,348 178,351 176,349 178,347 175,344 177,342 174,337 167,336 168,338 164,347 166,349 171,346 173,349 167,353 165,351 158,355 155,352 155,349 147,348 147,353 139,362 137,362 131,354 133,350 132,347 115,360 113,358 108,362 107,367 110,370 103,375 100,370 105,361 98,362 100,364 95,368 93,374 98,381 95,383 90,379 88,383 104,383 115,379 117,381 116,383 120,383 118,380 126,374 131,377 137,368 139,370 142,368 147,369 149,373 151,371 154,372 154,369 157,366 162,365 155,359 157,357 162,360 168,358 171,354 174,357 183,350 191,350 195,347 204,354 202,356 194,355 182,362 180,360 176,361 178,363 176,365 177,371 183,364 186,365 192,362 202,371 202,374 208,374 201,370 207,365 209,367 214,357 211,360 206,358 210,354 215,355 224,349 229,349 232,346 230,344 234,340 232,338 236,336 237,333 235,334 231,331 237,323 239,325" fill="#3a5469"/></svg>