<svg xmlns="http://www.w3.org/2000/svg" width="1279" height="1706" viewBox="0 0 384 384">
<rect width="384" height="384" fill="#9a91a4"/>
<polygon points="57,0 63,10 94,14 92,27 119,57 164,62 137,73 134,65 137,74 123,81 196,68 232,80 260,103 242,85 251,80 244,66 234,80 193,64 203,58 251,63 284,84 383,79 383,0" fill="#8cc1fd"/>
<polygon points="119,138 99,165 111,175 87,203 106,293 117,276 119,303 125,265 131,296 134,284 142,305 139,286 149,311 197,335 177,328 202,372 233,372 245,284 254,293 253,231 215,256 227,316 225,303 156,279 126,201 98,216" fill="#1f1427"/>
<polygon points="265,108 270,121 275,118 278,121 272,123 271,127 277,144 286,147 292,162 281,184 383,183 383,122 370,120 382,115 328,104 312,107 317,110 316,115 305,113 301,108 282,110 273,107 274,113 270,107" fill="#f3fbfa"/>
<polygon points="134,186 146,223 170,243 191,249 187,261 196,271 209,252 233,247 254,228 267,193 247,193 253,209 245,227 239,221 222,224 223,218 241,214 235,192 244,192 224,182 222,192 200,202 220,207 213,211 224,213 204,219 224,225 205,229 213,232 177,222 192,196 164,196 162,202 158,186 156,192 143,176" fill="#c8857a"/>
<polygon points="0,89 0,183 24,183 26,180 32,183 63,181 64,183 68,165 66,163 68,161 69,163 71,155 65,154 72,150 70,149 81,132 79,131 83,129 88,114 85,116 85,113 71,110 71,107 29,102 30,100 23,100" fill="#f3fbfa"/>
<polygon points="0,285 0,310 22,315 2,314 97,334 56,331 56,335 107,340 148,358 98,316 51,303 78,306 40,279 47,264 23,262" fill="#eda2be"/>
<polygon points="272,190 276,204 291,204 287,216 304,219 281,218 286,229 278,240 336,272 345,266 336,249 343,216 356,218 356,226 358,220 359,241 361,232 367,236 360,244 368,248 362,249 365,267 364,259 371,259 366,253 383,250 383,225 373,220 383,216 351,216 364,209 383,213 383,185" fill="#c8c9cd"/>
<polygon points="0,0 0,19 18,11 54,15 71,23 79,37 79,32 95,41 90,45 104,53 90,58 48,45 24,48 42,61 0,53 0,88 23,99 71,106 88,119 88,111 127,80 122,78 136,74 134,64 137,72 167,60 119,58 94,32 96,20 87,11 82,16 63,11 56,0 47,7 29,0 26,11 16,11 18,0" fill="#b5e3fb"/>
<polygon points="131,168 127,191 139,222 166,245 159,251 165,260 161,264 170,285 217,298 216,291 208,284 209,266 215,253 209,253 196,270 186,261 191,250 178,243 170,244 149,228 133,193 136,180 143,175 147,178 148,170" fill="#ad6e63"/>
<polygon points="151,108 130,123 128,114 119,133 112,120 110,139 102,148 99,138 102,151 93,156 91,147 81,180 95,174 103,181 97,188 127,169 110,184 120,176 118,186 98,190 103,234 103,209 125,199 161,281 150,243 156,240 135,221 123,189 136,154 176,120 157,125 145,144 155,126 137,126 134,118" fill="#4b3144"/>
<polygon points="265,263 263,269 274,277 277,274 278,301 269,308 275,304 276,311 242,353 236,352 234,369 243,364 261,374 263,383 291,383 293,360 281,347 281,339 297,328 287,328 315,305 319,312 318,308 329,306 323,317 337,308 315,283 287,276" fill="#936f8b"/>
<polygon points="190,62 199,66 203,63 203,68 215,67 216,71 210,71 233,77 241,85 234,75 242,77 243,72 246,89 257,91 258,96 253,94 262,106 270,106 274,112 274,107 301,107 316,114 312,106 328,103 383,115 383,80 284,85 264,77 251,64 232,59 219,66 204,59" fill="#b5e3fb"/>
<polygon points="208,96 203,99 205,102 203,104 202,102 202,104 206,105 205,108 202,109 206,112 206,118 212,119 207,121 209,123 201,129 204,130 201,139 202,146 210,149 214,155 222,159 231,152 230,151 235,146 237,147 248,141 254,141 259,132 253,124 246,119 243,120 240,114 237,117 229,116 217,105 218,104 215,104 218,101 216,102 213,100 214,98 211,99" fill="#c8857a"/>
<polygon points="208,106 201,104 198,110 176,128 170,136 147,148 139,156 138,165 147,165 152,151 157,146 169,146 172,144 206,148 201,146 200,139 203,130 200,129 202,127 206,128 202,127 208,123 206,122 207,120 211,119 206,119 204,114 206,111 209,112" fill="#ad6e63"/>
<polygon points="225,164 218,165 222,167 219,173 218,169 215,180 204,191 191,198 190,209 178,218 181,226 212,232 205,228 223,225 201,224 195,219 215,219 211,214 223,213 214,213 212,208 219,207 214,204 203,205 199,202 202,198 211,198 214,193 217,197 215,191 222,191 223,187 225,189 224,181 233,183 240,189 226,177" fill="#ad6e63"/>
<polygon points="383,357 353,336 374,353 362,351 338,320 347,319 337,309 323,318 328,306 321,311 316,307 325,304 322,300 292,322 288,329 297,329 286,334 281,344 294,360 292,383 304,379 295,380 294,366 306,379 329,382 334,372 332,339 343,333 360,348 348,357 354,359 341,374 350,372 363,352" fill="#745065"/>
<polygon points="0,20 0,52 42,60 35,53 23,48 43,48 48,44 51,49 61,49 69,54 85,54 90,57 103,54 89,45 94,41 90,37 79,33 81,37 79,38 70,30 73,28 71,24 62,23 54,16 52,18 34,13 18,12" fill="#f3fbfa"/>
<polygon points="269,243 290,253 288,264 305,270 302,274 326,280 332,294 355,298 337,298 360,306 352,310 356,323 376,315 370,329 383,331 378,323 383,309 355,321 355,310 362,306 357,302 371,298 346,293 355,293 348,284 358,289 349,279 361,280 377,293 373,296 383,291 383,281 364,270 356,232 359,254 353,260 344,257 340,239 347,263 340,274 276,240" fill="#c8857a"/>
<polygon points="68,184 62,200 51,193 57,207 28,204 17,216 0,217 0,234 10,234 0,238 3,248 11,233 18,235 12,245 31,235 30,249 41,241 36,235 48,237 41,245 47,248 52,233 69,233 69,248 58,253 67,278 68,269 83,271 78,261 72,266 75,225 71,233 34,238 7,228 23,219 19,225 72,224 70,205 71,214 63,212 72,195" fill="#a59fa5"/>
<polygon points="199,149 198,151 192,149 195,148 186,150 183,148 177,148 183,148 183,150 175,150 164,153 159,160 161,164 159,166 158,163 157,171 163,171 158,175 161,175 163,177 163,181 165,181 163,178 166,177 167,179 169,174 171,176 173,174 175,176 181,175 182,185 184,183 182,177 186,176 186,167 190,160 189,159 200,152" fill="#4b3144"/>
<polygon points="90,186 75,214 82,215 84,207 79,234 98,282 89,277 95,296 104,298 99,310 123,328 121,321 130,323 132,317 127,319 127,303 119,308 115,294 109,301 111,289 107,297 103,295 109,287 101,284 97,272 104,277 98,271 102,270 98,265 104,265 100,255 93,254 101,247 91,246 95,243 91,229 86,230 92,226 86,214 92,200 84,196 91,193 94,199 96,190 91,188 90,193" fill="#4b3144"/>
<polygon points="126,325 142,350 136,338 147,340 148,350 163,358 148,356 164,371 155,361 169,363 161,363 169,366 167,374 176,383 181,375 192,376 191,361 203,376 187,351 196,346 178,339 176,328 190,334 188,329 167,323 152,308 150,314 169,324 167,332 177,332 172,334 176,339 161,335 174,341 165,347 153,332 150,341 136,335 143,335 134,329 134,321" fill="#4b3144"/>
<polygon points="88,341 93,343 93,371 88,371 86,383 96,383 96,371 100,361 104,362 115,383 129,383 132,378 142,375 141,371 145,359 143,360 127,349 124,350 123,348 120,349 119,346 117,348 113,346 126,361 119,361 109,356 103,345 105,344 102,342 94,344" fill="#4b3144"/>
<polygon points="83,152 77,164 85,163 74,174 72,213 78,224 76,254 89,282 84,281 83,289 77,285 81,282 67,279 75,285 72,289 57,255 56,264 68,287 79,286 75,289 83,294 83,289 85,296 93,292 86,284 94,279 83,250 87,246 79,242 82,224 76,227 83,213 75,209 78,196 86,189 88,194 86,188 93,184 81,195 76,192 88,181 80,180 90,163 85,166" fill="#745065"/>
<polygon points="177,98 175,94 171,99 169,91 163,95 168,94 166,100 159,93 160,88 159,95 152,87 143,88 142,81 137,81 143,76 138,76 133,89 132,79 118,89 127,92 117,99 119,94 114,94 112,100 121,104 111,107 117,113 113,112 111,116 115,116 107,117 107,121 117,110 122,113 118,107 123,108 126,102 121,99 135,103 139,98 143,103 137,104 141,105 133,111 137,112 154,102 157,104 153,110 159,106 161,109 172,98 174,105" fill="#a59fa5"/>
<polygon points="79,138 72,148 70,159 73,161 67,163 68,173 63,178 67,180 61,186 48,186 52,190 40,191 39,196 34,195 38,191 34,189 31,195 26,193 30,191 21,191 23,196 15,191 10,195 0,193 0,200 4,201 0,205 12,204 10,218 15,218 10,217 17,215 17,209 28,203 51,208 58,205 54,204 59,199 54,200 51,196 60,195 62,199 65,195 64,186 70,183 72,164 76,160 72,152" fill="#c8c9cd"/>
<polygon points="127,172 124,189 138,224 157,240 156,243 151,243 161,256 156,255 160,268 159,274 163,278 160,279 169,285 162,273 164,272 160,264 163,265 161,263 164,260 158,251 159,247 165,248 165,245 138,222 126,191 129,175" fill="#745065"/>
<polygon points="250,251 248,252 249,257 247,267 250,265 251,270 246,283 247,277 249,274 252,284 250,290 254,292 253,293 267,307 266,308 268,307 266,301 259,293 255,283 259,277 263,281 263,284 264,282 272,292 275,292 275,282 269,277 269,274 260,268 264,263 262,262 261,266 258,267 256,262 260,261 257,261 252,257 252,259 250,259 249,254 252,253" fill="#4b3144"/>
<polygon points="257,193 248,192 244,190 242,190 245,192 244,193 242,193 240,191 237,191 236,192 239,195 240,200 243,204 244,209 242,211 243,212 236,220 231,220 229,222 226,222 225,224 231,221 234,223 235,221 239,220 245,226 250,217 252,209 251,208 252,203 250,198 251,197 248,196 246,193 247,192" fill="#ad6e63"/>
<polygon points="270,247 294,269 318,282 357,329 373,335 383,333 369,329 372,326 367,323 376,316 370,316 372,318 362,325 354,322 354,312 351,310 359,306 336,297 358,300 342,294 332,295 331,289 325,286 326,281 313,280 302,273 306,270 298,271 286,261 292,254 285,256 283,250" fill="#ad6e63"/>
<polygon points="333,339 333,358 336,376 346,376 349,378 347,382 343,383 375,383 379,379 382,379 381,383 383,383 383,365 363,353 351,372 347,375 341,375 341,372 347,366 346,363 354,357 356,358 348,359 347,357 358,348 344,334" fill="#4b3144"/>
<polygon points="153,87 158,94 170,93 172,102 173,93 181,96 174,99 176,102 181,94 185,95 183,103 188,91 193,95 176,113 179,114 186,106 188,111 199,102 192,99 197,99 194,96 197,89 190,88 193,83 199,89 202,83 188,75 169,72 179,76 171,74 166,79 170,77 171,82 174,79 185,94 177,95 176,88 171,94 172,84 173,89 163,93 161,90 167,85 162,89 158,86 165,81 155,90" fill="#936f8b"/>
<polygon points="248,96 249,99 248,103 249,102 250,103 249,105 250,104 252,105 250,108 247,109 248,113 255,120 262,133 262,136 263,135 264,136 263,142 269,143 267,142 269,141 268,139 269,138 270,139 268,132 269,131 266,127 267,124 264,115 260,110 260,107 257,107 256,106 258,105 256,105 255,104 256,103 252,98" fill="#4b3144"/>
<polygon points="189,110 187,113 184,112 182,114 182,112 179,115 177,114 178,113 175,114 175,116 178,116 176,122 161,133 169,127 169,132 154,139 145,146 131,162 131,165 137,165 138,156 146,149 147,150 147,147 163,140 192,114 187,118 185,117 186,118 180,122 178,119" fill="#745065"/>
<polygon points="0,315 0,323 11,332 23,331 47,349 48,375 42,365 32,365 19,352 13,354 34,380 27,383 36,382 20,358 33,367 42,383 56,383 60,360 58,349 58,364 51,346 16,328 20,325 26,329 32,325 33,330 41,325" fill="#745065"/>
<polygon points="202,72 206,74 202,75 204,76 203,78 207,78 208,82 219,87 215,88 221,93 219,95 224,97 221,99 222,102 243,111 245,114 246,111 257,125 247,113 247,110 244,112 242,108 234,104 235,100 232,103 227,101 228,98 225,101 227,94 225,96 221,95 225,92 220,90 228,81 233,87 235,86 238,90 241,89 241,92 243,92 241,88 222,78" fill="#745065"/>
<polygon points="259,278 256,283 256,286 262,296 267,301 267,303 269,306 268,308 265,306 267,309 276,299 276,288 275,287 275,283 275,291 276,292 275,293 273,292 272,293 268,289 269,288 268,287 267,288 266,287 266,285 264,283 263,285 262,284 262,281 260,280" fill="#1f1427"/>
<polygon points="213,81 218,81 222,83 215,84 225,87 221,90 232,91 232,93 223,93 228,94 226,99 228,97 228,101 230,102 234,100 234,103 242,107 245,111 245,105 243,106 237,102 239,101 236,100 239,97 244,101 244,92 243,93 241,90 238,91 238,88 233,88 231,86 232,85 228,82 225,87 221,84 225,83 224,81" fill="#4b3144"/>
<polygon points="253,151 250,153 251,152 253,156 257,155 258,159 254,158 256,162 247,171 249,174 247,171 250,168 254,169 254,164 257,162 259,166 256,166 263,172 263,174 256,174 256,180 264,174 267,178 263,181 264,188 259,190 267,190 265,190 265,188 272,186 270,185 270,181 267,176 271,169 272,170 271,166 273,163 270,162 270,168 268,166 265,167 264,161 262,160 263,158 264,159 262,157 263,155 261,156 259,152" fill="#936f8b"/>
<polygon points="249,290 252,299 247,304 247,313 240,323 238,341 241,339 244,340 241,339 244,336 245,337 243,334 245,333 248,335 247,334 250,333 249,332 254,327 252,324 254,322 257,324 256,322 258,320 260,321 259,320 261,317 263,318 261,316 263,315 264,311 267,313 267,310 269,312 269,310 268,311 263,308 263,305 260,302 262,304 258,308 259,310 255,314 253,313 254,311 250,316 247,315 247,312 251,307 256,306 253,304 252,294" fill="#936f8b"/>
<polygon points="129,382 130,383 170,383 170,381 168,381 167,379 164,377 165,376 163,376 162,375 162,373 160,373 159,371 156,369 157,368 155,368 153,366 154,365 153,366 151,364 151,362 150,363 148,362 149,360 147,361 146,360 145,366 142,371 143,373 142,374 143,375 141,377 134,378" fill="#745065"/>
<polygon points="353,223 350,226 350,228 349,229 347,229 346,230 343,229 343,230 341,231 342,234 340,235 340,238 341,240 343,241 346,248 347,255 345,257 348,259 350,262 349,260 350,259 353,259 351,257 358,254 356,254 355,253 356,251 355,249 355,244 354,243 355,240 353,237 355,233 355,230 354,229 354,225" fill="#ad6e63"/>
<polygon points="62,336 64,340 64,361 62,363 62,366 65,366 64,369 62,368 65,372 63,373 61,370 59,383 62,381 63,383 83,383 84,376 82,375 84,370 82,369 84,368 81,368 83,370 81,373 83,374 80,377 79,376 78,362 80,360 78,359 79,357 76,354 78,352 78,348 77,350 76,349 76,343 78,342 76,341 79,340 77,340 76,338 72,342 72,339 68,340" fill="#4b3144"/>
<polygon points="285,67 285,71 287,71 288,74 299,74 300,75 303,74 307,75 308,74 312,75 319,74 321,75 322,74 351,73 345,71 344,72 341,71 339,72 308,72 304,68 305,67 298,68 297,65 292,67 290,64 286,65" fill="#b5e3fb"/>
<polygon points="214,100 217,102 216,104 219,106 218,109 219,109 218,108 219,106 222,107 223,110 226,111 229,115 231,116 236,115 237,116 239,114 245,120 244,119 246,116 247,117 247,120 249,120 251,123 253,123 258,128 255,123 247,114 245,115 243,112 241,112 230,106 227,106 221,102 217,102 216,101 217,100 215,99" fill="#ad6e63"/>
<polygon points="144,85 153,82 154,85 150,87 156,85 159,89 157,87 158,84 160,85 159,86 161,84 163,85 161,89 166,85 167,86 163,91 165,88 166,90 169,88 173,95 174,94 172,93 176,87 179,91 177,92 181,93 177,94 177,97 182,92 182,96 185,93 182,90 182,87 181,88 179,85 176,87 174,85 174,81 178,82 173,80 171,83 170,78 168,81 166,78 170,74 171,76 170,74 173,73 150,75 147,78 150,79" fill="#745065"/>
<polygon points="235,151 228,161 232,160 234,154 237,157 234,160 233,168 237,181 243,181 245,187 247,186 247,188 253,188 254,190 263,188 262,181 266,178 260,178 255,185 252,182 248,186 249,179 247,181 244,178 247,175 251,176 248,175 247,170 246,174 242,175 243,179 239,177 239,173 238,177 235,177 235,170 233,169 239,156 237,155 242,152 249,155 251,153 248,154 242,152 242,150 236,156 234,154 239,149" fill="#745065"/>
<polygon points="274,304 273,309 271,311 270,310 271,308 262,316 263,317 261,318 262,320 261,321 259,319 260,320 254,325 255,328 254,329 252,327 254,329 249,335 247,333 249,335 247,338 245,335 246,339 243,344 241,345 240,344 241,345 239,347 241,349 237,350 241,351 240,354 264,323 275,311 275,306 273,305" fill="#a59fa5"/>
<polygon points="75,229 75,251 71,255 74,257 71,258 70,265 74,261 76,263 73,266 78,264 78,271 79,267 81,269 78,274 81,276 75,276 75,270 74,273 67,267 66,258 66,261 64,259 61,262 58,254 58,260 64,275 66,272 69,274 66,278 75,282 79,277 78,285 82,285 84,289 83,287 88,285 88,289 89,285 83,286 82,283 85,279 90,283 77,262 79,254 76,253 76,246 80,246 79,243 75,245 74,234 78,235 76,237 78,241" fill="#936f8b"/>
<polygon points="207,183 206,184 205,183 203,183 202,184 199,184 198,183 200,181 199,178 200,181 199,182 197,182 198,183 198,184 197,185 196,185 195,184 191,189 190,189 189,190 186,190 185,191 183,191 183,193 190,193 191,192 195,192 196,191 198,191 199,190 200,190" fill="#745065"/>
<polygon points="235,371 235,376 234,377 234,383 257,383 256,382 257,381 258,381 259,382 259,381 258,380 258,379 259,378 260,378 261,379 261,380 261,379 258,376 255,375 254,374 254,373 253,373 250,370 249,370 245,367 243,367 242,366 241,367 238,367" fill="#eda2be"/>
<polygon points="80,339 79,341 76,342 77,343 76,344 77,345 77,349 79,351 77,354 80,357 79,359 81,360 79,362 80,365 80,376 81,374 85,376 84,378 84,383 85,383 84,381 85,380 85,375 87,373 87,371 90,369 92,371 92,343 93,342 94,343 93,341 92,343 90,343 89,342 85,342 84,340 84,342 82,344" fill="#1f1427"/>
<polygon points="100,362 99,363 99,365 98,366 98,370 97,371 97,383 114,383 114,381 113,380 113,379 110,376 110,375 108,372 108,370 105,367 105,366 103,364 103,362" fill="#745065"/>
<polygon points="121,168 115,174 115,175 109,182 109,185 106,188 107,189 105,191 105,193 103,194 104,195 103,196 105,197 103,199 104,198 106,198 104,196 104,195 105,194 107,195 107,191 106,190 108,187 110,187 111,188 116,185 118,185 120,183 122,179 120,177 121,176 120,177 119,175 123,171 121,169" fill="#1f1427"/>
<polygon points="191,70 187,72 190,73 188,74 189,76 192,74 197,82 200,80 199,83 202,87 199,90 191,84 192,88 195,86 199,91 197,94 195,91 197,94 195,96 198,96 198,102 183,117 194,108 195,110 204,96 208,95 211,97 211,95 214,96 210,94 212,92 217,92 212,89 214,87 212,84 208,88 204,87 204,83 207,84 206,86 208,85 205,82 201,85 199,83 204,79 201,81 199,77 196,77 190,72" fill="#a59fa5"/>
<polygon points="157,172 157,175 160,184 163,182 166,184 173,181 176,178 177,180 174,184 175,184 176,186 174,187 178,185 181,186 180,185 181,184 181,179 180,178 181,176 179,176 178,179 177,177 175,177 174,175 173,175 172,177 169,175 168,178 167,176 165,176 167,177 164,178 166,181 163,182 161,180 162,177 157,175 158,173 161,173 162,171" fill="#745065"/>
<polygon points="347,279 349,280 349,282 354,285 357,288 355,289 353,287 347,284 356,292 355,294 353,293 350,293 349,294 347,293 350,295 352,295 365,300 368,300 375,293 376,293 372,289 362,283 361,281 359,281 358,280 358,282 356,283 355,282 353,282 351,280" fill="#ad6e63"/>
<polygon points="213,261 211,267 210,278 211,275 213,277 216,285 220,289 222,293 222,298 219,301 225,302 227,304 227,306 225,309 225,315 227,315 227,306 229,303 227,303 226,301 222,301 221,300 222,298 222,292 215,275" fill="#4b3144"/>
<polygon points="0,334 0,361 1,363 7,364 7,366 9,365 16,367 16,374 14,376 0,369 0,383 24,383 24,377 22,373 23,372 26,376 30,377 16,363 14,365 10,358 11,354 15,350 21,350 26,354 9,335" fill="#eda2be"/>
<polygon points="246,154 243,154 242,153 240,155 239,158 236,162 236,165 235,166 235,169 236,170 235,171 235,172 237,175 237,177 237,176 238,175 238,173 239,172 241,175 240,176 240,177 242,174 242,171 241,172 239,170 241,168 242,168 242,167 243,166 243,165 242,164 243,161 242,161 241,160 242,159 243,159 243,158 244,157 245,158 245,157 247,155" fill="#4b3144"/>
<polygon points="55,225 53,226 16,226 14,228 14,231 15,230 18,230 19,229 20,230 22,229 24,230 25,229 27,230 28,229 30,230 31,229 33,230 34,229 49,229 50,230 50,232 49,233 50,233 54,231 54,227" fill="#f3fbfa"/>
<polygon points="282,163 273,162 274,163 273,170 270,171 270,173 268,176 267,175 267,172 269,169 268,169 267,172 266,171 266,167 265,168 269,180 271,181 271,185 273,185 273,182 274,181 275,183 276,182 275,181 275,174 276,173 277,174 277,178 278,178 277,176 278,175 279,176 278,174 280,173 279,170 277,171 278,172 277,174 275,173 273,170 277,168 280,168 281,170" fill="#a59fa5"/>
<polygon points="172,103 168,103 164,109 163,106 154,114 148,112 149,108 154,108 151,106 147,108 140,116 146,110 149,111 147,114 150,114 145,119 137,119 137,122 144,119 141,123 148,123 146,122 154,118 156,115 155,117 152,116 162,109 164,112 159,114 163,113 165,118 158,119 159,123 154,129 157,124 160,124 161,120 165,123 164,125 165,120 172,118 168,115 170,113 172,116 171,114 174,112 170,110 168,115 163,113 166,111 167,105" fill="#745065"/>
<polygon points="209,275 209,284 211,286 212,286 214,288 214,289 215,289 217,291 217,293 218,294 218,299 217,300 219,300 221,298 221,293 220,292 219,289 215,285 215,284 214,283 214,281 213,280 212,277 211,276 211,278 210,279 209,278" fill="#745065"/>
<polygon points="348,322 350,325 350,327 351,328 350,329 351,330 350,331 352,334 358,337 373,349 372,348 374,346 381,350 379,351 381,352 380,354 383,354 383,336 375,336 374,337 373,336 369,336 368,335 363,334 353,328" fill="#1f1427"/>
<polygon points="63,276 69,284 68,285 70,285 72,287 71,289 70,288 81,301 83,301 90,305 94,309 96,307 97,308 100,304 99,300 96,304 94,304 92,301 91,304 89,302 87,304 85,303 83,300 84,297 90,300 77,290 73,289 72,288 73,286" fill="#4b3144"/>
<polygon points="287,342 287,343 288,342 291,344 297,344 299,346 300,345 301,346 304,346 305,347 306,346 306,343 305,342 305,340 304,339 304,338 303,337 303,336 302,335 302,334 296,334 294,336 293,336 292,337 291,337 289,339 289,340" fill="#936f8b"/>
<polygon points="17,328 39,338 40,337 51,345 56,350 58,363 57,355 58,348 62,360 61,344 59,337 55,337 54,334 52,338 48,335 42,334 40,332 41,331 39,333 36,333 35,332 37,330 35,332 32,332 31,331 32,329 30,331 28,330 29,327 25,330 24,329 25,326 22,329 18,327" fill="#4b3144"/>
<polygon points="279,187 281,188 280,189 283,187 284,188 285,186 290,188 292,186 295,187 300,185 303,188 303,186 305,185 306,187 308,186 309,188 309,186 313,184 319,186 318,188 320,188 319,186 322,184 324,185 323,186 330,184 331,185 346,184 350,186 351,184 354,184 295,184 294,185 285,184 280,185" fill="#b5e3fb"/>
<polygon points="265,146 263,148 264,149 263,150 263,151 264,151 265,152 264,153 264,155 265,156 265,159 266,160 266,161 267,161 268,160 269,161 270,160 274,160 271,160 269,158 269,156 268,155 268,154 270,152 271,153 271,155 271,152 269,150 269,148 271,146" fill="#4b3144"/>
<polygon points="208,374 209,376 209,378 211,380 211,381 214,383 232,383 233,382 233,379 233,382 232,383 231,382 230,375 230,378 228,382 226,383 225,382 226,381 225,380 227,378 226,379 224,375 222,374 220,376 218,376 214,373 210,373" fill="#ad6e63"/>
<polygon points="53,262 49,266 48,265 49,266 48,269 49,267 51,268 50,271 51,268 53,269 53,271 51,273 51,274 52,273 54,274 49,281 47,277 46,278 44,276 43,279 44,280 45,279 47,282 49,281 50,282 49,283 51,285 59,290 61,284 63,283 62,282 63,281 61,284 59,283 60,280 58,278 59,277 61,278 57,272 56,273 54,271" fill="#a59fa5"/>
<polygon points="153,158 154,159 152,161 152,163 151,164 151,169 150,170 151,171 151,174 152,175 152,176 155,179 155,180 154,177 155,176 155,169 156,168 156,166 157,165 157,163 158,162 159,162 160,163 159,164 159,165 160,164 160,162 161,161 162,162 163,162 162,162 161,161 161,160 161,161 160,162 159,162 158,161 157,161 156,162 155,161 155,159 154,159" fill="#745065"/>
<polygon points="57,278 57,280 56,281 57,281 59,278 61,280 60,282 59,281 60,283 59,284 58,283 57,285 58,287 57,288 59,287 57,285 61,283 62,285 61,286 60,291 68,298 69,298 71,301 73,300 75,302 74,304 77,302 77,301 75,300 76,298 75,297 75,295 68,288 67,289 65,288 67,286 65,284 65,282 63,280 63,278 62,277 58,279" fill="#936f8b"/>
<polygon points="176,179 173,182 172,182 172,183 171,184 170,183 169,183 170,183 171,184 170,185 169,185 166,187 166,191 165,192 166,192 169,190 171,190 174,188 176,188 177,187 180,187 179,187 178,186 177,187 176,187 175,186 175,185 174,185 173,184 174,183 174,182 176,180" fill="#ad6e63"/>
<polygon points="248,166 250,167 249,168 250,169 256,171 252,174 254,177 254,175 256,172 259,173 261,169 263,171 266,163 269,167 269,162 270,161 272,162 272,161 266,162 265,160 265,166 262,168 261,167 262,163 261,169 259,170 257,168 258,165 257,165 258,166 257,167 255,166 255,164 257,163 254,161 253,157 251,157 253,159 252,160 253,161 250,164 252,162 254,163 251,166" fill="#745065"/>
<polygon points="66,239 63,239 62,240 60,238 59,240 58,239 56,240 55,239 51,240 50,244 51,243 52,245 50,246 48,249 39,252 32,258 37,258 38,257 42,259 46,257 47,258 47,257 44,256 46,253 49,255 49,252 50,251 49,248 51,246 54,246 54,245 52,244 56,241 57,242 59,240 60,242 61,240 63,243 61,244 61,245 63,245" fill="#f3fbfa"/>
<polygon points="104,345 105,346 105,347 106,348 106,349 107,350 108,353 110,355 110,356 113,356 114,357 114,358 115,358 116,359 118,359 119,360 123,360 124,361 125,361 124,360 124,359 120,355 120,354 112,346 111,346 110,345 110,344 109,345 107,345 106,344 106,343 106,344 105,345" fill="#1f1427"/>
<polygon points="58,189 52,188 49,191 48,190 49,188 47,189 46,188 47,186 40,186 44,187 42,189 30,188 31,189 30,190 23,190 22,189 25,188 19,188 18,190 16,189 17,188 0,188 0,192 4,193 7,192 10,194 15,190 16,191 30,190 31,191 27,193 31,194 31,191 33,188 36,190 43,189 44,191 41,192 50,190 56,191" fill="#a59fa5"/>
<polygon points="129,290 129,299 124,300 128,303 124,307 126,305 130,307 127,309 131,326 128,327 129,329 131,326 133,329 130,325 137,320 139,324 136,328 134,326 137,330 138,326 145,333 144,335 153,331 158,332 147,324 148,328 145,331 141,330 138,325 141,322 144,325 142,319 140,323 138,318 135,321 131,317 133,321 129,321 128,317 133,311 136,318 138,315 141,317 136,308 139,312 136,314 134,309 132,311 129,302 132,299 133,303 135,302 129,299" fill="#745065"/>
<polygon points="290,204 289,203 288,204 285,201 285,202 283,204 282,203 282,202 281,202 281,203 280,204 279,204 277,202 277,204 276,205 277,206 277,208 278,209 278,210 284,210 285,211 285,212 287,212 287,211 288,210 290,210 290,209 289,210 288,210 287,209 287,208 283,208 282,207 282,206 283,205 284,206 290,206" fill="#a59fa5"/>
<polygon points="156,169 156,176 154,179 152,177 152,179 153,180 153,182 154,183 154,184 155,185 156,188 158,185 159,186 160,186 162,188 163,187 162,187 161,186 162,185 163,185 164,184 164,183 162,185 160,185 159,186 158,185 159,182 158,181 158,179 157,178 157,176 156,175" fill="#936f8b"/>
<polygon points="374,260 374,265 373,266 371,266 372,267 372,271 370,273 371,274 372,274 373,275 374,275 379,278 381,278 383,280 383,273 382,272 383,271 383,263 382,263 381,262 382,261 383,261 383,259 381,259 381,261 379,263 378,263 378,264 377,265 374,263" fill="#f3fbfa"/>
<polygon points="173,148 167,148 166,149 160,149 159,150 159,151 156,153 156,154 155,155 155,156 153,159 154,158 155,158 156,159 156,161 157,160 157,158 158,157 158,156 160,154 160,153 162,151 163,151 164,150 166,150 167,149 171,149 172,148" fill="#4b3144"/>
<polygon points="121,102 118,101 119,102 115,105 113,100 104,108 100,105 103,102 99,105 98,109 96,109 98,113 97,114 95,111 93,113 96,117 92,120 90,118 92,115 87,125 88,124 89,127 89,121 91,126 93,126 90,122 92,120 93,122 103,121 102,119 98,122 96,121 96,116 100,111 102,112 102,107 105,109 104,110 107,105 110,108 108,111 104,112 105,115 106,113 108,116 106,112 109,112 110,115 112,112 112,114 112,111 116,108 115,109 113,106 117,104 120,108 121,107 118,106" fill="#936f8b"/>
<polygon points="252,293 253,294 253,299 254,300 254,304 257,306 253,308 252,307 252,308 248,312 248,315 249,314 250,315 251,314 255,316 254,315 252,315 251,313 254,310 255,311 254,313 255,313 255,312 257,310 258,310 257,308 259,306 260,306 261,304 264,307 264,308 265,309 265,308 259,302 259,301 253,295" fill="#a59fa5"/>
<polygon points="124,265 125,269 123,270 126,276 125,286 128,290 128,296 127,297 121,287 117,293 118,298 119,291 122,295 121,297 120,296 120,303 122,299 127,300 129,289 131,297 130,299 132,298 136,302 137,300 136,301 133,298 137,293 139,293 134,293 134,289 136,289 134,285 133,293 135,295 133,298 132,295 131,297 130,296 131,287 129,285 128,289 126,286 128,280 126,274 124,273" fill="#4b3144"/>
<polygon points="242,146 241,145 240,145 237,148 236,147 235,147 234,148 234,149 232,151 231,151 232,152 231,153 230,153 225,158 224,158 222,160 221,160 220,159 221,158 220,159 218,159 215,156 217,159 217,161 219,161 220,160 221,161 226,161 227,160 228,160 228,158 229,157 229,156 235,150 236,150 238,148 240,148 241,147 242,147" fill="#ad6e63"/>
<polygon points="294,367 294,370 293,371 294,372 294,377 296,379 296,380 299,380 300,381 299,382 299,383 318,383 317,382 316,382 314,380 315,379 314,379 313,378 311,380 310,379 309,379 308,380 306,378 307,377 308,377 306,375 305,375 303,373 303,372 302,372 299,369" fill="#936f8b"/>
<polygon points="281,153 279,151 278,152 276,152 275,153 275,155 274,156 274,158 275,157 276,158 276,159 279,159 280,158 281,159 282,158 281,157 281,156 280,156 279,155 279,154 280,153 281,154" fill="#a59fa5"/>
<polygon points="55,256 53,260 47,267 45,274 43,275 43,276 44,275 46,277 47,276 49,280 54,273 52,271 52,269 49,268 48,266 53,261 54,262 54,268 55,269 55,271 56,272 57,271 58,272 58,273 55,275 56,274 58,276 57,275 58,273 61,275 59,273 59,271 57,267 55,267 54,266 55,265" fill="#936f8b"/>
<polygon points="90,124 90,127 88,131 91,127 93,128 91,131 91,133 92,134 90,135 91,135 92,137 93,137 95,135 97,138 98,138 99,136 100,138 101,137 103,138 102,136 103,135 102,135 102,136 100,137 99,136 100,135 99,133 101,130 103,133 102,132 103,130 106,128 100,127 101,128 99,130 98,129 94,130 93,129 94,128 94,126 93,127 91,127 90,126" fill="#745065"/>
<polygon points="248,289 247,289 248,292 247,293 249,296 246,299 244,304 245,312 241,317 237,330 237,348 236,349 238,348 237,347 239,345 238,343 241,342 237,341 238,340 238,334 237,333 238,332 237,331 238,330 238,326 242,318 246,313 245,312 246,304 251,299" fill="#745065"/>
<polygon points="191,362 191,363 193,366 191,368 192,368 194,370 192,372 190,372 190,373 192,373 193,374 193,377 194,377 195,378 194,379 194,381 195,382 195,383 204,383 203,382 203,381 201,381 198,379 199,378 203,378 203,377 202,378 200,376 200,373 196,368 195,365 193,363 193,362 192,363" fill="#1f1427"/>
<polygon points="130,156 129,156 126,159 125,159 124,160 124,162 123,163 123,165 122,166 121,165 122,166 123,166 124,165 126,165 127,166 128,166 129,167 129,166 128,166 126,164 126,163 130,159" fill="#1f1427"/>
<polygon points="127,90 125,91 124,90 123,91 121,90 120,92 117,89 121,87 120,86 121,84 119,85 116,88 115,88 115,89 112,92 110,92 109,93 110,92 111,93 112,97 111,98 110,96 109,96 110,98 108,101 109,101 110,99 111,100 111,99 116,94 118,96 117,98 115,99 116,101 116,99 120,95 122,94 123,96 121,98 123,97 123,95 122,94 127,91" fill="#c8c9cd"/>
<polygon points="271,202 270,203 273,207 271,210 272,212 270,213 268,210 270,215 268,217 266,215 264,217 262,215 261,217 263,216 264,217 263,222 260,219 263,222 268,219 271,221 272,224 270,230 271,232 270,238 272,235 274,238 274,228 272,233 270,231 271,227 274,226 273,221 268,217 270,215 269,214 270,213 274,217 272,216 273,210 274,209 277,210 272,206 273,205 272,206 271,205 272,203" fill="#745065"/>
<polygon points="206,238 207,238 208,239 212,239 213,238 214,239 218,239 220,237 225,237 225,236 224,236 223,237 220,237 219,238 214,238 213,237 212,237 211,236 212,235 214,235 208,235 206,237" fill="#ad6e63"/>
<polygon points="226,164 227,165 225,168 225,173 226,174 227,177 228,177 233,182 234,182 236,184 237,184 236,184 234,182 235,181 234,181 233,180 234,179 233,179 232,178 233,177 231,177 230,176 231,175 229,177 226,174 227,173 228,173 229,174 231,172 231,171 231,172 230,173 229,172 229,171 227,169 227,167 230,164" fill="#745065"/>
<polygon points="269,238 268,240 266,239 268,246 267,247 264,246 264,251 265,249 268,251 265,254 264,253 262,255 260,260 261,261 263,260 265,262 266,261 265,262 263,260 265,258 264,257 266,256 265,254 268,253 269,254 268,256 269,253 271,252 272,253 271,256 269,258 267,258 270,259 268,262 271,259 272,261 270,263 274,264 273,262 275,260 272,259 273,257 275,257 272,255 273,253 274,254 267,247 268,246 267,243 269,242" fill="#a59fa5"/>
<polygon points="383,302 379,301 379,306 372,310 369,310 365,308 364,308 363,310 361,310 359,308 361,307 358,308 356,310 356,313 355,314 355,320 356,320 357,318 361,318 363,314 365,314 368,316 365,313 366,311 367,312 368,311 369,312 371,311 373,312 374,311 378,311 383,308" fill="#eda2be"/>
<polygon points="208,158 207,157 207,156 204,153 200,153 199,154 198,154 193,159 192,159 190,161 192,163 193,162 191,160 194,158 195,159 196,158 195,157 197,155 199,155 200,156 199,157 204,157 205,156 206,156 207,157 206,158 206,160 206,159 207,158" fill="#936f8b"/>
<polygon points="245,285 245,287 246,288 246,289 245,290 245,291 243,294 242,293 242,289 242,293 243,294 242,295 242,297 241,298 241,300 242,301 242,305 244,308 244,306 243,305 243,304 244,303 244,301 245,300 245,299 248,296 246,293 247,292 246,291 246,289 247,288" fill="#4b3144"/>
<polygon points="259,133 258,134 258,136 257,137 257,138 255,140 256,143 258,143 259,144 258,145 253,145 252,146 249,146 248,147 246,147 245,148 244,148 245,148 246,147 249,147 250,146 253,146 254,147 253,148 251,148 253,148 254,147 256,147 255,146 256,145 264,145 263,145 262,144 262,142 261,141 261,137 259,135" fill="#a59fa5"/>
<polygon points="108,110 107,110 106,111 105,110 104,111 102,111 103,112 102,113 101,113 100,112 100,114 99,115 98,115 98,118 97,119 97,121 96,122 96,125 97,126 96,127 98,125 100,125 102,123 103,124 104,124 103,123 103,122 104,121 106,121 106,120 101,117 102,116 104,116 105,117 106,116 107,116 108,117 109,116 108,117 107,116 105,116 103,113 103,112 104,111 105,112 107,110" fill="#745065"/>
<polygon points="162,125 159,129 157,128 155,129 153,132 152,131 150,133 150,134 149,135 147,135 147,136 143,140 142,139 142,137 143,136 141,139 143,140 141,142 140,142 140,143 142,141 145,141 146,140 148,140 147,138 148,137 151,137 154,134 156,134 158,133 156,134 155,133 155,132 157,131 156,129 157,128 159,130 159,131" fill="#1f1427"/>
<polygon points="144,318 146,320 144,323 145,324 144,323 147,321 150,325 149,326 150,326 150,324 152,322 154,324 153,326 155,328 157,328 158,329 157,330 158,331 157,330 158,329 161,329 162,331 162,330 158,327 160,325 161,326 162,325 165,327 163,326 161,323 160,324 159,323 161,320 163,321 159,319 158,317 156,317 155,318 154,317 155,318 154,320 152,318 152,319 149,322 146,320 148,317 147,318 145,316 146,317" fill="#a59fa5"/>
<polygon points="339,320 341,321 340,322 347,334 348,332 354,338 353,337 354,336 358,338 369,349 374,352 373,353 369,351 369,352 373,353 375,355 377,353 378,354 377,356 382,351 374,347 373,348 371,346 370,347 358,338 352,335 349,331 350,330 348,324 349,322 345,318" fill="#4b3144"/>
<polygon points="26,220 29,218 30,219 29,221 30,220 29,218 31,217 35,219 36,221 35,222 31,222 33,222 34,223 43,223 42,222 43,220 45,223 46,222 48,223 49,221 52,223 53,222 56,222 59,217 58,217 58,219 56,221 53,220 51,222 49,220 49,217 48,218 39,218 38,219 30,217 27,220" fill="#c8c9cd"/>
<polygon points="202,160 202,161 202,160 204,158 205,159 205,160 204,161 207,161 208,162 208,164 209,165 212,165 212,162 211,161 211,160 210,159 210,158 209,157 208,157 209,158 208,159 207,159 207,160 206,161 205,160 205,158 206,157 205,157" fill="#745065"/>
<polygon points="300,202 300,204 301,202 304,202 305,205 309,204 311,208 310,210 313,212 315,211 320,213 322,213 320,213 319,212 320,211 324,211 315,211 314,212 313,210 316,207 317,208 314,206 319,203 329,204 329,203 328,204 317,203 313,207 311,207 310,205 315,202 314,203 313,202 309,203 308,201 312,200 310,200 306,197 304,199 302,199 305,200 304,202 303,201" fill="#a59fa5"/>
<polygon points="123,112 126,114 125,115 123,115 122,114 122,115 123,116 121,118 119,116 120,115 119,114 121,112 117,115 117,117 115,119 114,118 113,119 114,118 116,120 117,120 119,117 121,119 118,123 118,125 119,126 119,127 120,127 120,123 121,122 122,123 122,121 124,119 124,118 125,117 128,116 128,115 127,115" fill="#745065"/>
<polygon points="248,105 248,106 247,107 247,108 248,108 249,107 250,107 251,108 249,110 249,111 250,111 252,113 252,114 253,114 254,115 254,116 257,119 257,115 256,114 256,113 255,112 255,111 252,108 253,107 252,108 251,108 250,107 250,106 249,106" fill="#1f1427"/>
<polygon points="275,214 276,215 276,216 277,217 277,218 276,219 276,220 277,221 276,222 276,225 277,224 278,225 278,231 278,230 279,229 280,230 280,231 281,231 281,228 280,227 280,223 279,222 279,220 278,219 278,218 276,216 277,215 277,214" fill="#c8c9cd"/>
<polygon points="13,332 13,334 20,341 20,342 21,342 25,346 27,346 28,348 30,349 38,357 27,343 27,342 26,342 21,336 23,334 25,334 29,337 36,340 31,338 29,336 21,332 18,332 17,331" fill="#eda2be"/>
<polygon points="205,57 206,57 207,58 208,58 209,59 210,59 213,61 216,61 217,62 218,62 219,61 220,62 222,62 224,60 225,60 226,59 227,59 228,58 229,58 226,58 224,60 221,60 220,59 220,57 217,57 216,56 214,56 213,57 211,57 210,58 209,57 208,58 207,58 206,57" fill="#b5e3fb"/>
<polygon points="110,93 108,94 108,95 103,100 102,100 102,101 96,107 95,110 93,112 95,110 96,111 97,108 99,106 98,105 99,104 101,105 103,105 104,107 103,108 101,107 102,108 102,110 104,109 103,108 105,106 105,105 103,104 104,103 106,103 107,104 106,103 108,102 107,101 109,98 108,96 110,95 111,97 111,95" fill="#a59fa5"/>
<polygon points="300,119 301,119 302,118 303,119 307,119 308,118 308,117 309,116 307,116 306,115 304,115 303,116 302,115 300,115 300,116 301,117 301,118" fill="#b5e3fb"/>
<polygon points="190,217 193,217 194,218 195,217 201,217 202,216 203,216 204,217 205,217 206,216 207,216 208,217 206,215 205,216 204,216 203,215 202,216 197,216 196,215 197,214 200,214 195,214 194,215 193,215 191,217" fill="#c8857a"/>
<polygon points="193,383 193,381 192,380 192,379 189,377 189,374 188,374 189,375 189,376 188,377 187,376 185,376 184,375 183,376 181,376 183,378 182,379 179,378 179,380 178,381 177,381 176,380 177,379 175,379 174,378 177,381 177,382 178,383 183,383 184,382 185,383 189,383 190,382 191,383" fill="#745065"/>
<polygon points="163,99 162,100 161,100 159,102 159,104 157,106 157,107 158,108 159,107 158,106 160,104 161,104 162,105 162,102 163,101 164,102 165,101" fill="#c8c9cd"/>
<polygon points="148,91 144,93 143,92 141,93 140,92 137,92 135,93 134,92 135,90 139,86 137,87 133,91 132,90 132,92 131,93 130,92 130,93 131,93 133,95 134,94 136,95 137,97 135,99 133,97 134,98 132,99 135,99 141,94 143,94 145,96 144,97 145,97 146,95 145,96 144,94" fill="#c8c9cd"/>
<polygon points="339,222 340,223 341,223 342,222 345,222 347,220 349,220 350,219 349,219 348,218 344,218 343,219 342,218 341,218 341,219 340,220 340,221" fill="#f3fbfa"/>
<polygon points="56,247 53,247 53,249 50,254 50,256 51,257 50,258 48,258 47,259 44,259 43,260 42,260 41,259 32,259 39,259 40,260 48,260 49,259 51,259 52,258 53,258 53,257 55,255 54,254 54,253 55,252 55,250 56,249" fill="#eda2be"/>
<polygon points="73,175 72,181 73,180 74,182 72,186 70,185 71,188 73,187 75,189 72,190 73,195 70,198 71,200 67,203 68,205 67,208 65,210 64,209 63,213 64,214 63,213 66,210 67,214 70,214 68,213 69,212 68,210 69,205 73,211 72,212 74,209 73,211 71,208 73,206 75,207 72,205 73,204 72,202 73,201 72,200 73,195 72,191 75,189 73,187 74,186 73,184 74,183 77,186 74,183 75,182" fill="#936f8b"/>
<polygon points="258,144 256,144 255,143 255,142 252,142 251,141 249,143 248,142 248,143 247,144 244,144 243,145 243,146 244,146 246,148 244,150 243,149 243,148 243,150 239,154 238,153 239,154 238,155 238,156 239,155 239,154 246,148 245,147 246,146 248,146 249,145 252,145 253,144" fill="#936f8b"/>
<polygon points="254,149 254,150 257,150 258,151 259,151 261,153 261,154 262,155 263,154 262,153 263,152 264,152 263,152 262,151 262,150 263,149 262,148 263,147 263,146 262,146 262,147 261,148 259,148 258,147 259,146 260,146 258,146 257,147 257,148 256,149" fill="#745065"/>
<polygon points="269,199 268,200 268,202 267,203 267,204 267,203 268,202 269,203 269,207 268,208 267,207 267,206 266,206 267,207 267,210 266,211 265,210 263,213 263,215 263,213 265,211 266,212 266,214 267,215 266,216 266,219 266,216 267,215 268,216 268,212 269,211 270,212 271,212 270,211 270,210 271,209 272,210 271,209 271,206 272,205 273,206 270,202" fill="#4b3144"/>
<polygon points="29,181 26,181 25,182 25,184 24,185 23,184 22,185 21,184 14,184 13,185 12,184 4,184 3,183 2,183 1,184 0,184 2,184 3,185 2,186 0,186 0,187 4,187 5,186 6,187 22,187 23,186 26,187 25,187 24,186 24,185 27,181" fill="#c8c9cd"/>
<polygon points="22,336 37,355 36,356 21,343 20,345 18,343 32,355 30,356 24,351 24,353 19,351 37,365 30,358 31,357 38,361 40,360 41,363 43,363 44,361 41,361 43,356 40,355 37,349 35,350 23,337 24,335 40,344 35,341 35,339 33,340 33,338 29,338 27,336 28,335" fill="#c8857a"/>
<polygon points="281,221 280,222 281,223 281,225 282,226 281,227 282,228 282,231 281,232 280,232 279,231 279,230 279,231 278,232 277,231 277,225 275,228 275,232 275,228 276,227 277,228 277,233 276,234 276,237 277,237 278,238 278,239 277,240 279,237 280,238 281,237 282,237 283,238 283,240 283,233 284,232 283,232 282,231 282,226 281,225" fill="#a59fa5"/>
<polygon points="35,251 33,252 27,252 26,251 23,252 24,253 25,252 27,253 28,252 33,252 34,253 28,256 26,255 18,256 19,257 18,259 16,257 18,259 17,260 17,263 12,265 8,265 7,267 9,268 8,269 10,270 11,267 12,268 12,271 16,267 16,264 20,262 21,263 20,264 23,261 24,258 26,259 25,258 27,256 28,257 34,255 33,254" fill="#a59fa5"/>
<polygon points="214,317 216,317 217,318 221,318 222,319 224,319 225,320 224,321 220,321 219,322 220,323 221,323 224,325 224,326 223,327 224,327 224,325 228,321 228,320 227,319 228,318 228,317 227,318 217,318 216,317" fill="#4b3144"/>
<polygon points="121,330 122,331 122,333 123,334 124,334 126,336 127,335 128,336 128,334 129,333 127,331 126,331 125,332 124,331 124,330" fill="#4b3144"/>
<polygon points="273,146 272,146 270,148 269,147 270,148 270,150 273,153 272,154 272,155 271,156 270,155 270,153 269,154 269,155 270,156 270,158 271,159 272,159 272,158 271,157 273,155 273,150 275,148 277,148 278,149 279,149 278,149 277,148 275,148" fill="#745065"/>
<polygon points="204,159 203,160 202,159 201,160 200,159 201,161 201,164 200,165 200,167 201,166 206,171 206,174 205,175 204,174 203,175 202,174 202,175 204,175 205,176 203,178 201,177 203,178 201,180 200,179 198,181 199,181 200,179 201,180 205,176 206,176 205,175 206,174 206,171 204,169 204,165 206,163 207,165 206,166 207,165 207,162 205,162 204,164 203,163 203,161" fill="#936f8b"/>
<polygon points="217,328 217,329 218,330 217,331 218,331 219,332 219,335 221,335 222,336 226,336 225,336 222,333 222,331 221,331 220,330 221,329 222,329 220,329 219,328" fill="#4b3144"/>
<polygon points="69,238 68,238 67,239 67,240 66,241 66,242 65,243 65,245 64,246 62,246 61,247 60,246 59,247 58,247 58,252 59,251 60,252 61,252 62,251 62,249 64,247 65,248 66,248 67,247 68,248 67,247 67,246 68,245 69,246 69,245 68,245 67,244 68,243 69,243 69,241 68,240 68,239" fill="#eda2be"/>
<polygon points="29,237 27,238 26,236 20,236 19,238 24,238 20,243 14,242 9,244 10,249 6,252 5,251 7,253 4,254 7,254 8,252 12,253 12,258 9,260 15,258 14,254 17,251 19,255 26,253 24,254 22,252 24,251 23,249 20,248 22,251 20,255 18,250 15,250 15,253 11,252 17,243 18,247 18,244 22,243 22,247 25,245 27,247 27,251 33,251 26,249 29,248 25,245 24,246 22,242 25,237" fill="#936f8b"/>
<polygon points="383,293 382,293 381,294 378,294 377,295 374,296 371,299 371,300 370,301 369,301 365,305 365,306 366,307 368,307 369,308 373,308 372,307 373,306 375,306 377,304 376,303 377,302 377,298 378,297 379,297 380,298 379,299 380,299 381,300 383,300 383,296 381,298 380,298 379,297 379,296 380,295 383,294" fill="#f3fbfa"/>
<polygon points="173,107 170,109 168,109 165,113 164,113 163,112 163,111 165,109 164,108 160,112 159,112 158,111 159,110 155,114 154,113 155,114 153,116 152,115 151,116 150,116 151,116 152,115 153,116 154,116 156,113 159,115 158,116 157,116 156,117 157,117 159,115 162,115 168,110 169,110 170,111 169,110" fill="#4b3144"/>
<polygon points="353,222 351,222 350,223 349,223 349,224 346,227 345,226 341,226 339,228 339,234 338,235 339,236 339,237 339,235 340,234 341,234 341,233 340,232 340,231 341,230 342,230 342,229 343,228 344,228 345,229 346,229 347,228 349,228 349,226" fill="#c8857a"/>
<polygon points="316,237 316,240 315,241 320,241 321,242 321,243 322,243 323,244 325,244 327,246 329,246 330,245 330,244 329,243 330,242 329,242 328,241 328,240 329,239 328,240 328,242 327,243 326,243 325,242 326,241 325,242 322,242 321,241 321,239 322,238 321,237 320,238 319,238 318,237" fill="#f3fbfa"/>
<polygon points="175,158 174,159 172,159 171,160 170,160 169,159 168,159 169,160 168,161 167,161 167,162 168,162 169,163 169,169 172,169 172,167 173,166 174,166 175,167 175,169 175,167 174,166 175,165 174,166 173,166 171,164 170,164 168,162 169,161 171,161 172,160 173,160 174,161 173,160 174,159 176,159" fill="#745065"/>
<polygon points="95,140 95,141 96,142 95,143 94,146 93,147 92,147 92,148 93,149 92,150 95,150 96,151 96,152 98,150 99,151 101,151 101,149 100,149 99,150 98,149 97,146 98,145 98,144 100,142 101,142 102,141 103,142 103,145 103,144 104,143 104,142 103,141 104,140 103,141 102,140 101,140 102,141 101,142 100,142 98,140 100,142 98,144 96,142 96,141" fill="#745065"/>
<polygon points="51,301 51,302 53,302 57,304 56,305 54,305 59,304 60,305 58,306 60,305 61,307 63,308 65,308 66,309 68,309 69,307 72,306 73,308 75,309 73,310 74,311 75,309 77,310 76,311 78,311 76,307 75,306 74,307 71,303 70,305 68,304 67,305 65,305 62,302 61,303 59,302 57,302 56,303 55,302 52,302" fill="#c8857a"/>
<polygon points="24,336 35,349 37,348 38,351 40,352 40,354 42,354 44,356 44,358 42,361 43,360 45,361 44,363 42,364 48,371 48,374 48,369 49,367 47,365 48,362 48,364 47,365 46,364 46,359 47,358 46,359 45,358 45,356 48,355 47,355 46,353 46,355 45,356 44,355 44,352 42,351 43,349 41,345 40,346 36,343 28,339 27,337" fill="#936f8b"/>
<polygon points="138,78 138,79 141,79 143,81 141,83 141,84 141,83 142,82 143,83 143,85 142,86 143,86 143,85 144,84 145,85 145,87 146,87 148,89 147,90 149,88 150,88 151,89 149,87 150,86 150,85 151,84 152,85 153,84 153,83 152,83 150,85 149,84 147,86 144,84 144,83 146,81 147,82 146,81 148,79 149,79 145,79 144,78 145,77 144,76 143,77" fill="#936f8b"/>
<polygon points="57,214 55,214 54,213 51,213 50,214 43,214 42,215 43,216 44,215 45,216 45,217 46,216 47,216 47,215 48,214 49,215 53,215 54,216 55,215 56,215" fill="#936f8b"/>
<polygon points="83,132 80,137 80,141 76,143 76,144 77,142 78,143 78,146 77,147 76,146 77,148 72,161 74,158 75,163 73,164 74,165 73,170 69,179 70,178 73,186 72,185 73,181 72,182 71,181 72,179 71,175 73,174 74,169 73,167 76,165 75,166 74,165 76,161 74,158 77,157 76,155 77,153 75,152 76,151 81,152 78,151 80,149 78,151 77,149 81,144 80,145 78,143 80,142 80,138 84,134 83,135 82,134" fill="#a59fa5"/>
<polygon points="52,259 51,260 49,260 48,261 40,261 39,260 29,260 33,260 34,261 40,261 43,263 46,263 47,262 48,263 48,264 47,265 49,263 49,262" fill="#f3fbfa"/>
<polygon points="223,97 220,97 219,96 220,95 219,94 220,93 219,92 218,92 216,94 213,94 212,93 211,94 214,94 215,95 215,96 214,97 213,97 212,96 211,96 212,97 211,98 213,98 214,99 215,98 216,99 215,98 216,97 217,97 218,96 219,96 220,97 220,99 219,100 219,101 220,101 221,100 220,99 222,97" fill="#936f8b"/>
<polygon points="19,214 20,217 23,217 25,215 29,215 30,214 31,214 32,215 31,216 32,216 33,217 33,216 34,215 35,215 38,217 38,216 39,215 40,215 40,214 39,214 36,216 32,212 30,212 29,213 27,213 24,215 23,215 22,214 22,213 23,212 24,212 22,212 20,214" fill="#936f8b"/>
<polygon points="81,291 82,292 83,292 84,293 84,294 85,294 86,295 86,296 88,296 89,297 89,298 90,297 92,299 93,299 94,300 93,301 94,301 94,300 92,298 92,297 94,295 93,294 91,294 88,291 87,292 87,293 88,294 87,295 86,295 85,294 85,292 84,291 83,292 82,291" fill="#936f8b"/>
<polygon points="331,340 330,340 329,341 327,341 326,342 324,342 323,343 321,343 318,345 316,345 308,351 303,353 301,355 300,355 296,358 297,358 301,355 306,353 311,349 312,349 315,347 320,346" fill="#4b3144"/>
<polygon points="192,95 191,95 190,98 187,99 188,100 185,102 184,101 185,99 184,100 182,98 183,96 183,97 179,100 180,101 181,98 183,101 177,106 177,107 178,106 181,108 179,110 178,109 179,110 178,111 174,111 175,113 181,109 182,106 181,106 180,104 181,103 182,104 183,101 186,103 184,105 187,103 189,105 186,107 189,105 191,107 189,109 191,107 187,102" fill="#a59fa5"/>
<polygon points="275,255 274,256 275,256 276,257 275,258 273,258 273,259 275,259 276,260 276,261 275,262 274,262 275,263 275,264 274,265 278,265 281,267 281,265 280,265 279,264 280,263 279,262 279,260 280,259 282,261 282,263 283,264 284,264 283,264 282,263 283,262 283,261 282,260 279,259 279,261 278,262 277,262 276,261 276,259 277,258 277,257" fill="#c8c9cd"/>
<polygon points="365,259 365,260 366,260 367,261 367,264 366,265 366,266 369,266 367,264 368,263 369,263 370,262 372,262 372,259 371,260 370,259" fill="#f3fbfa"/>
<polygon points="35,187 37,185 38,186 39,185 48,185 49,186 50,185 55,185 56,184 57,184 58,185 57,186 59,186 59,185 60,184 61,185 61,184 53,184 52,185 51,185 50,184 47,184 46,185 45,184 35,184 36,185 35,186" fill="#b5e3fb"/>
<polygon points="357,213 357,214 358,213 361,213 362,214 360,215 363,217 361,218 362,218 364,215 366,216 367,214 375,214 376,215 375,216 368,216 370,217 371,216 372,218 374,217 378,217 377,215 378,214 380,214 381,215 382,214 383,215 383,214 381,214 380,213 376,213 375,214 374,213 361,213 360,212 359,213" fill="#a59fa5"/>
<polygon points="264,144 265,145 273,145 275,147 277,147 278,148 274,150 273,159 275,159 275,158 274,159 273,158 274,153 276,151 278,151 279,150 280,151 281,150 280,149 279,150 277,149 278,148 277,147 278,146 283,147 285,149 285,151 287,154 286,155 287,156 287,159 288,158 287,157 287,154 285,151 284,147 282,146 274,146 273,145" fill="#936f8b"/>
<polygon points="0,206 0,209 1,209 2,208 3,208 4,209 8,209 9,208 11,210 10,211 11,212 12,212 11,212 10,211 11,210 10,209 11,208 12,208 11,208 10,207 10,205 9,204 8,204 6,206 2,206 1,205 3,203" fill="#a59fa5"/>
<polygon points="278,196 276,197 275,196 273,196 271,194 271,192 272,191 271,190 275,188 273,187 269,188 268,189 265,189 267,189 268,190 267,191 254,191 267,191 268,190 270,190 271,191 271,194 270,195 269,194 269,192 269,195 271,195 272,196 273,200 274,201 272,202 273,203 274,202 275,203 273,200 273,198 274,197 277,197" fill="#a59fa5"/>
<polygon points="110,122 105,122 104,123 105,124 104,125 103,125 102,124 99,127 97,125 96,126 95,125 95,124 95,126 96,126 98,128 100,128 99,127 100,126 102,126 103,127 104,127 106,125 107,126 107,125 106,125 105,124 106,123 107,123 108,122 109,123" fill="#936f8b"/>
<polygon points="173,54 173,55 176,55 177,56 176,57 176,59 175,60 174,60 175,60 176,61 176,62 178,62 181,59 182,59 183,58 184,58 185,59 184,58 179,58 178,59 177,59 176,58 176,57 177,56 188,56 187,56 186,55 183,55 182,56 178,56 177,55 178,54 179,54" fill="#b5e3fb"/>
<polygon points="74,16 77,19 77,20 78,21 82,21 83,20 83,18 82,17 81,17 80,18 79,18 78,17 76,17 75,16" fill="#8cc1fd"/>
<polygon points="11,234 12,235 11,236 12,236 15,232 18,234 17,233 18,232 33,232 34,231 35,234 36,234 35,232 36,231 38,232 39,231 40,232 41,231 44,231 49,235 47,237 45,237 47,237 49,235 48,233 49,230 47,231 46,230 40,230 39,231 38,230 36,231 35,230 33,231 32,230 30,231 28,230 27,232 26,230 24,231 22,230 21,232 20,232 19,230 18,232 16,231 14,232 13,231 14,233 12,235" fill="#c8c9cd"/>
<polygon points="76,292 76,293 77,293 81,296 81,297 79,299 76,297 77,298 76,300 77,300 79,303 83,303 84,304 84,303 86,302 87,303 86,304 87,305 86,306 89,306 90,308 91,307 86,304 88,300 87,299 88,297 87,297 88,298 87,299 84,298 84,300 85,301 84,303 83,302 81,302 79,299 81,298 82,296 78,294 77,292" fill="#745065"/>
<polygon points="20,359 20,360 23,363 23,365 25,367 25,368 34,378 34,379 36,381 33,377 33,375 34,374 37,377 39,382 40,383 41,383 40,382 40,380 39,379 39,378 37,376 36,373 34,371 34,370 32,368 32,367 30,365 27,364 26,363 26,362 23,359" fill="#4b3144"/>
<polygon points="335,374 335,383 342,383 343,382 344,382 345,381 347,381 348,380 348,378 347,378 346,377 345,377 344,378 343,378 342,377 341,378 340,378 338,376 337,376 336,377 335,376" fill="#745065"/>
<polygon points="64,223 59,223 58,224 59,224 60,223 61,224 61,226 60,227 59,227 58,226 59,227 57,229 57,230 56,231 55,230 55,228 56,227 56,224 55,224 56,225 56,226 55,227 55,231 54,232 53,232 54,232 57,230 58,231 59,230 61,230 62,231 61,230 62,229 62,227 63,226 63,225 64,224" fill="#c8c9cd"/>
<polygon points="167,327 168,328 166,331 165,330 166,331 165,333 164,332 162,332 162,333 160,335 159,334 160,336 158,338 159,340 160,339 163,343 164,343 165,340 164,341 162,341 159,338 159,337 161,336 162,338 163,338 162,337 163,335 164,336 165,335 167,337 168,337 169,336 168,337 166,336 167,335 166,334 169,332 171,334 171,335 171,334 173,333 168,332 167,331 167,329 168,328" fill="#745065"/>
<polygon points="145,310 145,311 146,312 145,313 145,314 145,313 146,312 148,314 145,317 146,316 149,319 151,319 150,318 152,316 153,317 154,316 156,318 155,317 156,316 157,316 156,315 156,316 155,317 153,315 152,316 151,315 151,314 150,315 148,313 148,310 148,311 147,312 146,312 145,311" fill="#745065"/>
<polygon points="84,143 85,144 84,145 84,146 86,149 83,151 81,151 82,152 81,153 80,153 80,154 79,155 78,155 77,154 77,155 78,156 79,155 80,155 80,154 83,151 84,151 85,150 86,151 86,153 83,156 84,155 86,155 87,154 88,155 87,154 89,152 86,150 86,148 87,147 87,146 86,146" fill="#936f8b"/>
<polygon points="230,371 231,372 228,375 225,375 224,374 223,374 224,374 226,376 226,378 227,379 226,380 227,381 226,382 227,382 227,381 228,380 228,379 229,378 229,375 230,374 231,375 231,378 232,379 232,382 232,379 233,378 233,374" fill="#745065"/>
<polygon points="203,373 204,374 204,375 205,376 205,377 206,378 206,379 207,379 208,380 207,381 208,382 208,383 213,383 212,383 210,381 210,380 208,378 208,376 207,375 207,374 206,375 205,374 205,373 204,374" fill="#c8857a"/>
<polygon points="47,235 44,235 44,236 42,239 38,239 37,240 38,239 39,240 41,240 42,241 40,244 40,247 41,248 39,251 40,250 41,250 43,248 41,248 40,247 40,245 41,244 42,244 44,242 43,241 45,238 44,238 43,237 45,235" fill="#936f8b"/>
<polygon points="363,234 362,235 362,236 363,237 362,238 362,239 361,240 361,241 360,242 360,243 361,244 362,244 364,246 366,246 364,246 363,245 363,244 362,244 361,243 362,242 363,242 365,240 365,237 366,236 367,237 366,236 365,236 364,235 365,234" fill="#f3fbfa"/>
<polygon points="345,271 346,271 347,272 349,272 350,273 352,273 353,274 354,273 355,273 356,274 360,274 361,273 353,273 352,272 353,271 357,271 352,271 351,270 350,270 349,269 349,268 348,268 348,270 347,271" fill="#ad6e63"/>
<polygon points="15,3 15,4 16,5 16,10 18,10 18,9 19,8 21,8 22,9 23,8 24,9 24,10 25,9 26,10 27,9 27,5 28,4 28,0 19,0 19,1 18,2 16,2" fill="#8cc1fd"/>
<polygon points="341,212 340,212 339,211 339,210 339,211 338,212 337,212 336,211 334,211 333,212 330,211 329,212 328,211 327,212 326,212 326,213 333,213 334,214 334,217 332,219 329,218 330,219 335,219 337,217 336,217 336,218 335,219 334,218 334,215 335,214 335,213 336,212 338,212 339,211 340,212" fill="#a59fa5"/>
<polygon points="334,373 334,374 333,375 333,376 332,377 331,377 332,378 332,379 331,380 330,380 327,383 334,383" fill="#936f8b"/>
<polygon points="350,193 350,194 349,195 351,195 353,197 352,198 351,198 349,201 348,201 349,201 350,202 350,203 351,203 352,204 353,203 353,201 351,199 352,198 355,198 356,199 356,201 357,202 356,203 355,203 355,204 356,203 357,203 358,204 358,202 357,201 358,200 357,200 356,199 356,198 354,198 350,194" fill="#a59fa5"/>
<polygon points="1,309 1,311 2,312 3,311 5,313 7,313 8,314 9,314 10,313 11,314 13,314 14,315 15,315 16,314 17,315 17,316 18,316 19,315 20,316 20,317 21,317 21,315 18,315 17,314 14,314 12,312 11,312 10,311 9,312 8,311 8,310 7,310 6,309" fill="#c8857a"/>
<polygon points="153,357 154,357 155,358 157,358 158,359 158,360 157,361 156,361 155,360 156,361 157,361 158,360 159,361 159,364 160,365 163,366 165,368 165,369 167,372 167,371 169,369 168,369 165,367 166,366 168,366 169,365 170,366 171,366 170,366 167,362 167,363 168,364 165,366 160,363 160,362 161,361 162,362 161,361 160,361 156,357 156,356 156,357 155,358 154,357" fill="#1f1427"/>
<polygon points="0,253 1,254 0,255 1,255 2,256 4,256 5,255 6,256 9,256 10,257 8,259 8,261 9,261 10,262 11,262 12,261 14,261 15,262 14,263 15,262 16,263 16,258 15,259 13,259 12,260 11,260 10,259 10,257 9,256 9,255 10,254 11,254 11,253 10,254 9,253 8,253 8,254 7,255 5,255 4,256 3,255 3,254 1,254" fill="#745065"/>
<polygon points="9,270 8,270 7,271 6,270 6,268 4,270 3,270 2,271 1,271 0,270 0,271 1,272 1,273 0,274 0,275 2,275 1,274 2,273 4,273 5,272 7,274 8,274 7,274 6,273 7,272 8,272 9,271" fill="#745065"/>
<polygon points="28,355 38,365 40,365 41,364 40,363 40,361 39,361 38,362 37,361 36,361 35,360 34,360 32,358 31,358" fill="#eda2be"/>
<polygon points="34,279 33,278 32,278 31,279 26,279 25,280 22,280 21,281 11,281 10,282 8,282 8,284 9,285 12,286 11,285 11,284 10,285 9,284 9,283 11,281 12,282 17,282 18,281 20,281 21,282 22,281 25,281 26,280 29,280 30,279" fill="#f3fbfa"/>
<polygon points="0,324 0,325 2,327 2,328 3,328 5,330 6,330 17,341 15,339 15,338 11,334 11,333 5,327 4,328 3,327 3,326 2,326 1,325 1,324" fill="#4b3144"/>
<polygon points="383,255 377,255 376,254 377,255 381,255 382,257 381,258 380,257 376,257 375,259 373,259 373,262 372,263 370,263 369,262 370,263 368,264 371,267 370,269 368,269 367,270 369,269 371,270 371,271 369,272 369,273 371,271 371,267 370,266 371,265 373,265 373,260 374,259 375,260 375,263 377,264 377,263 375,262 375,259 376,258 377,259 377,261 378,260 380,261 380,259 381,258 383,258 382,257" fill="#c8c9cd"/>
<polygon points="0,362 0,368 3,370 5,370 11,374 13,374 14,375 15,374 18,376 20,376 22,378 23,378 24,376 25,377 25,380 24,381 25,383 25,379 26,378 28,378 32,380 31,378 30,379 28,377 26,377 23,373 23,375 24,376 23,377 18,376 17,375 21,373 16,372 14,369 15,367 16,368 15,367 13,368 9,366 7,367 6,366 7,365 4,365 2,363 1,364" fill="#c8857a"/>
<polygon points="38,0 39,1 39,2 40,2 42,4 44,4 46,6 47,6 47,4 48,3 52,3 53,4 53,5 52,6 53,6 54,7 54,8 53,9 54,8 55,8 54,7 54,6 53,5 53,4 50,2 50,1 51,0 52,0 47,0 47,1 46,2 45,2 44,1 44,0" fill="#8cc1fd"/>
<polygon points="361,349 361,350 362,350 364,352 365,352 367,354 368,354 370,356 371,356 373,358 374,358 375,359 376,359 378,361 379,361 380,362 381,362 382,363 383,363 382,362 383,361 382,360 381,360 380,359 379,359 378,358 377,358 376,357 375,357 374,356 373,356 370,354 368,354 367,353 366,353 365,352 365,351 363,351" fill="#936f8b"/>
</svg>