<svg xmlns="http://www.w3.org/2000/svg" width="605" height="320" viewBox="0 0 384 384">
<rect width="384" height="384" fill="#3e6387"/>
<polygon points="0,0 55,70 0,54 46,117 7,136 136,161 126,199 234,191 156,98 234,112 234,69 304,124 242,118 288,204 383,152 381,50 259,44 380,88 300,113 243,72 304,69 89,47 212,62 109,28 204,14" fill="#245381"/>
<polygon points="66,6 104,11 64,24 137,67 131,45 201,77 185,64 217,58 239,77 225,57 306,69 244,72 301,100 241,90 264,125 303,124 252,97 345,114 338,76 379,88 256,47 379,61 338,29 383,37 353,19 383,28 363,16 381,0" fill="#2d5d8c"/>
<polygon points="3,105 0,129 16,129 0,131 0,224 24,223 0,229 0,284 62,286 7,278 68,275 68,218 116,210 28,179 124,216 119,191 91,185 123,177 77,179 93,169 58,158 146,175 126,190 161,184 144,158 11,142 13,120 36,119" fill="#1a4973"/>
<polygon points="284,252 162,301 156,294 150,305 112,318 108,302 102,321 82,329 93,328 89,340 93,335 101,341 136,337 117,351 146,340 138,339 162,315 167,326 160,332 220,309 217,318 223,306 241,303 244,309 254,291 250,302 257,294 262,298 269,286 261,291 257,286 280,267" fill="#cbd1da"/>
<polygon points="376,245 352,243 359,235 345,231 342,254 303,273 298,305 283,307 289,317 276,328 298,341 262,359 224,350 209,364 221,369 211,373 228,382 288,369 254,379 349,383 339,378 347,374 382,383 368,367 383,369 383,340 375,338 383,337 383,316 376,321 349,304 376,308 374,315 383,307 353,286 362,276 350,259 361,259 344,244" fill="#133c5b"/>
<polygon points="302,291 278,300 270,330 252,323 226,335 236,320 221,331 225,340 199,331 171,347 168,336 173,348 159,360 171,355 177,369 165,381 147,377 164,366 150,364 158,355 135,366 124,354 117,375 99,376 100,362 98,383 127,373 129,383 164,383 188,364 212,383 283,375 228,383 208,364 224,349 262,358 297,340 275,327 291,319 282,307 297,305" fill="#304d62"/>
<polygon points="24,186 52,192 45,194 81,209 117,210 69,218 81,223 67,222 85,230 80,237 91,235 83,258 93,250 91,234 101,236 93,218 106,222 109,233 109,220 121,227 105,240 107,249 109,241 111,248 127,247 109,237 123,237 123,210 80,199 84,191 73,187 86,186 83,180 67,183 70,193 40,187 41,176 62,179 44,175" fill="#245381"/>
<polygon points="367,192 371,196 361,202 368,207 357,203 339,222 341,232 362,228 348,222 361,208 370,213 363,214 369,220 354,221 382,228 378,236 364,228 353,236 357,241 342,241 353,249 346,253 362,259 351,259 363,276 352,280 361,297 370,292 383,300 371,284 383,274 365,273 383,267 362,259 383,258 378,254 383,216 370,219 383,214 376,207 378,202 383,207 383,198" fill="#1a4973"/>
<polygon points="137,197 148,200 142,203 148,206 146,210 151,210 148,214 145,212 146,223 147,220 154,222 157,219 157,216 150,212 159,207 158,211 167,216 166,218 160,216 160,218 175,215 179,221 183,221 190,216 191,221 185,222 189,226 191,224 192,213 190,210 189,212 176,210 162,212 159,207 162,205 178,207 183,204 176,205 172,200 156,199 150,192 149,195 144,194" fill="#1a4973"/>
<polygon points="272,196 265,197 265,193 255,197 255,211 273,205 238,222 244,224 239,222 249,219 239,228 238,241 243,239 242,233 246,235 253,227 252,222 248,229 242,229 250,216 260,226 257,236 239,243 242,248 238,250 286,228 286,217 285,225 278,224 260,237 257,235 261,227 266,229 274,221 275,224 271,215 270,226 264,224 268,211 264,218 256,215 275,206" fill="#cbd1da"/>
<polygon points="28,77 34,75 67,84 68,89 71,86 76,92 98,99 93,106 102,107 105,102 101,99 109,101 107,109 111,107 122,114 162,117 131,110 133,106 147,108 142,103 145,99 129,100 132,102 130,109 123,112 123,103 118,109 119,104 111,103 108,98 93,92 90,96 87,89 72,85 77,80 64,82 63,77 56,78 54,72 33,73" fill="#2d5d8c"/>
<polygon points="275,207 255,216 256,219 261,219 259,226 257,225 258,222 255,222 253,225 251,223 253,217 240,222 242,223 243,221 246,226 243,229 245,230 243,234 240,232 241,229 238,223 238,237 239,227 241,229 240,235 241,238 244,238 244,242 256,236 257,227 260,230 261,228 263,233 271,229 271,226 269,226 271,222 273,223 269,218 271,214 275,216 273,220 276,218 276,226 278,226" fill="#e4e9ed"/>
<polygon points="55,163 59,161 66,163 67,169 77,167 70,166 73,163 70,164 68,161 75,162 73,159 75,156 79,159 77,163 84,162 87,166 85,168 79,166 87,167 90,172 79,169 81,173 78,175 70,173 77,178 83,176 95,180 96,176 104,178 104,175 109,174 111,178 123,176 124,179 121,180 123,181 132,177 125,171 117,172 116,168 122,167 120,165 116,167 112,164 113,167 110,169 106,164 94,161 90,164 88,159 83,161 83,157 77,154 71,156 66,153" fill="#245381"/>
<polygon points="198,192 196,194 196,195 195,196 195,199 196,200 196,201 199,206 199,208 200,209 202,209 204,211 205,211 206,212 208,212 210,214 210,211 211,210 212,210 213,211 213,213 213,206 212,205 212,202 211,201 211,199 210,198 209,195 206,192 205,192 204,191 200,191 199,192" fill="#e4e9ed"/>
<polygon points="287,221 287,228 279,233 239,251 237,250 237,247 239,252 237,254 230,250 218,257 215,256 215,259 224,256 226,258 206,267 288,230 285,230 287,228" fill="#a9b3c0"/>
<polygon points="192,262 205,258 207,260 206,265 203,266 205,267 210,263 213,264 217,260 218,261 220,259 222,260 226,256 228,257 229,256 227,255 221,259 215,260 213,258 215,255 218,256 220,254 223,254 229,251 230,249 234,251 228,248 224,249 219,247 215,244 216,241 206,238 206,246 209,249 209,252 203,257 198,258 194,257 195,261" fill="#8a97aa"/>
<polygon points="225,17 227,23 232,22 232,28 227,30 238,32 243,29 259,29 260,33 267,34 260,37 268,42 265,38 326,45 315,42 315,39 310,38 308,41 296,36 291,39 276,34 275,29 289,33 291,30 287,30 285,26 291,28 284,24 278,26 276,24 280,20 268,24 263,23 263,19 257,20 257,16 248,17 247,14 237,15 235,12 239,17 247,17 248,21" fill="#245381"/>
<polygon points="159,101 168,104 169,102 171,102 178,108 180,106 184,108 186,107 186,104 188,102 189,106 191,106 191,104 188,102 191,99 193,101 193,106 204,106 205,110 212,113 211,116 214,116 216,118 218,112 210,110 210,108 216,104 210,102 207,104 206,101 208,98 205,99 198,97 194,99 191,97 186,97 185,102 182,98 184,103 179,105 171,98 169,101" fill="#2d5d8c"/>
<polygon points="187,225 184,223 179,223 177,225 176,225 175,226 174,226 173,225 173,224 172,224 172,225 171,226 171,228 170,229 169,229 169,231 168,232 168,233 169,234 169,235 170,235 171,236 176,236 179,234 181,234 182,233 184,233 185,232 186,232 186,230 187,229" fill="#0b1b3e"/>
<polygon points="184,338 165,333 161,354 156,353 156,347 150,347 157,337 150,346 145,344 144,356 157,349 150,355 159,355 154,360 138,361 135,356 139,353 132,353 138,345 131,347 128,358 127,351 109,362 97,361 99,365 94,365 92,374 117,374 114,370 122,366 117,358 124,353 124,366 132,362 140,369 143,366 135,364 142,360 149,363 148,359 153,361 149,367 158,365 159,357 168,354 161,354 167,336 176,340 169,343 171,346" fill="#4d647b"/>
<polygon points="362,189 359,192 355,189 351,191 350,186 349,192 343,191 341,199 338,199 331,213 323,215 316,213 315,217 312,216 313,206 318,206 314,201 311,209 306,206 300,209 298,216 294,211 297,212 297,219 305,222 304,229 306,228 308,233 311,230 307,228 314,228 311,227 312,225 316,225 315,230 314,221 317,214 319,216 317,222 321,221 321,226 324,218 327,221 325,218 327,214 345,204 342,201 344,194 351,196 350,201" fill="#8a97aa"/>
<polygon points="185,202 180,203 184,205 178,208 162,206 157,208 155,212 152,210 151,212 154,211 152,214 155,213 158,219 154,223 147,221 145,225 149,234 151,232 154,235 153,239 156,241 153,247 155,249 156,246 159,247 157,249 161,244 162,249 162,242 165,240 165,238 163,241 160,237 156,238 152,232 155,232 154,229 150,228 151,223 162,220 159,218 160,215 166,217 157,210 160,207 162,211 164,209 189,211 189,205 184,206" fill="#245381"/>
<polygon points="305,233 301,235 303,236 302,238 295,241 296,242 288,251 289,259 285,267 279,272 279,274 275,277 276,279 271,284 277,282 283,277 287,283 287,277 290,277 290,279 292,276 288,276 286,278 284,277 286,269 290,266 295,268 295,265 308,254 308,251 303,251 298,254 294,261 292,260 294,255 293,249 297,247 296,244" fill="#8a97aa"/>
<polygon points="189,181 193,185 188,190 190,190 191,188 195,190 191,188 193,185 196,185 198,187 203,185 211,189 212,192 213,191 215,193 218,193 219,194 218,195 221,197 220,201 221,200 222,202 227,201 228,195 225,191 228,188 228,184 227,185 225,184 222,186 222,188 225,190 225,193 223,195 220,194 214,187 212,187 211,183 206,183 200,178 202,176 199,177 200,179 195,183" fill="#2d5d8c"/>
<polygon points="186,238 174,241 176,242 174,244 174,246 175,247 174,248 174,251 175,252 173,253 173,258 173,255 175,251 177,249 178,250 178,254 177,255 178,258 177,259 176,258 176,261 178,260 180,261 180,263 178,267 182,265 182,263 181,262 182,261 182,255 185,253 186,254 188,251 186,249 186,246 187,245 186,244" fill="#cbd1da"/>
<polygon points="294,241 295,242 289,247 287,246 288,245 270,254 271,255 272,253 282,249 285,252 283,255 280,255 282,265 278,270 276,269 269,274 269,277 258,286 258,289 264,289 267,285 271,288 270,286 275,283 277,284 275,286 280,288 280,285 284,282 283,278 273,285 270,284 275,279 274,277 284,267 288,259 287,251 290,248 291,249 290,247 295,242" fill="#a9b3c0"/>
<polygon points="208,149 204,145 201,145 199,143 199,141 197,141 195,144 193,142 195,141 195,138 191,138 190,140 187,141 180,140 177,142 174,142 171,140 163,142 168,142 169,143 168,146 169,146 170,142 175,146 177,146 176,144 177,143 184,146 185,145 186,146 185,148 181,149 179,148 178,150 180,152 178,153 179,154 183,154 180,152 184,149 188,149 189,146 191,149 192,147 195,149 198,149 199,153" fill="#1a4973"/>
<polygon points="131,275 122,278 119,280 111,282 110,283 111,284 110,286 108,284 108,290 106,291 105,294 106,298 105,299 109,297 112,297 121,294 122,293 121,292 121,287 122,285 120,284 119,282 121,280 122,282 124,281 125,282 124,281 126,280 127,278 129,282 128,285 129,290 128,291 134,290 135,289 134,288 135,286 134,283 133,283 130,277" fill="#cbd1da"/>
<polygon points="313,176 313,178 314,177 318,180 322,179 327,180 328,181 327,183 324,182 323,183 329,184 330,185 329,187 339,184 341,180 343,182 348,179 349,180 352,179 353,180 356,177 352,176 347,177 343,174 335,175 331,172 331,169 330,170 325,167 324,168 325,171 324,173 323,172 316,173 322,174 323,175 321,177" fill="#1a4973"/>
<polygon points="15,321 31,333 38,329 42,335 40,339 48,341 86,327 84,320 83,325 82,321 72,325 67,321 74,331 63,322 67,325 61,328 59,323 41,325 41,329 35,331 28,327 35,323 25,328 19,323 27,315 29,318 46,310 57,317 48,321 56,320 56,314 65,320 64,316 75,314 61,317 47,311 46,307 45,311 36,311 36,315 28,314" fill="#a9b3c0"/>
<polygon points="211,382 205,378 207,376 198,374 197,371 194,370 196,368 192,365 188,365 187,366 183,366 181,368 182,370 181,373 179,371 174,373 170,377 168,377 167,379 170,377 172,379 169,382 165,383 169,383 170,382 172,383 180,383 181,382 182,383 193,383 190,383 188,381 189,380 192,380 196,383 204,383 205,382 211,383" fill="#133c5b"/>
<polygon points="131,203 129,205 129,206 128,207 129,206 130,207 130,210 131,211 132,211 135,214 135,215 137,215 138,216 139,215 140,215 141,216 142,216 142,210 141,209 141,207 140,206 140,205 138,203 137,203 136,202 134,202 133,203" fill="#e4e9ed"/>
<polygon points="0,285 0,296 8,293 9,295 7,296 7,298 13,294 17,295 20,292 26,297 27,293 29,297 36,297 38,299 40,298 41,300 39,302 36,301 38,303 62,293 62,287 57,290 49,288 49,290 51,291 47,293 45,292 43,294 41,291 36,292 35,289 34,290 27,287 23,287 21,289 19,285 16,285 12,288 9,285 8,287 2,284" fill="#133c5b"/>
<polygon points="198,170 198,175 199,174 202,174 203,173 205,175 206,174 208,174 209,175 211,175 212,176 213,175 214,176 214,177 215,177 216,178 216,182 218,180 219,181 220,180 222,180 223,181 223,182 224,182 224,178 225,177 225,175 224,174 224,175 223,176 222,175 222,172 214,172 211,169 210,169 209,170 203,170 202,169 199,171" fill="#1a4973"/>
<polygon points="222,76 221,79 222,83 220,85 219,89 217,91 215,91 213,89 214,86 212,86 213,88 211,89 210,92 216,93 218,92 220,96 219,98 225,98 227,95 229,96 231,95 232,97 229,99 232,98 233,101 235,101 236,91 234,88 237,85 237,80 237,85 230,89 226,84 223,84 222,82 226,81 233,85 235,83 235,80 232,82 225,81 223,79 223,76" fill="#2d5d8c"/>
<polygon points="53,353 66,353 71,350 73,352 89,347 105,345 107,343 125,341 125,345 114,350 112,355 115,354 117,356 120,350 122,352 127,349 119,350 120,347 128,342 133,342 136,338 131,337 128,339 126,337 125,339 109,339 108,341 104,340 101,342 90,335 93,338 92,341 88,341 74,348 67,348 64,351" fill="#a9b3c0"/>
<polygon points="146,176 143,179 135,179 127,184 125,182 123,186 119,185 118,187 116,185 110,186 108,184 109,181 117,182 113,180 99,182 98,180 99,185 92,185 93,188 101,187 100,186 104,184 108,188 106,190 109,190 110,192 108,194 99,195 101,195 102,198 104,198 103,196 105,195 106,199 108,195 119,190 121,192 116,195 123,192 119,189 121,188 124,190 122,188 124,188 125,184 127,185 126,187 139,183 142,180 144,181" fill="#245381"/>
<polygon points="107,83 109,87 111,87 115,90 116,89 118,90 120,89 121,90 128,90 129,89 130,90 131,88 133,88 134,90 137,87 142,87 147,91 149,91 150,92 149,90 147,89 149,88 147,85 146,86 139,86 138,85 134,85 131,83 126,83 125,82 122,83 119,81 118,79 116,79 115,80 113,78 112,78 112,79 110,80 109,82 108,81" fill="#2d5d8c"/>
<polygon points="6,77 6,82 12,82 15,85 4,89 3,92 13,89 14,93 24,92 25,95 26,91 28,96 30,94 32,95 32,100 27,102 38,105 31,107 34,109 42,108 39,107 42,103 49,105 44,99 43,94 41,96 35,92 37,89 35,85 30,88 25,88 21,85 24,82 28,84 28,81 31,82 34,80 48,85 49,83 37,79 26,79 24,81 7,80" fill="#1a4973"/>
<polygon points="279,302 277,300 276,305 273,308 267,310 263,310 260,307 256,307 256,309 257,307 260,308 259,309 260,312 258,313 257,311 258,313 256,319 258,320 251,321 249,319 250,318 246,320 242,320 246,321 246,324 243,327 246,324 251,326 251,323 253,322 255,324 254,326 256,326 257,329 260,330 267,328 270,329 264,325 268,320 270,322 275,320 270,319 267,314 270,312 272,308 275,308 279,304" fill="#4d647b"/>
<polygon points="163,316 162,316 162,317 160,318 159,322 157,324 155,323 155,325 154,326 150,324 150,325 152,326 152,328 150,330 148,327 146,331 139,339 147,339 149,338 154,333 157,333 159,332 160,329 162,327 165,327 166,326 165,325 163,326 161,325 161,323 163,322" fill="#e4e9ed"/>
<polygon points="218,212 216,212 216,213 217,214 217,215 216,216 216,220 215,221 214,221 214,223 213,224 213,226 212,227 212,232 211,233 210,233 212,235 212,231 213,230 214,230 215,231 215,235 216,235 216,231 219,228 219,227 221,225 222,226 221,225 223,223 226,224 226,223 227,222 226,221 226,219 225,219 223,217 223,218 222,219 220,217 220,213 219,213" fill="#245381"/>
<polygon points="100,284 95,284 94,285 92,285 90,286 91,288 91,291 90,292 89,291 89,289 89,301 90,303 93,306 93,308 95,307 97,309 96,316 97,316 97,309 96,308 96,306 94,304 94,301 97,297 99,297 100,296 100,293 99,292 99,289 100,288" fill="#cbd1da"/>
<polygon points="258,160 258,163 259,164 259,165 265,171 265,181 266,182 265,183 267,183 268,182 269,182 269,168 267,168 266,167 266,168 265,169 261,165 261,164 258,161" fill="#cbd1da"/>
<polygon points="359,137 351,137 354,140 357,138 359,140 358,145 343,145 343,148 346,151 348,148 352,150 351,155 331,151 331,154 328,155 330,157 332,156 335,158 334,156 336,155 337,158 341,161 343,161 346,157 347,161 349,159 352,161 353,158 356,158 360,162 360,152 359,157 351,149 353,146 355,148 357,146 360,147" fill="#1a4973"/>
<polygon points="314,134 314,137 315,139 317,139 323,142 328,142 335,145 338,145 339,146 338,148 340,147 341,143 343,142 339,142 337,143 335,141 336,139 338,139 340,137 341,138 348,139 347,137 345,138 343,136 338,136 334,134 332,134 333,136 332,138 329,136 327,137 326,135" fill="#1a4973"/>
<polygon points="219,309 214,313 214,309 199,317 191,317 189,320 176,325 172,330 170,329 172,327 165,330 162,329 161,332 157,334 168,328 170,331 175,330 177,327 179,330 179,327 183,326 182,323 189,320 191,321 190,323 196,323 197,321 199,322 200,320 205,319 206,321 203,325 209,323 211,325 210,327 203,329 202,327 203,329 212,325 209,321 214,313 217,319 221,318 217,313" fill="#a9b3c0"/>
<polygon points="194,197 194,198 193,199 193,205 195,207 195,208 200,213 200,214 201,214 202,215 205,216 207,218 210,218 211,217 212,217 213,216 213,214 212,213 212,211 211,211 211,214 210,215 208,213 206,213 205,212 204,212 202,210 200,210 198,208 198,206 197,205 197,204 194,199" fill="#cbd1da"/>
<polygon points="311,232 306,236 305,234 304,237 297,244 298,247 294,249 295,255 293,260 294,260 299,252 303,250 308,250 309,251 309,254 299,264 298,263 296,265 296,267 298,265 300,266 301,263 304,260 307,259 312,252 312,248 310,246 305,247 302,249 300,247 301,240" fill="#6a7d93"/>
<polygon points="300,275 297,278 296,278 296,280 298,279 299,280 299,281 296,284 294,285 293,283 291,282 293,278 290,281 289,281 289,284 288,286 282,292 282,295 281,296 285,296 289,294 291,291 292,293 293,293 295,289 300,287 300,281 299,280 301,278" fill="#e4e9ed"/>
<polygon points="261,156 260,157 260,158 259,159 259,161 262,164 262,165 265,168 265,167 266,166 267,167 269,167 269,165 268,164 268,161 267,160 267,159 266,158 266,157 265,157 264,156" fill="#e4e9ed"/>
<polygon points="235,222 233,222 233,226 231,228 231,231 230,232 232,234 230,237 231,236 233,239 233,242 232,243 232,245 233,245 234,244 234,242 235,241 235,225 234,224 234,223" fill="#2d5d8c"/>
<polygon points="188,224 184,222 179,222 178,221 178,219 175,216 170,217 168,219 165,219 164,218 163,220 164,219 168,219 169,220 166,225 166,229 167,230 167,232 165,233 161,231 162,232 166,233 168,231 168,229 170,228 170,226 172,223 173,223 174,225 175,225 179,222 184,222 188,225 188,227" fill="#133c5b"/>
<polygon points="69,282 69,280 65,278 67,276 58,275 58,270 49,269 48,265 38,269 43,271 38,275 32,274 30,272 31,270 35,269 23,267 24,269 21,271 16,271 16,273 19,273 21,276 25,273 31,276 29,274 31,273 33,275 41,277 41,275 44,274 51,279 52,277 55,279 53,280 60,285 62,285 55,281 57,276 59,278 65,278 66,280 64,282" fill="#245381"/>
<polygon points="168,220 164,220 163,221 163,222 162,223 161,223 161,230 162,231 164,231 165,232 166,232 166,230 165,229 165,225 166,224 166,223 168,221" fill="#0b1b3e"/>
<polygon points="18,341 25,357 33,364 41,365 43,369 48,365 60,365 58,364 62,359 65,362 63,364 70,360 80,361 80,364 74,368 81,363 82,365 82,360 74,360 79,356 87,356 100,351 104,352 100,356 102,356 104,352 112,351 117,347 90,350 62,359 57,357 46,360 44,363 43,360 35,362 30,359 22,346 23,341 27,344 19,337" fill="#6a7d93"/>
<polygon points="103,91 103,95 105,94 107,96 110,96 113,94 115,95 117,93 120,94 124,98 130,97 129,96 130,95 132,95 138,99 145,96 155,96 155,95 150,95 148,93 141,93 140,92 138,92 140,94 138,96 133,93 129,93 128,92 122,92 121,93 120,92 118,94 117,91 110,89 110,92 111,93 110,94 105,94 104,91" fill="#1a4973"/>
<polygon points="193,213 193,214 198,220 198,224 197,225 194,225 193,224 193,227 197,230 198,229 200,229 201,228 204,228 205,229 208,228 209,229 209,230 209,229 213,222 211,225 209,225 208,226 207,225 205,225 204,224 201,223 196,218 196,217 193,214" fill="#4d647b"/>
<polygon points="164,163 166,163 167,165 169,165 170,164 175,164 178,167 176,169 176,170 178,170 181,172 183,170 184,171 186,171 188,170 191,172 196,171 194,170 191,170 189,168 184,168 183,166 182,166 182,168 180,169 179,168 179,165 180,164 179,162 176,162 175,163 173,162 165,162" fill="#2d5d8c"/>
<polygon points="23,342 25,352 35,361 43,359 44,362 46,359 57,356 62,358 111,345 118,347 112,352 104,353 108,353 106,357 99,357 101,359 108,356 116,357 111,355 113,350 125,344 125,342 107,344 66,354 54,355 53,352 48,353 48,356 41,353 40,355 38,352 37,354 40,355 35,357 27,350 28,346 31,347" fill="#8a97aa"/>
<polygon points="271,136 271,138 274,138 280,141 287,141 291,143 292,141 293,143 296,143 298,145 298,144 304,139 308,140 309,142 312,142 315,144 321,145 321,143 317,141 311,140 308,135 305,135 307,136 305,138 303,136 301,137 301,138 296,142 294,141 293,138 292,140 290,138 288,139 285,137 284,138 282,137 277,138 273,135" fill="#2d5d8c"/>
<polygon points="176,362 171,356 171,357 167,360 159,361 161,363 164,363 165,364 165,366 164,367 162,366 160,368 158,367 157,368 154,368 156,370 156,372 155,373 151,372 151,374 150,375 148,375 148,377 149,378 153,378 155,380 154,381 155,382 157,379 160,379 161,380 159,381 159,382 160,382 162,379 164,379 165,380 165,379 163,378 167,373 169,373 170,371 174,369 176,369 176,368 174,367" fill="#133c5b"/>
<polygon points="368,158 363,163 364,167 370,166 373,169 371,171 363,169 368,172 367,175 363,173 366,175 365,178 366,180 367,178 368,185 370,186 368,191 373,192 375,194 374,196 377,197 376,199 372,196 376,199 379,198 375,195 379,193 383,197 381,199 383,200 383,192 378,190 380,188 383,190 383,188 378,187 377,185 376,187 370,185 370,183 374,181 372,179 373,176 380,178 383,177 383,167 380,168 377,165 370,164 369,161 375,161 375,159" fill="#245381"/>
<polygon points="258,164 263,171 263,184 267,184 268,186 264,188 259,188 258,187 257,191 253,191 252,190 253,186 252,186 252,190 254,192 252,194 255,194 257,196 265,192 267,196 268,194 267,196 266,192 264,191 267,189 272,190 270,188 272,186 271,183 273,182 274,184 275,182 273,180 271,183 270,181 267,184 264,183 265,182 264,181 264,171" fill="#a9b3c0"/>
<polygon points="45,307 46,306 49,309 54,311 61,316 65,315 68,313 70,313 73,311 78,311 74,311 72,309 68,308 64,305 64,302 64,304 63,305 61,305 60,304 58,305 57,304 57,299 54,300 54,302 53,303 52,301 52,303 50,305 49,305 50,307 49,309 46,306" fill="#8a97aa"/>
<polygon points="57,318 55,316 52,315 50,313 46,311 34,317 32,317 29,319 27,319 20,323 21,323 25,327 27,327 28,329 27,325 29,323 35,322 37,324 37,325 39,325 40,326 39,325 40,324 43,324 45,320 49,317 56,317" fill="#8a97aa"/>
<polygon points="2,170 5,171 8,168 14,171 16,175 20,176 21,174 22,177 24,176 20,173 21,172 15,172 18,167 24,168 22,166 24,164 32,168 32,173 34,171 42,172 43,168 49,164 52,165 52,163 49,162 43,167 34,167 34,162 39,161 44,163 49,158 45,159 44,162 40,158 36,158 31,163 30,161 26,162 15,156 18,160 14,165 17,165 16,169 10,169 7,166 12,163 7,163 7,166 2,168" fill="#245381"/>
<polygon points="155,165 155,166 156,167 162,167 163,168 164,168 165,169 165,170 164,171 163,171 164,172 164,173 166,173 168,171 170,173 170,174 173,174 173,173 174,172 174,170 174,171 173,172 171,170 171,167 168,167 167,168 165,165 162,165 160,163 159,163 157,165" fill="#1a4973"/>
<polygon points="143,260 141,260 138,262 137,261 137,262 136,263 137,264 135,266 132,267 132,270 132,269 133,268 134,269 134,270 136,272 136,275 137,275 137,272 138,271 141,274 140,275 140,278 141,277 141,269 142,268 144,270 144,272 144,266 143,265 143,262 142,261" fill="#cbd1da"/>
<polygon points="109,252 106,253 106,254 107,255 105,257 105,260 103,262 102,261 101,262 99,262 100,262 102,265 102,266 101,267 101,269 102,270 103,269 106,271 106,276 109,275 108,274 110,272 109,271 110,270 111,270 111,261 110,261 109,260 107,260 106,259 106,257 107,256 108,256 109,257 109,256 108,255" fill="#8a97aa"/>
<polygon points="196,247 197,248 197,253 195,255 200,255 201,254 199,252 199,247" fill="#0b1b3e"/>
<polygon points="86,108 83,107 81,112 76,113 65,110 61,110 57,114 55,112 51,112 48,115 49,117 47,119 45,117 42,117 42,121 43,121 42,120 44,118 48,120 50,117 54,118 57,116 59,117 58,121 60,121 61,119 64,118 68,119 67,116 61,118 60,117 60,115 63,113 66,114 71,113 72,118 79,119 79,117 81,116 82,111 83,110 86,111" fill="#1a4973"/>
<polygon points="159,173 159,176 156,178 157,178 159,180 161,180 163,182 163,184 165,186 173,186 174,188 173,189 171,189 171,190 173,190 174,191 175,190 177,191 175,187 177,184 180,184 180,183 177,181 176,181 176,183 175,184 171,184 170,182 164,182 163,180 164,179 166,179 168,177 169,177 169,176 167,175 166,177 164,178 163,177 164,175 163,175 163,177 161,179 160,178 160,174" fill="#1a4973"/>
<polygon points="158,91 160,89 162,89 163,88 168,88 169,89 169,87 170,86 174,86 175,88 180,89 181,90 180,91 184,93 186,93 187,92 189,93 191,91 192,92 194,90 201,91 202,89 200,89 199,88 187,89 185,87 183,87 182,86 171,85 170,83 173,81 173,80 171,80 169,82 170,83 168,87 166,86 161,87" fill="#2d5d8c"/>
<polygon points="298,113 301,116 306,116 310,119 317,119 318,121 320,120 324,123 325,122 328,123 329,121 333,121 330,117 328,121 326,117 325,118 324,117 318,117 317,116 317,113 317,114 315,115 314,117 311,113 312,112 315,112 315,111 311,111 309,110 309,111 305,114 300,114" fill="#2d5d8c"/>
<polygon points="349,221 354,226 359,224 363,228 362,229 351,228 352,231 359,231 355,231 354,230 356,228 360,228 361,230 362,229 363,230 364,227 367,229 366,231 376,230 381,231 381,228 376,226 372,227 371,225 366,226 363,224 358,224 352,220 353,218 359,218 361,220 364,218 368,220 368,217 366,218 362,214 366,213 369,215 369,213 365,211 363,212 361,209 355,210" fill="#245381"/>
<polygon points="273,202 272,204 269,205 267,207 264,207 262,209 255,212 254,211 254,205 253,204 254,198 253,204 254,205 254,211 255,212 253,214 248,211 243,214 242,213 242,210 241,219 238,221 243,219 245,217 252,215 254,213 256,213 263,209 265,209 271,206" fill="#a9b3c0"/>
<polygon points="61,69 62,71 67,74 69,73 72,74 73,73 80,73 82,76 80,78 79,77 77,77 77,78 79,79 81,78 84,81 89,82 88,81 89,79 95,79 96,78 103,80 104,76 102,76 101,78 98,78 97,75 95,77 93,77 90,75 91,73 93,74 93,71 90,72 88,69 86,69 83,67 82,70 81,68 79,70 76,67 71,72 68,72 67,70 65,71 62,68" fill="#2d5d8c"/>
<polygon points="113,258 114,260 119,263 118,269 116,271 118,275 119,273 121,274 121,277 119,279 129,275 127,276 126,274 128,273 127,270 130,269 134,272 136,280 133,282 135,283 136,287 135,281 141,278 140,279 138,274 139,273 140,274 138,272 138,275 137,276 135,275 134,271 135,268 132,271 131,270 131,267 133,265 130,267 129,266 125,270 121,266 121,260 120,262 118,262" fill="#a9b3c0"/>
<polygon points="176,199 176,201 178,203 179,203 180,202 184,202 185,201 187,203 185,205 185,206 186,206 188,204 189,204 190,203 189,202 189,200 188,200 187,199 181,199 181,200 180,201 178,201" fill="#2d5d8c"/>
<polygon points="151,224 152,225 151,228 152,229 153,228 154,228 156,231 156,232 155,233 154,232 153,232 155,234 156,237 157,237 158,236 159,237 160,236 161,237 163,237 164,238 164,239 163,240 162,239 162,240 163,240 164,239 164,237 163,236 162,236 161,235 161,234 162,233 164,233 162,233 160,231 160,229 159,228 159,223 162,221 157,224" fill="#1a4973"/>
<polygon points="90,329 89,330 81,332 78,334 70,336 67,338 50,343 49,344 48,351 48,349 49,348 50,350 52,350 52,348 53,347 54,349 58,348 58,344 61,342 66,341 69,339 70,340 74,338 78,338 81,336 84,336 87,334 89,334" fill="#0b1b3e"/>
<polygon points="96,240 95,241 95,244 98,247 100,247 101,246 101,245 100,244 100,242 98,240" fill="#e4e9ed"/>
<polygon points="209,233 208,233 207,234 204,234 203,235 193,235 192,236 189,236 188,237 188,241 189,242 188,243 190,243 192,240 193,241 196,238 198,240 196,238 196,237 197,236 200,236 201,237 203,237 204,238 204,239 204,237 206,235 207,235 208,234 210,237 209,236" fill="#4d647b"/>
<polygon points="81,283 80,284 78,283 77,285 75,286 76,287 73,289 72,289 71,287 73,295 70,298 71,300 70,302 71,304 72,304 71,303 72,302 74,302 74,298 75,297 76,298 76,306 76,299 79,293 80,294 81,293 82,294 82,297 84,299 86,299 87,300 86,299 87,297 86,298 84,297 86,294 84,292 85,290 84,288 84,284 82,284" fill="#245381"/>
<polygon points="65,318 65,319 67,320 71,324 75,322 78,322 79,321 81,321 82,320 83,321 83,324 84,323 84,321 83,320 84,319 86,320 86,326 87,326 90,323 92,323 90,323 89,324 86,322 92,319 91,318 91,316 89,318 85,319 79,313 73,316" fill="#8a97aa"/>
<polygon points="197,136 198,139 203,139 204,140 205,139 209,139 211,142 211,139 210,140 209,139 209,137 210,136 216,139 214,141 215,142 217,141 219,142 219,146 221,144 222,144 220,143 220,141 215,136 218,134 221,135 221,133 220,132 219,133 214,133 213,132 212,133 211,132 207,133 208,133 210,135 209,137 207,136 206,137 205,136 203,136 202,137 198,137" fill="#2d5d8c"/>
<polygon points="367,174 367,172 362,169 361,154 361,167 359,169 354,163 345,165 338,161 327,162 330,163 332,166 334,166 335,163 337,164 339,163 340,166 336,171 339,170 340,168 344,168 346,170 349,167 351,172 350,169 353,165 356,167 353,170 360,172 358,175 354,175 356,175 358,178 361,168 362,175 363,171 364,173" fill="#2d5d8c"/>
<polygon points="273,302 272,301 272,300 268,297 268,294 268,295 267,296 267,300 266,301 264,301 263,300 263,298 260,302 259,302 258,301 258,300 258,301 257,302 254,302 253,301 252,301 250,303 248,303 245,305 244,304 246,307 249,305 252,307 254,304 261,304 263,306 267,306 269,304 272,304 273,303" fill="#e4e9ed"/>
<polygon points="171,131 172,132 172,133 174,133 175,132 177,134 177,133 180,130 181,131 189,131 191,129 194,131 195,130 197,132 200,132 200,131 197,128 195,128 194,129 192,129 191,128 190,128 189,129 187,129 186,128 183,128 182,129 178,129 177,128 177,127 176,127 175,128 174,128 173,127 173,130 172,131" fill="#2d5d8c"/>
<polygon points="283,211 281,213 280,213 279,212 278,213 277,212 277,214 278,215 278,220 279,221 279,222 280,222 281,221 282,221 283,222 284,222 284,218 283,217 284,216 284,215 283,214" fill="#6a7d93"/>
<polygon points="233,172 232,172 231,173 229,173 229,174 227,176 227,180 226,181 226,182 227,183 228,182 231,182 230,181 230,178 231,177 231,176 232,175 234,177 235,176 232,173" fill="#1a4973"/>
<polygon points="91,141 92,142 94,142 95,143 95,144 96,144 97,145 103,145 104,144 106,144 107,145 111,145 112,144 115,144 116,143 118,143 119,144 121,144 121,143 118,143 116,141 115,141 114,142 112,142 111,141 109,141 108,140 104,140 101,138 100,138 100,139 98,141 96,141 96,142 95,143 93,140 92,140" fill="#1a4973"/>
<polygon points="128,206 129,207 128,208 128,213 129,214 129,215 131,217 132,217 134,219 136,219 137,220 137,221 139,221 140,220 142,220 143,219 143,212 143,216 142,217 141,217 140,216 139,216 138,217 137,216 135,216 134,215 134,214 132,212 131,212 129,210 129,207" fill="#cbd1da"/>
<polygon points="363,152 363,162 365,161 368,157 370,157 371,158 375,158 376,159 376,161 375,162 372,162 370,161 370,163 372,163 373,164 377,164 379,165 380,167 382,167 383,166 383,158 381,157 381,156 383,155 380,155 376,153 373,153 373,155 372,156 370,154 370,153" fill="#1a4973"/>
<polygon points="24,302 17,303 15,301 11,301 9,303 4,303 3,304 2,303 0,305 0,312 1,313 1,316 3,316 4,317 8,315 10,316 12,316 14,313 18,311 17,311 15,309 16,307 18,307 19,308 20,307 22,307 23,308 21,309 21,310 23,310 25,308 23,305" fill="#133c5b"/>
<polygon points="183,159 183,160 184,159 185,159 186,160 186,163 188,163 189,164 190,164 191,163 192,163 193,164 194,164 196,162 195,161 192,161 191,160 190,160 188,158 188,157 186,157 185,158 184,158" fill="#1a4973"/>
<polygon points="167,188 166,189 163,189 162,190 162,192 161,193 158,193 157,192 154,192 153,191 152,191 152,192 153,193 153,195 156,195 157,196 156,197 157,198 160,195 161,195 164,192 165,193 165,192 166,191 166,189" fill="#2d5d8c"/>
<polygon points="48,125 48,127 52,130 56,130 57,129 59,130 61,130 62,132 61,133 60,132 58,132 57,133 58,134 66,134 69,132 71,132 72,133 76,133 76,132 74,132 72,130 73,129 66,129 66,131 64,132 61,130 63,129 64,127 59,127 55,124 54,125 51,125 50,124" fill="#1a4973"/>
<polygon points="202,158 206,158 207,157 213,157 214,156 216,156 216,154 217,153 220,153 222,151 221,151 219,153 215,148 215,146 216,145 213,145 212,146 211,145 208,144 207,145 210,148 211,147 215,151 215,153 214,154 213,154 212,153 212,152 212,154 210,156 208,156 207,157 203,157" fill="#2d5d8c"/>
<polygon points="158,336 156,336 155,338 153,337 149,341 147,341 143,344 145,346 145,352 142,354 140,353 139,350 141,348 142,349 140,346 135,349 137,348 139,349 136,353 134,351 133,352 134,354 135,353 138,354 136,356 138,358 138,360 141,360 141,358 143,357 145,352 145,345 144,344 146,343 147,345 150,345 152,348 156,346 156,343 159,340 161,340" fill="#6a7d93"/>
<polygon points="41,197 41,199 42,199 43,200 48,200 51,203 54,203 55,204 57,204 55,202 55,201 56,200 56,199 55,198 53,198 52,197 49,197 48,196 47,196 46,197" fill="#133c5b"/>
<polygon points="125,213 125,226 126,228 126,226 127,225 128,226 129,231 132,234 131,235 128,235 129,237 128,238 126,238 125,237 126,235 126,230 125,231 126,232 125,234 125,240 126,238 133,238 131,236 132,235 132,233 129,231 129,229 130,228 140,228 141,227 140,228 137,228 133,226 125,217" fill="#4d647b"/>
<polygon points="204,353 202,353 201,352 200,352 199,351 199,349 198,349 197,350 196,349 195,349 194,350 192,350 191,351 183,351 179,355 180,356 180,359 181,360 183,360 185,358 183,356 184,355 185,355 186,356 191,356 191,355 193,353 196,353 197,354 203,354" fill="#133c5b"/>
<polygon points="115,251 114,252 114,253 113,254 113,255 114,255 115,256 115,257 116,258 116,259 117,259 118,258 119,259 120,259 120,254 119,253 119,252 118,251" fill="#e4e9ed"/>
<polygon points="164,125 165,126 167,123 170,125 174,125 175,126 176,125 177,125 178,126 182,126 183,125 184,125 185,126 190,126 191,125 192,125 193,126 196,126 195,125 194,126 193,126 192,125 190,125 189,124 188,124 187,125 185,123 184,123 182,120 181,121 180,121 179,120 178,121 176,121 174,123 171,123 170,122 168,122 167,123 165,123 165,124" fill="#1a4973"/>
<polygon points="80,126 80,127 81,126 83,127 84,126 87,126 89,128 89,131 107,131 108,132 110,130 111,131 113,130 114,131 116,130 113,129 112,127 111,128 108,128 106,127 106,129 102,131 97,128 97,127 100,125 96,127 95,126 96,127 95,128 93,128 91,126 91,125 89,125 87,123 87,122 85,125 82,125" fill="#1a4973"/>
<polygon points="142,148 150,148 152,150 153,150 154,151 155,151 156,150 157,151 158,151 159,150 160,150 161,151 163,151 164,152 164,150 163,149 162,150 161,150 159,148 156,148 155,147 154,147 152,145 151,145 150,146 149,146 148,145 147,145 146,146 143,146 143,147" fill="#1a4973"/>
<polygon points="198,333 195,331 195,329 193,329 191,331 187,329 189,326 188,327 187,326 187,327 185,329 183,329 181,332 177,332 176,331 173,333 165,332 162,333 161,336 164,340 164,343 165,340 163,339 166,338 166,336 164,334 165,332 171,333 172,335 178,336 178,335 180,334 182,337 185,338 188,334 190,335 189,337 187,338 189,338 191,335 192,336 191,334 192,331 194,333 195,332" fill="#6a7d93"/>
<polygon points="211,159 207,159 206,160 200,160 199,161 199,163 200,163 202,161 205,161 206,162 205,163 208,163 208,162 210,160 211,160" fill="#1a4973"/>
<polygon points="86,97 83,97 82,98 80,98 79,97 78,97 77,98 76,97 76,94 75,93 71,93 70,94 67,94 65,96 64,95 63,95 60,98 58,98 56,100 56,101 57,100 60,101 62,99 63,99 64,100 64,103 64,102 65,101 66,102 68,102 69,101 71,101 73,99 75,99 76,100 80,100 81,99 82,100 84,100 85,99 86,99" fill="#1a4973"/>
<polygon points="192,201 192,206 193,207 193,208 195,210 195,211 198,214 198,215 200,217 201,217 203,219 204,219 207,221 210,221 211,220 212,220 213,217 210,219 207,219 205,217 204,217 203,216 200,215 199,214 199,213 194,208 194,207 192,205" fill="#a9b3c0"/>
<polygon points="182,116 182,117 183,118 184,118 185,117 192,117 193,118 194,118 194,117 196,115 197,115 199,117 200,117 200,115 198,112 194,112 192,110 186,110 186,111 188,111 190,113 192,113 193,114 193,115 191,117 189,117 188,116 184,116 183,115" fill="#2d5d8c"/>
<polygon points="148,136 147,135 147,134 146,134 145,135 142,135 141,136 140,136 140,137 139,138 137,138 136,137 135,134 134,135 131,135 127,140 126,139 126,138 125,138 124,139 122,139 121,138 120,139 124,139 126,141 127,141 128,140 130,142 132,142 133,141 135,141 136,140 137,140 138,139 139,139 144,136 145,136 146,137 148,137" fill="#1a4973"/>
<polygon points="141,126 142,127 144,127 145,128 149,128 150,129 154,129 155,130 155,131 157,131 157,129 158,128 157,127 153,127 149,121 146,121 145,120 145,121 146,121 149,124 149,125 147,127 146,126 144,126 143,127 142,126" fill="#2d5d8c"/>
<polygon points="219,79 218,78 216,78 215,77 214,78 213,77 213,76 212,76 210,79 211,80 209,82 208,81 208,80 206,82 204,82 203,81 201,81 200,80 199,80 198,79 198,78 196,78 196,79 197,80 197,83 198,82 199,82 200,83 201,83 202,84 202,85 208,85 209,86 212,83 213,84 214,84 215,83 216,84 216,86 217,86 216,85 216,84 218,82" fill="#2d5d8c"/>
<polygon points="250,197 249,197 248,198 247,198 248,199 247,200 246,200 245,199 243,201 243,203 244,204 244,205 246,203 247,204 247,207 246,208 245,207 244,208 243,207 242,207 242,209 243,209 244,210 244,212 243,213 244,212 245,212 246,211 247,211 248,210 249,210 249,206 250,205 250,201 248,198 249,197" fill="#cbd1da"/>
<polygon points="180,176 180,178 181,179 183,179 184,180 185,179 186,179 187,180 188,179 191,179 193,181 194,181 195,180 193,178 193,177 190,177 189,178 185,178 183,176 182,177 181,177" fill="#1a4973"/>
<polygon points="301,147 302,148 304,148 305,147 307,147 308,148 313,148 314,149 318,149 318,148 317,147 316,147 313,144 308,144 307,145 305,145 304,144 303,145 303,146 302,147" fill="#1a4973"/>
<polygon points="123,121 123,122 124,123 125,122 126,122 127,123 126,124 126,125 131,125 132,124 134,124 136,122 135,121 133,121 132,120 131,121 129,121 128,120 128,119 127,119 126,120 124,120" fill="#1a4973"/>
<polygon points="310,234 307,237 305,237 305,238 303,240 302,240 302,245 301,246 301,247 302,248 305,246 308,246 309,245 310,245 313,248 313,252 311,255 313,253 313,252 314,251 315,251 315,250 316,249 316,246 317,245 317,244 316,244 315,243 312,244 311,243 308,243 307,242 307,241 306,240 307,239 308,239 310,236 311,236 311,234" fill="#4d647b"/>
<polygon points="90,220 90,221 91,222 92,221 93,221 95,223 96,222 97,222 100,225 99,226 100,227 100,228 101,229 103,229 104,228 104,227 105,226 106,227 106,225 107,224 106,223 105,224 104,223 104,222 103,221 100,221 98,219 97,219 96,220 95,220 94,219 93,219 92,220" fill="#1a4973"/>
<polygon points="0,383 5,383 6,382 7,383 11,383 13,381 15,381 17,383 18,383 17,382 20,379 24,378 26,380 26,378 27,377 28,379 29,379 34,373 32,371 32,370 31,371 28,370 26,367 25,367 19,361 17,360 10,360 9,361 1,362 0,364" fill="#e4e9ed"/>
<polygon points="156,274 156,275 154,277 151,277 149,276 147,274 147,272 146,273 145,271 146,274 145,275 144,274 145,275 143,277 142,277 143,277 145,280 145,282 144,283 145,284 143,286 146,283 148,283 149,284 149,285 147,286 147,288 146,289 147,287 149,286 151,282 153,281 154,282 153,284 153,286 154,285 154,284 156,282 156,280 154,279 154,277 156,276" fill="#8a97aa"/>
<polygon points="39,211 39,212 41,213 41,215 42,216 43,215 48,214 49,215 49,217 51,217 52,216 54,216 55,217 60,217 62,219 61,220 55,220 56,222 59,222 63,224 64,221 66,219 64,218 63,220 61,216 56,215 54,213 48,213 47,212 42,212 41,213 40,211" fill="#245381"/>
<polygon points="308,74 310,74 312,76 311,78 309,78 308,79 311,79 312,80 312,82 313,82 313,80 315,79 313,77 313,76 314,75 317,75 319,78 318,80 320,80 324,82 326,84 328,83 329,85 331,83 334,83 332,81 334,78 333,77 331,77 329,78 325,75 326,74 325,75 324,74 312,74 311,73 310,74" fill="#245381"/>
<polygon points="104,123 105,124 111,124 112,125 113,125 114,126 115,125 113,123 113,121 112,121 111,120 108,120 108,121 107,122 105,122" fill="#1a4973"/>
<polygon points="222,225 223,226 221,228 220,227 220,228 218,231 219,230 220,231 220,234 219,235 220,235 220,234 221,233 222,233 224,235 224,239 225,240 225,244 226,245 226,246 227,245 227,243 225,241 225,239 224,238 224,225" fill="#4d647b"/>
<polygon points="219,210 220,211 221,211 222,210 224,213 225,213 226,214 227,214 230,217 229,218 229,219 230,218 231,218 232,219 232,220 231,221 230,221 231,221 232,220 232,219 233,218 234,218 234,216 235,215 235,214 232,211 231,212 229,212 228,213 225,213 224,212 224,210" fill="#8a97aa"/>
<polygon points="270,174 271,173 270,174 270,176 271,177 270,180 273,185 273,186 271,188 273,190 272,191 273,190 273,188 275,187 275,184 276,183 277,184 277,186 279,187 281,191 282,188 280,189 279,187 282,185 283,186 282,185 283,184 284,184 285,186 288,188 287,187 287,181 286,182 283,182 282,184 280,184 279,182 276,182 272,178 272,177 270,176" fill="#8a97aa"/>
<polygon points="155,152 155,153 156,154 159,154 160,155 163,155 164,154 167,154 168,155 169,155 170,156 171,156 172,157 174,157 175,156 177,156 176,155 173,155 171,153 166,153 165,154 164,154 163,153 157,153 156,152" fill="#2d5d8c"/>
<polygon points="280,169 281,169 282,168 284,170 286,170 287,169 288,170 289,170 290,169 291,169 292,170 294,170 295,169 296,170 296,172 295,173 296,173 297,174 298,174 299,173 302,176 302,171 300,168 297,168 296,169 294,167 293,168 292,168 291,167 290,168 285,168 284,167 282,167" fill="#1a4973"/>
<polygon points="142,73 142,74 143,74 144,75 145,75 147,73 148,73 150,75 155,75 157,78 157,79 155,81 156,81 158,83 160,83 160,82 162,80 166,80 165,77 164,77 161,79 159,79 155,75 157,73 158,74 161,74 161,73 159,73 155,70 155,71 154,72 148,70 148,71 149,72 148,73 147,73 146,72 143,72" fill="#2d5d8c"/>
<polygon points="101,153 101,154 108,154 109,155 111,153 112,154 116,154 117,155 119,155 120,156 120,158 121,158 123,156 125,156 126,157 127,156 126,155 124,155 123,156 121,154 121,152 120,152 118,154 117,154 115,152 116,151 118,151 118,149 120,147 118,149 114,149 112,147 106,147 111,149 113,151 113,152 110,154 108,152 106,153 105,152" fill="#2d5d8c"/>
<polygon points="155,106 156,106 157,107 160,107 161,108 162,108 163,107 164,108 165,108 166,107 167,107 167,105 159,105 158,104 157,105 156,105" fill="#1a4973"/>
<polygon points="212,225 212,226 211,227 211,228 210,229 210,230 209,231 208,230 208,229 207,229 206,230 205,230 204,229 201,229 200,230 198,230 198,231 199,231 200,232 201,232 202,233 201,234 200,234 203,234 204,233 207,233 208,232 211,232 211,227 212,226" fill="#2d5d8c"/>
<polygon points="89,233 88,234 83,234 82,235 83,236 83,239 82,240 82,241 83,242 83,248 84,247 89,247 89,245 88,244 87,244 86,243 85,243 84,242 84,240 83,239 83,238 84,237 89,237 90,236 90,235 89,234" fill="#1a4973"/>
<polygon points="83,120 82,119 80,121 74,121 74,122 75,123 72,126 71,126 72,127 74,127 75,126 77,126 78,125 79,125 81,123 83,123 82,122 82,121" fill="#2d5d8c"/>
<polygon points="337,236 331,243 329,243 328,242 326,242 325,240 322,242 320,239 320,235 322,233 322,230 323,229 321,231 319,231 317,233 315,233 314,234 314,236 316,239 318,240 319,246 320,245 321,246 320,250 316,254 316,255 317,256 316,255 320,251 320,249 322,248 322,245 323,244 325,244 326,246 325,244 326,242 329,244 337,238" fill="#245381"/>
<polygon points="110,71 110,74 109,75 109,77 112,74 113,75 113,76 114,76 115,77 116,76 121,76 120,75 119,75 118,74 118,73 116,71 114,71 113,70 111,70" fill="#1a4973"/>
<polygon points="43,91 44,92 45,92 47,94 47,96 46,97 48,97 49,98 51,96 53,96 53,95 54,94 58,94 59,93 58,92 57,92 56,91 45,91 44,90" fill="#1a4973"/>
<polygon points="95,171 96,171 97,170 97,169 98,168 100,170 101,169 103,169 104,170 105,169 104,168 104,166 103,167 102,166 101,166 100,165 97,165 96,166 96,167 95,168" fill="#1a4973"/>
<polygon points="254,169 251,170 251,176 250,177 249,175 248,176 247,175 250,177 247,179 245,177 244,180 245,178 247,179 246,180 248,182 248,185 249,182 251,183 250,188 245,190 246,189 247,192 248,190 249,191 250,189 251,190 250,194 251,197 252,195 254,197 255,195 251,194 253,192 252,191 253,190 257,190 257,188 256,190 254,190 253,187 253,190 252,191 251,190 252,182 254,180 254,175 255,174 253,173 252,170 253,169 254,170" fill="#8a97aa"/>
<polygon points="170,127 168,127 167,128 164,128 163,129 162,129 161,128 160,129 160,131 161,132 163,130 164,130 165,131 166,131 168,129 170,129" fill="#2d5d8c"/>
<polygon points="337,220 331,223 330,222 325,226 324,228 324,232 323,233 324,232 324,230 326,228 326,226 328,225 329,223 330,223 333,226 333,227 335,229 335,231 334,232 332,232 332,233 328,236 325,236 324,235 322,239 326,239 328,237 329,239 330,238 331,239 334,238 334,237 336,235 336,233 335,232 336,224 335,223 337,221" fill="#4d647b"/>
<polygon points="162,70 165,73 167,73 168,74 174,74 175,75 180,75 181,76 182,76 182,74 179,74 178,73 177,74 176,74 174,72 174,71 172,71 171,72 170,72 168,70 167,70 166,69 165,70" fill="#1a4973"/>
<polygon points="297,86 297,88 296,89 295,89 294,90 294,92 299,92 300,93 300,91 301,90" fill="#245381"/>
<polygon points="175,271 175,273 174,274 170,274 169,275 167,275 166,276 165,276 165,277 166,277 167,278 167,280 168,279 169,279 170,278 171,278 173,276 174,276 175,275" fill="#0b1b3e"/>
<polygon points="122,224 122,225 120,227 119,226 119,227 118,228 115,228 114,227 114,226 115,225 116,226 114,224 114,222 110,222 109,221 109,228 110,227 112,227 114,229 114,230 111,233 110,232 110,231 109,231 109,232 110,232 111,233 110,234 109,234 109,235 110,235 111,234 113,234 116,231 118,231 118,229 122,225" fill="#1a4973"/>
<polygon points="231,321 230,320 228,321 224,318 226,320 225,322 222,318 221,319 220,318 217,320 215,318 214,314 212,317 212,319 210,321 210,323 213,325 210,328 204,329 206,330 206,329 208,328 210,332 210,330 211,329 210,328 213,326 215,328 215,330 216,324 218,321 221,319 222,319 226,323 224,325 221,325 224,325 226,323" fill="#8a97aa"/>
<polygon points="239,79 239,81 241,84 240,85 241,86 241,87 244,87 245,88 246,88 247,89 247,90 247,89 248,88 251,88 252,87 256,87 257,88 259,88 260,87 262,87 263,86 262,86 261,85 260,86 259,86 258,85 255,85 254,84 251,84 250,83 248,83 247,82 247,83 246,84 245,84 244,83 244,82 243,82 242,83 241,82 240,82 239,81" fill="#2d5d8c"/>
<polygon points="249,125 249,126 251,126 252,127 251,128 251,129 252,130 251,131 252,132 253,131 253,127 254,126 255,126 256,127 255,128 255,131 255,130 256,129 264,129 265,130 268,131 270,134 271,133 271,131 272,130 273,130 269,130 267,128 264,128 263,127 259,127 257,125 256,125 255,124 255,125 254,126 253,125" fill="#2d5d8c"/>
<polygon points="206,260 204,259 203,260 197,261 194,263 191,263 190,262 191,263 191,265 190,266 186,266 184,267 184,268 182,270 180,270 179,269 179,268 180,267 182,267 182,266 178,268 178,275 180,274 180,271 181,270 183,270 184,271 184,269 186,266 188,266 189,267 186,270 186,271 186,270 189,267 190,268 191,266 193,265 196,265 198,263 200,264 204,261 206,262" fill="#a9b3c0"/>
<polygon points="186,339 189,341 190,340 196,339 199,333 198,332 199,330 201,332 202,331 203,332 199,338 201,338 201,337 205,334 207,336 210,335 211,333 215,332 210,333 208,335 205,333 204,331 201,331 198,327 196,326 190,326 188,329 191,330 193,328 195,328 196,331 199,333 195,338 194,337 194,334 192,332 193,336 192,337 191,336 189,339" fill="#4d647b"/>
<polygon points="96,232 96,233 97,233 100,231 102,233 102,235 104,232 105,233 105,239 108,241 110,237 111,238 118,235 120,237 117,239 119,240 120,239 122,241 122,244 123,244 122,243 124,241 122,241 121,240 121,239 123,238 122,237 121,239 120,238 120,236 121,235 119,235 118,233 115,236 112,236 109,238 108,237 108,233 107,231 105,230 102,230 101,231 99,230" fill="#2d5d8c"/>
<polygon points="185,154 188,154 189,153 190,154 190,155 192,155 193,154 195,156 197,156 198,157 199,156 199,155 198,155 197,156 196,155 196,153 195,152 192,152 190,154 188,152 187,152" fill="#1a4973"/>
<polygon points="383,266 383,259 382,259 381,258 381,257 380,257 377,259 376,259 375,258 374,259 370,259 369,258 368,258 367,259 363,259 366,261 366,263 367,262 374,262 375,263 377,263 379,265 380,265 381,266" fill="#133c5b"/>
<polygon points="367,189 367,190 360,197 361,199 359,201 356,201 347,210 346,210 341,216 340,215 334,220 332,219 332,221 331,222 330,221 331,222 337,219 338,221 342,216 344,217 344,215 347,211 348,212 352,208 355,202 356,203 359,201 361,201 361,199 367,191" fill="#304d62"/>
<polygon points="347,184 345,185 344,184 339,188 338,187 338,188 337,189 335,189 334,191 333,189 331,189 329,191 328,190 326,191 326,192 328,190 329,191 329,193 324,196 322,196 321,198 323,198 324,197 326,199 326,201 329,203 329,205 330,204 332,204 332,203 334,202 333,200 334,199 336,200 335,199 335,194 336,193 333,195 329,195 328,194 329,193 329,191 332,189 333,191 337,189 340,191 339,191 338,189 344,186 347,186" fill="#8a97aa"/>
<polygon points="75,241 70,241 69,240 67,240 66,241 65,241 66,241 67,242 70,243 72,245 71,246 69,246 68,247 66,247 65,246 60,246 59,245 57,245 56,244 56,246 58,248 65,248 66,249 69,249 71,247 71,246 73,244 74,244 75,243" fill="#245381"/>
<polygon points="10,204 10,206 14,206 14,204 16,203 17,204 16,209 21,209 22,207 23,209 25,210 32,210 33,211 30,212 30,213 32,213 34,215 31,217 35,217 36,219 38,217 39,219 40,219 38,215 33,212 34,210 36,210 37,212 35,208 32,207 26,208 22,206 23,204 24,205 28,205 27,202 23,202 22,203 20,202 20,205 19,206 16,202 15,202 14,204" fill="#245381"/>
<polygon points="157,97 157,98 161,98 162,97 163,97 164,98 163,99 164,98 165,98 166,99 167,99 167,97 165,95 164,95 163,94 161,94 159,96 158,96" fill="#1a4973"/>
<polygon points="0,218 0,220 3,224 2,225 0,225 0,228 1,229 15,229 16,228 17,228 17,227 18,226 17,225 17,224 18,223 19,223 20,222 21,223 21,224 22,224 23,223 22,223 21,222 21,221 17,221 16,220 15,221 14,220 16,222 16,223 14,225 12,225 11,224 11,221 10,220 9,221 8,221 7,220 7,219 8,218 4,221 1,221 0,220" fill="#133c5b"/>
<polygon points="8,278 8,279 10,280 17,280 18,281 19,280 22,284 23,284 24,282 26,282 27,283 27,281 24,281 23,282 21,281 21,279 25,277 28,278 29,279 29,281 33,283 35,283 36,282 38,284 41,282 43,283 44,282 43,282 37,277 28,277 26,275 23,278 21,278 19,280 16,276 15,277 11,277 10,278" fill="#133c5b"/>
<polygon points="221,339 220,338 218,340 213,340 211,342 209,342 207,344 206,344 203,347 201,347 201,348 204,348 206,346 212,346 213,345 212,345 211,344 212,343 214,343 215,342 219,342 219,341" fill="#133c5b"/>
<polygon points="250,145 250,147 250,146 251,145 252,145 253,146 253,147 252,148 253,148 254,149 254,150 253,151 254,150 254,149 253,148 253,147 254,146 257,149 258,148 260,148 261,149 261,150 264,150 265,151 266,151 267,150 269,150 272,152 274,150 275,150 276,151 276,152 277,151 277,148 276,149 270,149 269,148 268,149 267,148 263,148 260,146 257,146 255,143 254,144 253,144 252,143" fill="#2d5d8c"/>
<polygon points="22,124 22,128 23,128 23,127 25,125 27,126 29,126 31,128 31,129 30,130 28,130 27,132 30,132 31,133 39,133 40,135 45,135 46,133 43,133 42,132 40,132 39,130 41,128 41,127 40,127 40,129 39,130 36,128 37,127 36,125 35,125 35,128 33,129 31,127 32,124 30,124 29,123 24,123" fill="#1a4973"/>
<polygon points="298,118 298,119 299,120 303,120 304,121 304,123 306,123 305,122 306,121 309,121 310,122 308,124 308,125 309,126 310,126 311,125 315,125 315,124 316,123 315,122 313,122 311,120 308,120 306,118 303,118 302,119 301,119 300,118" fill="#1a4973"/>
<polygon points="275,241 274,241 271,244 270,244 269,245 267,245 266,246 265,246 264,247 263,247 262,248 261,248 260,249 258,249 256,251 255,251 256,252 256,253 255,254 256,254 258,252 260,252 261,251 262,251 263,250 264,250 265,249 266,249 267,248 268,248 269,247 271,247 272,246 272,243 274,241" fill="#4d647b"/>
<polygon points="139,291 137,291 136,292 135,290 134,291 126,292 130,292 131,293 128,295 125,295 123,293 121,295 119,295 116,297 109,298 106,300 104,299 104,293 104,299 105,300 107,299 109,300 107,302 105,302 103,305 104,303 108,301 114,300 115,299 117,299 119,297 122,297" fill="#a9b3c0"/>
<polygon points="147,193 147,189 146,189 145,188 144,188 144,190 143,191 140,191 139,190 139,189 137,189 136,190 135,190 136,190 137,189 140,192 139,193 143,193 144,192 146,192" fill="#2d5d8c"/>
<polygon points="31,44 34,47 39,43 45,47 48,46 50,49 47,51 48,52 51,51 53,53 54,52 52,48 56,47 58,49 57,51 58,52 60,51 59,50 62,49 64,53 70,52 73,55 73,57 84,53 89,56 90,55 94,57 98,56 85,53 84,51 81,54 75,53 73,51 68,52 64,50 65,48 64,47 62,49 59,46 58,47 52,45 46,46 38,42" fill="#2d5d8c"/>
<polygon points="247,264 246,264 245,263 244,263 243,264 242,263 242,259 243,258 244,259 243,258 241,260 239,260 237,262 235,262 234,263 233,263 230,265 229,264 229,266 228,267 227,267 227,269 228,268 229,268 232,266 234,266 235,265 236,265 237,264 239,264 240,263 242,263 243,264 243,266 244,266 246,264" fill="#8a97aa"/>
<polygon points="329,129 329,131 331,131 332,132 333,132 334,133 336,133 337,134 343,134 344,135 347,135 348,136 348,135 346,133 344,133 343,132 343,130 342,130 341,131 340,131 339,130 331,130 330,129" fill="#2d5d8c"/>
<polygon points="77,199 78,199 80,201 80,203 85,203 86,202 87,203 90,203 91,204 91,203 90,202 89,202 88,201 87,201 86,200 79,200 78,199" fill="#2d5d8c"/>
<polygon points="373,177 373,179 374,179 375,180 375,181 374,182 372,182 371,183 371,185 373,185 374,186 376,186 377,187 378,186 382,186 383,187 383,183 382,183 381,182 381,181 382,180 383,180 383,178 382,179 380,179 379,178 377,178 376,177" fill="#1a4973"/>
<polygon points="241,304 239,304 239,305 240,306 238,308 237,307 235,307 234,308 233,307 233,306 232,306 231,307 230,306 230,305 229,305 229,306 226,309 225,309 223,307 223,309 221,311 220,311 220,313 229,313 230,312 233,312 233,311 232,311 231,310 231,309 232,308 233,308 234,309 234,308 235,307 237,307 238,308 240,306 241,307 241,308" fill="#a9b3c0"/>
<polygon points="170,263 169,262 169,261 168,261 167,260 167,259 167,260 164,263 163,263 163,264 162,265 161,265 160,264 161,265 162,265 163,266 165,266 166,265 168,265 169,264 170,264" fill="#cbd1da"/>
<polygon points="235,125 234,126 233,126 234,127 234,128 232,130 234,130 235,131 235,133 236,134 236,135 237,136 237,135 236,134 236,132 237,131 237,126 236,126" fill="#4d647b"/>
<polygon points="236,186 235,186 235,191 234,192 233,192 232,191 232,190 231,190 231,196 233,196 234,195 235,195 236,196 236,198 235,199 234,199 233,198 234,199 234,202 235,203 235,200 236,199 236,195 237,194 237,193 236,192 236,191 235,190 235,187" fill="#2d5d8c"/>
<polygon points="18,149 18,150 19,150 21,152 21,153 24,153 27,151 28,151 29,152 32,152 33,151 35,151 36,152 36,154 37,155 38,155 39,156 40,155 41,155 41,153 39,153 38,154 37,153 38,150 35,150 32,147 32,145 31,145 30,144 29,144 28,145 27,144 23,144 22,145 27,148 27,149 26,150 22,150 21,149 20,149 19,150" fill="#133c5b"/>
<polygon points="126,216 126,217 129,220 129,221 133,225 137,227 140,227 141,228 140,229 130,229 130,231 133,233 133,235 132,236 134,238 136,238 137,237 137,235 136,236 131,231 132,230 135,230 136,229 138,229 139,230 140,229 142,229 142,225 143,223 143,224 140,226 136,226 134,225 127,218" fill="#6a7d93"/>
<polygon points="333,257 333,258 334,259 336,259 338,261 338,263 339,263 340,264 341,264 342,265 342,266 343,266 344,265 346,265 347,264 347,262 345,260 344,260 343,259 343,258 340,258 339,259 338,259 337,258 337,257 336,256 335,256 334,257" fill="#0b1b3e"/>
<polygon points="206,16 209,18 209,21 210,22 212,22 215,20 216,21 218,21 219,22 223,22 223,20 224,19 220,19 219,20 218,19 218,18 220,16 221,17 222,16 223,16 220,16 219,17 217,17 216,16 216,15 213,15 212,16 211,15 210,16" fill="#245381"/>
<polygon points="249,92 250,91 256,91 258,93 259,92 261,92 263,90 264,90 265,89 261,89 259,91 258,90 257,90 256,89 252,89 251,90 250,90 249,91" fill="#1a4973"/>
<polygon points="225,160 223,160 222,161 221,161 219,163 216,163 215,164 214,163 211,163 211,164 212,164 213,163 214,164 215,164 216,165 217,164 221,164 222,163 223,164 223,165 221,167 225,163 224,162 225,161" fill="#1a4973"/>
<polygon points="329,113 329,115 332,115 333,116 334,115 336,117 336,119 343,120 344,121 343,123 345,123 346,124 348,123 351,123 352,124 354,123 355,124 357,124 359,126 363,126 363,125 360,124 358,122 354,122 353,121 349,122 348,123 347,122 346,123 344,121 348,117 349,117 347,116 346,117 344,117 343,115 341,116 338,116 335,114" fill="#1a4973"/>
<polygon points="353,96 355,98 356,97 358,97 363,101 364,100 366,100 367,101 367,103 366,104 363,104 359,107 364,107 365,106 366,108 367,107 366,105 368,103 372,103 376,106 376,108 383,112 381,109 381,107 382,106 383,107 383,106 382,105 381,105 380,107 378,106 379,100 376,98 374,98 372,101 371,100 371,98 369,97 367,99 365,97 363,98 360,96" fill="#2d5d8c"/>
<polygon points="350,304 350,305 355,309 360,308 365,313 369,314 370,316 375,316 376,317 376,320 376,319 378,317 383,315 383,314 379,314 378,315 376,314 374,316 368,311 369,310 373,310 374,311 374,310 376,309 374,309 371,307 369,308 368,307 365,308 362,305 358,305 357,304 354,304 353,303 351,303" fill="#1a4973"/>
<polygon points="145,370 141,370 140,371 139,371 140,372 140,373 139,374 135,374 134,375 133,375 133,378 135,378 136,377 137,378 141,378 142,377 143,377 145,375 144,374 144,372 145,371" fill="#133c5b"/>
<polygon points="362,136 362,137 363,138 366,139 368,141 368,142 369,143 369,146 371,146 372,145 373,146 374,146 375,147 375,148 376,148 377,149 379,149 380,150 381,150 382,149 383,150 383,149 382,148 381,148 380,149 379,148 379,146 378,145 378,144 379,143 380,144 381,144 382,143 383,144 383,143 382,142 383,141 383,140 382,140 381,141 380,141 379,140 376,140 374,137 370,137 369,136 369,134 367,136 364,136 363,135" fill="#1a4973"/>
<polygon points="310,182 310,183 311,183 313,185 315,185 317,187 318,187 319,188 320,187 321,188 323,188 324,187 327,187 327,186 326,186 325,185 323,185 321,183 321,182 320,182 319,183 318,183 317,184 316,184 315,185 313,183 312,183 311,182" fill="#2d5d8c"/>
<polygon points="303,84 303,85 306,87 306,89 305,90 303,90 308,90 310,88 312,88 313,89 314,88 315,88 316,89 317,89 319,87 320,88 323,88 321,88 318,86 317,87 316,87 315,86 316,85 316,84 315,84 314,85 310,85 309,84" fill="#245381"/>
<polygon points="152,296 149,296 148,297 147,296 147,294 145,294 144,295 142,295 141,296 139,296 138,297 136,297 135,298 133,298 131,300 130,299 129,300 127,300 126,301 124,301 124,304 125,304 126,303 128,303 129,302 132,302 133,301 135,301 137,299 140,299 140,298 142,296 143,296 144,297 148,297 149,296 151,296 152,297 152,298 151,299 152,299" fill="#304d62"/>
<polygon points="78,288 78,292 77,293 76,292 76,293 77,293 79,290 80,291 80,292 81,292 82,293 80,295 79,294 79,295 78,296 78,298 77,299 77,306 78,306 78,305 79,304 80,304 83,307 82,308 83,307 85,307 85,305 86,304 84,301 85,300 86,300 87,301 86,300 84,300 81,297 81,294 82,293 81,292 81,291" fill="#2d5d8c"/>
<polygon points="126,185 125,185 125,190 124,191 123,191 121,189 120,189 120,190 121,191 123,191 124,192 122,194 119,194 119,195 121,195 122,194 125,197 125,205 126,204 126,203 125,202 125,197 126,196 126,195 127,194 128,195 130,195 131,194 128,192 127,193 125,191 125,187 126,186" fill="#2d5d8c"/>
<polygon points="234,49 234,50 235,51 239,51 240,52 240,54 240,52 241,51 242,51 244,53 245,53 246,52 248,54 255,52 257,54 260,55 259,54 258,54 256,52 256,51 254,51 252,49 251,50 250,50 249,49 247,49 246,50 243,50 241,48 241,47 242,46 245,46 245,44 244,44 243,45 242,45 241,44 241,47 239,49" fill="#245381"/>
<polygon points="291,97 291,96 289,94 290,93 289,92 289,91 289,93 288,94 287,93 287,90 286,90 285,91 283,91 282,92 281,91 277,91 276,92 277,92 279,94 281,94 282,93 284,95 287,95 288,96 290,96" fill="#1a4973"/>
<polygon points="120,124 121,124 122,125 123,125 124,126 124,127 125,128 125,130 127,130 128,131 130,131 131,130 133,130 134,129 135,130 135,129 133,127 131,127 130,128 127,128 126,127 125,127 124,126 124,125 123,124" fill="#2d5d8c"/>
<polygon points="348,112 348,113 350,115 351,115 352,116 352,117 355,120 357,120 357,116 356,116 353,113 350,113 349,112" fill="#2d5d8c"/>
<polygon points="284,129 285,130 286,129 288,129 289,128 292,128 294,130 295,130 296,129 297,129 297,127 296,127 295,126 290,126 289,127 287,127 286,126 286,125 286,128 285,129" fill="#1a4973"/>
<polygon points="283,156 281,158 280,157 279,157 279,158 278,159 271,159 271,162 272,163 272,165 273,166 273,167 274,167 275,166 276,167 276,171 277,171 277,170 278,169 278,168 277,167 278,166 278,165 274,165 272,163 275,161 278,161 277,160 278,159 279,159 280,160 281,159 281,158 282,157 283,157" fill="#2d5d8c"/>
<polygon points="244,312 243,311 240,311 240,313 239,314 238,314 237,315 235,313 235,315 233,317 233,318 232,319 232,321 233,320 235,320 236,319 237,320 238,320 239,321 240,321 239,321 237,319 237,317 238,316 241,316 242,315 243,315 243,314 244,313" fill="#4d647b"/>
<polygon points="127,208 127,214 128,215 128,216 129,217 129,218 132,221 134,221 136,223 137,223 138,224 139,223 141,223 143,221 143,220 142,221 140,221 139,222 137,222 136,221 136,220 134,220 132,218 131,218 128,215 128,214 127,213" fill="#a9b3c0"/>
<polygon points="26,298 25,298 24,297 24,296 23,296 20,293 19,293 17,296 14,296 13,295 11,297 9,297 7,299 6,298 6,296 7,295 8,295 8,294 3,295 1,297 0,297 0,299 3,303 4,302 9,302 11,300 15,300 17,302 20,302 21,301 22,301 19,302 18,301 18,300 19,299 24,299 25,298" fill="#1a4973"/>
<polygon points="308,153 308,155 309,155 310,156 311,156 312,157 312,158 313,158 314,159 316,159 316,158 315,157 315,156 313,154 314,153 313,153 312,152 311,153 310,152 309,152" fill="#1a4973"/>
<polygon points="255,248 254,248 253,249 252,249 252,250 253,251 251,253 251,255 250,256 250,260 249,261 249,264 248,265 249,266 248,265 250,263 251,264 252,263 253,263 253,262 252,261 252,255 253,254 253,249 254,248" fill="#e4e9ed"/>
<polygon points="34,220 35,221 35,223 36,223 37,222 38,223 39,223 42,226 43,226 46,228 47,227 53,227 54,228 57,228 58,227 57,227 55,225 50,225 47,227 45,227 44,226 44,225 47,223 46,223 45,222 39,222 38,221 37,222" fill="#133c5b"/>
<polygon points="245,159 245,160 246,161 245,162 245,164 243,166 244,166 245,165 246,166 246,168 247,168 248,169 247,168 247,165 249,163 251,163 251,161 249,163 247,161 247,160 246,160" fill="#a9b3c0"/>
<polygon points="232,224 232,225 231,226 230,226 229,227 229,228 228,229 228,233 229,234 228,235 228,240 229,241 229,242 229,241 228,240 229,239 229,237 230,236 230,235 231,234 229,232 230,231 230,228 232,226" fill="#245381"/>
<polygon points="313,234 313,235 311,237 310,237 310,238 308,240 307,240 308,241 308,242 311,242 312,243 315,242 316,243 317,243 318,244 318,245 317,246 317,249 316,250 316,251 315,252 314,252 314,253 311,256 311,257 311,256 312,255 313,255 314,256 315,255 316,256 315,255 315,254 319,250 319,248 320,247 320,246 319,247 318,246 318,243 317,242 317,240 316,240 315,239 315,238 313,236" fill="#2d5d8c"/>
<polygon points="61,208 61,209 63,211 69,211 70,212 73,212 76,209 78,211 79,210 78,209 76,209 75,208 74,208 74,210 73,211 71,211 70,210 69,210 68,209 64,209 63,208" fill="#133c5b"/>
<polygon points="141,250 140,249 139,249 139,250 138,251 137,250 136,251 136,252 134,254 134,256 133,257 133,258 132,259 131,259 128,262 127,261 126,262 127,261 128,262 128,263 131,260 133,262 132,261 132,259 134,257 134,256 135,255 139,255 140,254 140,253 141,252" fill="#4d647b"/>
<polygon points="110,216 111,217 112,217 113,218 113,219 114,218 116,218 118,220 119,220 120,219 121,220 122,219 122,218 120,218 118,216 117,216 116,217 115,217 114,216 114,215 113,216 112,216 111,215" fill="#2d5d8c"/>
<polygon points="95,69 95,70 96,71 97,71 98,70 104,70 106,68 107,68 108,67 110,69 111,68 112,68 113,69 116,69 118,71 119,71 120,72 120,73 122,73 123,72 124,72 124,71 120,71 119,70 119,68 118,67 117,67 116,68 115,67 111,67 109,65 107,65 104,68 102,68 101,69" fill="#2d5d8c"/>
<polygon points="82,223 82,224 84,226 85,225 86,226 86,227 87,227 88,228 89,228 89,226 90,225 91,225 90,225 88,223 87,223 86,224 85,224 83,222" fill="#1a4973"/>
<polygon points="196,3 197,4 197,5 198,5 200,7 203,7 208,12 209,12 212,10 216,10 219,12 220,12 221,11 219,8 218,8 217,7 216,7 215,8 213,6 212,7 211,7 209,9 207,9 202,5 203,4 205,4 205,3 203,3 201,5 199,3" fill="#245381"/>
<polygon points="148,119 149,119 151,121 151,120 152,119 154,119 155,120 155,121 154,122 155,123 154,124 154,125 155,125 155,121 156,120 157,121 159,119 160,119 159,118 156,118 155,117 152,117 150,119" fill="#1a4973"/>
<polygon points="145,234 144,233 142,233 143,233 144,234 144,235 143,236 142,235 142,236 141,237 140,237 139,238 138,238 136,240 133,240 140,240 141,239 142,239 143,238 144,238 145,239 144,238 145,237" fill="#a9b3c0"/>
<polygon points="0,50 0,53 4,55 4,56 1,57 1,58 5,57 7,61 6,58 9,56 10,57 10,60 21,61 25,64 26,63 32,63 33,64 36,63 36,62 33,62 28,60 27,61 25,58 23,58 26,60 25,62 21,59 20,56 14,55 13,54 8,55 7,53 10,52 8,50 7,51 2,51" fill="#1a4973"/>
<polygon points="151,249 151,252 150,253 150,254 151,254 152,255 152,256 151,257 156,257 158,259 158,260 157,261 158,261 158,259 157,258 157,255 155,253 155,251 155,252 154,253 153,253 152,254 151,253 151,252 152,251 152,249" fill="#4d647b"/>
<polygon points="159,269 157,269 158,269 159,270 158,271 157,271 156,272 156,273 155,274 154,274 153,273 153,272 153,273 155,275 154,276 151,276 154,276 155,277 155,279 155,278 157,276 159,276 160,275 160,272 159,271" fill="#6a7d93"/>
<polygon points="255,311 254,310 252,312 252,313 251,314 250,314 249,315 248,314 247,315 246,315 245,316 247,316 248,317 249,316 251,316 252,315 255,315" fill="#e4e9ed"/>
<polygon points="284,340 282,340 281,339 280,339 279,338 279,337 278,337 277,338 277,339 275,341 274,341 273,342 272,341 272,339 271,339 270,340 267,340 264,342 262,342 263,343 264,342 269,342 270,343 270,346 271,347 272,346 273,346 274,345 275,345 276,344 275,343 276,342 281,342 282,341 284,341" fill="#133c5b"/>
<polygon points="192,207 192,209 195,212 195,213 197,215 197,216 201,220 202,220 204,222 206,222 207,223 210,223 213,220 213,219 213,220 210,222 207,222 206,221 205,221 204,220 203,220 201,218 200,218 197,215 197,214 194,211 194,210 192,208" fill="#8a97aa"/>
<polygon points="257,33 253,33 252,32 251,33 247,33 247,35 252,35 253,34 254,34 256,36 257,35" fill="#245381"/>
<polygon points="339,29 340,31 341,30 343,31 347,30 349,33 352,33 353,32 360,37 366,35 368,37 366,38 366,39 368,40 371,40 372,39 375,43 378,43 380,45 383,46 383,38 382,38 381,36 379,37 376,36 376,39 375,40 373,38 374,36 373,35 366,33 364,31 358,29 356,31 354,31 352,29 350,32 348,29 345,29 344,28" fill="#245381"/>
<polygon points="105,114 105,116 106,115 107,115 110,118 111,118 112,119 115,119 117,117 118,117 119,116 117,116 115,118 113,116 112,116 111,115 110,116 109,115 107,115 106,114" fill="#2d5d8c"/>
<polygon points="242,127 242,129 243,130 243,131 244,132 243,133 242,133 242,135 241,136 242,136 244,134 245,135 245,136 244,137 248,141 249,141 248,141 247,140 247,138 246,138 245,137 249,133 249,132 248,132 247,133 245,131 245,130 243,130 242,129" fill="#a9b3c0"/>
<polygon points="179,283 178,283 177,284 176,284 175,285 171,285 171,286 170,287 167,287 167,289 168,289 169,288 172,288 172,287 173,286 174,286 175,287 176,286 178,286 178,284" fill="#304d62"/>
<polygon points="239,312 238,313 237,313 236,312 235,312 233,314 230,314 229,315 228,315 228,320 229,320 230,319 231,320 231,319 232,318 232,317 234,315 234,313 235,312 237,314 238,313 239,313" fill="#6a7d93"/>
<polygon points="126,242 127,242 128,243 128,244 129,245 129,248 128,249 125,250 126,250 127,251 127,253 126,254 126,257 124,259 127,256 128,256 129,257 129,259 128,260 127,260 128,260 130,258 130,257 131,256 130,255 130,254 131,253 130,253 129,254 127,252 127,250 130,248 131,249 132,248 132,247 129,242" fill="#133c5b"/>
<polygon points="303,166 306,166 307,167 308,167 309,168 310,167 314,167 315,168 317,168 318,169 320,169 320,168 318,168 317,167 316,167 314,165 311,165 310,166 309,165 308,165 307,164 306,165 304,165" fill="#1a4973"/>
<polygon points="123,141 123,142 124,143 124,144 123,145 125,147 125,150 124,151 125,152 126,152 126,151 127,150 128,150 129,149 132,149 133,148 134,149 134,150 135,150 136,149 138,149 139,150 139,148 138,147 137,148 133,148 132,147 129,147 128,148 127,148 126,147 125,147 124,146 124,144 125,143 124,142 124,141" fill="#2d5d8c"/>
<polygon points="222,51 222,52 223,53 224,53 225,54 226,53 227,53 228,54 231,54 232,55 234,55 235,56 236,55 237,56 237,54 235,54 234,53 232,53 231,52 230,52 229,51 226,51 225,50 224,50 223,51" fill="#245381"/>
<polygon points="91,82 91,83 94,83 95,84 95,85 96,86 95,87 95,89 96,90 95,91 96,90 97,90 98,89 102,89 103,88 104,88 106,90 107,90 107,89 106,89 102,85 102,83 100,83 100,85 99,86 98,86 97,85 96,85 95,84 95,83 93,83 92,82" fill="#2d5d8c"/>
<polygon points="173,281 166,284 163,284 157,288 149,289 141,293 136,294 151,289 154,289 155,290 155,294 154,295 154,300 153,302 154,300 155,301 154,296 156,293 157,294 156,297 157,299 156,297 157,296 157,289 160,286 173,282" fill="#e4e9ed"/>
<polygon points="44,190 43,189 40,189 38,192 37,191 34,191 33,190 26,190 24,192 23,191 22,193 26,193 29,191 34,191 37,193 36,195 35,194 34,195 29,195 28,196 28,197 30,197 32,199 32,201 33,201 32,198 34,196 36,196 37,194 38,195 38,197 38,193 40,191 42,191" fill="#133c5b"/>
<polygon points="26,18 25,22 27,23 30,20 31,20 33,22 36,22 38,24 38,25 40,24 43,24 46,26 50,26 52,29 54,29 55,30 55,32 57,31 56,30 56,28 59,26 58,25 56,26 54,24 54,22 51,24 50,23 48,24 47,22 45,21 45,20 41,19 40,18 39,19 37,18 34,18 33,17 31,18" fill="#2d5d8c"/>
<polygon points="101,108 100,107 99,107 98,108 95,108 93,110 91,110 90,109 89,109 89,110 90,110 91,111 91,112 92,112 93,113 93,112 94,111 98,111 99,112 100,111 99,110 99,109 100,108 101,109" fill="#1a4973"/>
<polygon points="202,276 202,277 201,278 198,278 197,277 200,274 197,277 194,277 193,278 190,278 188,281 187,280 186,280 185,281 183,281 182,282 181,282 181,285 182,284 183,284 183,283 184,282 185,283 186,283 191,280 193,280 195,278 196,279 197,279 198,278 200,278 201,279 201,281 199,283 201,281 201,278 202,277" fill="#304d62"/>
<polygon points="327,243 326,243 326,244 325,245 323,245 323,248 322,249 321,249 321,251 317,255 318,256 317,255 321,251 322,251 328,245 329,245" fill="#1a4973"/>
<polygon points="250,333 248,333 248,334 247,335 246,334 245,335 244,334 243,334 243,335 242,336 240,334 238,336 237,336 235,338 234,338 233,337 235,339 236,338 238,338 239,339 240,339 241,340 242,340 243,341 243,343 245,343 246,344 247,343 248,344 248,343 243,338 243,337 245,335 247,335" fill="#133c5b"/>
<polygon points="204,43 204,44 205,45 205,46 206,46 207,47 207,48 208,49 209,49 211,47 212,48 213,47 214,47 213,47 211,45 210,45 209,46 206,43" fill="#1a4973"/>
<polygon points="10,104 10,105 13,106 14,107 14,108 15,108 15,106 16,105 18,105 21,108 19,110 17,108 17,110 18,110 21,113 24,113 25,114 26,114 26,113 27,112 28,113 27,112 27,111 28,110 28,108 27,107 27,105 26,105 25,104 22,107 20,105 20,104 19,103 17,103 16,102 16,105 15,106 14,105 12,105 11,104" fill="#2d5d8c"/>
<polygon points="272,67 269,67 268,68 264,68 262,70 261,70 260,69 257,69 257,70 258,70 259,69 260,69 261,70 262,70 263,71 269,71 269,69 270,68 272,68" fill="#1a4973"/>
<polygon points="75,249 77,251 78,250 79,250 82,253 81,254 81,255 82,256 81,257 81,258 81,257 82,256 82,255 85,252 85,250 84,250 83,251 82,250 82,248 80,250 79,249" fill="#2d5d8c"/>
<polygon points="188,229 188,231 189,230 190,231 190,233 188,235 190,235 191,234 192,234 191,233 192,232 193,232 194,233 194,234 195,234 196,233 197,234 199,234 200,233 201,233 200,233 197,231 196,231 197,232 195,234 194,233 194,231 193,232 191,232 190,231 190,230 192,228 195,229 192,228 191,227 191,225 189,227 189,228" fill="#245381"/>
<polygon points="141,230 140,230 139,231 138,230 136,230 135,231 132,231 136,235 137,234 138,235 138,237 136,239 133,239 132,240 131,239 127,239 128,240 131,239 133,241 137,241 133,241 132,240 133,239 136,239 138,237 141,236 139,236 138,235 138,233 140,231 141,231 142,232 141,231" fill="#8a97aa"/>
<polygon points="174,331 170,332 169,331 169,329 168,329 166,331 164,331 158,335 153,336 149,340 153,336 155,337 156,335 158,335 159,337 162,339 161,341 159,341 157,343 158,353 158,350 161,348 163,351 161,348 160,349 158,348 159,346 161,346 164,344 163,343 163,340 160,336 161,333 165,331 168,331 169,332 173,332" fill="#8a97aa"/>
<polygon points="108,33 108,34 115,34 116,33 118,33 121,36 121,35 122,34 128,34 129,35 131,35 131,34 130,34 129,33 128,33 126,31 125,31 122,33 121,32 120,32 119,31 117,31 116,30 115,30 114,31 113,31 113,32 112,33 111,33 110,32 109,32" fill="#1a4973"/>
<polygon points="232,223 231,223 231,224 230,225 229,224 229,223 228,224 227,223 227,224 226,225 226,227 227,228 227,229 226,230 227,231 227,233 226,234 226,240 227,241 228,241 229,240 228,241 227,240 227,235 228,234 227,233 227,229 228,228 228,227 230,225 231,225 231,224" fill="#1a4973"/>
<polygon points="27,237 27,238 33,238 34,239 35,239 36,240 37,239 39,239 37,237 34,237 33,236 31,236 30,235 30,234 29,235 28,235 28,236" fill="#133c5b"/>
<polygon points="313,262 311,264 307,264 305,266 303,266 302,267 301,267 300,268 298,268 296,270 297,271 298,271 298,270 300,268 301,268 302,267 306,267 307,268 309,266 311,266 311,265 312,264 313,264" fill="#e4e9ed"/>
<polygon points="30,338 30,343 31,344 31,345 33,347 34,347 35,348 35,342 32,339 31,339" fill="#0b1b3e"/>
<polygon points="29,248 31,250 32,250 33,251 35,251 37,253 37,255 38,254 39,255 39,256 40,256 43,258 44,257 45,257 45,256 47,254 48,254 49,253 48,253 46,255 43,255 42,254 39,254 37,252 38,251 37,250 37,249 38,248 41,249 43,251 45,251 46,250 46,248 40,248 39,247 37,249 34,249 33,248" fill="#245381"/>
<polygon points="350,109 350,111 352,111 354,110 356,112 356,114 357,113 358,114 360,114 364,116 366,114 368,115 370,117 370,118 371,118 373,116 377,118 375,116 375,115 376,114 379,114 381,113 380,113 378,111 376,111 375,109 374,110 374,113 373,114 372,113 371,114 369,114 368,113 366,114 364,114 361,112 358,112 355,107 355,109 354,110 353,109" fill="#1a4973"/>
<polygon points="0,320 0,330 3,332 2,333 2,334 6,334 7,333 10,334 11,333 11,332 6,332 4,330 6,328 8,328 8,325 9,324 11,326 11,327 12,327 12,323 10,323 8,325 6,323 6,320 5,319 3,319 2,320" fill="#133c5b"/>
<polygon points="101,5 102,5 103,6 107,6 108,5 111,5 111,4 112,3 111,3 110,2 108,2 107,1 105,1 103,3 101,3" fill="#245381"/>
<polygon points="205,320 203,321 200,321 199,323 197,322 196,324 190,324 189,323 190,321 188,322 185,322 183,323 183,325 184,326 182,328 180,327 180,330 179,331 177,330 177,328 176,327 177,328 176,330 177,331 181,331 181,330 183,328 185,328 187,325 188,326 191,324 197,324 198,322 199,323 199,325 200,325 199,323 201,321 202,322 202,326 201,327 201,329 202,330 201,327 202,326 202,324 205,321" fill="#8a97aa"/>
<polygon points="294,13 296,15 300,15 305,12 306,10 310,10 311,7 318,8 320,10 324,10 327,13 332,13 333,11 329,12 326,9 325,10 323,9 321,6 324,5 321,6 314,4 308,5 307,1 306,2 302,0 302,1 303,0 306,3 305,5 308,5 310,7 308,9 305,8 302,9 300,6 297,9 301,12 299,14 297,13 296,14 294,12" fill="#245381"/>
<polygon points="77,307 79,309 78,310 79,311 80,310 81,310 83,312 84,312 85,313 85,311 86,310 87,311 87,312 87,310 86,309 85,310 84,309 84,308 83,308 80,305 79,305 79,306 78,307" fill="#4d647b"/>
<polygon points="334,242 333,243 332,243 331,244 330,244 330,245 329,246 328,246 322,252 321,252 318,255 320,255 321,254 322,255 322,256 323,255 324,256 325,256 324,256 323,255 324,254 325,254 325,253 326,252 327,253 327,254 327,252 329,250 328,251 327,250 327,249 331,245 332,245 334,243" fill="#133c5b"/>
<polygon points="304,96 305,98 308,97 311,99 313,99 315,101 316,100 318,100 322,102 323,101 322,102 321,100 325,98 326,99 326,101 327,101 326,100 326,98 322,98 321,97 321,95 323,93 325,94 326,93 324,91 322,94 320,91 318,93 315,91 317,92 316,94 314,94 313,92 311,92 313,94 317,94 318,95 317,96 313,96 315,96 317,98 316,100 311,99 310,98 311,96 309,97 308,96 306,97" fill="#245381"/>
<polygon points="231,323 230,324 227,324 225,327 221,327 221,330 220,331 218,331 219,332 217,334 217,335 220,335 222,337 222,338 224,338 225,339 225,337 223,335 222,335 221,334 220,331 221,330 222,330 223,329 223,328 224,327 225,327 227,325 228,326 228,327 230,327 230,325 231,324" fill="#4d647b"/>
<polygon points="68,276 67,277 66,277 66,278 64,280 63,279 62,279 61,278 60,279 59,279 57,277 57,278 56,279 56,281 57,282 58,282 59,283 60,283 61,284 63,284 64,283 63,282 63,281 64,280 65,280 66,281 67,280 68,280 66,278 67,277 68,277" fill="#2d5d8c"/>
<polygon points="29,116 30,117 32,117 33,116 35,116 36,117 37,117 38,118 38,119 41,116 42,116 44,114 45,114 47,112 46,112 45,111 45,113 43,115 40,115 39,114 36,114 34,112 34,111 33,110 33,114 32,115 29,115" fill="#2d5d8c"/>
<polygon points="72,374 73,375 73,376 72,377 72,378 70,380 70,383 72,383 72,382 73,381 75,383 82,383 81,382 81,381 82,380 83,380 84,381 84,383 87,383 85,381 85,380 86,379 87,380 88,380 86,378 85,378 82,376 82,373 82,375 81,376 80,375 79,375 77,377 75,375 76,372 75,372 73,374" fill="#133c5b"/>
<polygon points="383,62 382,62 379,65 378,65 378,66 381,66 382,67 379,70 378,69 377,69 376,70 374,70 373,69 372,69 372,72 374,72 375,73 378,73 379,74 383,74" fill="#2d5d8c"/>
<polygon points="126,74 128,76 127,77 127,79 128,79 129,80 132,80 133,81 135,81 137,79 139,79 140,80 141,79 142,79 142,78 138,78 137,79 135,79 134,80 133,80 132,79 131,79 128,76 128,74" fill="#2d5d8c"/>
<polygon points="206,35 207,35 209,32 210,32 211,33 212,33 213,32 215,35 217,35 218,36 220,36 221,37 223,35 224,35 223,35 222,34 223,33 224,33 219,33 218,32 218,33 217,34 216,34 214,32 214,31 215,30 214,30 213,29 212,29 211,30 209,30 208,31 207,31 207,34" fill="#245381"/>
<polygon points="285,44 284,44 283,43 283,42 282,41 282,42 281,43 277,43 276,44 275,44 275,45 276,46 277,46 278,45 279,45 281,47 282,46 284,46 285,45" fill="#245381"/>
<polygon points="64,379 63,380 61,380 59,378 58,379 56,379 55,380 54,380 52,382 51,381 49,383 64,383" fill="#133c5b"/>
<polygon points="69,161 69,162 70,163 71,162 73,162 74,163 74,165 75,165 76,166 78,166 79,165 83,165 85,167 86,166 85,165 85,164 84,163 83,163 81,165 80,165 79,164 77,164 76,163 75,163 73,161 72,161 71,162 70,161" fill="#2d5d8c"/>
<polygon points="288,193 288,194 289,193 289,192 290,191 291,191 292,192 291,193 291,194 292,195 295,195 296,194 297,195 301,195 302,196 303,196 303,195 301,195 300,194 298,194 297,193 294,193 293,192 293,190 292,190 291,191 290,191" fill="#2d5d8c"/>
<polygon points="127,374 125,376 124,376 123,377 122,377 122,378 121,379 119,379 119,380 120,379 121,379 122,380 120,382 121,383 128,383 128,382 127,381 127,380 128,379 129,379 129,377 127,377 126,376 127,375" fill="#133c5b"/>
<polygon points="291,213 291,214 290,215 288,215 287,214 287,218 289,221 289,223 288,224 288,225 290,223 292,223 293,224 290,226 290,227 291,228 292,227 295,226 295,224 296,223 297,224 296,223 296,222 296,223 295,224 293,224 292,223 290,223 289,222 289,219 290,218 291,218 290,215 291,214 293,214 292,214" fill="#6a7d93"/>
<polygon points="371,123 371,124 369,126 369,128 371,128 373,130 373,131 376,131 377,130 375,130 373,128 373,127 374,126" fill="#2d5d8c"/>
<polygon points="103,352 101,353 100,352 97,354 94,354 93,355 92,354 91,355 89,355 87,357 85,357 84,356 81,358 79,357 74,361 70,361 66,363 68,362 70,362 71,361 73,362 72,363 75,360 81,360 83,359 84,357 85,358 88,358 89,357 90,358 92,358 93,357 96,357 97,356 99,356 101,355" fill="#4d647b"/>
<polygon points="83,369 78,370 77,369 78,368 73,370 73,371 69,375 65,376 63,379 61,378 62,376 61,375 60,377 49,380 47,383 51,380 52,381 54,379 59,377 61,379 63,379 64,378 65,379 65,383 69,383 69,380 72,376 71,374 76,371 77,373 76,375 74,376 76,375 77,376 79,374 81,375 81,373" fill="#304d62"/>
<polygon points="49,244 49,246 50,247 50,250 50,249 51,248 54,251 62,251 63,252 64,252 65,251 65,250 62,250 61,251 57,251 56,250 56,249 55,249 54,248 54,247 52,247 51,246 51,245 50,244" fill="#133c5b"/>
<polygon points="71,255 69,253 67,255 64,255 63,254 62,255 61,254 60,255 53,255 52,256 51,256 51,257 52,256 53,257 54,257 55,256 56,256 57,255 58,255 59,256 61,256 62,257 64,257 65,258 67,256 68,256 69,255 70,255 71,256" fill="#133c5b"/>
<polygon points="344,234 343,234 342,233 342,232 339,236 336,232 336,228 336,232 337,233 337,235 335,237 335,238 332,240 331,240 330,239 329,240 328,239 328,238 326,240 326,241 331,242 335,238 335,237 337,235 338,236 338,238 336,240 339,237 341,237 342,238 341,239 342,239 343,240 345,240 345,238 343,236 343,235" fill="#2d5d8c"/>
<polygon points="238,378 238,380 239,381 247,381 249,379 250,380 251,379 249,379 248,378 245,378 244,379 243,379 242,378 241,379 240,379 239,378" fill="#133c5b"/>
<polygon points="32,336 33,338 34,338 36,340 36,341 38,342 41,345 41,349 42,351 44,350 46,351 46,348 47,347 47,345 46,346 45,344 47,342 49,342 47,341 48,340 50,340 51,341 50,340 52,338 54,338 54,337 52,336 49,336 48,337 48,340 47,341 45,341 44,339 40,344 35,339 35,336" fill="#8a97aa"/>
<polygon points="350,204 349,205 348,204 347,204 342,208 339,209 336,212 337,213 337,214 336,215 335,215 334,214 334,213 333,214 332,214 330,216 329,216 330,216 331,217 330,218 329,218 328,221 329,220 329,219 331,217 330,216 332,214 335,216 334,217 333,217 334,217 337,214 338,214 343,209 344,209 346,207 347,207" fill="#cbd1da"/>
<polygon points="9,0 10,2 13,3 12,2 15,0 20,6 23,5 24,9 30,9 24,6 25,3 35,5 36,6 33,8 34,9 37,9 39,7 41,9 46,7 48,11 56,12 52,10 54,7 56,7 57,9 61,8 64,9 61,5 63,3 60,6 48,6 47,8 38,4 36,1 34,1 33,3 22,2 21,0" fill="#2d5d8c"/>
<polygon points="0,114 0,115 1,116 0,117 4,117 5,118 5,119 3,121 2,120 0,120 0,122 2,122 3,121 4,121 5,122 6,122 8,124 9,124 10,123 11,123 11,121 9,119 9,118 10,117 10,116 8,116 7,117 6,116 5,116 4,115 3,115 1,113" fill="#245381"/>
<polygon points="8,179 8,180 10,180 11,179 14,179 15,180 15,182 16,182 17,181 18,181 19,180 21,180 22,181 22,182 20,184 21,184 22,185 23,185 24,184 24,183 23,183 22,182 22,180 21,179 21,178 18,178 17,177 16,177 15,176 14,177 11,177 9,179" fill="#133c5b"/>
<polygon points="366,272 366,273 369,273 370,274 371,273 372,273 374,275 375,275 376,274 377,274 378,275 380,275 382,273 383,273 383,272 378,272 377,271 376,271 375,272 372,272 371,271 370,271 369,270 368,270" fill="#133c5b"/>
<polygon points="329,222 328,223 331,226 331,231 327,235 326,234 326,230 327,229 327,227 328,226 327,226 327,228 325,230 325,232 324,233 324,234 325,235 328,235 330,233 331,233 331,232 332,231 334,231 334,229 332,227 332,226 330,224 329,224 328,223" fill="#6a7d93"/>
<polygon points="330,189 328,189 327,190 328,191 326,193 325,192 324,193 322,192 324,193 322,194 321,196 319,194 320,193 319,194 313,195 312,196 313,197 312,198 310,197 311,198 313,197 314,198 314,199 312,200 312,201 314,200 318,196 321,199 323,199 324,198 325,199 325,201 327,203 328,203 327,203 325,201 325,199 324,198 323,199 321,199 320,197 322,195 324,195 328,193 328,191" fill="#6a7d93"/>
<polygon points="135,265 134,265 131,262 131,265 130,266 129,265 129,264 128,264 127,263 125,265 124,264 122,264 122,266 123,266 124,267 124,268 125,269 126,269 127,268 126,269 125,268 125,267 126,266 128,266 129,265 130,266 132,264 133,264 134,265" fill="#8a97aa"/>
<polygon points="247,4 248,4 250,6 251,6 252,7 254,7 255,8 256,7 257,7 258,8 261,8 263,10 264,9 261,6 260,6 259,5 249,5 248,4" fill="#1a4973"/>
<polygon points="46,242 47,241 48,241 48,240 49,239 51,239 52,240 52,241 51,242 50,242 51,242 52,241 54,243 57,240 59,240 60,241 61,241 62,240 60,240 57,237 55,239 51,239 50,238 51,237 51,236 50,236 49,237 49,239 47,241 46,241" fill="#245381"/>
<polygon points="0,248 0,255 1,255 3,257 3,256 0,253 0,252 1,251 3,251 3,250 4,249 6,251 6,252 7,251 9,254 9,253 10,252 11,253 11,254 12,254 13,253 14,253 15,254 16,253 17,254 18,254 19,253 22,253 21,253 20,252 18,252 17,253 16,252 15,252 13,250 13,248 12,249 10,247 7,248 5,250 3,248" fill="#133c5b"/>
<polygon points="312,23 313,24 314,24 317,27 319,27 320,28 321,28 322,29 324,29 325,28 329,28 329,27 325,27 324,26 324,25 321,25 320,24 318,24 317,23 315,23 314,22 313,22" fill="#245381"/>
<polygon points="290,347 290,349 291,350 291,352 293,352 294,351 295,351 296,352 297,351 298,351 298,349 297,349 296,350 295,349 295,348 294,347 292,347 291,348" fill="#1a4973"/>
<polygon points="47,17 50,17 52,19 53,19 56,16 56,15 55,14 50,14 49,15 48,15 47,16" fill="#1a4973"/>
<polygon points="88,51 89,52 90,52 91,51 92,52 94,52 96,54 97,53 97,52 98,51 98,50 97,50 96,51 95,51 94,50 94,49 93,48 91,50 89,50" fill="#1a4973"/>
<polygon points="249,134 246,137 247,136 248,137 248,140 247,141 243,137 244,135 242,137 240,136 241,135 239,137 238,136 239,134 238,132 237,133 239,134 238,135 238,137 239,138 238,140 238,161 239,138 240,137 243,137 247,141 246,143 245,142 244,143 245,142 246,143 247,141 249,140 248,138 249,137" fill="#8a97aa"/>
<polygon points="191,270 189,272 186,272 185,271 185,270 188,267 186,267 184,264 183,265 183,267 182,268 180,268 180,269 182,269 183,268 183,267 184,266 185,266 186,267 186,268 185,269 185,271 184,272 183,271 181,271 181,274 178,276 179,277 178,278 176,278 178,278 181,276 183,276 182,276 181,275 185,272 188,272 189,273 187,275 189,273 190,273 189,272" fill="#8a97aa"/>
<polygon points="100,263 100,265 99,266 100,268 99,269 98,268 97,269 96,268 95,269 96,268 100,272 98,273 98,276 99,278 98,279 97,278 98,280 100,279 99,278 99,276 100,275 98,274 101,272 102,273 101,272 103,270 105,272 105,276 104,277 102,276 103,277 103,279 105,281 106,280 107,281 107,278 109,277 108,276 106,277 105,276 105,271 103,270 102,271 100,269 100,267 101,266" fill="#a9b3c0"/>
<polygon points="327,175 327,177 331,177 332,178 333,178 335,180 335,181 336,181 337,182 339,182 338,181 336,181 334,179 336,177 338,177 335,177 334,176 333,176 332,175 331,175 330,174 329,174 329,175 328,176" fill="#245381"/>
<polygon points="15,127 13,127 12,126 10,128 8,128 7,129 1,129 0,130 1,131 4,131 5,130 6,130 7,131 7,132 9,130 10,130 12,128 13,129 15,129" fill="#245381"/>
<polygon points="100,55 100,57 104,57 105,56 106,56 107,57 107,58 105,60 105,61 108,58 110,60 110,58 109,58 107,56 107,55 108,54 110,54 104,54 102,56 101,56" fill="#2d5d8c"/>
<polygon points="0,158 1,158 2,159 3,159 4,158 5,159 6,159 6,157 8,155 6,155 5,156 4,156 3,155 2,155 1,154 0,154" fill="#245381"/>
<polygon points="298,32 303,32 304,33 305,32 306,32 308,34 311,34 311,33 310,33 309,32 309,31 308,31 305,28 306,27 308,27 310,29 311,29 312,30 316,30 316,29 315,29 314,28 312,28 311,27 306,27 305,26 304,26 305,29 304,30 303,29 300,29 299,30 298,30" fill="#245381"/>
<polygon points="350,184 348,184 348,186 347,187 344,187 341,189 339,189 339,190 338,191 337,190 336,191 335,191 334,192 332,192 331,193 330,192 330,191 330,192 331,193 328,195 329,194 333,194 336,192 337,192 338,193 338,191 339,190 340,190 341,191 341,192 343,190 346,190 347,189 348,189 347,188 347,187 349,185 350,185" fill="#a9b3c0"/>
<polygon points="82,239 81,239 81,242 80,243 79,243 77,241 77,242 79,244 78,245 78,247 77,248 76,248 75,247 74,248 74,249 75,250 75,251 76,251 74,249 75,248 79,248 80,249 82,247 82,246 81,246 80,245 82,243 82,242 81,241 81,240" fill="#245381"/>
<polygon points="308,161 308,162 309,162 310,163 311,163 312,162 313,162 316,165 318,165 319,166 324,166 324,165 325,164 326,165 325,164 323,164 322,165 321,165 320,164 317,164 316,163 315,163 313,161 312,162 310,162 309,161" fill="#2d5d8c"/>
<polygon points="63,304 61,304 60,303 60,297 59,298 56,298 53,300 51,300 48,302 46,302 49,304 47,306 43,303 36,307 32,308 33,309 32,310 33,310 33,308 34,307 35,308 35,310 36,310 35,309 37,306 38,307 38,309 40,307 41,309 46,305 49,308 48,305 51,303 51,301 52,300 53,302 53,300 56,298 58,299 58,304 57,305 59,303" fill="#6a7d93"/>
<polygon points="268,308 267,309 263,309 261,307 263,309 262,310 261,310 261,313 262,313 263,314 263,315 261,318 260,318 259,317 258,317 261,320 263,318 263,317 264,316 267,316 267,315 265,313 263,313 261,311 263,309 267,309" fill="#6a7d93"/>
<polygon points="38,68 38,69 40,69 41,70 42,70 44,68 46,70 48,70 49,69 51,71 52,70 54,70 52,68 51,69 50,69 49,68 48,68 47,67 42,67 41,68 40,67 39,67" fill="#1a4973"/>
<polygon points="361,234 361,235 359,237 359,238 360,238 361,237 362,237 363,238 364,238 368,242 368,240 367,240 366,239 366,238 365,237 365,235 363,235 362,234" fill="#245381"/>
<polygon points="381,277 381,278 380,279 379,279 378,280 377,280 377,281 378,282 378,283 377,284 376,283 372,283 372,284 375,284 376,285 378,285 380,287 380,289 381,289 383,291 383,292 383,286 379,282 381,280 382,280 383,281 383,277" fill="#133c5b"/>
<polygon points="226,110 224,112 221,112 220,113 218,113 218,116 217,117 217,118 218,117 219,118 219,119 218,120 217,120 217,121 218,122 219,125 220,125 221,124 223,124 224,125 227,125 226,124 226,123 225,124 223,124 222,123 221,123 218,120 219,119 219,118 218,117 218,116 219,115 218,114 219,113 220,113 221,114 221,117 221,114 222,113 224,113 224,112 225,111 227,113 226,114 226,117 226,114 227,113 228,114 228,112" fill="#4d647b"/>
<polygon points="282,234 243,252 244,253 243,254 245,253 244,252 245,251 247,252 246,251 250,249 251,250 250,255 250,253 252,251 251,250 252,248 254,249 253,248 254,247 256,248 257,246 259,247 261,246 259,245 260,244 263,245 262,244 263,243 265,244 264,243 265,242 267,243 266,242 267,241 269,242 268,241 269,240 272,241 273,238 276,239 277,236 280,237 282,236 281,235" fill="#cbd1da"/>
<polygon points="0,43 0,45 1,46 2,45 4,47 5,46 8,46 9,45 12,48 14,48 15,49 16,49 17,48 18,49 22,49 23,48 23,47 22,47 21,48 19,46 18,46 17,45 17,43 15,43 15,44 14,45 12,42 8,42 7,41 5,43" fill="#1a4973"/>
<polygon points="61,27 61,28 62,29 62,31 64,33 64,34 63,35 60,33 60,35 62,38 62,39 61,40 61,43 62,43 62,42 65,39 65,36 66,35 67,35 68,36 69,35 70,35 70,34 68,34 66,32 67,31 67,30 66,31 65,31 64,30 63,30 61,28" fill="#2d5d8c"/>
<polygon points="250,308 249,308 247,310 243,310 242,309 241,309 240,308 240,307 238,309 237,308 235,308 235,309 234,310 233,309 232,309 232,310 233,310 234,311 234,312 233,313 230,313 229,314 227,314 227,315 230,313 233,313 235,311 238,312 241,309 242,309 245,311 246,311 247,310 248,311 248,312 248,311 249,310 250,310 249,309" fill="#8a97aa"/>
<polygon points="359,284 360,286 362,286 365,290 367,291 369,290 371,292 368,294 368,295 370,297 372,298 374,297 376,299 374,300 377,300 379,301 380,303 382,303 383,304 382,303 383,301 382,300 376,299 373,296 371,296 369,294 371,292 373,293 381,293 381,292 379,291 374,291 370,289 366,289 363,285 361,286 360,285 360,283" fill="#245381"/>
<polygon points="265,293 262,292 261,293 261,294 262,295 262,296 261,297 260,297 257,295 253,299 252,299 251,300 249,300 247,302 246,302 247,302 248,301 249,302 252,299 253,300 256,300 256,299 255,299 254,298 256,296 259,296 260,297 259,298 258,298 259,298 260,299 260,300 261,299 261,297 262,296 263,297 266,298 266,297 265,297 264,296 265,295" fill="#a9b3c0"/>
<polygon points="367,74 368,75 368,76 370,78 377,78 378,79 379,78 380,79 380,82 381,83 383,83 383,81 382,81 380,79 380,78 381,77 382,78 383,78 383,76 382,76 381,77 380,76 379,76 378,75 377,75 376,74 371,74 370,75 368,75" fill="#1a4973"/>
<polygon points="128,50 128,48 127,48 128,49 127,50 126,50 124,48 125,47 124,46 124,44 121,47 120,47 119,46 117,46 116,45 115,45 114,46 113,45 112,45 111,46 110,46 110,47 117,47 118,48 119,47 120,47 121,48 120,49 121,48 122,48 125,50" fill="#245381"/>
<polygon points="20,331 20,336 21,337 21,338 22,338 25,341 26,341 26,340 25,339 25,334 24,334 23,333 21,333 20,332" fill="#0b1b3e"/>
<polygon points="12,62 14,64 14,66 15,67 20,67 21,68 22,67 23,68 25,68 26,69 26,71 28,71 28,70 27,70 26,69 26,68 27,67 27,66 26,65 25,66 24,65 22,65 21,64 18,64 17,63 14,63 13,62" fill="#2d5d8c"/>
<polygon points="223,104 223,105 224,105 225,106 226,106 227,105 228,106 228,107 229,107 230,106 231,106 233,109 233,111 234,111 235,112 235,113 235,110 234,110 233,109 233,108 234,107 235,107 236,108 236,106 235,105 236,104 236,103 235,104 234,103 235,104 235,105 234,106 233,106 231,104 230,104 230,105 229,106 228,105 228,104 227,104 225,106 224,105 224,103" fill="#2d5d8c"/>
<polygon points="28,347 29,348 29,349 28,350 29,351 29,352 32,355 34,355 35,356 38,356 39,355 38,354 37,355 36,354 36,353 37,352 37,350 37,351 36,352 32,348 31,348 30,347" fill="#a9b3c0"/>
<polygon points="378,203 378,205 379,206 378,207 377,207 376,208 375,208 376,208 377,207 380,210 381,210 381,209 382,208 383,209 383,211 383,208 382,207 382,204 379,204" fill="#245381"/>
<polygon points="89,358 90,360 86,364 86,365 83,367 86,366 87,364 90,364 91,365 91,367 92,368 91,369 88,369 87,370 85,369 85,370 86,371 87,370 89,371 88,370 89,369 92,369 93,370 91,373 92,375 91,377 88,375 89,373 87,374 87,375 89,376 89,378 93,379 94,380 94,382 95,381 95,378 93,377 91,373 93,371 93,365 94,364 98,365 98,363 97,363 96,361 95,363 93,358 92,359 90,359" fill="#6a7d93"/>
<polygon points="340,377 340,378 342,380 345,380 347,382 349,382 350,383 351,383 351,382 352,381 353,382 353,383 358,383 356,381 357,380 357,379 353,379 349,375 347,375 346,376 345,376 344,377" fill="#1a4973"/>
<polygon points="84,261 83,263 81,264 80,263 77,266 76,266 79,265 80,263 81,264 81,267 84,270 84,271 82,272 81,270 81,273 80,274 79,273 80,274 80,279 79,280 83,279 84,281 85,279 82,279 81,278 81,275 82,274 83,275 86,274 86,272 84,270 84,268 85,267 87,269 85,267 85,266 85,267 83,269 81,266 81,264 83,263" fill="#8a97aa"/>
<polygon points="274,0 274,1 275,2 278,2 279,3 285,3 287,1 289,1 291,3 292,6 290,9 287,9 287,10 288,11 287,12 287,14 288,14 288,13 287,12 289,10 291,10 291,9 292,8 292,0 284,0 283,1 281,1 280,0 279,0 278,1 277,1 276,0" fill="#245381"/>
<polygon points="347,251 348,252 348,253 353,253 354,254 355,254 356,255 358,255 360,257 366,257 365,256 363,256 362,257 359,254 361,252 362,252 361,252 360,253 358,253 357,252 354,252 353,251 353,252 352,253 349,253" fill="#245381"/>
<polygon points="243,2 243,4 244,5 247,5 249,7 249,8 251,7 254,9 257,9 258,10 260,10 261,9 263,11 264,10 265,11 271,11 272,12 272,10 270,11 268,9 267,9 265,7 266,6 265,5 263,6 262,4 258,4 257,3 255,4 259,4 261,5 265,9 263,11 261,9 258,9 257,8 255,9 254,8 252,8 248,5 249,4 251,4" fill="#245381"/>
<polygon points="329,354 329,355 331,356 333,358 333,359 334,358 336,358 337,359 337,362 339,360 340,360 341,361 341,363 343,363 344,362 345,364 347,365 350,365 351,366 354,366 355,367 360,367 361,366 361,365 359,366 358,365 358,362 357,361 351,361 351,363 350,364 349,363 348,364 346,360 344,359 337,359 335,357 335,356 334,356 333,358 332,357 332,355" fill="#1a4973"/>
<polygon points="306,229 305,229 304,230 304,231 302,233 301,233 299,231 299,228 298,227 297,228 298,227 299,228 299,231 298,232 299,231 300,232 300,234 299,235 297,235 298,238 297,239 296,239 296,240 297,240 299,238 302,237 302,236 301,236 300,235 302,233 305,232 306,233 306,234 307,234 307,232 305,232 304,231 304,230 305,229 306,230" fill="#a9b3c0"/>
<polygon points="142,293 141,292 138,292 135,294 132,294 131,295 129,295 128,296 126,296 125,297 123,297 122,298 119,298 117,300 115,300 114,301 114,302 115,301 117,301 118,300 122,300 127,297 129,297 128,296 129,295 131,295 132,296 133,296 132,296 131,295 132,294 134,294 135,295 136,295 135,294 136,293 139,294 138,294 137,293 138,292 141,292" fill="#cbd1da"/>
<polygon points="333,9 336,9 339,11 342,11 343,10 345,10 346,11 347,11 348,10 349,11 351,11 352,10 353,10 354,11 354,12 355,12 355,11 356,10 357,11 358,11 359,8 361,6 362,7 363,7 363,6 362,5 360,5 359,4 355,4 354,5 353,4 351,4 350,5 347,5 346,4 343,3 343,6 342,7 339,6 339,7 340,6 341,7 341,8 339,10 337,8 335,8 334,7 333,7" fill="#245381"/>
<polygon points="34,308 34,310 33,311 32,311 31,310 32,309 31,309 30,310 28,310 27,311 25,311 25,312 26,311 27,311 28,312 28,313 27,314 25,314 24,315 23,315 22,314 23,313 20,313 19,314 19,315 20,316 18,318 17,317 17,315 16,315 15,316 15,318 14,319 14,320 16,320 16,319 19,317 20,318 20,319 21,319 22,318 25,317 25,315 28,313 29,314 29,315 31,315 32,314 33,314 35,311 34,310" fill="#8a97aa"/>
<polygon points="73,369 77,367 79,368 78,369 81,369 83,368 84,369 83,371 83,373 86,376 87,376 88,378 91,380 91,381 93,381 93,380 91,379 89,379 88,378 88,376 86,375 86,374 89,372 88,371 86,372 84,370 85,368 87,369 88,368 91,368 90,367 90,365 87,365 86,367 83,368 81,364 80,366 78,366 76,368" fill="#4d647b"/>
<polygon points="146,341 143,343 140,342 137,344 134,344 133,345 132,345 130,347 132,345 133,345 134,344 137,344 138,343 139,344 139,345 140,345 143,348 143,349 142,350 141,349 140,350 140,351 141,350 142,350 143,351 143,352 142,353 141,353 144,352 144,346 142,344 144,342 145,342" fill="#8a97aa"/>
<polygon points="0,313 0,319 5,318 7,320 7,323 9,325 9,328 5,330 6,331 11,331 12,332 10,335 8,334 6,335 2,335 1,334 2,332 0,331 0,338 3,338 3,336 4,335 6,335 8,337 9,336 11,336 12,337 13,336 14,337 13,327 11,328 8,324 9,323 7,322 8,317 9,316 10,317 9,316 4,318 3,317 1,317 0,316" fill="#1a4973"/>
<polygon points="14,309 9,309 9,310 7,312 5,312 4,313 3,312 3,313 8,313 9,312 10,313 11,313 12,312 13,312 13,310" fill="#1a4973"/>
<polygon points="19,334 19,336 17,338 16,337 17,344 15,346 13,346 11,350 13,348 18,347 26,359 25,361 23,360 29,363 32,367 39,372 36,373 38,373 39,371 37,371 34,368 35,366 40,368 43,371 40,375 43,372 41,366 37,367 33,365 24,357 17,341" fill="#4d647b"/>
<polygon points="47,310 55,314 58,317 60,317 61,318 60,319 56,319 61,319 64,322 67,323 68,325 72,328 72,330 72,328 73,327 75,331 74,332 80,330 75,331 74,330 74,328 63,319 64,317 69,315 64,317 62,320 60,317 51,311" fill="#cbd1da"/>
<polygon points="9,317 9,320 8,321 8,322 12,322 13,323 13,326 14,327 14,328 14,327 13,326 13,316 12,317 11,317 10,318" fill="#304d62"/>
<polygon points="11,73 11,74 12,75 14,75 15,74 18,74 19,75 20,74 21,74 21,73 20,72 22,70 23,71 23,74 24,75 25,74 25,73 23,71 23,70 21,70 20,69 14,69 15,70 18,70 19,71 19,72 17,74 16,73" fill="#1a4973"/>
<polygon points="82,62 81,62 79,60 79,59 78,58 77,59 76,58 75,59 74,59 74,62 73,63 67,63 67,64 68,64 69,65 70,65 71,64 72,64 73,63 74,63 75,64 76,64 77,63 77,62 75,62 74,61 74,60 75,59 77,59 81,63 81,64 82,63" fill="#1a4973"/>
<polygon points="29,67 30,67 32,69 32,71 33,71 34,70 35,71 36,71 36,70 35,70 34,69 34,67 35,66 38,66 39,65 40,65 41,66 42,66 43,65 46,65 47,66 49,66 50,65 51,65 50,65 49,64 46,64 45,65 44,65 43,64 44,61 41,61 42,62 42,63 41,64 39,64 38,63 39,62 39,61 38,60 35,60 34,59 33,59 34,60 37,61 38,62 38,64 34,67 32,67 31,66 29,66" fill="#2d5d8c"/>
<polygon points="351,45 351,47 354,47 355,48 355,49 356,49 358,51 360,49 361,50 361,51 362,52 364,52 364,50 363,49 361,49 360,48 359,48 358,47 356,47 355,46 355,45 356,44 356,42 355,42 355,44 353,46 352,45" fill="#245381"/>
<polygon points="11,353 14,356 14,357 18,357 18,356 19,355 21,357 20,358 21,358 21,356 19,354 19,353 18,354 17,353 17,352 18,351 18,350 15,350 14,351 13,351" fill="#133c5b"/>
<polygon points="0,339 0,341 2,341 3,340 5,342 5,343 6,343 7,342 10,342 10,340 11,339 12,339 13,340 13,341 14,341 14,340 15,339 16,340 15,339 15,338 14,338 13,337 12,338 11,337 9,337 8,338 6,336 4,336 4,338 3,339" fill="#245381"/>
<polygon points="360,12 362,12 365,14 364,16 373,17 376,21 378,20 380,22 381,21 383,22 383,19 382,19 381,17 375,17 374,16 374,14 375,13 377,14 380,14 381,15 383,15 383,14 381,13 379,14 377,14 374,11 371,11 367,9 367,11 365,14 364,13 364,11 362,9" fill="#245381"/>
<polygon points="339,38 339,40 341,42 342,41 345,41 346,42 346,44 345,45 344,44 343,44 344,44 345,45 346,45 346,44 348,42 349,42 350,43 353,43 353,42 351,42 350,41 348,41 346,39 345,39 344,40 342,40 341,39 341,37 342,36 341,35 340,36 340,37" fill="#245381"/>
<polygon points="284,9 283,9 281,11 280,11 279,12 276,12 276,13 277,14 277,15 276,16 275,16 274,15 273,15 273,16 274,17 275,17 276,16 278,16 279,17 280,17 279,17 277,15 278,14 278,13 279,12 280,12 281,13 282,13 283,14 284,14 285,13 284,12" fill="#245381"/>
<polygon points="361,58 362,59 363,59 364,60 365,60 366,61 368,61 369,62 373,62 374,63 375,63 375,62 374,61 373,61 371,59 370,59 368,61 367,60 366,60 364,58" fill="#1a4973"/>
<polygon points="343,57 345,57 346,58 347,58 348,57 349,57 350,58 350,59 352,62 352,63 351,64 350,64 350,65 351,66 354,66 355,67 356,67 356,65 355,65 354,66 352,64 352,62 353,61 357,61 357,59 356,59 355,60 354,60 353,59 352,59 350,57 345,57 344,56" fill="#2d5d8c"/>
<polygon points="16,341 15,340 14,342 11,342 9,343 9,346 8,347 6,346 4,347 4,348 7,348 8,347 10,348 7,351 4,351 2,352 1,351 2,349 0,349 0,354 1,353 5,353 6,352 8,352 10,353 13,356 13,357 13,356 10,353 14,349 15,349 11,351 10,350 10,348 13,345 15,345 16,344" fill="#304d62"/>
<polygon points="354,19 357,22 356,24 358,26 359,25 361,28 363,28 366,30 371,30 369,29 370,28 375,28 379,30 378,31 375,31 374,30 373,31 375,31 376,32 379,31 381,34 382,33 381,31 383,30 383,29 380,29 379,28 378,29 376,28 369,28 366,26 367,24 365,24 364,23 361,23 363,24 360,26 358,24 359,23 357,22 359,21 359,20 358,19" fill="#245381"/>
<polygon points="4,41 5,41 5,40 6,39 8,39 9,40 15,40 18,42 20,42 21,43 21,45 22,45 22,38 23,37 24,37 22,37 22,38 19,40 18,40 17,39 15,39 14,40 13,40 11,38 13,36 15,36 13,36 12,35 10,35 10,38 9,39 8,39 7,38 7,36 7,38" fill="#2d5d8c"/>
<polygon points="0,343 0,348 2,348 3,349 2,350 2,351 3,351 4,350 7,350 9,348 8,348 7,349 4,349 3,348 3,347 4,346 4,345 2,345 1,344 1,343" fill="#133c5b"/>
<polygon points="369,367 369,368 373,368 374,369 374,370 377,373 378,373 379,372 380,372 381,373 382,373 383,374 383,375 383,370 382,370 381,369 380,369 379,370 378,369 377,369 376,368 375,368 374,367" fill="#1a4973"/>
<polygon points="45,380 44,380 43,379 42,379 41,380 39,380 38,381 38,382 37,383 35,383 34,382 34,381 33,381 32,380 31,381 28,381 26,383 25,383 26,383 28,381 29,382 29,383 37,383 38,382 39,383 41,381 43,381 44,380" fill="#8a97aa"/>
<polygon points="8,2 8,4 7,5 7,7 7,6 8,5 9,5 11,7 12,7 13,8 13,10 15,10 16,9 16,6 13,6 11,4 10,4" fill="#1a4973"/>
</svg>