<svg xmlns="http://www.w3.org/2000/svg" width="4032" height="3024" viewBox="0 0 384 384">
<rect width="384" height="384" fill="#786891"/>
<polygon points="0,0 0,82 34,64 89,51 167,5 211,1 305,39 346,83 383,80 383,0" fill="#3b4694"/>
<polygon points="334,143 302,124 310,111 295,91 234,44 161,41 170,56 112,86 11,103 9,112 45,107 30,118 32,132 0,156 0,176 74,167 91,145 136,136 135,125 180,112 193,89 219,79 271,109 295,161 317,158" fill="#7e7cc5"/>
<polygon points="383,201 256,204 329,176 266,167 293,183 216,199 300,214 194,222 86,202 39,208 86,217 13,226 62,245 343,247 109,229 302,223 276,216" fill="#e4a292"/>
<polygon points="349,92 305,40 252,13 212,2 167,6 89,52 0,83 0,155 31,132 29,118 44,107 9,113 11,102 112,85 170,55 161,40 234,43 296,91 311,111 303,124 326,138 348,137 351,126 335,111" fill="#6062ad"/>
<polygon points="295,179 258,171 270,166 261,158 262,148 247,141 236,146 181,145 174,153 155,153 145,159 151,164 137,171 96,171 46,183 71,190 67,196 82,195 88,202 161,208 188,202 170,201 173,197 207,195 189,187 220,191 276,186" fill="#d9b5c9"/>
<polygon points="295,162 270,109 219,80 192,89 180,113 135,126 136,137 91,146 93,152 80,156 74,168 40,167 22,179 30,185 13,185 12,192 68,195 71,191 46,182 96,170 137,170 157,151 174,152 181,144 200,141 236,145 251,140 263,148 267,164" fill="#a797d0"/>
<polygon points="0,204 32,222 0,224 15,228 0,233 129,260 251,263 383,247 383,237 306,250 125,250 144,244 62,246 66,238 12,226 86,216 40,209 84,201 13,194 25,201" fill="#b7848e"/>
<polygon points="383,269 283,267 352,274 269,283 337,289 256,333 186,316 150,333 134,306 87,307 20,342 0,330 0,358 53,356 70,337 104,349 97,326 115,319 139,326 155,370 161,352 240,363 247,349 290,382 383,383 377,359 309,369 334,347 286,317 347,321 334,295 383,285" fill="#3a3255"/>
<polygon points="0,329 45,338 73,315 50,318 60,302 46,300 74,295 73,312 125,305 160,330 143,300 77,298 133,288 103,281 263,295 278,279 351,274 56,260 84,260 57,276 89,284 7,296 0,310 16,312 0,322 17,322" fill="#614f6e"/>
<polygon points="0,359 0,383 317,383 277,379 256,356 251,362 247,350 240,364 237,357 224,363 206,352 194,364 181,364 177,351 168,363 161,353 151,370 138,326 115,320 98,326 104,350 70,338 53,357 18,348 7,363" fill="#191a41"/>
<polygon points="352,212 302,213 331,216 282,223 286,228 267,234 247,229 264,224 220,225 212,231 110,229 196,232 129,236 177,236 153,244 262,242 281,233 315,231 314,223" fill="#f8d6ae"/>
<polygon points="383,172 356,171 353,168 357,163 348,151 328,152 317,159 272,166 292,172 325,170 330,176 313,184 322,187 289,188 296,190 289,194 245,199 281,207 312,203 373,206 382,198 369,202 317,195 373,180" fill="#b7848e"/>
<polygon points="383,202 372,210 339,214 343,214 342,217 314,224 317,229 315,232 281,234 263,242 316,242 383,235 381,232 383,224 372,222 359,215 360,212 375,209" fill="#d9b5c9"/>
<polygon points="146,210 188,213 190,216 161,219 193,220 190,223 205,225 193,222 206,219 194,217 196,214 300,213 230,209 222,203 202,203 217,195 234,195 228,189 210,192 199,187 189,188 207,196 177,197 170,200 189,201 175,205 177,208" fill="#f8d6ae"/>
<polygon points="383,248 338,254 272,257 257,260 251,264 235,264 350,267 343,267 343,265 347,265 357,258 362,259 383,254" fill="#8e6c80"/>
<polygon points="0,234 0,237 6,240 0,242 0,245 22,251 21,254 36,256 36,258 32,258 137,259 109,253 82,253 65,247 52,248 29,242 16,235" fill="#8e6c80"/>
<polygon points="383,286 359,282 357,294 353,294 355,287 335,295 340,295 339,310 347,322 343,317 338,321 331,313 320,312 319,317 311,315 303,329 302,318 288,313 289,322 311,341 318,338 335,347 329,354 324,352 328,355 325,367 324,359 318,359 315,365 311,360 305,364 309,368 312,365 327,371 326,367 364,363 358,364 357,359 368,359 368,365 383,362" fill="#191a41"/>
<polygon points="345,83 346,85 344,87 346,88 341,91 348,90 350,93 337,105 337,118 344,124 345,122 356,126 359,130 366,131 367,133 368,131 372,131 379,137 377,139 376,151 378,162 383,165 383,81 373,80 354,84" fill="#614f6e"/>
<polygon points="383,176 378,177 375,180 355,186 332,189 318,195 318,197 345,196 352,198 364,198 369,201 380,197 383,198 383,184 380,180" fill="#8e6c80"/>
<polygon points="0,259 0,271 26,270 50,280 12,278 31,284 0,290 1,301 14,300 7,299 7,295 22,295 33,289 52,290 46,287 49,283 88,284 81,281 86,279 71,279 78,281 72,286 69,279 56,276 71,274 59,274 65,271 61,267 82,271 68,267 74,263 84,265 78,263 84,261" fill="#3a3255"/>
<polygon points="143,275 147,275 148,276 145,277 158,277 172,279 175,281 189,279 215,280 216,278 231,280 204,275 201,277 197,274 193,275 189,272 164,273 162,274 162,276 159,273" fill="#3a3255"/>
<polygon points="334,132 335,134 330,139 335,144 328,151 341,152 348,150 351,154 352,160 355,160 358,163 358,165 354,168 356,170 367,170 369,172 383,171 383,166 377,162 375,145 377,143 376,139 378,137 375,134 376,133 368,132 367,134 366,132 364,133 359,131 356,127 352,127 348,129 350,133 349,137 347,139 341,139 337,136 335,137" fill="#8e6c80"/>
<polygon points="77,295 98,303 96,296 103,299 106,293 114,292 108,298 115,302 117,294 125,297 119,302 138,296 128,301 144,309 146,304 155,319 155,310 164,308 150,301 151,306 140,304 148,293 150,299 160,296 151,295 159,293 152,289 165,284 163,290 184,292 175,291 173,282 152,280 159,283 151,286 139,282 142,277 119,281 126,277 112,281 125,284 110,283 131,286 121,292 83,287 77,291 107,292" fill="#8e6c80"/>
<polygon points="219,305 230,304 224,303 225,300 240,304 241,307 234,307 255,306 269,311 266,310 268,307 296,307 262,305 248,299 244,301 246,297 263,298 264,301 268,298 269,302 284,301 287,304 302,304 307,300 286,303 288,301 257,298 249,292 250,297 228,301 221,297 226,299 219,299 226,304" fill="#b7848e"/>
<polygon points="331,215 324,215 323,214 290,215 289,216 284,216 283,217 276,217 276,218 291,218 296,221 304,222 310,219 312,219 316,216 324,216 325,215 329,216" fill="#d9b5c9"/>
<polygon points="143,298 147,302 155,301 166,306 171,304 171,308 174,309 178,305 168,303 167,300 182,303 182,306 185,304 185,307 204,312 204,315 208,314 206,316 211,315 210,318 217,318 214,320 224,319 220,316 223,318 220,320 215,316 217,315 209,315 198,310 200,306 174,302 177,296 180,297 178,300 183,299 177,295 180,292 185,298 188,296 179,291 175,297 155,293 152,297 148,294" fill="#b7848e"/>
<polygon points="0,205 0,223 8,223 9,224 25,224 26,223 31,222 19,221 14,219 15,218 20,218 15,217 12,214 14,212 19,212 19,211 17,211 14,209 15,208 18,208 17,207 1,206" fill="#8e6c80"/>
<polygon points="196,215 203,216 204,217 210,217 211,218 212,217 214,218 231,218 232,216 243,216 246,218 247,217 253,217 254,218 255,217 258,218 261,217 261,216 258,216 257,215 234,215 233,216 229,216 228,215" fill="#d9b5c9"/>
<polygon points="383,255 381,255 380,256 374,256 373,257 372,256 368,258 365,258 362,260 361,259 359,260 357,259 355,262 351,264 349,264 347,266 343,266 350,266 351,267 350,268 342,268 340,267 342,268 383,268" fill="#614f6e"/>
<polygon points="0,246 0,258 46,259 32,259 31,258 32,257 36,257 30,257 29,256 21,255 20,254 22,252 16,250 7,249 6,248 8,247 5,247 2,245" fill="#614f6e"/>
<polygon points="336,288 331,282 326,289 315,290 317,292 297,286 293,287 298,289 294,291 322,292 316,294 319,296 297,296 294,294 297,293 290,293 295,297 288,297 287,294 278,297 310,298 303,306 288,305 297,306 298,310 292,311 300,315 305,309 314,310 308,305 311,300 315,303 314,306 314,300 324,298 323,294 326,296 325,293 329,293 332,287" fill="#614f6e"/>
<polygon points="0,289 3,289 4,287 11,288 9,287 24,285 27,283 30,284 28,282 14,280 11,278 12,277 26,279 24,277 26,276 36,279 49,280 43,280 40,277 38,278 37,275 31,275 26,271 6,272 5,270 7,268 26,268 6,266 3,268 6,269 0,272 0,276 4,278 0,279 0,287 2,288" fill="#191a41"/>
<polygon points="383,205 381,205 379,207 378,207 375,210 374,210 373,211 368,211 367,212 363,212 362,213 360,213 360,215 363,217 368,217 370,219 371,219 372,220 372,221 374,221 375,222 380,222 381,223 383,223" fill="#a797d0"/>
<polygon points="187,271 191,272 192,269 194,272 193,273 195,272 201,273 202,271 203,272 204,271 205,273 203,274 207,275 215,274 219,277 218,275 222,274 218,273 221,271 225,272 232,271 235,274 233,272 234,271 255,271 255,270 250,271 249,269 245,271 243,270 230,271 227,269 226,270 208,269 201,271 199,267 196,267 195,269 192,267 191,269 188,269 191,270 190,271" fill="#8e6c80"/>
<polygon points="261,288 252,288 246,285 248,286 245,287 247,288 246,290 243,288 243,285 241,284 234,286 223,285 220,288 225,287 228,289 217,292 225,291 228,293 232,293 228,293 227,290 236,287 237,288 234,291 231,291 240,290 244,294 244,296 245,295 250,296 248,293 249,291 252,293 250,292 252,290 254,291 252,290 253,289" fill="#8e6c80"/>
<polygon points="284,311 277,313 283,314 280,315 279,317 277,315 278,316 277,317 269,318 244,317 239,315 228,314 248,317 249,318 247,320 248,319 250,320 249,321 250,327 251,324 255,325 254,328 256,330 255,333 256,332 255,327 257,326 259,328 258,326 260,325 261,322 269,321 270,323 275,319 278,320 280,323 283,323 281,321 281,318" fill="#614f6e"/>
<polygon points="227,202 226,202 225,201 222,201 221,200 216,200 215,199 215,198 216,197 219,197 218,196 217,196 215,198 212,198 211,199 210,199 208,201 201,201 202,202 222,202 223,203 224,202" fill="#d9b5c9"/>
<polygon points="75,297 73,295 70,295 73,295 74,296 73,297 64,297 69,298 67,301 66,300 62,301 61,299 58,298 59,297 62,297 47,300 57,300 61,302 52,305 51,304 47,305 48,313 49,314 51,311 52,313 55,314 50,317 55,316 58,312 60,313 62,312 63,314 64,313 62,312 64,310 63,309 66,307 72,309 74,306 76,306 74,304 76,302 77,303 77,301 75,302 74,301 75,300 72,300 71,302 69,299" fill="#8e6c80"/>
<polygon points="0,196 0,203 14,203 15,202 18,202 19,201 20,202 23,200 25,200 24,199 23,199 22,198 20,198 19,197 11,197 10,196 11,195 12,195 12,194 10,194 8,196 6,196 5,197 4,196" fill="#8e6c80"/>
<polygon points="0,181 0,183 1,183 2,184 8,184 9,185 10,184 17,184 18,183 26,183 27,182 29,182 30,183 30,184 31,183 30,182 26,182 21,179 15,179 14,178 7,178 6,177 4,177 4,179 3,180" fill="#b7848e"/>
<polygon points="0,184 0,193 1,194 0,195 4,195 5,196 6,195 8,195 10,193 13,193 11,193 10,192 12,190 12,188 13,187 13,186 12,185 10,185 9,186 8,185 2,185 1,184" fill="#7e7cc5"/>
<polygon points="290,187 297,187 298,186 306,186 307,185 308,185 308,184 309,183 311,183 312,182 313,183 315,183 315,182 308,182 307,181 304,181 303,182 301,182 300,181 299,181 299,182 297,184 296,184 295,185 292,185" fill="#d9b5c9"/>
<polygon points="190,316 190,318 198,320 201,322 200,323 196,322 196,324 199,323 201,326 202,325 205,328 206,328 204,327 205,326 207,326 210,328 211,327 212,328 211,327 215,325 217,326 218,325 220,327 222,326 222,324 220,324 219,323 218,324 216,323 215,324 213,324 212,323 214,322 211,323 210,321 207,321 203,319 199,319 196,317" fill="#b7848e"/>
<polygon points="263,287 264,288 268,288 269,289 271,289 273,288 278,291 277,292 272,292 274,292 280,295 282,295 283,293 289,293 290,292 295,292 293,291 297,289 295,289 294,288 293,289 292,288 290,288 289,289 280,289 278,287 277,288 271,288 270,287 268,288 265,288" fill="#8e6c80"/>
<polygon points="221,333 222,334 222,336 223,335 224,335 225,336 225,337 226,338 227,341 227,340 229,338 232,338 234,340 237,340 238,339 238,338 237,337 238,336 239,336 240,337 237,334 237,333 234,333 232,331 232,329 231,329 230,328 231,329 230,330 229,330 228,329 226,329 226,330 225,331 223,331" fill="#191a41"/>
<polygon points="262,327 263,328 266,328 267,329 264,335 266,332 270,335 269,337 270,336 272,338 271,339 272,338 274,340 276,339 277,340 279,340 280,341 279,342 283,340 286,342 285,344 287,345 287,342 288,341 286,340 284,338 284,337 281,337 280,335 278,334 279,333 277,332 275,329 271,328 273,330 272,331 267,329 266,328 269,325 266,325" fill="#191a41"/>
<polygon points="193,69 193,70 194,71 196,69 197,69 199,71 201,71 202,72 203,72 204,71 205,72 205,73 206,72 206,70 210,66 210,65 209,65 208,66 206,64 205,64 203,62 201,62 200,63 201,64 201,66 200,67 198,67 197,68 196,68 195,69 194,68" fill="#a797d0"/>
<polygon points="90,181 85,181 83,183 78,183 77,182 74,182 73,183 72,182 70,182 70,184 71,185 76,185 77,186 77,187 79,187 80,188 81,188 82,189 83,189 83,188 82,187 84,185 83,184 84,183 87,183 89,181" fill="#e4a292"/>
<polygon points="187,284 189,286 190,284 195,286 196,288 197,288 196,287 197,286 199,286 201,289 210,290 211,291 209,292 212,291 211,290 213,289 216,292 215,293 217,294 224,294 225,293 223,292 217,293 216,292 220,290 217,291 210,288 211,286 214,287 221,287 222,286 217,286 216,287 211,286 207,288 206,286 203,285 207,283 204,284 202,287 199,284 196,285 194,283" fill="#b7848e"/>
<polygon points="195,314 198,314 199,315 201,315 204,317 203,318 200,318 199,317 197,317 199,318 203,318 207,320 210,320 211,322 213,323 215,323 216,324 219,322 220,323 222,323 223,324 223,326 223,324 225,322 227,323 228,322 225,320 222,320 221,319 218,320 214,318 211,318 210,317 206,317 203,315 199,315 198,314" fill="#8e6c80"/>
<polygon points="136,212 134,212 133,213 133,214 132,215 131,215 130,216 123,216 122,217 121,217 132,217 135,214 136,214" fill="#f8d6ae"/>
<polygon points="135,275 134,274 130,274 129,273 126,273 125,272 126,271 130,271 125,271 124,272 118,272 117,273 115,273 114,274 112,274 120,274 121,275 130,275 131,274 133,276 133,277" fill="#3a3255"/>
<polygon points="254,293 257,295 256,296 257,297 259,296 268,297 269,298 266,299 267,300 272,297 275,298 273,299 288,300 289,301 285,303 284,302 283,304 274,304 268,302 262,303 276,304 277,305 276,306 287,305 285,303 286,302 289,302 291,300 293,302 295,301 294,300 301,298 282,299 263,294 264,295 263,296 260,296 257,294 258,293" fill="#8e6c80"/>
<polygon points="267,357 268,358 267,363 270,361 271,361 273,364 274,363 276,363 277,364 277,366 280,366 281,367 280,368 280,370 281,370 280,369 281,367 282,368 284,368 286,370 285,367 288,363 289,364 288,363 288,359 290,357 292,358 292,361 293,360 294,361 299,362 299,361 296,361 289,355 288,357 286,357 285,356 283,357 282,355 279,356 280,357 279,359 278,359 276,357 277,356 275,355 273,355 273,358 272,359 268,356" fill="#191a41"/>
<polygon points="190,298 194,298 195,299 194,298 195,297 201,297 203,298 204,300 207,302 206,303 200,301 199,300 200,299 199,299 198,301 196,301 196,302 199,304 203,303 204,304 203,305 205,304 207,306 206,307 208,307 211,305 212,303 214,302 215,300 216,301 217,299 215,298 216,299 214,301 212,299 210,303 209,301 209,303 207,304 206,303 207,300 210,298 208,298 207,297 208,296 206,297 197,294 196,297 194,294 191,294 192,294 193,296" fill="#b7848e"/>
<polygon points="170,298 170,299 173,299 176,301 180,301 184,303 195,304 199,306 197,307 198,307 200,305 201,306 206,306 199,305 197,304 195,302 195,301 192,301 191,300 185,299 184,297 182,297 184,299 180,301 178,301 177,300 178,299 177,298 176,298 178,299 177,300 174,300 173,299 174,298 173,299 171,299" fill="#e4a292"/>
<polygon points="251,320 253,322 253,323 254,323 255,324 256,323 259,323 261,321 264,321 265,320 266,320 261,320 260,319 259,320 258,320 257,319 252,319" fill="#8e6c80"/>
<polygon points="167,301 177,305 178,306 177,307 175,307 174,306 178,308 182,308 190,311 194,311 195,312 198,312 205,315 211,316 209,316 208,315 210,314 205,315 204,313 198,312 194,310 191,310 181,306 178,306 175,304 177,303" fill="#e4a292"/>
<polygon points="180,317 180,318 185,316 186,317 185,319 188,323 188,325 191,327 198,327 199,328 200,327 204,332 207,329 211,332 214,328 215,331 217,332 225,325 230,323 231,324 229,322 227,324 225,323 224,326 219,329 218,328 215,329 214,327 213,329 208,328 203,329 198,325 195,327 192,325 191,326 188,323 187,315 188,314 189,315 188,314 189,313 186,314 181,313 186,315 184,317" fill="#614f6e"/>
<polygon points="287,326 286,327 286,330 288,330 291,333 290,334 291,334 292,335 293,335 294,336 295,336 296,337 296,338 299,338 301,340 300,341 302,339 301,338 301,336 299,336 298,335 299,334 299,332 298,332 297,333 296,333 294,331 294,330 292,328 291,328 290,327 289,327 288,326" fill="#191a41"/>
<polygon points="250,339 249,338 249,337 245,337 245,338 244,339 244,341 243,342 241,342 240,341 238,341 237,342 234,342 235,343 243,343 244,344 245,344 245,343 246,342 247,343 248,342 250,342 249,341 250,340" fill="#614f6e"/>
<polygon points="183,346 183,347 184,346 186,347 187,346 189,347 191,347 192,346 193,347 194,346 198,345 199,346 202,346 203,347 202,346 203,345 205,346 208,346 209,345 211,347 212,346 215,348 214,346 211,346 210,344 207,344 206,343 204,345 200,344 199,343 200,342 196,339 196,341 197,342 193,345 191,344 192,343 191,344 190,342 188,342 187,344 186,343 186,344" fill="#614f6e"/>
<polygon points="234,311 236,311 238,313 234,314 239,314 244,316 250,316 251,315 252,316 254,314 255,317 262,316 259,316 258,315 259,314 273,314 274,315 277,314 279,316 280,314 282,314 275,313 274,315 273,314 256,312 260,312 261,313 260,314 252,313 249,316 246,316 245,315 246,313 240,313 239,310 240,309 247,310 239,309" fill="#8e6c80"/>
<polygon points="243,279 241,277 240,278 238,278 241,278 242,279 241,280 235,280 234,281 229,281 230,282 234,282 235,281 236,282 237,282 238,283 239,282 240,282 241,281 243,281" fill="#8e6c80"/>
<polygon points="156,310 156,311 158,313 158,314 157,315 160,316 162,318 162,317 161,317 160,316 161,315 163,315 165,318 164,319 165,319 166,320 165,319 166,318 167,318 169,320 168,321 168,322 169,323 170,322 169,321 169,320 170,319 171,319 172,320 174,318 173,318 172,317 170,317 167,315 165,315 164,314 161,313 160,312 161,311 164,311 165,312 166,312 165,311 163,311 162,310" fill="#b7848e"/>
<polygon points="153,318 152,319 153,320 151,322 153,322 154,323 155,323 157,325 158,324 158,323 159,322 158,321 157,322 156,321 156,320 155,320" fill="#b7848e"/>
<polygon points="210,312 210,313 212,312 213,314 222,315 225,317 231,318 232,319 234,319 232,319 231,318 232,317 237,317 238,318 240,318 241,320 242,319 246,320 244,319 245,318 248,318 242,318 241,317 228,315 227,314 228,313 232,313 230,312 229,313 223,312 225,312 226,313 225,315 222,315 217,313 214,314 213,313 214,312 213,313 211,311" fill="#8e6c80"/>
<polygon points="214,300 215,302 217,302 221,304 225,304 226,305 225,306 219,306 218,305 216,305 218,306 228,306 229,307 233,307 234,306 241,306 234,305 231,303 226,302 223,300 224,302 227,302 231,304 230,305 226,305 220,302 216,302" fill="#e4a292"/>
<polygon points="160,311 165,314 167,314 170,316 172,316 173,317 174,317 175,318 174,319 175,319 176,318 179,318 179,317 180,316 184,316 183,315 183,314 182,314 183,315 182,316 178,316 175,314 173,314 172,315 171,315 170,314 171,313 169,313 168,312 169,311 174,311 170,311 167,309 167,310 166,311 167,312 166,313 165,313 164,312 161,312" fill="#8e6c80"/>
<polygon points="147,339 147,340 151,344 152,344 153,345 155,345 157,347 158,346 157,346 156,345 156,344 157,343 158,343 156,343 155,342 155,339 154,339 153,340 152,340 151,341 149,341 148,340 148,339" fill="#614f6e"/>
<polygon points="236,347 234,347 232,345 231,345 228,342 229,341 228,342 226,342 226,343 225,344 223,344 223,348 222,349 224,349 224,348 225,347 225,346 226,345 228,345 230,347 234,347 235,348 236,348" fill="#614f6e"/>
<polygon points="200,284 202,286 202,285 203,284 204,285 206,285 207,286 207,287 208,286 210,286 211,287 211,288 213,288 214,289 218,289 214,289 213,288 213,287 211,287 210,286 211,285 211,284 209,284 208,283 209,282 212,282 213,283 214,282 203,282 202,281 201,282 203,282 204,283 203,284" fill="#8e6c80"/>
<polygon points="228,292 232,292 233,293 234,293 235,294 236,293 237,293 238,294 238,295 241,295 242,296 243,296 243,294 242,294 241,293 238,293 237,292 238,291 236,291 235,292 231,292 230,291 229,291" fill="#614f6e"/>
<polygon points="153,289 155,289 156,290 159,290 160,291 159,292 160,293 161,292 165,292 166,293 167,293 168,292 169,293 175,293 171,293 170,292 171,291 170,292 169,291 169,290 168,290 167,289 166,289 167,289 169,291 168,292 167,292 166,291 163,291 162,290 162,288 163,287 164,287 163,286 163,285 163,286 161,288 160,287 159,287 158,288 155,288 154,289" fill="#614f6e"/>
<polygon points="157,317 158,318 158,319 157,320 159,317 160,318 160,320 159,321 160,322 158,325 159,325 160,326 159,325 161,323 160,322 163,320 164,321 165,320 168,323 167,322 167,321 168,320 167,319 166,319 165,320 164,320 163,319 164,318 163,317 163,316 161,316 160,315 159,315" fill="#8e6c80"/>
<polygon points="55,318 56,319 56,321 55,322 58,322 59,321 60,322 62,320 61,320 60,319 60,318 59,317 57,317 56,318" fill="#8e6c80"/>
<polygon points="210,309 214,309 215,310 216,309 217,310 218,310 219,311 225,311 226,312 229,312 228,312 227,311 228,310 227,310 226,311 225,311 224,310 222,310 221,309 219,309 218,308 213,308 212,309 211,308 211,307 211,308" fill="#b7848e"/>
<polygon points="112,295 108,295 109,295 110,296 109,297 107,297 106,298 105,298 103,300 99,300 98,299 99,298 101,298 103,296 105,296 105,295 104,295 103,296 101,296 102,297 101,298 99,298 97,296 97,297 98,297 99,298 98,299 97,299 98,300 100,300 101,301 100,302 99,302 99,303 102,303 103,302 106,303 109,301 110,302 110,301 109,300 110,299 108,299 107,298 108,297 113,297 112,296" fill="#b7848e"/>
<polygon points="153,306 154,306 155,307 156,307 157,308 161,308 162,309 163,309 164,310 166,310 167,311 168,311 167,311 166,310 164,310 163,309 162,309 161,308 162,307 164,307 165,308 166,308 166,307 165,307 164,306 162,306 161,305 159,305 158,304 158,305 157,306" fill="#614f6e"/>
<polygon points="0,319 0,320 3,320 4,321 4,322 3,323 0,323 0,324 5,324 6,323 7,323 8,324 9,324 10,323 11,323 12,324 13,324 16,322 16,321 14,321 13,320 12,321 9,321 8,320 7,321 4,321 3,320 4,319 5,319 3,319 1,317 1,318" fill="#3a3255"/>
</svg>