<svg xmlns="http://www.w3.org/2000/svg" width="605" height="320" viewBox="0 0 384 384"><rect width="384" height="384" fill="#3e6387"/><path d="M0,17Q30,65 9,78Q117,118 86,113Q104,139 84,150Q206,157 234,139Q186,120 228,121Q245,119 253,164Q304,139 264,125Q326,119 300,103Q383,56 383,0" fill="#2a5a89"/><path d="M0,30Q61,266 122,250Q134,217 161,249Q171,202 150,191Q191,171 148,158Q186,150 179,132Q127,142 170,133Q55,71 103,66" fill="#1e4c78"/><path d="M383,242Q307,282 276,339Q255,338 280,342Q252,352 235,347Q170,365 171,355Q250,381 383,383Q367,293 351,281Q370,279 383,293Q366,265 350,260Q363,250 344,244" fill="#143c5a"/><path d="M301,222Q102,316 101,328Q122,332 135,329Q187,319 247,292Q253,305 273,304Q257,297 244,302Q256,291 253,288Q267,257 254,262Q270,241 288,232L291,244Z" fill="#d6dbe2"/><path d="M265,126Q302,150 261,152Q341,182 356,177Q339,155 373,149Q359,207 338,220Q382,191 383,140Q365,113 383,114Q324,120 349,137" fill="#1e4c78"/><path d="M301,289Q229,331 224,328Q222,326 208,336Q166,343 163,353Q142,355 136,363Q118,353 99,361Q125,377 155,372Q169,364 168,375Q200,368 210,375Q217,352 230,347Q276,349 283,343Q261,341 265,330Q277,324 279,309" fill="#3b556a"/><path d="M274,203Q255,214 238,222Q241,238 244,239Q240,242 238,240Q262,238 286,227Q284,221 282,225Q280,224 279,225L277,223Z" fill="#d6dbe2"/><path d="M204,272Q201,284 199,287Q161,301 159,301Q157,295 157,291Q180,279 201,271" fill="#d6dbe2"/><path d="M155,290Q152,302 150,305Q110,317 108,316Q110,303 112,302L148,290Z" fill="#d6dbe2"/><path d="M211,154Q194,156 188,155Q195,165 194,169Q184,162 185,161Q164,159 161,157Q174,155 173,153Q180,146 179,145Q161,152 152,152Q149,153 150,151Q136,143 139,141Q150,141 155,139Q175,136 181,132Q190,137 195,136Q203,142 205,140" fill="#2a5a89"/><path d="M250,252Q247,265 246,267Q225,276 224,276Q214,281 210,283Q206,279 206,277Q208,269 209,268L246,252Z" fill="#d6dbe2"/><path d="M199,97Q120,97 117,95Q108,98 102,97Q114,90 132,89Q135,90 137,89Q161,94 165,93Q167,88 173,87Q190,92 197,91" fill="#2a5a89"/><path d="M15,321Q67,334 92,328Q74,346 57,352Q119,348 117,356Q141,340 133,342Q122,333 109,337Q107,327 102,324Q102,319 96,316Q94,319 93,316Q83,325 74,327Q71,314 78,312Q53,312 46,307" fill="#b1b9c6"/><path d="M356,181Q316,195 324,192Q332,202 335,199Q321,214 313,216Q305,205 296,211Q286,261 270,285Q290,277 285,278Q297,261 308,254Q293,255 293,249Q316,222 317,214Q333,215 345,204Q347,197 350,201Q355,190 350,190" fill="#8b97aa"/><path d="M199,191Q193,199 193,201Q194,203 194,205Q200,211 202,212Q205,215 208,217Q211,216 212,216Q212,203 212,201Q207,193 205,191" fill="#d6dbe2"/><path d="M188,181Q189,187 187,190Q193,188 192,187Q201,186 207,187Q215,195 219,196Q224,204 230,206Q229,188 231,187Q233,200 236,204Q233,182 231,186Q221,188 223,194Q201,175 194,175L196,181Z" fill="#2a5a89"/><path d="M174,215Q165,218 163,218Q160,223 159,225Q162,232 164,233Q168,234 169,236Q173,237 175,237Q186,232 187,231Q187,225 187,223Q179,220 180,220" fill="#143c5a"/><path d="M131,275Q107,288 107,292Q105,287 105,285Q113,296 122,293Q125,282 126,283Q130,290 135,289Q133,283 131,281" fill="#d6dbe2"/><path d="M191,262Q205,260 206,261Q204,266 203,266Q219,261 232,255Q224,256 216,260Q222,253 230,250Q235,254 234,255Q226,249 217,246Q212,239 208,237Q207,248 209,252Q198,257 194,257L194,262Z" fill="#8b97aa"/><path d="M130,203Q128,209 128,212Q132,217 134,218Q142,218 143,217Q142,209 141,206Q136,201 135,201" fill="#d6dbe2"/><path d="M146,119Q156,123 159,120Q165,125 168,124Q200,129 205,132Q224,134 229,139Q226,127 228,127Q206,124 212,126Q201,128 199,125Q193,121 199,120Q190,118 184,120Q174,120 173,123L155,116Z" fill="#1e4c78"/><path d="M294,241Q274,253 279,251Q277,258 275,257Q266,275 254,288Q253,299 245,303Q264,295 263,291Q270,287 272,289Q271,291 275,289Q272,285 274,284Q281,283 282,279Q280,281 280,280Q277,274 285,265L287,251Z" fill="#b1b9c6"/><path d="M200,95Q190,93 184,95Q171,89 169,91Q163,90 162,91Q161,94 156,95Q136,91 134,93Q125,91 119,92Q109,90 108,92Q99,91 99,93Q116,96 117,94Q128,98 133,97Q142,98 150,96Q168,97 169,96" fill="#1e4c78"/><path d="M119,140Q128,132 130,134Q135,132 136,133Q140,132 141,134Q142,131 140,130Q152,130 161,133Q164,131 165,132Q170,132 171,134Q158,136 151,134Q151,136 153,138Q136,141 132,143Q129,144 128,142" fill="#2a5a89"/><path d="M193,214Q190,226 189,228Q188,233 189,234Q192,235 195,235Q198,236 200,236Q202,237 200,236Q205,233 208,233Q212,232 212,231Q214,225 212,224Q208,228 208,226L201,224Z" fill="#2a5a89"/><path d="M251,292Q219,308 213,308Q161,331 169,328Q182,325 185,321Q201,318 203,314Q206,319 210,319Q206,327 210,327Q211,315 214,313Q219,316 220,313Q232,309 232,307Q241,306 233,305" fill="#b1b9c6"/><path d="M0,284Q4,296 8,295Q11,295 20,292Q34,298 36,297Q49,298 61,294Q52,290 42,293Q28,284 27,280Q24,279 28,278Q35,283 39,284Q40,280 37,277Q10,274 14,272Q5,280 7,286" fill="#143c5a"/><path d="M151,191Q154,197 156,198Q163,198 166,200Q171,199 172,198Q181,202 186,203Q187,206 188,205Q189,208 190,207Q186,199 183,199Q176,197 175,199Q172,194 171,194Q173,192 171,192Q165,187 162,186Q159,188 158,188Q159,190 161,191" fill="#2a5a89"/><path d="M34,68Q47,64 44,63Q50,54 55,52Q84,61 92,67Q101,64 104,66Q86,68 82,66Q76,67 74,65Q70,70 68,70Q62,65 58,65Q63,59 72,61Q54,58 52,60Q54,71 49,73" fill="#2a5a89"/><path d="M145,100Q148,101 148,102Q160,103 166,103Q169,106 168,108Q169,112 169,115Q161,114 158,113Q144,111 143,110Q147,108 150,110Q155,108 149,107Q146,103 144,102" fill="#2a5a89"/><path d="M289,230Q284,229 287,227Q239,249 237,248Q237,253 236,254Q222,254 215,257Q225,256 233,253Q217,262 203,269" fill="#b1b9c6"/><path d="M271,191Q267,196 266,198Q262,195 259,197Q256,197 255,198Q258,209 261,207Q263,207 264,206Q271,203 272,202Q271,198 271,199L269,197Z" fill="#d6dbe2"/><path d="M21,341Q47,359 59,357Q64,360 67,356Q104,353 95,362Q140,345 142,348Q138,352 141,353Q131,349 117,357Q119,346 126,342Q46,348 45,344Q46,340 40,344Q36,338 41,345L34,356Z" fill="#8b97aa"/><path d="M72,209Q62,205 57,207Q35,198 33,198Q31,200 30,198Q6,201 2,200Q9,198 11,199Q23,194 21,194Q29,190 38,190Q43,188 45,190Q39,194 39,196Q53,197 58,199Q61,201 67,201L72,205Z" fill="#1e4c78"/><path d="M186,238Q174,247 174,254Q176,250 178,250Q177,258 176,261Q179,261 181,262Q179,265 179,267Q181,259 181,256Q186,259 187,265Q188,262 188,263Q187,259 188,258L186,256Z" fill="#d6dbe2"/><path d="M103,125Q94,123 95,124Q89,124 86,121Q80,126 75,128Q46,125 47,126Q43,127 41,126Q37,126 36,124Q42,121 44,122Q53,120 61,122Q66,118 70,117Q76,118 81,118Q84,115 84,118Q90,118 94,120L97,119Z" fill="#1e4c78"/><path d="M330,189Q286,206 286,205Q279,210 278,209Q279,199 278,199Q281,222 284,222Q286,209 287,211Q299,207 301,209Q310,204 308,203Q316,201 318,204Q316,198 318,197Q324,200 320,197" fill="#61768c"/><path d="M375,150Q362,145 361,143Q357,161 355,159Q360,166 359,168Q328,161 321,164Q308,160 306,162Q330,166 339,165Q341,170 350,169Q352,176 358,178Q361,172 362,177Q366,174 369,176Q365,170 362,169Q366,160 362,162L361,152Z" fill="#2a5a89"/><path d="M258,163Q263,177 263,184Q269,186 267,188Q256,188 257,191Q254,195 256,196Q248,214 243,214Q243,211 244,215Q256,211 275,202Q255,204 255,197Q265,194 266,197Q265,193 262,192Q271,185 270,181Q266,176 267,170" fill="#b1b9c6"/><path d="M198,167Q202,165 202,166Q209,164 214,164Q217,165 219,164Q221,168 222,168Q218,171 214,171Q206,169 201,169" fill="#1e4c78"/><path d="M250,197Q241,202 241,205Q243,210 243,213Q247,210 249,210Q250,203 250,202L249,201Z" fill="#d6dbe2"/><path d="M8,98Q18,93 24,94Q18,96 12,96Q21,102 31,106Q31,111 32,109Q44,112 47,110Q51,108 55,111Q34,119 30,118Q23,114 19,113L11,107Z" fill="#1e4c78"/><path d="M263,155Q258,160 258,162Q266,169 267,169Q268,181 267,182Q266,181 266,183Q269,172 269,163L267,158Z" fill="#d6dbe2"/><path d="M322,169Q305,169 301,167Q305,171 304,173Q297,178 289,178Q288,195 289,193Q306,197 305,198Q296,190 294,191Q299,184 302,186Q300,179 302,178Q318,190 317,191Q327,186 328,185Q317,182 313,183Q312,180 311,182L307,176Z" fill="#2a5a89"/><path d="M160,202Q167,201 173,202Q169,205 166,206L162,204Z" fill="#1e4c78"/><path d="M222,340Q217,346 219,348Q215,349 216,347Q205,348 203,350Q200,350 200,351Q204,354 202,356Q192,356 192,358Q185,360 182,363Q175,356 174,353Q177,355 176,354Q190,349 198,348Q214,339 218,339L220,337Z" fill="#3b556a"/><path d="M292,98Q283,96 282,95Q277,94 276,93Q268,92 265,91Q256,93 255,92Q245,93 244,93Q252,88 256,87Q260,88 262,87Q270,89 274,89Q279,88 282,90Q290,91 292,93" fill="#2a5a89"/><path d="M300,274Q294,278 293,277Q289,281 288,281Q287,286 287,287Q281,293 282,295Q283,296 286,296Q295,290 296,289Q299,288 300,287L301,279Z" fill="#d6dbe2"/><path d="M100,53Q111,49 114,50Q120,52 124,53Q124,56 126,54Q132,66 130,70Q126,66 129,65Q122,64 121,63Q120,66 119,67Q111,65 106,65Q106,60 108,59Q112,59 115,58Q109,57 108,56Q107,53 104,53L102,55Z" fill="#2a5a89"/><path d="M100,284Q93,285 91,286Q89,298 90,302Q92,305 93,307Q94,305 93,305Q94,300 95,298L100,295Z" fill="#d6dbe2"/><path d="M146,170Q148,167 149,168Q158,168 163,170Q159,172 158,173Q148,171 147,170" fill="#1e4c78"/><path d="M217,331Q208,330 208,329Q201,330 200,329Q199,325 198,325Q189,327 181,332Q163,334 161,336Q165,339 166,336Q170,335 171,338Q174,338 177,341Q186,339 190,340Q192,337 194,339Q197,333 197,331Q202,330 204,332Q203,334 205,333L208,335Z" fill="#61768c"/></svg>