<svg xmlns="http://www.w3.org/2000/svg" width="605" height="320" viewBox="0 0 384 384"><rect width="384" height="384" fill="#3e6387"/><polygon points="0,17 52,53 9,78 148,124 86,113 125,129 84,150 178,176 234,139 145,119 228,121 238,75 253,164 344,153 264,125 352,135 300,103 383,113 383,0" fill="#2a5a89"/><polygon points="0,30 0,283 122,250 107,186 161,249 192,213 150,191 235,184 148,158 194,168 179,132 84,151 170,133 8,77 103,66" fill="#1e4c78"/><polygon points="383,242 339,225 276,339 231,334 280,342 269,357 235,347 170,376 171,355 118,380 383,383 383,306 351,281 358,266 383,293 383,271 350,260 383,257 344,244" fill="#143c5a"/><polygon points="301,222 104,304 101,328 109,336 135,329 128,347 247,292 234,306 273,304 270,292 244,302 260,295 253,288 281,252 254,262 253,250 288,232 291,244" fill="#d6dbe2"/><polygon points="265,126 343,149 261,152 327,188 356,177 305,162 373,149 381,195 338,220 382,243 383,140 347,113 383,114 300,104 349,137" fill="#1e4c78"/><polygon points="301,289 235,334 224,328 236,316 208,336 170,334 163,353 149,347 136,363 137,346 99,361 95,383 155,372 171,354 168,375 191,362 210,375 205,358 230,347 270,355 283,343 258,352 265,330 275,339 279,309" fill="#3b556a"/><polygon points="274,203 272,207 238,222 238,238 244,239 242,244 238,240 238,250 286,227 286,218 282,225 282,223 279,225 277,223" fill="#d6dbe2"/><polygon points="204,272 203,282 199,287 163,301 159,301 157,299 157,291 159,287 201,271" fill="#d6dbe2"/><polygon points="155,290 154,299 150,305 113,318 108,316 109,305 112,302 148,290" fill="#d6dbe2"/><polygon points="211,154 201,158 188,155 197,161 194,169 183,164 185,161 167,161 161,157 176,157 173,153 182,147 179,145 170,153 152,152 148,156 150,151 133,145 139,141 145,144 155,139 169,140 181,132 185,139 195,136 202,144 205,140" fill="#2a5a89"/><polygon points="250,252 249,263 246,267 227,276 224,276 218,280 210,283 207,282 206,277 207,270 209,268 246,252" fill="#d6dbe2"/><polygon points="199,97 124,100 117,95 114,99 102,97 97,91 132,89 134,92 137,89 158,95 165,93 162,89 173,87 184,94 197,91" fill="#2a5a89"/><polygon points="15,321 42,340 92,328 91,341 57,352 122,341 117,356 149,339 133,342 135,330 109,337 112,330 102,324 108,323 96,316 95,323 93,316 92,324 74,327 65,317 78,312 61,317 46,307" fill="#b1b9c6"/><polygon points="356,181 309,198 324,192 329,205 335,199 330,213 313,216 314,200 296,211 302,237 270,285 296,277 285,278 286,269 308,254 293,261 293,249 315,230 317,214 321,226 345,204 344,194 350,201 361,191 350,190" fill="#8b97aa"/><polygon points="199,191 194,197 193,201 195,202 194,205 199,211 202,212 202,214 208,217 210,217 212,216 213,205 212,201 209,195 205,191" fill="#d6dbe2"/><polygon points="188,181 192,184 187,190 195,190 192,187 196,186 207,187 212,194 219,196 219,203 230,206 227,189 231,187 231,196 236,204 235,178 231,186 219,183 223,194 208,176 194,175 196,181" fill="#2a5a89"/><polygon points="174,215 167,219 163,218 162,222 159,225 161,231 164,233 167,232 169,236 171,237 175,237 185,233 187,231 188,227 187,223 178,221 180,220" fill="#143c5a"/><polygon points="131,275 108,284 107,292 105,290 105,285 105,299 122,293 124,281 126,283 126,291 135,289 135,286 131,281" fill="#d6dbe2"/><polygon points="191,262 204,259 206,261 205,266 203,266 206,267 232,255 232,253 216,260 215,256 230,250 236,253 234,255 236,252 217,246 216,241 208,237 205,245 209,252 202,257 194,257 194,262" fill="#8b97aa"/><polygon points="130,203 128,206 128,212 131,216 134,218 142,220 143,217 143,213 141,206 137,202 135,201" fill="#d6dbe2"/><polygon points="146,119 154,126 159,120 162,127 168,124 196,126 205,132 219,129 229,139 225,128 228,127 201,122 212,126 203,131 199,125 188,123 199,120 197,117 184,120 175,117 173,123 155,116" fill="#1e4c78"/><polygon points="294,241 270,255 279,251 279,260 275,257 278,263 254,288 261,295 245,303 266,299 263,291 268,285 272,289 267,294 275,289 270,287 274,284 280,288 282,279 281,283 280,280 270,284 285,265 287,251" fill="#b1b9c6"/><polygon points="200,95 197,92 184,95 173,88 169,91 164,89 162,91 166,93 156,95 138,89 134,93 132,90 119,92 110,89 108,92 100,90 99,93 115,98 117,94 124,99 133,97 134,100 150,96 168,99 169,96" fill="#1e4c78"/><polygon points="119,140 126,131 130,134 135,131 136,133 139,131 141,134 145,133 140,130 143,127 161,133 164,130 165,132 170,131 171,134 165,138 151,134 149,135 153,138 141,139 132,143 131,147 128,142" fill="#2a5a89"/><polygon points="193,214 192,225 189,228 187,233 189,234 189,236 195,235 196,237 200,236 204,238 200,236 203,234 208,233 212,234 212,231 216,227 212,224 209,230 208,226 201,224" fill="#2a5a89"/><polygon points="251,292 225,308 213,308 154,335 169,328 179,330 185,321 199,322 203,314 203,319 210,319 202,328 210,327 209,317 214,313 218,319 220,313 233,311 232,307 250,307 233,305" fill="#b1b9c6"/><polygon points="0,284 0,297 8,295 3,299 20,292 32,300 36,297 37,303 61,294 62,287 42,293 29,288 27,280 21,280 28,278 31,283 39,284 44,283 37,277 6,277 14,272 4,275 7,286" fill="#143c5a"/><polygon points="151,191 153,196 156,198 161,197 166,200 170,200 172,198 176,202 186,203 186,207 188,205 188,209 190,207 189,199 183,199 177,196 175,199 174,195 171,194 176,192 171,192 169,188 162,186 161,188 158,188 158,190 161,191" fill="#2a5a89"/><polygon points="34,68 51,66 44,63 46,57 55,52 76,56 92,67 98,63 104,66 91,71 82,66 78,69 74,65 72,70 68,70 66,65 58,65 55,58 72,61 56,56 52,60 60,70 49,73" fill="#2a5a89"/><polygon points="145,100 148,100 148,102 154,104 166,103 170,105 168,108 170,109 169,115 164,116 158,113 145,112 143,110 144,107 150,110 161,109 149,107 149,105 144,102" fill="#2a5a89"/><polygon points="289,230 282,231 287,227 241,250 237,248 239,252 236,254 230,251 215,257 217,259 233,253 232,256 203,269" fill="#b1b9c6"/><polygon points="271,191 269,195 266,198 265,193 259,197 258,196 255,198 255,211 261,207 262,208 264,206 270,204 272,202 272,197 271,199 269,197" fill="#d6dbe2"/><polygon points="21,341 35,362 59,357 61,365 67,356 113,345 95,362 138,343 142,348 135,352 141,353 146,341 117,357 113,350 126,342 48,353 45,344 53,336 40,344 32,331 41,345 34,356" fill="#8b97aa"/><polygon points="72,209 67,204 57,207 38,198 33,198 32,203 30,198 10,203 2,200 7,197 11,199 25,195 21,194 21,191 38,190 41,187 45,190 40,192 39,196 48,195 58,199 56,201 67,201 72,205" fill="#1e4c78"/><polygon points="186,238 174,241 174,254 175,250 178,250 179,256 176,261 178,260 181,262 179,264 179,267 182,263 181,256 186,254 187,265 189,262 188,263 186,261 188,258 186,256" fill="#d6dbe2"/><polygon points="103,125 93,123 95,124 93,127 86,121 85,124 75,128 45,124 47,126 45,128 41,126 39,129 36,124 41,121 44,122 45,119 61,122 62,119 70,117 72,119 81,118 85,112 84,118 86,116 94,120 97,119" fill="#1e4c78"/><polygon points="330,189 287,208 286,205 281,212 278,209 281,199 278,199 279,222 284,222 286,207 287,211 297,205 301,209 313,205 308,203 314,199 318,204 315,199 318,197 328,203 320,197" fill="#61768c"/><polygon points="375,150 363,148 361,143 359,163 355,159 361,164 359,168 336,159 321,164 310,158 306,162 321,167 339,165 333,172 350,169 347,175 358,178 361,167 362,177 363,173 369,176 369,171 362,169 370,159 362,162 361,152" fill="#2a5a89"/><polygon points="258,163 263,171 263,184 271,184 267,188 256,186 257,191 252,194 256,196 253,214 243,214 242,208 244,215 238,221 275,202 255,212 255,197 265,192 266,197 268,194 262,192 272,190 270,181 265,183 267,170" fill="#b1b9c6"/><polygon points="198,167 202,164 202,166 204,164 214,164 215,166 219,164 221,168 222,168 222,171 214,171 212,169 201,169" fill="#1e4c78"/><polygon points="250,197 242,199 241,205 243,208 243,213 245,211 249,210 250,205 250,202 249,201" fill="#d6dbe2"/><polygon points="8,98 12,93 24,94 25,96 12,96 12,98 31,106 30,114 32,109 41,114 47,110 47,105 55,111 38,120 30,118 28,115 19,113 11,107" fill="#1e4c78"/><polygon points="263,155 259,158 258,162 265,170 267,169 269,180 267,182 266,179 266,183 269,182 269,163 267,158" fill="#d6dbe2"/><polygon points="322,169 309,171 301,167 307,170 304,173 306,178 289,178 288,197 289,193 308,197 305,198 298,190 294,191 296,182 302,186 298,180 302,178 319,189 317,191 326,188 328,185 322,181 313,183 314,179 311,182 307,176" fill="#2a5a89"/><polygon points="160,202 162,200 173,202 172,205 166,206 162,204" fill="#1e4c78"/><polygon points="222,340 215,344 219,348 214,352 216,347 207,347 203,350 201,349 200,351 206,353 202,356 193,355 192,358 188,358 182,363 176,360 174,353 179,357 176,354 182,350 198,348 210,339 218,339 220,337" fill="#3b556a"/><polygon points="292,98 284,98 282,95 279,96 276,93 272,94 265,91 258,95 255,92 247,94 244,93 249,89 256,87 259,89 262,87 266,89 274,89 277,87 282,90 289,89 292,93" fill="#2a5a89"/><polygon points="300,274 295,279 293,277 290,281 288,281 288,285 287,287 281,292 282,295 281,297 286,296 294,292 296,289 298,289 300,287 301,279" fill="#d6dbe2"/><polygon points="100,53 108,49 114,50 116,52 124,53 122,58 126,54 135,62 130,70 124,68 129,65 123,66 121,63 122,65 119,67 116,65 106,65 105,62 108,59 110,61 115,58 110,58 108,56 110,53 104,53 102,55" fill="#2a5a89"/><polygon points="100,284 96,284 91,286 89,295 90,302 92,304 93,307 96,306 93,305 93,302 95,298 100,295" fill="#d6dbe2"/></svg>