<svg xmlns="http://www.w3.org/2000/svg" width="605" height="320" viewBox="0 0 384 384"><rect width="384" height="384" fill="#3e6387"/><path d="M0,0Q22,123 0,131Q88,170 15,156Q52,179 24,186Q67,230 45,242Q107,207 92,178Q226,161 230,128Q191,87 235,73Q157,42 225,45" fill="#235280"/><path d="M9,0Q215,75 196,78Q230,85 225,57Q272,80 239,91Q296,123 252,97Q318,66 257,45Q359,44 340,28Q382,18 381,0" fill="#2d5c8c"/><path d="M216,61Q276,124 248,125Q287,138 251,132Q323,190 357,178Q345,156 383,152Q366,77 380,58Q311,57 363,70L345,116Z" fill="#235280"/><path d="M360,260Q335,249 327,254Q303,283 273,325Q267,350 236,347Q291,376 381,383Q375,368 383,369Q364,312 345,307Q369,304 356,295" fill="#133957"/><path d="M0,132Q9,216 0,215Q18,293 37,303Q39,277 16,270Q72,259 77,243Q62,242 80,242Q75,224 90,216Q56,182 88,180Q36,156 66,151L161,184Z" fill="#1a4770"/><path d="M284,248Q109,310 108,302Q89,326 77,331Q70,314 77,312Q60,321 74,332Q88,336 85,345Q129,344 122,350Q161,323 161,330Q267,292 269,286L258,286Z" fill="#cad0da"/><path d="M301,289Q245,330 226,336Q238,319 233,317Q187,336 167,336Q136,354 137,346Q97,372 95,383Q162,363 171,354Q179,368 191,362Q207,366 205,358Q252,336 260,345Q254,352 270,355Q268,348 258,352Q269,334 275,336" fill="#3a5469"/><path d="M77,35Q106,20 103,17Q114,27 107,31Q141,32 153,37Q153,21 180,24Q184,32 193,34Q207,43 226,45Q207,55 210,62Q156,42 139,47Q124,36 117,36Q130,41 128,44Q94,41 93,46" fill="#2d5c8c"/><path d="M362,196Q340,226 341,232Q348,238 343,243Q352,255 359,258Q356,267 362,274Q355,285 361,288Q364,297 369,297Q371,287 381,291Q376,296 383,299Q374,273 365,272Q374,266 366,262Q383,235 383,212Q377,203 383,204" fill="#1a4770"/><path d="M26,77Q66,75 77,79Q81,89 90,95Q119,105 123,111Q135,98 141,98Q139,109 132,110Q160,119 151,121Q110,111 109,114Q105,100 102,100Q97,107 92,106Q82,92 67,85" fill="#235280"/><path d="M27,77Q78,90 95,98Q97,106 102,107Q104,103 105,108Q150,113 132,111Q147,103 147,98Q126,105 123,112Q106,100 90,96Q89,79 105,77Q72,69 62,71Q79,77 78,81L44,71Z" fill="#2d5c8c"/><path d="M205,16Q242,17 236,15Q260,19 269,24Q295,29 296,32Q276,32 278,34Q318,41 327,45Q276,38 273,40Q268,35 265,40Q245,31 231,32Q220,21 210,23" fill="#2d5c8c"/><path d="M274,203Q267,210 262,214Q242,223 245,223Q240,228 238,223Q238,232 239,227Q250,239 256,236Q257,232 258,235Q261,229 263,230Q267,231 271,229Q273,215 275,217Q277,225 279,225" fill="#e3e8ed"/><path d="M164,218Q161,222 160,223Q161,229 162,232Q168,234 170,236Q179,235 183,234Q187,227 188,224Q183,222 182,223Q176,218 175,216Q169,218 168,219" fill="#133957"/><path d="M198,192Q195,197 195,199Q201,209 202,209Q206,212 207,212Q210,212 211,210Q213,209 213,206Q206,193 204,191L200,191Z" fill="#e3e8ed"/><path d="M206,16Q220,21 231,21Q244,30 261,30Q270,35 271,28Q299,42 326,45Q276,31 276,29Q287,28 279,26Q274,23 269,25Q239,14 237,15L248,21Z" fill="#235280"/><path d="M139,198Q149,211 153,210Q155,215 158,216Q149,220 147,218Q151,234 156,241Q157,246 161,245Q163,244 164,240Q160,234 163,234Q157,234 156,237Q157,222 164,216Q169,216 167,217Q173,210 189,211Q170,207 152,209L154,203Z" fill="#235280"/><path d="M287,221Q264,239 244,249Q237,245 237,241Q232,251 228,249Q220,254 215,256Q209,266 206,267Q286,230 285,230" fill="#a6b0be"/><path d="M362,189Q344,193 339,201Q342,187 356,181Q311,197 322,193Q331,202 334,199Q335,207 332,212Q316,215 317,218Q312,210 311,214Q299,211 297,215Q301,227 296,230Q316,222 316,217Q324,220 327,214Q344,199 344,194L350,201Z" fill="#8592a6"/><path d="M286,217Q283,225 281,226Q279,224 280,225Q259,236 258,236Q256,234 255,238Q241,243 239,243Q239,249 238,250L286,228Z" fill="#cad0da"/><path d="M75,188Q84,190 85,192Q79,196 80,198Q99,199 101,202Q112,204 114,203Q124,204 124,199Q117,193 119,192Q107,198 107,200Q99,197 96,195Q107,190 105,190Q98,187 93,190Q94,184 98,184Q90,181 85,183L88,186Z" fill="#1a4770"/><path d="M149,98Q162,102 171,102Q176,108 175,110Q182,107 184,109Q189,104 191,106Q192,102 193,106Q208,111 211,115Q188,114 191,117Q193,117 204,116Q212,121 210,118Q217,115 218,112Q213,106 216,104Q207,100 208,98Q183,100 181,104L172,98Z" fill="#2d5c8c"/><path d="M315,225Q299,230 297,228Q296,237 293,244Q277,250 284,247Q270,276 258,288Q276,285 276,287Q283,280 283,278Q278,275 286,267Q295,242 302,234Q306,231 305,229Q314,227 316,229" fill="#a6b0be"/><path d="M204,267Q211,263 213,264Q211,262 210,262Q214,259 216,261Q219,254 226,252Q232,249 237,251Q226,248 224,249Q216,243 215,240Q207,237 206,238Q207,247 209,249Q207,255 205,258L207,263Z" fill="#8592a6"/><path d="M220,131Q219,135 218,135Q220,140 223,144Q218,144 218,142Q214,140 213,138Q213,144 215,143Q220,151 223,151Q207,158 201,158Q211,152 212,151Q210,148 207,143Q209,140 210,137Q206,140 204,141Q197,137 198,135Q207,133 206,133L208,131Z" fill="#235280"/><path d="M189,181Q190,187 188,190Q193,188 191,187Q199,185 205,186Q211,192 212,194Q218,195 220,197Q223,202 227,201Q227,186 228,184Q222,186 224,189Q217,191 212,187Q208,179 210,182Q205,182 203,181Q200,176 198,177Q197,181 195,183" fill="#2d5c8c"/><path d="M126,201Q129,200 131,198Q149,201 152,203Q154,204 155,206Q154,209 155,210Q158,206 161,205Q180,205 183,204Q175,204 174,202Q154,198 151,196Q143,195 136,198L127,197Z" fill="#1a4770"/><path d="M131,275Q108,287 108,290Q105,296 106,299Q121,288 121,284Q120,281 121,280Q123,282 125,282Q125,278 124,278Q128,282 128,287Q129,290 128,291L135,289Z" fill="#cad0da"/><path d="M131,203Q129,207 130,207Q130,210 132,211Q137,215 140,215Q141,213 142,210Q138,203 136,202" fill="#e3e8ed"/><path d="M105,86Q109,79 113,77Q113,81 112,83Q116,84 117,83Q115,78 117,77Q126,81 130,81Q125,74 126,72Q135,77 138,75Q138,81 132,83Q150,88 152,92Q146,91 143,89Q139,91 138,90Q136,90 134,92Q124,90 115,91L106,84Z" fill="#235280"/><path d="M100,283Q90,289 90,293Q89,295 89,301Q94,307 95,307Q95,305 94,301L99,297Z" fill="#cad0da"/><path d="M209,149Q197,150 197,149Q193,148 192,147Q190,148 190,147Q182,150 178,151Q182,147 185,146Q176,145 176,147Q167,140 169,141Q174,140 177,141Q184,140 186,142Q194,138 196,140Q190,143 190,144Q194,142 196,143Q199,142 200,144L204,144Z" fill="#235280"/><path d="M186,237Q175,241 176,242Q174,248 175,252Q173,255 173,258Q175,252 177,249Q177,255 176,257Q177,260 179,260Q179,265 178,267Q182,260 183,254Q185,253 186,254Q187,249 186,249" fill="#cad0da"/><path d="M158,211Q164,217 160,218Q171,216 175,215Q180,221 182,222Q184,218 187,218Q190,218 190,222Q186,221 185,222Q188,224 189,226Q191,219 192,214Q189,210 189,212Q176,211 175,210Q163,211 162,212L160,209Z" fill="#1a4770"/><path d="M21,341Q46,360 59,358Q64,361 67,357Q107,352 99,357Q120,354 126,350Q118,348 125,343Q45,349 45,343Q47,340 40,344Q37,341 42,351L37,358Z" fill="#8592a6"/><path d="M211,383Q206,377 208,376Q197,372 194,370Q195,365 193,363Q180,369 178,372Q167,377 167,379Q171,378 172,379Q177,383 189,383Q189,380 192,380L196,383Z" fill="#133957"/><path d="M101,320Q91,312 89,302Q81,320 72,325Q67,325 61,320Q61,323 59,320Q32,329 29,328Q32,322 29,321Q23,325 19,323Q39,314 52,314Q30,313 15,320Q32,330 37,329Q62,337 78,326L85,329Z" fill="#a6b0be"/><path d="M313,137Q319,133 325,134Q330,136 334,137Q340,142 343,142Q337,146 335,146Q327,143 323,143L318,141Z" fill="#235280"/><path d="M53,354Q122,342 126,343Q113,354 116,356Q124,350 122,351Q127,343 136,338Q96,339 92,337Q93,341 95,341Q89,343 86,343L88,341Z" fill="#a6b0be"/><path d="M193,214Q191,226 188,234Q191,228 193,227Q199,234 198,235Q193,234 192,233Q190,235 189,236Q195,236 196,237Q202,237 204,238Q204,234 208,233Q210,229 212,224Q205,225 201,224" fill="#2d5c8c"/><path d="M311,230Q306,232 306,235Q303,235 304,236Q295,241 294,240Q292,249 290,252Q289,252 290,254Q279,276 272,284Q285,279 286,281Q290,277 291,276Q285,273 286,269Q292,266 295,268Q297,264 297,263Q307,253 308,250Q296,252 294,252L294,249Z" fill="#8592a6"/><path d="M353,211Q362,209 364,211Q369,209 372,211Q368,213 371,216Q364,221 361,221Q356,219 353,219Q360,223 367,225Q379,226 383,228Q373,232 366,233Q362,230 360,232Q349,229 349,228Q351,224 348,221" fill="#1a4770"/><path d="M218,212Q216,213 217,214Q214,223 212,227Q213,235 214,236Q216,233 216,231Q219,227 219,226Q224,223 226,224Q226,220 226,219Q221,217 220,217L220,213Z" fill="#235280"/><path d="M17,338Q24,360 21,360Q36,372 38,371Q38,367 46,372Q76,364 73,368Q87,374 94,383Q95,368 99,363Q95,358 98,357Q95,355 100,356Q94,351 75,355Q60,362 59,359L35,364Z" fill="#5f738a"/><path d="M145,168Q154,167 157,168Q154,172 150,172" fill="#235280"/><path d="M118,93Q126,91 132,92Q139,95 141,95Q138,92 140,91Q155,96 154,97Q141,98 139,99Q133,97 131,95Q127,98 125,99" fill="#235280"/><path d="M9,203Q27,204 28,207Q37,208 42,210Q48,212 55,212Q65,222 63,225Q52,223 52,224Q49,221 50,219Q56,218 52,217Q48,217 48,216Q41,215 40,214Q39,216 41,218Q35,219 30,217Q30,212 29,211Q15,206 15,205L9,208Z" fill="#1a4770"/><path d="M155,166Q163,164 167,167L164,169Z" fill="#235280"/><path d="M368,157Q364,165 366,168Q365,170 368,172Q365,173 363,172Q374,188 380,192Q373,190 373,189Q366,192 365,196Q382,194 382,187Q375,186 374,187Q372,182 374,183Q379,178 383,177Q377,165 371,163L377,162Z" fill="#235280"/><path d="M198,169Q199,170 200,169Q213,170 215,172Q221,171 222,172Q223,174 224,173Q225,180 224,183Q220,176 219,176Q216,178 215,178Q211,176 210,176Q205,173 204,173Q198,174 197,174" fill="#235280"/></svg>