<svg xmlns="http://www.w3.org/2000/svg" width="605" height="320" viewBox="0 0 384 384"><rect width="384" height="384" fill="#3e6387"/><polygon points="0,0 44,115 0,131 162,185 15,156 81,172 24,186 90,218 45,242 123,237 92,178 223,194 230,128 147,101 235,73 89,39 225,45" fill="#235280"/><polygon points="9,0 235,72 196,78 235,113 225,57 306,69 239,91 341,150 252,97 379,88 257,45 379,61 340,28 383,37 381,0" fill="#2d5c8c"/><polygon points="216,61 304,124 248,125 323,144 251,132 289,203 357,178 307,160 383,152 352,96 380,58 259,44 363,70 345,116" fill="#235280"/><polygon points="360,260 343,244 327,254 334,242 273,325 298,353 236,347 201,370 381,383 367,367 383,369 383,317 345,307 383,313 356,295" fill="#133957"/><polygon points="0,132 18,217 0,215 0,284 37,303 63,285 16,270 68,275 77,243 44,242 80,242 60,232 90,216 24,185 88,180 6,162 66,151 161,184" fill="#1a4770"/><polygon points="284,248 111,318 108,302 102,321 77,331 64,317 77,312 47,310 74,332 92,327 85,345 137,338 122,350 161,316 161,330 266,299 269,286 258,286" fill="#cad0da"/><polygon points="301,289 265,324 226,336 243,321 233,317 208,336 167,336 136,363 137,346 99,361 95,383 154,372 171,354 168,375 191,362 209,375 205,358 245,328 260,345 239,349 270,355 278,345 258,352 264,332 275,336" fill="#3a5469"/><polygon points="77,35 110,23 103,17 122,24 107,31 130,27 153,37 126,18 180,24 175,31 193,34 189,41 226,45 204,49 210,62 174,38 139,47 132,36 117,36 133,39 128,44 95,37 93,46" fill="#2d5c8c"/><polygon points="362,196 339,220 341,232 353,233 343,243 345,253 359,258 351,261 362,274 350,282 361,288 360,297 369,297 362,283 381,291 370,294 383,299 383,274 365,272 383,270 366,262 383,259 383,212 371,203 383,204" fill="#1a4770"/><polygon points="26,77 55,72 77,79 73,84 90,95 115,100 123,111 129,98 141,98 146,109 132,110 169,118 151,121 111,108 109,114 108,101 102,100 102,108 92,106 98,100 67,85" fill="#235280"/><polygon points="27,77 61,82 95,98 93,106 102,107 103,98 105,108 169,116 132,111 147,108 147,98 129,99 123,112 122,104 90,96 73,82 105,77 82,67 62,71 80,73 78,81 44,71" fill="#2d5c8c"/><polygon points="205,16 249,20 236,15 252,14 269,24 295,26 296,32 275,30 278,34 310,37 327,45 280,36 273,40 272,30 265,40 260,30 231,32 230,20 210,23" fill="#2d5c8c"/><polygon points="274,203 273,207 262,214 240,223 245,223 243,234 238,223 238,237 239,227 244,242 256,236 257,230 258,235 259,229 263,230 263,233 271,229 271,214 275,217 276,226 279,225" fill="#e3e8ed"/><polygon points="164,218 163,221 160,223 160,227 162,232 167,232 170,236 175,237 183,234 187,231 188,224 184,222 182,223 178,221 175,216 170,217 168,219" fill="#133957"/><polygon points="198,192 195,196 195,199 200,209 202,209 205,212 207,212 210,214 211,210 213,213 213,206 209,195 204,191 200,191" fill="#e3e8ed"/><polygon points="206,16 210,22 231,21 227,30 261,30 269,42 271,28 273,39 326,45 276,34 276,29 296,31 279,26 280,21 269,25 241,13 237,15 248,21" fill="#235280"/><polygon points="139,198 146,212 153,210 152,214 158,216 151,223 147,218 146,228 156,241 153,247 161,245 162,249 164,240 158,234 163,234 159,231 156,237 150,228 164,216 172,215 167,217 157,210 189,211 189,205 152,209 154,203" fill="#235280"/><polygon points="287,221 285,230 244,249 237,250 237,241 236,253 228,249 226,253 215,256 213,265 206,267 288,230 285,230" fill="#a6b0be"/><polygon points="362,189 350,186 339,201 328,194 356,181 300,202 322,193 329,205 334,199 338,203 332,212 315,212 317,218 313,206 311,214 302,207 297,215 306,225 296,230 316,228 316,217 321,226 327,214 345,204 344,194 350,201" fill="#8592a6"/><polygon points="286,217 285,225 281,226 278,224 280,225 260,236 258,236 257,231 255,238 244,243 239,243 241,249 238,250 286,228" fill="#cad0da"/><polygon points="75,188 84,189 85,192 79,194 80,198 97,197 101,202 111,205 114,203 124,210 124,199 115,195 119,192 108,196 107,200 102,200 96,195 109,191 105,190 103,185 93,190 90,185 98,184 96,180 85,183 88,186" fill="#1a4770"/><polygon points="149,98 153,103 171,102 177,106 175,110 180,106 184,109 188,102 191,106 191,99 193,106 205,107 211,115 186,111 191,117 182,118 204,116 215,124 210,118 216,118 218,112 210,108 216,104 206,103 208,98 186,97 181,104 172,98" fill="#2d5c8c"/><polygon points="315,225 301,232 297,228 300,231 293,244 270,254 284,247 282,265 258,288 277,284 276,287 284,282 283,278 271,283 286,267 288,250 302,234 307,234 305,229 313,226 316,229" fill="#a6b0be"/><polygon points="204,267 210,263 213,264 213,262 210,262 213,258 216,261 213,257 226,252 228,248 237,251 228,248 224,249 217,246 215,240 208,237 206,238 205,245 209,249 209,252 205,258 207,263" fill="#8592a6"/><polygon points="220,131 221,136 218,135 217,137 223,144 219,147 218,142 215,143 213,138 212,145 215,143 218,151 223,151 213,158 201,158 211,154 212,151 214,153 207,143 209,143 210,137 209,140 204,141 197,139 198,135 208,134 206,133 208,131" fill="#235280"/><polygon points="189,181 193,185 188,190 195,190 191,187 193,185 205,186 211,190 212,194 216,193 220,197 219,203 227,201 226,189 228,184 220,183 224,189 223,195 212,187 206,177 210,182 207,183 203,181 202,176 198,177 200,179 195,183" fill="#2d5c8c"/><polygon points="126,201 127,203 131,198 147,199 152,203 154,202 155,206 153,209 155,210 155,208 161,205 178,207 183,204 176,206 174,202 158,200 151,196 150,193 136,198 127,197" fill="#1a4770"/><polygon points="131,275 108,284 108,290 105,294 106,299 122,293 121,284 119,282 121,280 122,282 125,282 126,279 124,278 128,278 128,287 130,289 128,291 135,289" fill="#cad0da"/><polygon points="131,203 128,207 130,207 129,210 132,211 135,215 140,215 141,217 142,210 140,205 136,202" fill="#e3e8ed"/><polygon points="105,86 106,81 113,77 115,79 112,83 115,85 117,83 114,80 117,77 123,82 130,81 125,76 126,72 133,79 138,75 144,79 132,83 149,85 152,92 149,93 143,89 141,92 138,90 139,88 134,92 133,89 115,91 106,84" fill="#235280"/><polygon points="100,283 90,286 90,293 89,289 89,301 93,308 95,307 97,310 94,301 99,297" fill="#cad0da"/><polygon points="209,149 198,152 197,149 195,150 192,147 190,149 190,147 186,150 178,151 179,148 185,146 177,144 176,147 165,140 169,141 171,139 177,141 183,139 186,142 193,137 196,140 190,142 190,144 193,142 196,143 198,140 200,144 204,144" fill="#235280"/><polygon points="186,237 174,241 176,242 174,244 175,252 173,253 173,258 173,255 177,249 178,254 176,257 176,261 179,260 180,263 178,267 182,266 183,254 185,253 186,254 188,250 186,249" fill="#cad0da"/><polygon points="158,211 168,217 160,218 168,218 175,215 179,221 182,222 182,219 187,218 190,215 190,222 188,220 185,222 188,223 189,226 191,224 192,214 190,209 189,212 177,212 175,210 164,210 162,212 160,209" fill="#1a4770"/><polygon points="21,341 34,363 59,358 61,365 67,357 115,347 99,357 115,358 126,350 111,354 125,343 45,356 45,343 54,337 40,344 33,332 42,351 37,358" fill="#8592a6"/><polygon points="211,383 205,378 208,376 200,375 194,370 197,368 193,363 182,366 178,372 168,376 167,379 171,377 172,379 165,383 189,383 187,381 192,380 196,383" fill="#133957"/><polygon points="101,320 94,322 89,302 91,315 72,325 74,331 61,320 64,327 59,320 35,331 29,328 35,323 29,321 27,328 19,323 27,315 52,314 46,307 15,320 28,332 37,329 46,348 78,326 85,329" fill="#a6b0be"/><polygon points="313,137 314,133 325,134 327,136 334,137 338,142 343,142 340,146 335,146 332,144 323,143 318,141" fill="#235280"/><polygon points="53,354 119,342 126,343 111,353 116,356 127,349 122,351 118,349 136,338 101,342 92,337 91,341 95,341 92,344 86,343 88,341" fill="#a6b0be"/><polygon points="193,214 195,218 188,234 189,229 193,227 201,233 198,235 194,235 192,233 192,235 189,236 195,235 196,237 200,236 204,238 200,236 208,233 209,235 212,224 209,227 201,224" fill="#2d5c8c"/><polygon points="311,230 307,230 306,235 303,234 304,236 296,242 294,240 294,247 290,252 288,251 290,254 286,268 272,284 284,278 286,281 290,279 291,276 284,277 286,269 290,265 295,268 298,266 297,263 306,257 308,250 299,253 294,252 294,249" fill="#8592a6"/><polygon points="353,211 361,208 364,211 366,208 372,211 366,211 371,216 368,221 361,221 359,219 353,219 354,221 367,225 376,225 383,228 381,232 366,233 364,228 360,232 350,231 349,228 354,228 348,221" fill="#1a4770"/><polygon points="218,212 216,213 217,214 216,219 212,227 212,235 214,236 216,235 216,231 219,228 219,226 222,223 226,224 227,222 226,219 223,217 220,217 220,213" fill="#235280"/><polygon points="17,338 27,360 21,360 35,374 38,371 31,363 46,372 80,360 73,368 81,365 94,383 92,374 99,363 92,359 98,357 90,355 100,356 114,347 75,355 61,366 59,359 35,364" fill="#5f738a"/><polygon points="145,168 151,167 157,168 158,172 150,172" fill="#235280"/><polygon points="118,93 120,91 132,92 137,95 141,95 137,93 140,91 156,95 154,97 144,97 139,99 136,99 131,95 129,98 125,99" fill="#235280"/><polygon points="9,203 27,201 28,207 33,206 42,210 41,212 55,212 67,220 63,225 53,222 52,224 49,223 50,219 60,219 52,217 48,219 48,216 42,217 40,214 37,214 41,218 40,221 30,217 32,214 29,211 15,207 15,205 9,208" fill="#1a4770"/><polygon points="155,166 159,162 167,167 164,169" fill="#235280"/><polygon points="368,157 363,163 366,168 363,169 368,172 367,175 363,172 368,185 380,192 373,192 373,189 368,188 365,196 383,201 382,187 377,185 374,187 371,182 374,183 375,180 383,177 383,167 371,163 377,162" fill="#235280"/></svg>