<svg xmlns="http://www.w3.org/2000/svg" width="605" height="320" viewBox="0 0 384 384"><rect width="384" height="384" fill="#3e6387"/><polygon points="0,30 0,283 235,184" fill="#1e4c78"/><polygon points="0,17 178,176 238,75 253,164 383,113 383,0" fill="#2a5a89"/><polygon points="383,242 340,223 276,339 231,334 271,356 118,380 383,383 350,260 383,257 344,244" fill="#143c5a"/><polygon points="301,222 104,304 101,328 135,329 128,347 250,291 234,306 273,304 244,303 281,252 253,250 291,244" fill="#d6dbe2"/><polygon points="301,289 236,334 235,316 99,361 95,383 269,356" fill="#3b556a"/><polygon points="266,124 345,151 261,152 327,188 308,159 376,150 338,224 382,243 347,110 383,114" fill="#1e4c78"/><polygon points="274,203 238,222 238,238 244,239 242,244 238,240 238,250 286,227 286,218 284,226 277,223" fill="#d6dbe2"/><polygon points="356,181 308,199 324,192 331,213 313,216 314,200 294,211 302,237 270,285 296,277 286,269 308,251 293,261" fill="#8b97aa"/><polygon points="200,96 173,88 158,96 138,89 98,91 134,100" fill="#1e4c78"/><polygon points="15,321 42,340 91,327 92,341 64,353 126,341 117,356 149,339 109,337 96,316 74,327 64,318 78,312 46,307" fill="#b1b9c6"/><polygon points="199,191 194,197 194,205 199,211 202,212 202,214 210,217 213,215 212,201 205,191" fill="#d6dbe2"/><polygon points="188,181 187,190 207,187 220,197 219,203 230,206 230,186 236,204 235,178 235,185 233,179 231,186 219,183 223,194 211,177 194,175 196,181" fill="#2a5a89"/><polygon points="174,215 167,219 163,218 163,221 159,224 161,231 164,233 167,232 171,237 185,233 188,227 187,223 179,222 180,220" fill="#143c5a"/><polygon points="191,262 204,259 206,267 232,255 217,260 215,256 230,250 234,255 238,252 217,246 208,237 205,245 209,252" fill="#8b97aa"/><polygon points="294,241 270,254 281,253 278,263 254,288 261,295 245,303 266,299 268,285 267,294 274,284 280,288 283,279 270,284" fill="#b1b9c6"/><polygon points="146,119 154,126 159,120 162,127 219,129 229,139 228,127 201,122 212,125 203,131 189,124 197,117 175,117 173,123" fill="#1e4c78"/><polygon points="251,292 154,335 203,314 210,319 202,328 210,327 214,313 218,319 232,307 250,307 233,305" fill="#b1b9c6"/><polygon points="193,214 192,225 187,233 189,236 195,235 204,238 201,235 212,234 216,227 212,224 209,230 208,226 201,224" fill="#2a5a89"/><polygon points="131,275 108,284 107,292 105,285 105,299 121,294 123,281 126,283 126,291 135,289" fill="#d6dbe2"/><polygon points="289,230 237,248 237,254 215,257 233,255 203,269" fill="#b1b9c6"/><polygon points="130,203 128,206 128,212 134,218 137,219 139,218 142,220 143,213 141,206 135,201" fill="#d6dbe2"/><polygon points="0,284 0,297 8,294 3,299 20,292 39,303 62,293 62,287 44,294 31,289 23,278 44,282 26,275 7,278 14,272 4,275 7,286" fill="#143c5a"/><polygon points="17,339 35,374 31,363 46,372 80,361 73,368 94,383 96,362 121,354 37,364" fill="#61768c"/><polygon points="151,191 156,198 172,198 177,203 185,202 184,206 188,205 188,209 190,207 189,199 177,196 175,199 171,194 176,192 171,192 169,188 162,186 158,188 160,192" fill="#2a5a89"/><polygon points="288,197 308,197 292,189 296,182 302,186 302,178 317,191 326,188 307,177 322,169 301,167 307,177 288,179" fill="#2a5a89"/><polygon points="258,163 263,184 271,184 256,186 255,213 243,214 242,208 238,221 275,202 254,211 254,198 272,190" fill="#b1b9c6"/><polygon points="351,260 367,268 353,268 363,275 352,281 383,305 382,291 365,279 376,281 383,274 364,272 383,268" fill="#1e4c78"/><polygon points="231,320 203,315 199,323 185,322 179,331 149,340 161,338 159,353 165,331 198,322 210,332 219,320 226,323 220,327" fill="#8b97aa"/><polygon points="271,191 268,192 269,195 266,198 265,193 255,198 255,211 272,202 272,197 271,199 269,197" fill="#d6dbe2"/><polygon points="21,341 35,362 61,365 113,345 95,362 138,343 142,353 146,341 117,357 126,342 48,353 54,337 40,344 32,331 34,356" fill="#8b97aa"/><polygon points="186,238 174,241 173,253 178,250 179,258 176,261 181,261 179,267 182,265 181,256 184,253 186,264 190,264 186,261 188,258" fill="#d6dbe2"/><polygon points="242,89 245,94 266,90 292,97 289,90 276,90 275,83 287,85 265,80 274,90" fill="#1e4c78"/><polygon points="330,189 286,205 281,212 278,199 279,222 284,222 286,207 312,206 307,204 314,199 318,204 317,197 328,203 320,197" fill="#61768c"/><polygon points="375,150 361,143 360,168 336,159 306,162 338,164 333,172 349,168 347,175 358,178 361,167 362,177 369,176 362,165 370,159 363,163 361,152" fill="#2a5a89"/><polygon points="141,64 158,62 160,69 147,68 164,74 159,77 195,77 164,69 164,60 146,59" fill="#1e4c78"/><polygon points="271,159 276,172 278,169 280,174 296,176 291,171 278,169 283,163 297,167 298,164 292,165 294,161 283,155" fill="#2a5a89"/><polygon points="103,123 84,119 84,112 80,120 37,122 39,128 45,127 45,123 78,126 86,120 93,126 93,122" fill="#2a5a89"/><polygon points="311,233 305,234 294,249 293,260 298,252 305,249 309,251 296,267 308,259 316,245 308,245 305,241" fill="#61768c"/><polygon points="217,331 202,331 198,323 161,336 165,342 170,333 171,338 176,336 179,341 181,337 190,340 194,336 194,339 199,329 204,331 202,336" fill="#61768c"/><polygon points="300,274 295,279 293,277 290,281 288,281 289,283 287,287 281,292 281,297 293,293 300,287" fill="#d6dbe2"/><polygon points="146,100 145,102 150,107 162,109 150,111 144,108 145,111 169,114 167,108 170,104 154,105" fill="#1e4c78"/><polygon points="245,165 249,177 243,177 251,186 240,194 238,179 240,202 246,189 251,197 257,190 252,186 255,170 248,176" fill="#8b97aa"/><polygon points="218,212 213,226 217,227 213,231 216,233 210,234 214,237 221,220 228,226 225,229 228,242 230,234 227,231 232,223 228,225 226,218" fill="#1e4c78"/><polygon points="200,274 162,288 159,293 166,288 168,290 180,283 182,285 197,279" fill="#3b556a"/><polygon points="72,208 67,202 57,203 56,198 39,197 44,190 21,192 26,195 22,198 5,197 2,201 30,197 32,202 38,197" fill="#143c5a"/><polygon points="289,197 309,196 305,183 316,192 325,189 320,191 302,179 299,180 303,186 296,183 293,189 298,189 305,197 289,194" fill="#1e4c78"/><polygon points="343,232 338,235 336,227 332,240 323,237 324,229 320,235 318,232 308,236 307,243 317,245 309,258 317,257 319,237 322,243 339,237 341,241 345,240" fill="#2a5a89"/><polygon points="263,155 259,158 258,162 265,170 268,170 269,180 267,182 266,179 267,183 269,182 269,163 267,158" fill="#d6dbe2"/><polygon points="123,252 125,238 123,240 121,228 120,234 118,232 109,237 108,229 91,231 93,234 104,233 106,241 116,237 122,242" fill="#2a5a89"/><polygon points="101,53 110,52 109,56 116,58 110,62 108,60 106,64 129,64 125,68 130,69 134,62 126,55 122,59 123,53 107,50" fill="#1e4c78"/><polygon points="109,252 97,268 91,263 91,272 82,268 84,261 77,265 84,270 79,280 85,281 81,276 87,273 89,281 89,273 100,265 109,275" fill="#8b97aa"/><polygon points="9,98 11,106 30,117 40,119 55,110 47,106 43,114 32,110 30,115 31,105 11,98 23,94 12,94" fill="#2a5a89"/><polygon points="100,284 96,284 90,287 90,302 92,303 93,307 96,307 93,305 95,298 100,296" fill="#d6dbe2"/><polygon points="108,186 114,191 119,190 121,192 117,195 122,195 125,198 125,208 126,196 132,194 125,191 128,184 118,187" fill="#2a5a89"/><polygon points="221,339 210,340 203,347 177,354 182,362 193,354 202,355 210,351 203,353 199,351 201,348 216,346 214,351 218,346 214,344" fill="#143c5a"/><polygon points="345,244 353,249 352,252 346,250 347,253 360,258 383,256 378,254 383,251 383,246 379,249 370,247 357,251 357,247" fill="#1e4c78"/><polygon points="250,197 244,200 242,199 241,205 243,208 243,213 245,211 249,210 249,206 250,205 249,198" fill="#d6dbe2"/><polygon points="255,69 263,72 277,69 285,74 295,73 295,77 300,74 287,65 282,68 276,64 275,67" fill="#1e4c78"/><polygon points="233,221 233,224 228,231 229,234 231,234 229,237 230,241 231,236 233,239 231,245 234,247 235,222" fill="#2a5a89"/><polygon points="348,110 365,125 352,131 366,135 367,126 383,139 375,134 383,131 374,128 382,125 372,124 383,118 366,116 369,124" fill="#2a5a89"/><polygon points="37,307 38,312 46,306 61,316 78,311 68,308 64,302 61,305 57,299 53,303 51,301 52,303 41,309" fill="#8b97aa"/><polygon points="113,258 119,263 118,275 125,275 119,279 132,276 125,275 129,268 134,271 136,287 136,278 142,276 138,271 141,262 136,263 135,257 136,265 125,272 121,259" fill="#b1b9c6"/><polygon points="90,329 50,343 48,351 58,349 59,343 61,348 65,347 67,340 70,341 68,345 74,345 76,338 81,341 81,336 85,341" fill="#143c5a"/><polygon points="24,302 10,301 0,305 0,316 4,317 0,320 2,334 14,333 5,330 10,325 12,328 12,320 7,324 4,318 25,309" fill="#143c5a"/><polygon points="85,283 84,288 83,285 81,287 80,285 79,287 75,285 75,289 71,287 72,292 78,297 76,300 77,307 79,306 84,309 87,303 84,293 86,289" fill="#2a5a89"/><polygon points="219,210 228,215 230,221 234,218 235,214 232,211 228,213 225,213 224,210" fill="#8b97aa"/><polygon points="0,217 0,229 15,229 18,227 19,223 21,225 23,223 21,220 13,220 9,217 4,218 2,221" fill="#143c5a"/><polygon points="95,309 91,308 95,311 87,319 79,313 65,319 74,326 76,322 76,330 82,328 81,324 87,326 92,323 88,321 94,312 96,322" fill="#8b97aa"/></svg>