<svg xmlns="http://www.w3.org/2000/svg" width="605" height="320" viewBox="0 0 384 384"><rect width="384" height="384" fill="#3e6387"/><path d="M0,0Q4,49 9,53Q0,63 0,72Q4,73 0,74Q3,86 0,86Q4,106 9,105Q19,107 19,101Q28,110 29,117Q38,112 44,115Q33,120 35,123Q15,122 19,128Q2,128 0,131Q11,132 7,135Q23,138 37,135Q44,141 48,140Q59,146 73,141Q101,154 124,157Q129,163 136,162Q146,172 154,173Q156,185 162,185Q147,181 146,175Q127,172 122,166Q103,163 98,158Q90,159 91,155Q74,155 66,152Q47,160 33,161Q14,163 14,170Q9,164 12,162Q13,171 25,175Q20,168 25,164Q42,168 53,164Q64,165 81,172Q75,178 82,184Q63,185 54,191Q57,181 64,180Q34,180 24,186Q49,190 51,193Q59,198 74,203Q79,218 68,218Q67,230 60,234Q82,232 80,237Q89,234 90,237Q59,237 53,234Q47,240 50,238Q73,247 78,243Q78,249 82,247Q85,254 83,256Q91,244 93,232Q96,233 99,229Q123,222 123,208Q81,193 84,190Q81,187 89,188Q88,180 92,178Q95,185 92,188Q108,190 109,193Q102,197 107,199Q138,185 140,188Q134,195 142,195Q134,193 134,190Q151,192 156,198Q159,188 165,187Q174,200 190,202Q190,189 187,189Q193,183 189,180Q211,184 223,194Q223,167 218,163Q219,159 215,159Q227,151 229,146Q232,148 235,140Q227,146 222,145Q225,129 221,130Q207,116 210,115Q187,105 185,109Q159,99 172,97Q181,100 183,97Q209,99 216,103Q218,108 225,107Q227,109 222,104Q232,100 230,96Q219,94 221,91Q210,88 212,85Q196,80 196,77Q216,83 215,90Q229,77 236,80Q233,86 236,85Q210,68 186,64Q193,73 178,73Q180,80 177,82Q168,70 174,70Q173,64 177,66Q154,58 137,59Q130,60 123,52Q90,44 89,39Q108,39 111,35Q122,40 132,39Q119,38 118,35Q136,40 139,46Q146,43 144,40Q176,39 189,44Q193,48 200,47Q201,56 210,61Q204,54 199,55Q206,43 188,41Q183,33 174,31Q170,27 161,29Q126,21 124,23Q153,35 154,39Q118,30 107,32Q108,22 96,20Q103,24 96,24Q84,41 90,46Q75,32 80,29Q75,24 87,25Q74,14 83,13Q93,16 95,12Q72,13 71,18Q65,8 67,4Q89,3 95,0Q54,2 24,0Q61,11 56,14" fill="#235280"/><path d="M9,0Q28,6 25,3Q60,10 65,7Q67,13 70,14Q84,9 95,11Q80,18 65,18Q77,24 64,24Q77,33 73,37Q112,51 123,51Q141,62 146,57Q163,56 165,54Q173,63 169,64Q192,75 207,77Q200,64 213,66Q222,72 235,72Q233,87 230,89Q232,81 229,82Q218,83 215,91Q207,78 196,78Q204,84 211,85Q214,92 219,93Q224,96 230,95Q228,106 224,106Q234,100 234,88Q235,71 230,72Q228,60 225,57Q242,64 237,67Q254,65 256,61Q274,62 276,60Q293,68 306,69Q290,76 277,70Q249,74 254,78Q286,85 287,88Q283,87 290,89Q298,101 296,103Q277,98 273,101Q258,94 248,96Q241,102 244,113Q248,111 246,116Q258,119 264,125Q250,129 252,132Q267,133 271,138Q301,143 305,139Q316,141 292,132Q300,137 299,140Q269,131 263,126Q285,125 303,128Q296,122 291,122Q286,115 289,118Q278,115 280,111Q276,108 280,106Q259,107 250,103Q269,99 287,101Q302,109 305,108Q301,103 303,101Q338,110 345,115Q343,106 352,106Q344,84 355,83Q356,89 359,86Q366,83 354,78Q358,71 352,72Q342,67 338,69Q328,68 332,73Q309,67 306,64Q314,62 311,58Q302,56 303,53Q290,56 290,60Q286,54 286,57Q274,45 292,45Q295,47 296,45Q336,55 341,51Q336,49 343,47Q354,53 363,53Q380,53 382,46Q361,32 383,37Q371,30 361,29Q368,23 383,28Q377,20 376,22Q365,11 367,8Q381,7 381,0Q292,2 291,5Q253,0 233,0Q229,2 224,0Q90,4 84,8" fill="#2d5c8c"/><path d="M360,260Q348,251 352,250Q340,250 338,256Q330,248 334,242Q322,257 326,259Q315,267 313,272Q300,289 297,306Q292,303 293,302Q281,309 279,313Q285,317 281,318Q276,327 280,330Q284,331 284,335Q296,340 297,343Q290,344 296,345Q294,354 290,355Q284,347 281,346Q273,353 270,353Q264,357 254,358Q233,347 231,348Q236,350 237,352Q216,357 208,364Q206,369 201,370Q216,371 211,374Q231,381 235,381Q243,374 248,375Q242,381 247,381Q264,371 274,369Q281,370 287,368Q286,373 283,376Q259,377 254,379Q264,381 261,383Q270,381 272,383Q297,381 298,380Q342,380 338,378Q323,375 322,372Q334,372 338,376Q355,378 360,383Q379,380 375,379Q378,375 382,375Q375,368 383,369Q377,338 371,336Q382,333 383,329Q380,322 383,322Q380,319 377,321Q350,309 352,313Q348,304 351,302Q366,304 365,302Q374,307 378,313Q382,309 382,306Q370,301 370,298Q359,294 362,293Q357,288 354,288Q353,281 350,280Q359,276 362,278Q354,267 357,265Q351,259 352,258" fill="#133957"/><path d="M284,248Q255,260 253,260Q247,267 246,266Q233,273 233,275Q227,276 226,278Q223,278 221,280Q212,280 205,283Q201,286 201,284Q176,295 159,301Q154,299 153,304Q151,303 150,305Q109,317 108,316Q110,303 112,301Q106,305 108,307Q104,316 104,315Q89,326 77,331Q64,319 64,317Q70,314 63,317Q54,315 47,310Q58,318 55,319Q64,321 67,323Q83,329 92,327Q87,343 85,345Q93,341 94,340Q90,339 90,338Q94,338 96,340Q106,339 110,338Q135,340 133,343Q118,350 122,350Q140,341 146,340Q138,340 138,339Q148,327 151,327Q149,323 150,322Q157,320 161,316Q163,320 162,325Q165,326 166,328Q172,326 183,322Q198,315 205,314Q214,310 214,312Q218,313 217,318Q220,316 218,315Q221,313 219,313Q224,307 226,308Q232,305 234,307Q243,306 244,309Q250,299 257,294Q265,299 266,299Q264,289 269,286Q259,288 258,286Q269,275 270,273Q281,262 282,257Q279,257 279,255Q282,254 283,255" fill="#cad0da"/><path d="M0,132Q2,148 4,149Q0,151 0,153Q7,158 6,161Q0,181 0,202Q6,206 5,208Q0,209 0,213Q12,214 18,217Q0,227 1,239Q3,242 0,244Q2,249 4,249Q2,264 4,269Q0,277 0,284Q13,285 19,284Q23,287 26,286Q34,294 29,297Q39,302 41,302Q45,293 49,291Q53,288 57,289Q62,286 61,287Q42,276 40,278Q15,272 16,270Q30,267 36,270Q36,271 41,271Q43,266 48,264Q54,268 58,269Q63,274 68,275Q70,266 66,266Q65,262 63,261Q72,260 72,257Q74,250 72,248Q73,247 69,252Q55,244 56,243Q67,244 68,243Q49,238 54,234Q56,237 59,236Q80,238 80,234Q77,231 79,229Q63,235 60,232Q72,228 73,226Q68,223 70,222Q68,217 70,216Q79,217 80,215Q86,217 90,216Q81,211 83,210Q57,198 43,193Q37,189 23,188Q27,185 30,186Q34,176 41,174Q64,181 64,183Q46,180 42,177Q45,183 51,184Q64,185 75,180Q77,183 82,183Q81,179 83,178Q80,178 72,177Q74,172 78,174Q73,170 66,170Q63,163 60,162Q56,162 57,159Q38,165 42,166Q52,162 54,164Q37,173 32,174Q20,169 15,173Q4,167 6,162Q10,164 8,166Q17,166 20,164Q15,161 16,155Q33,158 35,156Q54,156 57,154Q63,154 66,151Q75,154 79,154Q84,158 83,159Q89,159 90,163Q103,162 108,167Q118,164 122,165Q123,170 126,169Q130,174 132,173Q130,180 126,183Q147,176 148,178Q142,184 143,186Q146,184 149,186Q156,185 151,186Q151,179 154,179Q147,170 142,168Q137,168 137,164Q124,163 122,165Q120,159 116,161Q84,152 79,153Q72,144 73,142Q67,144 67,147Q54,148 54,150Q44,151 43,150Q49,145 49,142Q40,142 41,141Q34,138 33,140Q12,139 10,141Q11,132 16,130" fill="#1a4770"/><path d="M164,218Q161,222 160,223Q161,229 162,232Q168,234 170,236Q173,237 175,237Q185,232 187,231Q186,223 184,222Q180,222 178,221Q176,217 175,216Q169,218 168,219" fill="#133957"/><path d="M198,192Q195,197 195,199Q201,209 202,209Q206,212 207,212Q210,212 211,210Q213,209 213,206Q210,197 209,195Q202,191 200,191" fill="#e3e8ed"/><path d="M216,61Q226,64 229,62Q232,68 232,72Q237,70 242,71Q254,83 268,86Q254,89 242,88Q255,95 265,95Q267,94 267,97Q268,101 264,103Q257,98 252,98Q253,101 257,101Q272,107 275,104Q277,107 273,108Q279,114 277,118Q285,117 282,117Q287,114 292,117Q297,122 304,124Q288,129 283,129Q288,123 282,122Q275,124 272,122Q260,125 257,124Q249,115 245,115Q250,110 251,107Q245,120 248,125Q268,127 274,130Q285,137 295,138Q301,137 308,134Q322,145 321,147Q300,144 298,147Q271,136 264,130Q251,137 251,143Q255,144 256,146Q266,144 268,145Q270,147 277,147Q271,151 265,152Q254,150 254,154Q267,154 270,157Q281,158 280,162Q282,162 291,161Q279,169 280,172Q282,171 283,173Q281,167 284,166Q301,169 303,172Q298,173 296,170Q289,175 292,176Q288,186 288,195Q291,197 289,197Q294,201 299,199Q290,191 291,189Q306,197 310,195Q311,190 314,193Q319,188 313,188Q316,181 322,182Q327,186 328,184Q324,181 326,180Q317,176 323,175Q327,168 331,169Q333,180 339,182Q341,175 346,176Q351,178 357,178Q356,173 359,172Q352,168 353,166Q336,171 335,170Q328,166 318,167Q314,162 322,164Q340,161 345,164Q356,165 359,168Q347,159 336,158Q351,155 359,156Q362,144 365,145Q362,152 363,151Q377,153 383,152Q369,143 369,139Q365,135 369,133Q379,137 376,134Q380,129 378,128Q383,124 383,122Q379,118 383,118Q377,108 372,104Q366,107 366,110Q362,108 359,109Q359,98 352,96Q370,98 372,100Q382,98 383,100Q380,92 378,92Q381,85 379,82Q375,77 367,76Q380,62 380,58Q371,58 367,55Q343,50 345,49Q340,48 342,49Q327,54 325,58Q314,50 305,47Q294,49 294,51Q285,48 279,50Q266,48 274,52Q283,53 284,56Q288,55 290,59Q291,53 290,51Q303,55 303,59Q313,62 318,66Q309,67 312,69Q328,68 334,70Q328,64 330,63Q341,66 344,64Q357,70 363,70Q358,75 354,77Q361,79 360,81Q373,85 371,86Q378,89 377,91Q357,90 358,93Q353,88 354,84Q342,86 335,85Q345,95 343,98Q345,101 352,105Q349,106 346,104Q339,108 344,110Q340,115 336,114Q323,107 316,108Q302,105 301,108Q303,110 300,113Q293,106 295,105Q279,102 272,103Q283,97 284,99Q296,98 292,97Q282,87 275,85Q286,85 286,83Q249,76 245,74Q254,71 264,73Q290,76 303,82Q300,70 296,71Q283,66 281,68Q274,63 273,66Q254,66 253,70Q238,66 235,67Q245,63 251,64Q226,58 225,58L228,63Z" fill="#235280"/><path d="M301,289Q285,298 277,300Q271,310 268,313Q267,314 270,317Q265,321 263,321Q260,321 256,318Q242,326 238,333Q228,334 226,336Q228,328 231,329Q230,330 231,331Q235,329 236,330Q234,327 232,327Q237,324 238,326Q240,321 238,321Q234,318 236,319Q231,324 229,328Q225,327 222,331Q202,334 203,331Q197,334 195,339Q191,338 188,340Q180,340 179,342Q174,339 174,337Q170,337 170,335Q166,342 166,349Q160,354 158,355Q154,350 156,348Q146,354 143,360Q133,357 130,352Q134,346 132,347Q114,359 113,358Q106,361 105,360Q98,363 100,364Q94,371 93,374Q96,382 95,383Q108,382 109,383Q112,379 115,379Q118,383 120,383Q123,376 129,374Q129,376 131,377Q132,375 135,370Q138,371 137,372Q146,368 151,369Q148,372 151,370Q154,369 154,367Q161,362 158,361Q169,356 171,354Q177,364 176,365Q172,372 168,375Q180,367 183,364Q188,363 191,362Q199,370 201,374Q210,373 211,371Q204,372 201,371Q203,367 205,368Q208,366 209,367Q209,363 208,362Q213,360 215,358Q208,359 205,358Q215,353 220,353Q227,350 230,351Q232,346 234,345Q232,342 234,340Q232,335 233,334Q237,334 239,333Q244,330 245,328Q259,339 258,341Q254,340 252,341Q246,339 248,342Q255,343 260,345Q244,344 237,341Q240,346 239,347Q237,347 239,349Q246,352 251,356Q267,356 270,355Q273,348 278,345Q268,351 267,354Q260,351 263,351Q264,343 260,342Q264,338 263,336Q267,334 267,333Q265,330 267,329Q271,335 270,337Q274,334 274,332Q274,328 271,326Q280,314 278,311Q286,304 291,302Q290,300 293,298L293,300Z" fill="#3a5469"/></svg>