<svg xmlns="http://www.w3.org/2000/svg" width="605" height="320" viewBox="0 0 384 384"><rect width="384" height="384" fill="#3e6387"/><path d="M0,17Q5,28 10,25Q36,39 34,42Q18,35 19,39Q5,37 3,41Q44,56 36,60Q25,51 15,51Q23,62 9,61Q21,75 9,78Q78,90 95,98Q82,104 73,103Q143,126 138,129Q102,114 86,113Q119,131 113,133Q107,135 96,132Q107,141 123,144Q100,150 101,147Q84,133 87,129Q80,130 87,131Q82,144 84,150Q144,160 158,158Q187,174 196,173Q213,160 230,158Q232,151 237,156Q232,142 230,145Q189,128 162,128Q156,124 154,127Q171,117 197,116Q198,126 208,130Q209,122 218,124Q217,106 222,105Q228,114 228,108Q237,93 238,75Q242,90 239,91Q253,133 264,142Q248,146 246,153Q252,158 252,152Q280,147 283,142Q288,148 284,152Q308,150 319,156Q305,145 313,143Q322,142 300,131Q286,134 297,138Q270,130 264,125Q297,125 311,130Q293,116 297,113Q328,128 319,131Q316,128 316,132Q345,132 339,129Q325,114 309,108Q301,108 300,103Q343,109 340,105Q352,104 351,101Q366,108 374,106Q382,104 382,96Q378,90 383,85Q365,77 367,72Q383,48 383,22Q367,12 369,9Q383,7 383,0Q81,3 84,7Q16,4 23,8Q24,12 30,11L26,19Z" fill="#2a5a89"/><path d="M0,30Q3,59 6,60Q3,67 7,70Q0,72 0,75Q4,78 0,80Q3,97 7,99Q2,99 5,100Q0,141 0,179Q3,183 0,184Q3,192 1,196Q0,203 0,216Q12,226 0,230Q5,245 10,245Q15,254 1,252Q3,258 0,259Q3,263 0,265Q3,270 0,271Q4,284 8,286Q16,275 26,274Q33,281 23,279Q18,284 10,285Q36,288 44,293Q70,286 74,290Q65,282 61,286Q57,275 68,275Q66,266 74,267Q84,245 88,251Q86,255 90,255Q101,241 103,247Q119,244 116,238Q105,238 104,234Q98,231 105,228Q115,231 121,227Q124,218 124,198Q117,184 128,183Q129,192 133,194Q135,201 144,200Q149,228 153,232Q154,242 161,249Q159,229 155,221Q181,221 188,229Q188,208 185,203Q152,194 150,191Q169,191 175,198Q192,196 194,191Q186,185 187,181Q194,178 194,174Q216,184 223,193Q224,184 231,185Q234,181 235,184Q229,173 222,171Q213,159 201,159Q190,176 185,178Q183,174 178,177Q162,162 148,158Q161,151 170,152Q178,150 178,157Q178,162 194,168Q192,157 188,154Q209,147 209,141Q182,136 179,132Q149,142 136,143Q141,157 133,163Q83,144 82,138Q96,147 102,147Q105,152 111,151Q113,144 122,143Q97,135 96,131Q120,139 131,146Q150,135 149,133Q156,130 143,128Q134,134 125,133Q118,134 113,131Q121,127 119,123Q107,114 127,118Q129,125 137,129Q145,121 144,119Q84,101 95,99Q65,88 61,84Q20,75 32,73Q8,62 9,60Q25,58 13,53Q25,53 29,56Q36,55 36,59Q48,58 45,63Q43,67 35,68Q51,69 60,68Q53,57 56,55Q64,59 56,58Q70,67 72,64Q97,68 103,66Q80,60 70,54Q30,49 25,51Q14,42 5,42Q19,35 33,36Q36,38 38,35Q28,32 31,30Q10,28 9,25" fill="#1e4c78"/><path d="M301,222Q257,246 223,262Q132,295 104,304Q104,315 102,321Q105,323 104,325Q100,326 101,328Q111,328 113,330Q118,335 127,334Q135,330 136,332Q133,334 135,334Q135,340 133,343Q125,345 124,347Q133,343 138,340Q156,333 162,328Q195,315 203,311Q206,311 209,309Q216,308 218,306Q223,307 227,306Q237,298 242,297Q249,292 252,292Q246,297 241,299Q237,304 241,302Q248,307 253,307Q259,305 263,306Q273,300 274,297Q270,295 270,292Q264,299 262,298Q254,301 252,300Q246,302 244,302Q258,294 260,295Q257,289 253,288Q277,259 276,256Q267,257 254,262Q270,241 288,232Q290,239 289,245Q293,236 293,231" fill="#d6dbe2"/><path d="M383,242Q359,241 353,238Q348,229 339,225Q341,230 344,227Q344,246 341,254Q331,248 334,242Q322,256 326,258Q308,272 303,272Q290,300 279,310Q278,321 272,326Q277,335 276,339Q268,334 267,330Q265,337 263,337Q261,342 257,345Q246,339 246,336Q252,333 245,329Q233,335 231,334Q251,344 270,344Q262,353 267,353Q274,344 280,342Q276,348 270,351Q260,357 251,357Q232,349 230,352Q208,357 208,359Q212,363 209,368Q198,368 196,366Q196,362 191,363Q169,374 168,373Q174,359 171,355Q160,364 161,367Q146,371 138,369Q130,376 127,374Q127,381 136,383Q140,377 145,376Q181,383 212,383Q212,378 217,381Q219,380 220,383Q225,381 225,383Q254,381 256,383Q344,380 339,378Q351,378 355,382Q383,379 383,375Q375,368 383,370Q381,339 379,339Q383,332 383,326Q380,322 382,322Q375,302 367,298Q356,280 362,279Q355,267 358,266Q374,274 382,276Q371,280 366,279Q383,282 383,271Q368,270 365,272Q358,264 350,260Q364,261 366,264Q378,264 383,267Q371,258 360,259Q346,251 346,249Q348,246 344,244Q369,249 379,248" fill="#143c5a"/><path d="M274,203Q270,207 268,208Q258,213 257,214Q249,217 248,218Q238,230 238,238Q244,240 244,242Q240,243 239,243Q238,245 238,250Q242,248 243,247Q252,244 257,242Q268,236 272,235Q285,228 286,227Q284,221 282,225Q280,224 279,225L277,223Z" fill="#d6dbe2"/><path d="M250,252Q249,260 249,263Q245,267 244,267Q234,272 227,276Q221,278 218,280Q211,282 210,283Q206,281 206,280Q208,269 209,268Q239,255 246,252" fill="#d6dbe2"/><path d="M204,272Q201,284 199,287Q192,289 189,290Q183,293 179,295Q175,296 174,297Q165,299 163,301Q158,300 157,299Q158,289 159,287Q168,283 174,282Q199,272 201,271" fill="#d6dbe2"/><path d="M199,191Q194,198 193,201Q194,203 194,205Q197,209 199,211Q202,213 202,214Q209,217 210,217Q212,210 213,205Q210,198 209,195L205,191Z" fill="#d6dbe2"/><path d="M174,215Q165,218 163,218Q161,222 161,222Q160,228 161,231Q165,232 167,232Q170,236 171,237Q180,235 185,233Q187,229 188,227Q186,222 185,222Q179,220 180,220" fill="#143c5a"/><path d="M211,154Q205,156 203,156Q197,158 194,158Q190,155 188,155Q194,160 197,161Q192,168 191,168Q190,165 189,166Q184,162 185,161Q173,161 167,161Q162,156 164,155Q177,156 178,155Q174,152 176,151Q176,148 179,147Q180,146 179,145Q175,147 174,147Q172,151 170,153Q150,154 148,156Q148,152 150,151Q140,148 140,147Q134,143 136,142Q143,142 145,144Q148,142 151,143Q156,140 158,141Q171,138 174,137Q176,133 178,134Q181,134 182,137Q187,139 189,139Q196,137 197,139Q202,142 202,144Q204,141 205,140Q208,142 207,142Q208,147 209,148Q208,150 207,151" fill="#2a5a89"/><path d="M155,290Q153,300 153,302Q149,305 148,306Q143,307 142,308Q140,308 139,309Q133,310 131,311Q128,312 127,312Q117,316 113,318Q109,317 108,316Q108,307 109,305Q116,300 120,299Q142,292 148,290Q151,289 152,289" fill="#d6dbe2"/><path d="M130,203Q128,209 128,212Q132,217 134,218Q142,218 143,217Q142,209 141,206Q136,201 135,201" fill="#d6dbe2"/><path d="M301,289Q285,298 277,300Q272,309 268,313Q266,313 269,316Q267,321 266,322Q262,320 261,322Q253,318 251,318Q234,333 233,332Q226,331 224,328Q230,329 229,330Q234,327 237,323Q240,323 243,321Q236,318 236,316Q234,318 236,319Q223,329 222,331Q211,334 208,336Q203,335 202,337Q201,330 200,330Q194,338 194,337Q183,338 179,336Q179,341 177,342Q173,338 171,339Q168,335 167,336Q160,354 158,355Q155,351 157,350Q152,348 149,349Q146,353 143,360Q135,359 135,356Q131,354 130,352Q134,346 132,347Q114,359 113,358Q105,361 105,360Q98,363 100,364Q94,371 93,374Q96,382 95,383Q108,382 109,383Q112,379 115,379Q118,383 120,383Q123,376 129,374Q134,373 138,368Q145,369 151,369Q148,371 151,370Q154,369 154,367Q159,363 158,361Q169,356 171,354Q177,364 176,365Q172,372 168,375Q179,368 182,365Q193,363 195,365Q200,362 203,363Q199,369 201,371Q205,374 210,375Q209,372 208,374Q201,369 201,367Q206,366 207,365Q209,363 208,362Q213,360 215,358Q208,359 205,358Q213,354 218,354Q227,350 230,351Q233,346 236,346Q262,356 270,355Q281,343 283,343Q268,350 267,354Q260,351 263,351Q264,343 260,342Q264,338 263,336Q266,333 265,330Q271,331 272,333Q272,338 275,339Q274,334 275,331Q274,328 271,326Q281,317 283,317Q278,311 279,309Q289,302 287,302Q293,298 296,298" fill="#3b556a"/><path d="M265,126Q275,132 277,136Q295,135 291,132Q278,132 275,130Q301,131 311,134Q330,145 343,149Q328,149 313,144Q301,146 299,148Q318,153 319,157Q308,153 304,155Q300,152 298,153Q294,147 294,150Q283,152 282,151Q287,144 283,143Q282,147 279,146Q281,153 280,154Q272,154 270,156Q264,152 261,152Q269,155 271,158Q289,157 295,161Q295,164 298,163Q297,167 296,168Q284,165 279,167Q286,170 292,171Q292,176 288,175Q292,178 296,178Q302,176 306,177Q305,171 307,171Q302,166 305,166Q315,169 322,168Q316,172 313,172Q309,179 311,181Q314,180 314,183Q326,183 329,186Q337,183 348,179Q355,178 356,177Q348,172 348,169Q343,171 342,169Q336,173 333,173Q329,166 321,168Q309,160 313,159Q323,161 325,159Q341,161 346,164Q357,164 360,167Q359,161 360,162Q362,141 363,141Q368,148 373,149Q368,152 362,153Q367,160 371,159Q365,166 363,165Q367,175 365,174Q367,177 371,178Q369,181 367,181Q372,187 377,190Q380,191 381,195Q364,195 360,201Q367,208 364,209Q360,207 359,209Q353,207 358,202Q342,225 346,230Q348,229 349,231Q358,234 358,236Q354,236 354,238Q366,241 369,244Q382,238 383,234Q369,232 373,231Q372,228 374,226Q379,229 380,231Q379,231 383,232Q381,219 383,217Q375,221 374,225Q376,211 378,210Q380,213 383,213Q381,192 383,178Q375,170 381,170Q382,164 382,161Q381,159 383,158Q379,155 383,155Q377,152 377,150Q382,149 382,148Q377,143 379,141Q383,141 383,140Q374,135 371,130Q361,124 358,121Q351,117 347,113Q358,115 368,122Q368,117 371,119Q376,117 376,116Q382,116 383,114Q373,108 373,110Q361,109 359,111Q354,103 351,102Q353,108 352,109Q343,105 340,106Q345,115 344,116Q331,110 331,108Q319,107 314,108Q304,103 300,104Q304,107 307,108Q306,110 310,107Q331,117 342,120Q346,132 353,135Q338,134 327,131Q320,133 315,132Q315,125 317,124Q327,128 335,126Q337,127 337,125Q309,119 297,114Q295,119 301,120Q312,129 311,131Q282,124 281,126Q270,124 271,123" fill="#1e4c78"/><path d="M193,214Q192,223 192,225Q188,230 187,233Q189,235 189,236Q195,236 196,237Q202,237 204,238Q201,235 203,234Q210,233 212,234Q214,229 216,227Q211,225 210,226Q208,228 208,226Q203,225 201,224L197,220Z" fill="#2a5a89"/></svg>