<svg xmlns="http://www.w3.org/2000/svg" width="605" height="320" viewBox="0 0 384 384"><rect width="384" height="384" fill="#3e6387"/><polygon points="0,17 0,31 10,25 39,36 34,42 18,32 19,39 7,34 3,41 52,53 36,60 36,52 15,51 38,63 9,61 33,73 9,78 61,83 95,98 91,106 73,103 148,124 138,129 119,115 86,113 125,129 113,133 119,138 96,132 91,139 123,144 99,154 101,147 81,138 87,129 74,130 87,131 80,138 84,150 131,162 158,158 178,176 196,173 197,162 230,158 227,146 237,156 234,139 230,145 217,129 162,128 159,121 154,127 145,119 197,116 189,123 208,130 201,121 218,124 213,108 222,105 228,121 228,108 236,111 238,75 246,89 239,91 243,124 264,142 251,139 246,153 253,164 252,152 278,153 283,142 293,145 284,152 297,145 319,156 298,148 313,143 344,153 300,131 276,130 297,138 276,136 264,125 283,121 311,130 289,119 297,113 338,125 319,131 316,125 316,132 352,135 339,129 342,121 309,108 303,114 300,103 346,114 340,105 353,107 351,101 359,110 374,106 383,113 382,96 374,96 383,85 364,82 367,72 383,74 383,22 365,16 369,9 383,14 383,0 79,0 84,7 9,0 23,8 18,13 30,11 26,19" fill="#2a5a89"/><polygon points="0,30 0,59 6,60 0,64 7,70 0,69 0,75 8,76 0,80 0,96 7,99 0,99 5,100 0,103 0,179 6,182 0,184 6,188 1,196 0,191 0,216 24,223 0,230 0,246 10,245 29,257 1,252 6,258 0,259 7,261 0,265 7,269 0,271 0,283 8,286 7,277 26,274 44,284 23,279 27,284 10,285 28,283 44,293 66,282 74,290 69,278 61,286 47,276 68,275 58,265 74,267 81,240 88,251 83,256 90,255 99,235 103,247 122,250 116,238 106,242 104,234 91,234 105,228 109,236 121,227 124,239 124,198 107,186 128,183 126,191 133,194 127,203 144,200 146,224 153,232 147,236 161,249 164,237 155,221 174,214 188,229 192,213 185,203 155,198 150,191 163,185 175,198 190,201 194,191 186,189 187,181 194,182 194,174 209,176 223,193 218,183 231,185 233,178 235,184 236,175 222,171 225,160 201,159 196,174 185,178 189,172 178,177 176,166 148,158 152,151 170,152 179,144 178,157 162,157 194,168 196,161 188,154 210,154 209,141 185,140 179,132 163,142 136,143 150,152 133,163 84,151 82,138 90,147 102,147 99,153 111,151 104,145 122,143 98,140 96,131 110,132 131,146 152,138 149,133 170,133 143,128 144,135 125,133 123,138 113,131 124,131 119,123 87,111 127,118 121,121 137,129 147,124 144,119 73,104 95,99 70,93 61,84 8,77 32,73 8,65 9,60 37,63 13,53 22,50 29,56 37,51 36,59 51,53 45,63 51,67 35,68 42,71 60,68 51,60 56,55 73,61 56,58 69,70 72,64 91,70 103,66 90,67 70,54 36,47 25,51 24,43 5,42 5,34 33,36 34,41 38,35 25,35 31,30 12,32 9,25" fill="#1e4c78"/><polygon points="301,222 292,230 223,262 161,286 104,304 106,310 102,321 107,322 104,325 100,324 101,328 110,327 113,330 109,336 127,334 135,329 136,332 132,335 135,334 138,338 133,343 127,344 124,347 128,347 138,340 150,338 162,328 187,320 203,311 204,313 209,309 215,310 218,306 220,308 227,306 232,300 242,297 247,292 252,292 252,295 241,299 234,306 241,302 243,308 253,307 255,304 263,306 273,304 274,297 270,298 270,292 266,300 262,298 256,302 252,300 249,303 244,302 257,293 260,295 262,291 253,288 278,262 276,256 281,252 254,262 253,250 288,232 291,233 289,245 294,242 293,231" fill="#d6dbe2"/><polygon points="383,242 366,244 353,238 358,233 339,225 338,233 344,227 347,238 341,254 328,255 334,242 318,255 326,258 313,272 303,272 302,290 279,310 284,317 272,326 278,332 276,339 270,339 267,330 267,337 263,337 266,340 257,345 247,342 246,336 260,338 245,329 236,337 231,334 233,345 270,344 258,354 267,353 269,346 280,342 283,345 270,351 269,357 251,357 235,347 230,352 209,355 208,359 216,358 209,368 200,371 196,366 202,362 191,363 170,376 168,373 177,364 171,355 159,361 161,367 154,373 138,369 133,378 127,374 118,380 136,383 135,378 145,376 150,383 212,383 207,376 217,381 219,378 220,383 225,379 225,383 252,379 256,383 350,383 339,378 348,374 355,382 383,383 383,375 368,367 383,370 383,340 379,339 383,338 383,326 378,323 382,322 383,306 367,298 351,281 362,279 352,268 358,266 366,273 382,276 377,281 366,279 383,293 383,271 372,268 365,272 366,268 350,260 362,259 366,264 374,262 383,267 383,257 360,259 347,254 346,249 352,249 344,244 360,250 379,248" fill="#143c5a"/><polygon points="274,203 272,207 268,208 259,212 257,214 250,216 248,218 238,222 238,238 244,239 244,242 242,244 239,243 238,240 238,250 241,249 243,247 248,246 257,242 265,237 272,235 284,229 286,227 286,218 282,225 282,223 279,225 277,223" fill="#d6dbe2"/><polygon points="250,252 250,258 249,263 246,267 244,267 242,269 227,276 224,276 218,280 213,281 210,283 207,282 206,280 207,270 209,268 232,259 246,252" fill="#d6dbe2"/><polygon points="204,272 203,282 199,287 195,289 189,290 187,292 179,295 176,295 174,297 168,298 163,301 159,301 157,299 157,291 159,287 163,285 174,282 198,273 201,271" fill="#d6dbe2"/><polygon points="199,191 195,195 193,201 195,202 194,205 195,207 199,211 202,212 202,214 208,217 210,217 212,216 213,205 212,201 209,195 205,191" fill="#d6dbe2"/><polygon points="174,215 167,219 163,218 162,222 161,222 159,225 161,231 164,233 167,232 169,236 171,237 175,237 185,233 187,231 188,227 187,223 185,222 178,221 180,220" fill="#143c5a"/><polygon points="211,154 208,156 203,156 201,158 194,158 192,156 188,155 191,159 197,161 194,169 191,168 192,165 189,166 183,164 185,161 180,162 167,161 161,157 164,155 176,157 178,155 173,153 176,151 174,150 179,147 182,147 179,145 177,148 174,147 174,150 170,153 152,152 148,156 147,153 150,151 140,149 140,147 133,145 136,142 141,141 145,144 146,142 151,143 155,139 158,141 169,140 174,137 175,133 178,134 181,132 182,137 185,139 189,139 195,136 197,139 203,141 202,144 204,143 205,140 209,143 207,142 207,146 209,148 209,150 207,151" fill="#2a5a89"/><polygon points="155,290 154,299 153,302 150,305 148,306 145,306 142,308 141,307 139,309 136,309 131,311 129,313 127,312 121,314 113,318 110,318 108,316 108,310 109,305 112,302 120,299 136,295 148,290 151,290 152,289" fill="#d6dbe2"/><polygon points="130,203 128,206 128,212 131,216 134,218 142,220 143,217 143,213 141,206 137,202 135,201" fill="#d6dbe2"/><polygon points="301,289 293,296 277,300 276,306 268,313 263,311 269,316 268,321 266,322 264,319 261,322 256,318 251,318 235,334 233,332 228,334 224,328 232,329 229,330 231,331 237,323 238,326 243,321 237,320 236,316 233,317 236,319 224,327 222,331 214,332 208,336 205,334 202,337 203,331 200,330 195,339 194,337 188,340 179,336 181,340 177,342 176,337 171,339 170,334 167,336 163,353 158,355 153,353 157,350 156,348 149,349 149,347 143,360 136,363 135,356 133,357 130,352 137,346 132,347 116,360 113,358 106,362 105,360 97,362 100,364 95,368 93,374 97,381 95,383 107,381 109,383 110,380 115,379 116,383 120,383 118,378 129,374 130,379 138,368 139,370 151,369 146,373 151,370 155,372 154,367 161,366 158,361 168,358 171,354 178,364 176,365 177,369 168,375 177,371 182,365 191,362 195,365 197,362 203,363 197,367 201,371 200,373 210,375 211,371 208,374 201,371 201,367 205,368 207,365 211,365 208,362 212,362 215,358 211,360 205,358 208,355 218,354 224,349 230,351 230,347 236,346 255,357 270,355 279,344 283,343 269,347 267,354 258,352 263,351 269,344 260,342 265,340 263,336 267,336 265,330 270,330 272,333 270,338 275,339 273,337 275,331 278,330 271,326 280,317 283,317 277,313 279,309 291,302 287,302 290,299 296,298" fill="#3b556a"/><polygon points="265,126 274,129 277,136 299,138 291,132 281,134 275,130 292,129 311,134 318,141 343,149 344,154 313,144 303,144 299,148 317,149 319,157 312,151 304,155 303,152 298,153 295,145 294,150 284,153 282,151 292,145 283,143 285,148 279,146 282,152 280,154 275,152 270,156 268,152 261,152 267,153 271,158 283,154 295,161 293,165 298,163 299,167 296,168 290,164 279,167 280,170 292,171 296,177 288,175 288,178 296,178 298,175 306,177 304,172 307,171 300,167 305,166 309,170 322,168 320,173 313,172 308,177 311,181 314,178 314,183 323,181 329,186 327,188 348,179 355,180 356,177 349,176 348,169 344,174 342,169 340,174 333,173 338,165 321,168 305,162 313,159 322,163 325,159 336,158 346,164 354,161 360,167 358,161 360,162 361,142 363,141 363,147 373,149 375,152 362,153 363,162 371,159 367,167 363,165 369,177 365,174 363,177 371,178 372,182 367,181 368,184 377,190 380,188 381,195 368,189 360,201 370,208 364,209 361,205 359,209 348,212 358,202 338,220 346,230 348,227 349,231 358,232 358,236 354,235 354,238 364,239 369,244 382,243 383,234 366,234 373,231 371,230 374,226 379,227 380,231 375,231 383,232 380,221 383,217 376,218 374,225 375,212 378,210 378,214 383,213 380,207 383,178 370,171 381,170 383,167 382,161 379,160 383,158 376,156 383,155 378,154 377,150 383,151 382,148 375,146 379,141 383,143 383,140 377,140 371,130 364,128 358,121 355,122 347,113 348,109 368,122 366,115 371,119 377,118 376,116 381,118 383,114 374,107 373,110 363,108 359,111 358,105 351,102 354,107 352,109 347,105 340,106 347,114 344,116 331,112 331,108 324,106 314,108 308,103 300,104 301,107 307,108 303,113 310,107 321,115 342,120 340,129 353,135 349,137 327,131 326,134 315,132 314,127 317,124 319,130 335,126 337,129 337,125 321,125 297,114 290,119 301,120 314,127 311,131 283,122 281,126 270,125 271,123" fill="#1e4c78"/><polygon points="193,214 193,221 192,225 189,228 187,233 189,234 189,236 195,235 196,237 200,236 204,238 200,236 203,234 208,233 212,234 212,231 216,227 212,224 210,226 209,230 208,226 205,226 201,224 197,220" fill="#2a5a89"/></svg>