<svg xmlns="http://www.w3.org/2000/svg" width="605" height="320" viewBox="0 0 384 384"><rect width="384" height="384" fill="#3e6387"/><polygon points="0,0 0,46 9,53 0,54 0,72 8,72 0,74 6,86 0,86 0,108 9,105 20,113 19,101 27,104 29,117 33,109 44,115 31,118 35,123 12,116 19,128 5,125 0,131 16,129 7,135 10,142 37,135 40,143 48,140 45,152 73,141 79,152 124,157 122,164 136,162 138,171 154,173 151,185 162,185 149,187 146,175 132,178 122,166 108,168 98,158 89,163 91,155 82,159 66,152 61,159 33,161 15,156 14,170 7,166 12,162 2,168 25,175 15,172 25,164 32,173 53,164 47,159 81,172 68,172 82,184 72,180 54,191 51,183 64,180 45,175 24,186 47,188 51,193 44,193 74,203 90,218 68,218 74,227 60,234 84,228 80,237 89,232 90,237 65,241 53,234 45,242 50,238 69,251 78,243 75,251 82,247 88,252 83,256 90,256 93,232 93,238 99,229 123,237 123,208 78,197 84,190 74,187 89,188 85,182 92,178 99,182 92,188 107,188 109,193 97,195 107,199 136,183 140,188 127,196 142,195 135,197 134,190 146,187 156,198 153,190 165,187 158,199 190,202 194,190 187,189 197,187 189,180 199,175 223,194 229,172 218,163 224,159 215,159 225,157 229,146 230,157 235,140 233,148 222,145 230,128 221,130 204,117 210,115 189,101 185,109 147,101 172,97 179,104 183,97 202,96 216,103 211,110 225,107 233,115 222,104 234,105 230,96 218,98 221,91 209,92 212,85 197,84 196,77 218,77 215,90 222,74 236,80 231,88 236,85 235,73 186,64 208,74 178,73 183,79 177,82 162,71 174,70 169,63 177,66 171,57 137,59 137,68 123,52 91,49 89,39 106,43 111,35 112,42 132,39 120,41 118,35 133,35 139,46 149,46 144,40 164,35 189,44 187,50 200,47 192,52 210,61 209,54 199,55 225,45 188,41 193,35 174,31 180,25 161,29 128,19 124,23 153,32 154,39 129,28 107,32 121,24 96,20 110,25 96,24 78,36 90,46 71,36 80,29 63,24 87,25 65,16 83,13 92,20 95,12 73,9 71,18 63,13 67,4 84,7 95,0 85,5 24,0 66,8 56,14" fill="#235280"/><polygon points="9,0 31,9 25,3 56,13 65,7 64,13 70,14 73,8 95,11 95,18 65,18 91,24 64,24 81,30 73,37 101,51 123,51 137,67 146,57 162,59 165,54 177,62 169,64 177,73 207,77 188,63 213,66 209,72 235,72 236,86 230,89 235,80 229,82 222,75 215,91 218,78 196,78 197,83 211,85 210,92 219,93 219,98 230,95 233,106 224,106 235,113 234,88 241,71 230,72 232,64 225,57 247,62 237,67 253,69 256,61 273,65 276,60 281,67 306,69 303,83 277,70 245,70 254,78 286,82 287,88 276,85 290,89 301,100 296,103 282,96 273,101 268,92 248,96 239,91 244,113 251,106 246,116 253,113 264,125 248,126 252,132 264,129 271,138 297,148 305,139 341,150 292,132 301,134 299,140 275,137 263,126 267,122 303,128 302,123 291,122 283,112 289,118 277,119 280,111 272,110 280,106 269,112 250,103 252,97 287,101 300,110 305,108 299,106 303,101 331,106 345,115 335,106 352,106 334,85 355,83 354,92 359,86 379,88 354,78 365,70 352,72 346,65 338,69 324,63 332,73 312,70 306,64 317,66 311,58 301,59 303,53 290,52 290,60 287,52 286,57 257,45 292,45 294,50 296,45 332,59 341,51 329,51 343,47 345,53 363,53 379,61 382,46 340,28 383,37 382,31 361,29 353,19 383,28 378,18 376,22 363,15 367,8 382,14 381,0 293,0 291,5 273,0 233,0 235,5 224,0 97,0 84,8" fill="#2d5c8c"/><polygon points="360,260 344,252 352,250 343,244 338,256 327,254 334,242 319,255 326,259 318,263 313,272 303,272 297,306 291,304 293,302 283,306 279,313 289,317 281,318 273,325 280,330 285,327 284,335 296,337 297,343 285,344 296,345 298,353 290,355 287,348 281,346 276,353 270,353 275,356 254,358 236,347 231,348 236,348 237,352 224,350 208,364 211,368 201,370 221,369 211,374 228,382 235,381 239,373 248,375 238,381 247,381 254,374 274,369 275,373 287,368 289,370 283,376 264,375 254,379 267,380 261,383 268,380 272,383 297,383 298,380 347,383 338,378 325,378 322,372 330,369 338,376 350,374 360,383 383,381 375,379 375,375 382,375 367,367 383,369 383,341 371,336 382,337 383,329 377,323 383,322 383,317 377,321 349,306 352,313 345,307 351,302 367,306 365,302 370,301 378,313 383,313 382,306 371,305 370,298 356,295 362,293 361,289 354,288 356,283 350,280 356,275 362,278 352,269 357,265 350,261 352,258" fill="#133957"/><polygon points="284,248 258,261 253,260 249,268 246,266 234,272 233,275 229,274 226,278 225,276 221,280 220,278 205,283 202,288 201,284 194,289 159,301 156,294 153,304 152,302 150,305 111,318 108,316 108,305 112,301 104,304 108,307 105,318 104,315 102,321 77,331 65,321 64,317 77,312 63,317 62,320 47,310 61,318 55,319 61,319 67,323 74,332 92,327 90,341 85,345 92,343 94,340 90,341 90,338 93,336 96,340 102,341 110,338 137,338 133,343 115,350 122,350 135,342 146,340 139,341 138,339 146,328 151,327 148,324 150,322 154,325 161,316 164,316 162,325 165,324 166,328 161,330 183,322 191,316 205,314 214,308 214,312 220,309 217,318 222,317 218,315 223,314 219,313 223,306 226,308 230,304 234,307 242,304 244,309 244,305 257,294 264,300 266,299 260,293 269,286 261,291 258,286 268,278 270,273 280,267 282,257 280,260 279,255 281,253 283,255" fill="#cad0da"/><polygon points="0,132 0,147 4,149 0,149 0,153 9,155 6,161 0,160 0,202 8,205 5,208 0,206 0,213 7,211 18,217 0,215 1,239 7,241 0,244 0,249 4,249 0,259 4,269 0,270 0,284 8,287 19,284 20,288 26,286 40,292 29,297 37,303 41,302 41,296 49,291 49,287 57,289 63,285 61,287 44,275 40,278 15,274 16,270 24,265 36,270 31,272 41,271 38,268 48,264 50,268 58,269 59,274 68,275 74,267 66,266 68,264 63,261 73,263 72,257 77,252 72,248 77,243 69,252 55,246 56,243 67,246 68,243 44,242 54,234 54,238 59,236 80,242 80,234 76,234 79,229 66,238 60,232 72,231 73,226 66,224 70,222 67,218 70,216 79,219 80,215 82,219 90,216 79,212 83,210 72,203 43,193 51,191 23,188 24,185 30,186 28,179 41,174 65,180 64,183 51,184 42,177 39,183 51,184 54,190 75,180 73,184 82,183 79,180 83,178 88,180 72,177 71,171 78,174 80,171 66,170 66,164 60,162 55,166 57,159 34,164 42,166 50,161 54,164 42,173 32,174 25,165 15,173 3,172 6,162 13,162 8,166 15,169 20,164 14,167 16,155 32,161 35,156 51,158 57,154 61,158 66,151 71,155 79,154 85,157 83,159 88,156 90,163 99,158 108,167 115,163 122,165 121,171 126,169 128,175 132,173 134,177 126,183 146,174 148,178 141,182 143,186 144,183 149,186 161,184 151,186 148,179 154,179 153,173 142,168 138,172 137,164 127,162 122,165 124,158 116,161 90,152 79,153 72,147 73,142 68,142 67,147 55,146 54,150 45,153 43,150 49,148 49,142 39,143 41,141 35,137 33,140 14,137 10,141 7,134 16,130" fill="#1a4770"/><polygon points="164,218 163,221 160,223 160,227 162,232 167,232 170,236 172,237 175,237 183,234 187,231 188,224 184,222 182,223 178,221 177,218 175,216 170,217 168,219" fill="#133957"/><polygon points="198,192 195,196 195,199 200,209 202,209 205,212 207,212 210,214 211,210 213,213 213,206 211,199 209,195 204,191 200,191" fill="#e3e8ed"/><polygon points="216,61 224,66 229,62 233,64 232,72 233,69 242,71 240,81 268,86 267,90 242,88 245,95 265,95 268,91 267,97 273,100 264,103 263,99 252,98 250,102 257,101 269,111 275,104 281,106 273,108 281,111 277,118 288,118 282,117 283,111 292,117 291,121 304,124 293,130 283,129 294,125 282,122 278,126 272,122 264,126 257,124 254,115 245,115 250,113 251,107 243,115 248,125 263,125 274,130 275,136 295,138 295,141 308,134 323,144 321,147 303,141 298,147 278,142 264,130 251,132 251,143 255,142 256,146 264,143 268,145 263,147 277,147 278,151 265,152 254,147 254,154 264,151 270,157 283,155 280,162 274,164 291,161 278,167 280,172 282,169 283,173 279,169 284,166 299,167 303,172 301,176 296,170 287,174 292,176 288,178 288,195 293,197 289,197 289,203 299,199 290,194 291,189 302,199 310,195 309,188 314,193 325,188 313,188 310,181 322,182 327,188 328,184 323,183 326,180 312,177 323,175 324,167 331,169 327,178 339,182 336,174 346,176 345,179 357,178 353,175 359,172 352,170 353,166 338,172 335,170 339,165 318,167 307,160 322,164 336,159 345,164 354,162 359,168 358,160 336,158 343,154 359,156 360,143 365,145 362,154 363,151 372,155 383,152 370,147 369,139 362,137 369,133 383,140 376,134 383,131 378,128 383,127 383,122 376,119 383,118 382,112 372,104 367,105 366,110 365,107 359,109 366,101 352,96 369,96 372,100 381,96 383,100 383,93 378,92 383,88 379,82 383,79 367,76 381,67 380,58 376,62 367,55 342,52 345,49 339,47 342,49 330,51 325,58 323,53 305,47 295,47 294,51 292,46 279,50 259,44 274,52 282,51 284,56 287,51 290,59 293,56 290,51 303,52 303,59 309,58 318,66 306,65 312,69 323,67 334,70 327,65 330,63 338,68 344,64 352,71 363,70 363,74 354,77 363,77 360,81 375,84 371,86 380,88 377,91 357,88 358,93 353,92 354,84 350,88 335,85 347,93 343,98 338,97 352,105 352,108 346,104 335,107 344,110 345,116 336,114 331,107 316,108 303,102 301,108 306,108 300,113 292,108 295,105 286,101 272,103 282,95 284,99 300,100 292,97 290,90 275,85 287,87 286,83 254,79 245,74 245,69 264,73 278,70 303,82 304,69 296,71 286,65 281,68 275,60 273,66 256,62 253,70 242,65 235,67 240,62 251,64 228,58 225,58 228,63" fill="#235280"/><polygon points="301,289 293,296 277,300 275,308 268,313 264,311 270,317 268,321 263,321 265,324 256,318 247,320 238,333 231,333 226,336 226,328 231,329 229,330 231,331 234,328 236,330 237,328 232,327 237,323 238,326 243,321 238,321 233,317 236,319 233,320 229,328 228,324 222,331 202,337 203,331 200,330 195,339 194,337 188,340 181,338 179,342 175,341 174,337 171,339 170,335 167,336 166,349 163,353 158,355 153,353 156,348 149,349 143,360 136,363 130,352 137,346 132,347 116,360 113,358 107,363 105,360 97,362 100,364 95,368 93,374 98,381 95,383 107,381 109,383 110,380 115,379 116,383 120,383 117,379 129,374 128,376 131,377 129,381 135,370 139,370 137,372 142,368 151,369 146,375 151,370 154,372 154,367 164,364 158,361 168,358 171,354 178,364 176,365 177,369 168,375 177,371 183,364 186,365 191,362 197,366 201,374 209,375 211,371 208,374 201,371 201,367 205,368 207,365 209,367 211,365 208,362 212,362 215,358 211,360 205,358 210,354 220,353 224,349 230,351 230,347 234,345 230,344 234,340 231,337 233,334 236,336 239,333 244,333 245,328 260,338 258,341 256,339 252,341 245,337 248,342 251,341 260,345 252,347 237,341 242,345 239,347 236,345 239,349 241,348 251,356 264,357 270,355 269,351 278,345 269,348 267,354 258,352 263,351 269,344 260,342 265,340 263,336 267,336 267,333 264,332 267,329 272,333 270,337 275,336 274,332 278,330 271,326 282,317 278,311 282,306 291,302 287,302 293,298 293,300" fill="#3a5469"/></svg>