<svg xmlns="http://www.w3.org/2000/svg" width="605" height="320" viewBox="0 0 384 384"><rect width="384" height="384" fill="#3e6387"/><polygon points="0,0 58,248 235,189 156,106 231,63 357,147 254,131 292,204 383,153 357,43 259,44 341,121" fill="#235280"/><polygon points="32,4 86,44 110,18 224,44 92,40 236,111 263,86 217,58 291,109 378,93 277,42 383,74 349,32 383,37 381,0" fill="#2d5c8c"/><polygon points="0,132 1,286 25,282 39,303 61,287 38,270 68,275 94,239 68,232 81,206 27,181 71,190 81,168 51,159 146,175 126,189 154,178" fill="#1a4770"/><polygon points="358,258 328,246 304,273 302,306 279,312 273,326 299,341 286,344 297,354 235,347 204,371 347,383 325,369 383,383 367,367 383,369 383,317 345,306 383,313 352,286" fill="#133957"/><polygon points="286,250 209,283 206,274 203,285 111,318 111,303 140,293 108,302 91,335 139,341 162,316 167,328 196,311 217,309 220,316 224,307 245,307 255,291 265,299 258,287" fill="#cad0da"/><polygon points="13,64 97,99 93,105 107,100 107,109 163,116 137,112 145,100 129,100 129,107 92,90 149,90 134,85 142,79 131,73 128,83 103,84 105,77 82,67 62,68 82,76 67,80" fill="#2d5c8c"/><polygon points="242,322 182,338 178,351 167,336 170,352 147,348 139,362 132,347 103,375 105,361 98,362 98,381 88,383 120,383 137,368 154,372 162,365 157,357 195,347 204,354 176,361 177,371 192,362 208,374 201,370 214,357 206,358 229,349" fill="#3a5469"/><polygon points="24,81 40,70 76,79 80,74 60,69 70,72 76,61 99,78 76,85 108,93 123,111 161,110 164,116 107,113 107,101 96,112 95,99 77,94 79,101 59,101 73,90 56,81" fill="#235280"/><polygon points="364,196 339,225 351,231 355,209 380,217 353,220 383,230 365,228 343,243 345,252 362,256 351,260 360,274 351,281 359,295 383,299 383,264 365,260 383,259 383,212 372,203 383,204" fill="#1a4770"/><polygon points="98,160 104,159 102,153 107,150 116,160 120,151 128,156 125,163 138,164 138,171 156,167 159,162 165,164 166,154 171,152 176,156 170,160 195,171 186,175 174,164 171,175 166,168 152,173 152,180 146,176 135,179 121,172 122,166 108,168" fill="#235280"/><polygon points="269,191 267,197 262,194 256,198 256,212 252,217 253,221 259,220 257,218 263,213 265,215 261,218 265,222 253,231 255,236 240,245 241,249 286,228 285,224 280,224 273,230 265,230 269,226 264,223 269,216 275,223 277,220" fill="#cad0da"/><polygon points="164,218 163,221 160,224 162,232 167,232 170,236 175,237 183,234 187,231 188,225 184,222 182,223 180,222 175,216 170,217 168,219" fill="#133957"/><polygon points="274,206 268,211 269,217 265,220 263,218 264,211 253,218 250,217 238,224 238,235 246,241 255,237 261,229 264,232 270,229 274,220 276,222 275,224 279,225 275,221 276,216 274,211 271,210 274,209" fill="#e3e8ed"/><polygon points="299,293 277,301 266,312 268,321 256,317 247,320 239,332 245,332 245,328 260,339 245,338 247,345 236,346 251,356 270,355 275,346 262,355 266,343 260,342 264,336 273,339 278,333 271,326 280,322 278,311" fill="#3a5469"/><polygon points="207,17 215,14 239,20 243,18 235,15 235,11 269,24 276,20 277,24 295,26 298,30 275,31 290,38 273,40 257,30 242,30 233,22 210,23" fill="#2d5c8c"/><polygon points="200,191 196,194 195,196 195,199 200,209 202,209 205,212 207,212 210,214 213,211 213,206 211,199 209,195 206,192 204,191" fill="#e3e8ed"/><polygon points="111,13 125,16 124,23 131,27 120,36 124,43 144,46 151,36 130,31 138,26 156,40 173,38 187,50 198,46 193,52 199,55 210,45 213,50 224,48 217,43 205,46 185,31 176,33 180,25 143,26 130,21 128,13" fill="#235280"/><polygon points="137,198 145,199 147,210 151,211 145,214 146,222 157,219 150,212 157,207 168,218 181,214 183,217 178,219 181,221 189,216 191,218 186,222 191,224 192,214 189,211 162,211 158,208 161,205 177,207 179,204 176,206 172,201 158,200 150,193" fill="#1a4770"/><polygon points="66,159 68,161 66,168 69,170 77,168 81,172 70,173 83,182 79,185 74,185 71,182 54,191 50,185 53,182 64,180 57,180 43,175 42,170 53,164 62,164" fill="#235280"/><polygon points="287,228 236,253 229,250 222,255 215,256 211,266 217,266 220,261 229,259 284,233" fill="#a6b0be"/><polygon points="114,80 117,77 123,82 129,81 125,75 128,73 133,79 141,77 143,79 141,81 132,82 139,85 147,84 150,87 148,92 151,95 144,98 148,107 131,109 128,100 131,98 137,100 131,95 125,99 120,90 115,95 109,94 110,86 117,83" fill="#235280"/><polygon points="75,187 85,192 79,195 80,198 95,196 101,202 111,205 114,203 121,209 130,199 125,200 116,192 106,200 100,198 98,194 108,192 103,185 93,190 90,185 110,178 108,176 97,181 84,179 84,187" fill="#1a4770"/><polygon points="211,383 191,364 169,377 177,363 171,355 159,361 165,365 154,369 154,373 148,375 148,371 136,370 131,380 127,374 119,380 136,382 146,375 151,383 153,378 160,383 166,379 166,383 190,383 191,380" fill="#133957"/><polygon points="246,124 252,132 264,129 271,135 261,138 265,142 260,146 253,142 250,145 255,150 276,152 266,147 268,142 271,145 287,141 298,146 305,139 337,150 297,133 301,138 296,142 293,138 277,138 263,126" fill="#2d5c8c"/><polygon points="160,101 175,104 176,110 181,106 194,118 201,115 185,108 188,105 203,106 211,115 208,118 215,124 216,120 212,118 216,118 218,113 210,108 214,103 208,98 203,102 203,98 186,97 180,105 171,98" fill="#2d5c8c"/><polygon points="241,90 242,111 252,112 248,116 259,111 271,119 262,122 257,117 264,124 271,121 280,125 283,121 310,128 288,119 291,117 280,119 279,112 272,109 274,105 269,111 264,106 258,109 257,102 250,103 252,97 264,102 271,99 266,93 246,96" fill="#2d5c8c"/><polygon points="201,175 203,177 203,180 207,182 210,181 216,189 221,193 224,191 221,186 227,182 225,178 219,176 217,178 215,178 207,173 204,173" fill="#235280"/><polygon points="208,237 206,238 205,245 209,249 209,252 204,257 207,260 205,267 212,263 210,260 215,255 217,256 222,254 229,249 226,248 224,249 217,246 215,240" fill="#8592a6"/><polygon points="169,141 171,139 173,141 181,139 187,141 193,137 196,140 194,142 192,141 191,144 198,141 206,145 208,143 215,143 219,153 216,157 211,158 209,156 214,152 211,148 200,153 192,147 186,150 185,147 179,144 175,146" fill="#235280"/><polygon points="207,17 210,22 225,19 232,25 228,29 231,31 238,25 241,31 252,28 255,31 249,34 256,36 258,29 268,40 270,32 273,39 290,38 278,35 276,29 311,33 305,26 298,31 241,13 237,15 244,18 239,21" fill="#235280"/><polygon points="189,182 198,187 207,187 212,193 216,193 222,202 225,202 230,195 237,203 236,187 232,186 235,189 229,196 225,191 230,186 228,184 223,185 222,188 225,192 221,194 209,180 205,182 201,179 202,177 198,177 199,179 195,183" fill="#2d5c8c"/><polygon points="131,203 128,207 130,210 137,216 139,215 141,217 142,210 140,205 136,202" fill="#e3e8ed"/><polygon points="61,352 65,354 119,342 126,344 130,342 132,344 135,339 110,339 106,342 98,341 95,338" fill="#a6b0be"/><polygon points="298,240 288,253 289,259 286,266 279,273 273,284 282,277 286,281 290,279 291,276 286,278 284,276 286,269 290,265 295,268 308,254 308,250 298,253 294,249 298,247" fill="#8592a6"/><polygon points="185,238 177,240 174,244 175,247 174,251 176,251 178,254 175,258 176,260 180,263 179,267 181,266 182,256 185,253 186,254 188,250 186,248" fill="#cad0da"/><polygon points="149,203 151,208 145,211 155,213 158,218 151,223 148,219 146,228 154,237 155,243 153,247 156,249 161,248 163,241 158,235 156,237 154,235 155,231 152,225 169,214 164,216 157,208 154,210 152,208 153,204" fill="#235280"/><polygon points="252,65 256,61 263,62 266,65 265,63 267,61 270,65 278,63 281,67 288,64 296,70 302,70 304,68 307,71 301,76 305,81 303,83 298,78 292,79 289,74 284,76 276,70 264,74 255,71" fill="#2d5c8c"/><polygon points="235,308 230,305 225,309 223,307 216,311 214,309 211,312 203,314 199,317 191,317 184,322 188,324 196,323 202,320 207,324 214,316 221,313 232,313" fill="#a6b0be"/><polygon points="193,67 195,65 204,67 213,66 215,68 211,71 220,72 223,67 225,72 237,78 232,82 229,82 222,78 220,80 212,76 201,81 197,77 199,75 202,77 204,75 206,77 206,73 198,72" fill="#2d5c8c"/><polygon points="260,157 259,161 265,168 269,165 268,161 266,157" fill="#e3e8ed"/><polygon points="187,233 191,236 194,234 196,237 199,236 202,237 205,234 209,234 213,229 211,227 211,225 205,226 201,224 197,219 194,219 192,223 192,226 200,233 198,235 195,235 193,233 191,234" fill="#2d5c8c"/><polygon points="234,221 233,225 230,229 229,233 231,235 229,237 231,245 233,247 235,244" fill="#2d5c8c"/><polygon points="14,157 16,155 20,156 24,160 28,161 30,159 22,156 29,154 33,158 35,156 44,158 48,157 54,164 49,165 40,173 33,173 25,165 21,169 19,167 17,169 15,167 16,165 14,162 16,159" fill="#1a4770"/><polygon points="291,245 282,249 285,252 277,257 282,261 281,267 270,274 259,288 262,295 260,297 257,295 253,299 258,298 260,300 263,296 265,298 265,293 262,291 268,285 270,287 278,273 283,268 288,268 285,264 289,254 287,252 293,247" fill="#a6b0be"/><polygon points="331,213 328,211 322,215 319,212 317,218 308,211 318,205 315,203 310,208 306,207 304,209 302,207 297,212 294,211 298,216 296,225 302,219 306,225 296,230 302,231 310,226 314,228 312,226 314,224 316,225 321,220 323,222 327,219 325,216" fill="#8592a6"/><polygon points="200,170 201,173 206,172 210,175 213,175 216,178 220,175 222,176 224,182 225,181 227,183 231,181 231,178 235,176 232,171 226,177 222,173 213,172 210,169" fill="#1a4770"/></svg>