<svg xmlns="http://www.w3.org/2000/svg" width="605" height="320" viewBox="0 0 384 384"><rect width="384" height="384" fill="#3e6387"/><path d="M0,0Q146,218 235,189Q193,84 231,63Q305,139 254,131Q337,178 383,153Q308,43 259,44L341,121Z" fill="#235280"/><path d="M32,4Q98,31 110,18Q158,42 92,40Q249,98 263,86Q254,83 291,109Q327,67 277,42Q366,53 349,32Q382,18 381,0" fill="#2d5c8c"/><path d="M0,132Q13,284 25,282Q50,295 61,287Q53,272 68,275Q81,235 68,232Q54,193 27,181Q76,179 81,168Q98,167 146,175Q140,183 154,178" fill="#1a4770"/><path d="M358,258Q316,259 304,273Q290,309 279,312Q286,333 299,341Q291,349 297,354Q219,359 204,371Q336,376 325,369Q375,375 367,367Q383,343 383,317Q364,309 383,313L352,286Z" fill="#133957"/><path d="M286,250Q207,278 206,274Q157,301 111,318Q125,298 140,293Q99,318 91,335Q150,328 162,316Q181,319 196,311Q218,312 220,316Q234,307 245,307Q260,295 265,299L258,287Z" fill="#cad0da"/><path d="M13,64Q95,102 93,105Q107,104 107,109Q150,114 137,112Q137,100 129,100Q110,98 92,90Q141,87 134,85Q136,76 131,73Q115,83 103,84Q93,72 82,67Q72,72 82,76L67,80Z" fill="#2d5c8c"/><path d="M242,322Q180,344 178,351Q168,344 170,352Q143,355 139,362Q117,361 103,375Q101,361 98,362Q93,382 88,383Q128,375 137,368Q158,368 162,365Q176,352 195,347Q190,357 176,361Q184,366 192,362Q204,372 201,370Q210,357 206,358L229,349Z" fill="#3a5469"/><path d="M24,81Q58,74 76,79Q70,71 60,69Q73,66 76,61Q87,81 76,85Q115,102 123,111Q162,113 164,116Q107,107 107,101Q95,105 95,99Q78,97 79,101Q66,95 73,90L56,81Z" fill="#235280"/><path d="M364,196Q345,228 351,231Q367,213 380,217Q368,225 383,230Q354,235 343,243Q353,254 362,256Q355,267 360,274Q355,288 359,295Q383,281 383,264Q374,259 383,259Q377,207 372,203L383,204Z" fill="#1a4770"/><path d="M98,160Q103,156 102,153Q111,155 116,160Q124,153 128,156Q131,163 138,164Q147,169 156,167Q162,163 165,164Q168,153 171,152Q173,158 170,160Q190,173 186,175Q172,169 171,175Q159,170 152,173Q149,178 146,176Q128,175 121,172Q115,167 108,168" fill="#235280"/><path d="M269,191Q264,195 262,194Q256,205 256,212Q252,219 253,221Q258,219 257,218Q264,214 265,215Q263,220 265,222Q254,233 255,236Q240,247 241,249Q285,226 285,224Q276,227 273,230Q267,228 269,226Q266,219 269,216Q276,221 277,220" fill="#cad0da"/><path d="M164,218Q161,222 160,224Q164,232 167,232Q172,236 175,237Q185,232 187,231Q186,223 184,222Q181,222 180,222Q172,216 170,217L168,219Z" fill="#133957"/><path d="M274,206Q268,214 269,217Q264,219 263,218Q258,214 253,218Q244,220 238,224Q242,238 246,241Q258,233 261,229Q267,230 270,229Q275,221 276,222Q277,224 279,225Q275,218 276,216Q272,210 271,210L274,209Z" fill="#e3e8ed"/><path d="M299,293Q271,306 266,312Q262,319 256,317Q243,326 239,332Q245,330 245,328Q252,338 245,338Q241,345 236,346Q260,355 270,355Q268,350 262,355Q263,342 260,342Q268,337 273,339Q274,329 271,326Q279,316 278,311" fill="#3a5469"/><path d="M207,17Q227,17 239,20Q239,16 235,15Q252,17 269,24Q276,22 277,24Q296,28 298,30Q282,34 290,38Q265,35 257,30Q237,26 233,22L210,23Z" fill="#2d5c8c"/><path d="M200,191Q195,195 195,196Q197,204 200,209Q203,210 205,212Q208,213 210,214Q213,208 213,206Q210,197 209,195Q205,191 204,191" fill="#e3e8ed"/><path d="M111,13Q124,19 124,23Q125,31 120,36Q134,44 144,46Q140,33 130,31Q147,33 156,40Q180,44 187,50Q195,49 193,52Q204,50 210,45Q218,49 224,48Q211,44 205,46Q180,32 176,33Q161,25 143,26Q129,17 128,13" fill="#235280"/><path d="M137,198Q146,204 147,210Q148,212 145,214Q151,220 157,219Q153,209 157,207Q174,216 181,214Q180,218 178,219Q185,218 189,216Q188,220 186,222Q191,219 192,214Q175,211 162,211Q159,206 161,205Q178,205 179,204Q174,203 172,201Q154,196 150,193" fill="#1a4770"/><path d="M66,159Q67,164 66,168Q73,169 77,168Q75,172 70,173Q81,183 79,185Q72,183 71,182Q52,188 50,185Q58,181 64,180Q50,177 43,175Q47,167 53,164L62,164Z" fill="#235280"/><path d="M287,228Q232,251 229,250Q218,255 215,256Q214,266 217,266Q224,260 229,259L284,233Z" fill="#a6b0be"/><path d="M114,80Q120,79 123,82Q127,78 125,75Q130,76 133,79Q142,78 143,79Q136,81 132,82Q143,84 147,84Q149,89 148,92Q147,96 144,98Q139,108 131,109Q129,99 131,98Q134,97 131,95Q122,94 120,90Q112,94 109,94Q113,84 117,83" fill="#235280"/><path d="M75,187Q82,193 79,195Q87,197 95,196Q106,203 111,205Q117,206 121,209Q127,199 125,200Q111,196 106,200Q99,196 98,194Q105,188 103,185Q91,187 90,185Q109,177 108,176Q90,180 84,179L84,187Z" fill="#1a4770"/><path d="M211,383Q180,370 169,377Q174,359 171,355Q162,363 165,365Q154,371 154,373Q148,373 148,371Q133,375 131,380Q123,377 119,380Q141,378 146,375Q152,380 153,378Q163,381 166,379Q178,383 190,383L191,380Z" fill="#133957"/><path d="M246,124Q258,130 264,129Q266,136 261,138Q262,144 260,146Q251,143 250,145Q265,151 276,152Q267,144 268,142Q279,143 287,141Q301,142 305,139Q317,141 297,133Q298,140 296,142Q285,138 277,138L263,126Z" fill="#2d5c8c"/><path d="M160,101Q175,107 176,110Q187,112 194,118Q193,111 185,108Q195,105 203,106Q209,116 208,118Q215,122 216,120Q214,118 216,118Q214,110 210,108Q211,100 208,98Q203,100 203,98Q183,101 180,105L171,98Z" fill="#2d5c8c"/><path d="M241,90Q247,111 252,112Q253,113 259,111Q266,120 262,122Q260,120 264,124Q275,123 280,125Q296,124 310,128Q289,118 291,117Q279,115 279,112Q273,107 274,105Q266,108 264,106Q257,105 257,102Q251,100 252,97Q267,100 271,99Q256,94 246,96" fill="#2d5c8c"/><path d="M201,175Q203,178 203,180Q208,181 210,181Q218,191 221,193Q222,188 221,186Q226,180 225,178Q218,177 217,178Q211,175 207,173L204,173Z" fill="#235280"/><path d="M208,237Q205,241 205,245Q209,250 209,252Q205,258 207,260Q208,265 212,263Q212,257 215,255Q219,255 222,254Q227,248 226,248Q220,247 217,246L215,240Z" fill="#8592a6"/><path d="M169,141Q172,140 173,141Q184,140 187,141Q194,138 196,140Q193,141 192,141Q194,142 198,141Q207,144 208,143Q217,148 219,153Q213,157 211,158Q211,154 214,152Q205,150 200,153Q189,148 186,150Q182,145 179,144L175,146Z" fill="#235280"/><path d="M207,17Q217,20 225,19Q230,27 228,29Q234,28 238,25Q246,29 252,28Q252,32 249,34Q257,32 258,29Q269,36 270,32Q281,38 290,38Q277,32 276,29Q308,29 305,26Q269,22 241,13Q240,16 244,18L239,21Z" fill="#235280"/><path d="M189,182Q202,187 207,187Q214,193 216,193Q223,202 225,202Q233,199 237,203Q234,186 232,186Q232,192 229,196Q227,188 230,186Q225,184 223,185Q223,190 225,192Q215,187 209,180Q203,180 201,179Q200,177 198,177Q197,181 195,183" fill="#2d5c8c"/><path d="M131,203Q129,208 130,210Q138,215 139,215Q141,213 142,210Q138,203 136,202" fill="#e3e8ed"/><path d="M61,352Q92,348 119,342Q128,343 130,342Q133,341 135,339Q108,340 106,342Q96,339 95,338" fill="#a6b0be"/><path d="M298,240Q288,256 289,259Q282,269 279,273Q277,280 282,277Q288,280 290,279Q288,277 286,278Q285,272 286,269Q292,266 295,268Q308,252 308,250Q296,251 294,249L298,247Z" fill="#8592a6"/><path d="M185,238Q175,242 174,244Q174,249 174,251Q177,252 178,254Q175,259 176,260Q179,265 179,267Q181,261 182,256Q185,253 186,254Q187,249 186,248" fill="#cad0da"/><path d="M149,203Q148,209 145,211Q156,215 158,218Q149,221 148,219Q150,232 154,237Q154,245 153,247Q158,248 161,248Q160,238 158,235Q155,236 154,235Q153,228 152,225Q166,215 164,216Q155,209 154,210Q152,206 153,204" fill="#235280"/><path d="M252,65Q259,61 263,62Q265,64 265,63Q268,63 270,65Q279,65 281,67Q292,67 296,70Q303,69 304,68Q304,73 301,76Q304,82 303,83Q295,78 292,79Q286,75 284,76Q270,72 264,74L255,71Z" fill="#2d5c8c"/><path d="M235,308Q227,307 225,309Q219,309 216,311Q212,310 211,312Q201,315 199,317Q187,319 184,322Q192,323 196,323Q204,322 207,324Q217,314 221,313L232,313Z" fill="#a6b0be"/><path d="M193,67Q199,66 204,67Q214,67 215,68Q215,71 220,72Q224,69 225,72Q234,80 232,82Q225,80 222,78Q216,78 212,76Q199,79 197,77Q200,76 202,77Q205,76 206,77Q202,72 198,72" fill="#2d5c8c"/><path d="M260,157Q262,164 265,168Q268,163 268,161L266,157Z" fill="#e3e8ed"/><path d="M187,233Q192,235 194,234Q197,236 199,236Q203,235 205,234Q211,231 213,229Q211,226 211,225Q203,225 201,224Q195,219 194,219Q192,224 192,226Q199,234 198,235Q194,234 193,233L191,234Z" fill="#2d5c8c"/><path d="M234,221Q231,227 230,229Q230,234 231,235Q230,241 231,245Q234,245 235,244" fill="#2d5c8c"/><path d="M14,157Q18,155 20,156Q26,160 28,161Q26,157 22,156Q31,156 33,158Q39,157 44,158Q51,160 54,164Q44,169 40,173Q29,169 25,165Q20,168 19,167Q16,168 15,167Q15,163 14,162L16,159Z" fill="#1a4770"/><path d="M291,245Q283,250 285,252Q279,259 282,261Q275,270 270,274Q260,291 262,295Q258,296 257,295Q255,298 258,298Q261,298 263,296Q265,295 265,293Q265,288 268,285Q274,280 278,273Q285,268 288,268Q287,259 289,254Q290,249 293,247" fill="#a6b0be"/><path d="M331,213Q325,213 322,215Q318,215 317,218Q313,208 318,205Q312,205 310,208Q305,208 304,209Q299,209 297,212Q296,213 298,216Q299,222 302,219Q301,227 296,230Q306,228 310,226Q313,227 312,226Q315,224 316,225Q322,221 323,222Q326,217 325,216" fill="#8592a6"/><path d="M200,170Q203,172 206,172Q211,175 213,175Q218,176 220,175Q223,179 224,182Q226,182 227,183Q231,179 231,178Q233,173 232,171Q224,175 222,173Q211,170 210,169" fill="#1a4770"/><path d="M170,131Q173,125 173,124Q180,121 181,122Q181,126 181,128Q187,126 190,127Q190,130 189,132Q178,132 176,134Q174,133 173,134" fill="#235280"/><path d="M252,65Q262,71 266,72Q264,68 266,67Q280,72 284,75Q290,75 292,78Q302,84 305,89Q314,91 312,93Q314,98 313,99Q323,100 324,99Q317,88 319,87Q301,78 300,75Q305,70 304,69Q291,68 286,65Q278,65 276,63Q268,64 267,62" fill="#235280"/></svg>