<svg xmlns="http://www.w3.org/2000/svg" width="605" height="320" viewBox="0 0 384 384"><rect width="384" height="384" fill="#3e6387"/><polygon points="0,17 62,54 10,78 148,124 97,112 99,154 220,203 162,157 236,155 239,82 289,195 328,186 282,151 345,152 266,123 383,134 339,107 383,113 383,0" fill="#2a5a89"/><polygon points="0,30 24,223 0,246 26,256 0,283 44,293 138,187 161,248 192,213 153,190 237,179 10,67 103,66 5,42 58,44" fill="#1e4c78"/><polygon points="383,242 339,225 343,250 304,273 280,335 259,344 269,357 235,347 177,372 171,355 118,380 383,383 383,306 351,281 355,259 383,267 382,253 345,251" fill="#143c5a"/><polygon points="267,125 345,151 268,146 295,162 290,179 305,166 315,183 353,180 313,159 370,172 380,192 338,220 383,242 383,135 308,103 349,137 296,111 310,130" fill="#1e4c78"/><polygon points="280,253 254,262 252,248 246,267 209,283 204,269 199,287 163,301 155,287 150,305 113,318 109,302 100,324 137,341 239,297 243,308 267,306 274,297 254,301 261,292 253,288" fill="#d6dbe2"/><polygon points="268,196 264,194 255,199 257,210 271,203 273,205 238,223 239,249 286,227 285,222 279,225 277,223 275,206" fill="#d6dbe2"/><polygon points="299,293 235,334 242,322 235,316 208,336 198,331 190,340 204,336 200,345 182,338 182,349 206,353 179,360 177,371 197,362 211,379 201,370 214,357 206,358 236,346 270,355 280,343 262,355 260,342 280,335 271,326" fill="#3b556a"/><polygon points="98,154 107,150 106,145 117,148 122,139 126,145 134,141 134,145 150,152 174,149 176,158 163,157 184,160 198,168 191,177 189,172 181,176 176,167 163,165 148,155 132,163 130,159 138,151 130,150 129,160" fill="#1e4c78"/><polygon points="199,191 194,197 193,201 194,205 199,211 208,217 210,217 212,216 213,205 212,201 209,195 205,191" fill="#d6dbe2"/><polygon points="174,215 167,219 164,218 159,228 162,232 167,233 171,237 175,237 185,233 187,231 188,227 187,223 182,222" fill="#143c5a"/><polygon points="182,95 172,88 157,94 154,77 148,75 140,82 152,84 153,92 110,89 98,92 129,105 131,103 123,100 132,98 167,99" fill="#1e4c78"/><polygon points="25,329 54,340 79,325 89,327 91,341 63,352 137,342 132,331 112,336 111,320 71,325 64,319 74,312 61,317 46,307 43,312 55,316 48,321 57,317 67,325" fill="#b1b9c6"/><polygon points="119,139 126,131 145,133 140,130 143,127 161,133 169,131 171,134 165,138 150,135 150,139 140,140 145,144 159,140 161,142 158,147 163,146 173,151 153,153 135,147 134,142 127,147 127,143" fill="#2a5a89"/><polygon points="176,338 167,336 163,347 171,346 170,352 158,355 157,350 147,348 139,362 132,347 115,360 98,362 93,374 97,381 88,382 104,383 114,378 120,383 120,377 131,376 137,368 154,372 162,365 157,357 162,360 180,352 173,345" fill="#3b556a"/><polygon points="130,203 128,206 128,212 134,218 140,219 143,217 143,213 141,206 137,202 135,201" fill="#d6dbe2"/><polygon points="208,237 206,239 205,245 209,249 209,252 202,257 194,259 195,260 193,262 195,263 201,259 204,259 206,261 204,266 206,267 229,256 226,253 230,250 228,248 224,249 215,244 216,242" fill="#8b97aa"/><polygon points="147,119 155,116 163,117 165,120 173,122 176,118 184,119 197,116 200,120 191,123 199,124 201,127 199,129 191,127 178,128 168,125 162,128 159,121 157,123 158,125 154,127" fill="#2a5a89"/><polygon points="170,91 167,100 156,100 150,97 135,101 133,99 124,100 117,95 114,98 102,97 97,91 99,89 107,91 112,89 130,91 132,89 152,92 150,90 158,85 160,87 155,93 157,95 163,92 162,90" fill="#2a5a89"/><polygon points="290,244 280,249 281,253 271,259 269,263 274,259 277,264 261,279 255,290 259,289 262,292 257,299 255,297 253,299 260,300 265,296 264,291 273,285 275,289 283,283 282,279 273,285 271,283 285,265" fill="#b1b9c6"/><polygon points="131,278 129,276 125,277 116,282 111,282 105,287 106,298 122,293 122,283 124,281 126,283 127,291 135,288 135,286 131,281" fill="#d6dbe2"/><polygon points="187,233 194,235 196,237 202,237 205,234 211,233 216,227 212,224 205,226 201,224 194,216 190,229 194,228 198,232 196,234 194,232 191,233 189,231" fill="#2a5a89"/><polygon points="315,203 310,208 306,207 298,213 294,211 298,216 296,220 298,228 296,230 301,232 300,235 302,237 305,234 307,235 313,227 315,229 319,222 321,224 327,219 324,214 321,215 318,213 313,216 311,214 317,205" fill="#8b97aa"/><polygon points="153,191 152,194 156,198 160,197 166,200 172,199 177,203 183,202 185,204 185,207 187,206 189,208 190,203 188,198 183,199 180,197 176,197 174,195 176,193 171,192 169,189 163,186 159,188 156,192" fill="#2a5a89"/><polygon points="263,155 259,158 258,162 259,164 267,172 267,183 269,181 269,163 267,158" fill="#d6dbe2"/><polygon points="185,238 174,242 175,251 178,252 178,255 181,262 179,264 179,267 181,266 182,263 180,261 181,256 187,252 187,245" fill="#d6dbe2"/><polygon points="289,230 287,228 237,250 239,252 236,254 230,251 227,253 231,252 233,254 210,265 209,269 228,261 234,255 237,257 242,255 245,250 258,247 269,239 281,237" fill="#b1b9c6"/><polygon points="346,245 347,253 356,251 361,259 354,261 363,276 353,282 367,297 383,305 382,291 366,278 370,276 375,281 380,277 366,274 359,267 383,270 374,263 366,265 363,260 376,258 381,251 382,257 383,246 358,251 355,246" fill="#1e4c78"/><polygon points="296,235 296,242 287,253 289,255 288,260 271,281 273,284 277,282 282,285 280,283 283,278 286,281 290,279 293,274 286,277 284,274 286,269 291,266 296,267 295,265 308,254 307,250 296,255 293,249 300,239" fill="#8b97aa"/><polygon points="148,119 153,125 158,125 157,123 160,121 162,127 168,124 170,126 192,126 199,128 199,125 196,126 190,123 199,120 197,117 184,120 178,117 173,123 166,122 163,118 161,119 155,116" fill="#1e4c78"/><polygon points="199,167 201,165 204,164 213,164 218,165 222,169 220,171 214,171 212,169 201,169" fill="#1e4c78"/><polygon points="234,221 233,224 230,227 228,231 229,238 231,242 231,245 233,247 235,244" fill="#2a5a89"/><polygon points="0,284 0,297 5,294 7,298 20,292 32,300 36,297 39,303 61,294 61,288 48,289 44,293 24,287 25,282 44,282 25,275 19,279 15,276 8,278 6,276 12,273 3,273 8,280 21,283 13,287 7,283" fill="#143c5a"/><polygon points="103,124 101,126 93,123 95,125 93,127 87,121 77,128 60,126 54,130 52,124 46,125 45,128 41,126 39,128 36,123 45,119 51,119 55,123 70,117 72,119 80,119 86,116 94,120 97,119" fill="#1e4c78"/><polygon points="360,192 355,189 341,192 339,190 342,187 351,184 348,183 320,194 330,205 335,199 333,192 335,190 342,196 336,202 335,211 345,203 346,200 342,196 344,194 352,199" fill="#8b97aa"/><polygon points="47,307 59,315 74,311 76,313 73,316 65,319 74,326 76,325 79,330 84,323 87,326 92,319 96,322 100,319 95,316 92,307 93,314 85,319 76,311 61,305 56,299" fill="#8b97aa"/><polygon points="248,198 243,199 241,202 241,204 244,212 247,211 249,209 250,202" fill="#d6dbe2"/><polygon points="218,212 216,214 214,224 217,227 211,235 213,237 216,233 218,233 217,226 221,220 228,228 225,235 225,242 228,242 228,237 230,234 227,229 231,226 231,224" fill="#1e4c78"/><polygon points="300,275 296,278 294,277 288,282 288,285 281,292 282,297 286,296 294,292 296,289 298,289 300,287 301,279" fill="#d6dbe2"/><polygon points="148,104 151,102 154,104 166,103 169,107 169,111 170,113 167,116 164,116 159,113 157,114 154,113 152,111 155,109 159,108 151,108" fill="#2a5a89"/><polygon points="112,252 108,252 106,258 97,265 106,272 105,281 102,275 99,274 101,276 99,281 93,274 96,268 91,263 92,270 87,273 84,270 86,268 80,263 78,265 80,280 91,279 94,282 102,280 104,285 107,284 111,273 111,261 106,258" fill="#8b97aa"/><polygon points="289,196 296,201 310,195 306,189 309,187 316,192 322,190 320,188 313,187 302,179 301,181 303,183 301,185 296,184 297,186 293,189 303,195 300,197" fill="#1e4c78"/><polygon points="306,162 322,168 320,172 325,165 333,167 337,164 339,167 335,173 338,171 344,173 349,169 350,173 358,178 365,174 367,176 369,172 362,168 368,164 361,161 359,168 356,164 350,162 346,164 336,159 326,160 321,164 311,158" fill="#2a5a89"/><polygon points="200,326 198,324 194,329 191,326 190,330 165,332 147,341 144,345 146,351 142,354 138,345 133,347 139,350 132,353 139,361 149,348 158,348 152,341 155,339 165,341 169,334 175,336 177,341 183,334 186,339 191,336 195,338 194,334" fill="#61768c"/><polygon points="203,123 205,125 204,126 206,127 210,124 212,126 209,130 220,130 226,138 229,138 227,127 215,126 209,121" fill="#1e4c78"/><polygon points="302,178 305,179 309,183 306,186 306,189 310,193 305,197 297,191 294,191 292,189 295,187 295,184 298,182 303,184 300,180" fill="#2a5a89"/><polygon points="108,187 110,185 118,186 120,184 123,189 130,191 133,194 130,197 128,196 125,199 122,196 120,197 118,195 118,191 115,192 112,189 110,189" fill="#1e4c78"/><polygon points="115,347 90,350 67,357 65,364 70,361 78,361 80,363 78,365 85,369 86,375 96,380 93,376 91,378 88,375 99,363 89,356 97,353 102,355" fill="#61768c"/><polygon points="79,142 82,139 86,139 90,144 91,147 93,145 97,145 100,148 99,150 96,152 93,150 90,152 86,152 80,147" fill="#1e4c78"/><polygon points="231,337 233,335 236,336 239,333 241,334 244,332 243,330 245,328 261,339 252,341 245,338 249,343 251,341 258,345 256,347 252,347 244,344 239,347 230,344 234,340" fill="#3b556a"/></svg>