<svg xmlns="http://www.w3.org/2000/svg" width="605" height="320" viewBox="0 0 384 384"><rect width="384" height="384" fill="#3e6387"/><path d="M0,17Q36,66 10,78Q122,118 97,112Q159,178 220,203Q199,156 236,155Q264,138 289,195Q305,168 282,151Q305,137 266,123Q361,120 339,107Q383,56 383,0" fill="#2a5a89"/><path d="M0,30Q12,234 0,246Q13,269 0,283Q91,240 138,187Q176,230 192,213Q195,184 237,179Q56,66 103,66Q31,43 58,44" fill="#1e4c78"/><path d="M383,242Q341,237 343,250Q292,304 280,335Q264,350 269,357Q206,359 177,372Q144,367 118,380Q383,344 383,306Q353,270 355,259Q382,260 382,253L345,251Z" fill="#143c5a"/><path d="M267,125Q306,148 268,146Q292,170 290,179Q310,174 315,183Q333,169 313,159Q375,182 380,192Q360,231 383,242Q345,119 308,103Q322,124 296,111L310,130Z" fill="#1e4c78"/><path d="M280,253Q253,255 252,248Q227,275 209,283Q201,278 199,287Q159,294 155,287Q131,311 113,318Q104,313 100,324Q188,319 239,297Q255,307 267,306Q264,299 254,301Q257,290 253,288" fill="#d6dbe2"/><path d="M268,196Q259,196 255,199Q264,206 271,203Q255,214 238,223Q262,238 286,227Q282,223 279,225Q276,214 275,206" fill="#d6dbe2"/><path d="M299,293Q238,328 242,322Q221,326 208,336Q194,335 190,340Q202,340 200,345Q182,343 182,349Q192,356 179,360Q187,366 197,362Q206,374 201,370Q210,357 206,358Q253,350 270,355Q271,349 262,355Q270,338 280,335L271,326Z" fill="#3b556a"/><path d="M98,154Q106,147 106,145Q119,143 122,139Q130,143 134,141Q142,148 150,152Q175,153 176,158Q173,158 184,160Q194,172 191,177Q185,174 181,176Q169,166 163,165Q140,159 132,163Q134,155 138,151Q129,155 129,160" fill="#1e4c78"/><path d="M199,191Q193,199 193,201Q196,208 199,211Q209,217 210,217Q212,210 213,205Q210,198 209,195L205,191Z" fill="#d6dbe2"/><path d="M174,215Q165,218 164,218Q160,230 162,232Q169,235 171,237Q180,235 185,233Q187,229 188,227Q184,222 182,222" fill="#143c5a"/><path d="M182,95Q164,91 157,94Q151,76 148,75Q146,83 152,84Q131,90 110,89Q113,98 129,105Q127,101 123,100Q149,98 167,99" fill="#1e4c78"/><path d="M25,329Q66,332 79,325Q90,334 91,341Q100,347 137,342Q122,333 112,336Q91,322 71,325Q69,315 74,312Q53,312 46,307Q49,314 55,316Q52,319 57,317L67,325Z" fill="#b1b9c6"/><path d="M119,139Q135,132 145,133Q141,128 143,127Q165,132 169,131Q168,136 165,138Q150,137 150,139Q142,142 145,144Q160,141 161,142Q160,146 163,146Q163,152 153,153Q134,144 134,142Q127,145 127,143" fill="#2a5a89"/><path d="M176,338Q165,341 163,347Q170,349 170,352Q157,352 157,350Q143,355 139,362Q123,353 115,360Q95,368 93,374Q92,381 88,382Q109,380 114,378Q120,380 120,377Q134,372 137,368Q158,368 162,365Q159,358 162,360Q176,348 173,345" fill="#3b556a"/><path d="M130,203Q128,209 128,212Q137,218 140,219Q143,215 143,213Q139,204 137,202L135,201Z" fill="#d6dbe2"/><path d="M208,237Q205,242 205,245Q209,250 209,252Q198,258 194,259Q194,261 193,262Q198,261 201,259Q205,260 206,261Q205,266 206,267Q227,254 226,253Q229,249 228,248Q219,246 215,244L216,242Z" fill="#8b97aa"/><path d="M147,119Q159,116 163,117Q169,121 173,122Q180,118 184,119Q198,118 200,120Q195,123 199,124Q200,128 199,129Q184,127 178,128Q165,126 162,128Q158,122 157,123Q156,126 154,127" fill="#2a5a89"/><path d="M170,91Q161,100 156,100Q142,99 135,101Q128,99 124,100Q115,96 114,98Q99,94 97,91Q103,90 107,91Q121,90 130,91Q142,90 152,92Q154,87 158,85Q157,90 155,93Q160,93 163,92L162,90Z" fill="#2a5a89"/><path d="M290,244Q280,251 281,253Q270,261 269,263Q275,261 277,264Q258,284 255,290Q260,290 262,292Q256,298 255,297Q256,299 260,300Q264,293 264,291Q274,287 275,289Q282,281 282,279Q272,284 271,283L285,265Z" fill="#b1b9c6"/><path d="M131,278Q127,276 125,277Q113,282 111,282Q105,292 106,298Q122,288 122,283Q125,282 126,283Q131,289 135,288Q133,283 131,281" fill="#d6dbe2"/><path d="M187,233Q195,236 196,237Q203,235 205,234Q213,230 216,227Q208,225 205,226Q197,220 194,216Q192,228 194,228Q197,233 196,234Q192,232 191,233L189,231Z" fill="#2a5a89"/><path d="M315,203Q308,207 306,207Q296,212 294,211Q297,218 296,220Q297,229 296,230Q300,233 300,235Q303,235 305,234Q310,231 313,227Q317,225 319,222Q324,221 327,219Q322,214 321,215Q315,214 313,216Q314,209 317,205" fill="#8b97aa"/><path d="M153,191Q154,196 156,198Q163,198 166,200Q174,201 177,203Q184,203 185,204Q186,206 187,206Q189,205 190,203Q185,198 183,199Q178,197 176,197Q175,194 176,193Q170,190 169,189Q161,187 159,188L156,192Z" fill="#2a5a89"/><path d="M263,155Q258,160 258,162Q263,168 267,172Q268,182 269,181Q268,160 267,158" fill="#d6dbe2"/><path d="M185,238Q174,246 175,251Q178,253 178,255Q180,263 179,264Q180,266 181,266Q181,262 180,261Q184,254 187,252L187,245Z" fill="#d6dbe2"/><path d="M289,230Q262,239 237,250Q237,253 236,254Q228,252 227,253Q232,253 233,254Q209,267 209,269Q231,258 234,255Q239,256 242,255Q251,248 258,247Q275,238 281,237" fill="#b1b9c6"/><path d="M346,245Q351,252 356,251Q357,260 354,261Q358,279 353,282Q375,301 383,305Q374,284 366,278Q372,278 375,281Q373,275 366,274Q371,268 383,270Q370,264 366,265Q369,259 376,258Q381,254 382,257Q370,248 358,251L355,246Z" fill="#1e4c78"/><path d="M296,235Q291,247 287,253Q288,257 288,260Q272,282 273,284Q279,283 282,285Q281,280 283,278Q288,280 290,279Q289,275 286,277Q285,271 286,269Q293,266 296,267Q301,259 308,254Q301,252 296,255Q296,244 300,239" fill="#8b97aa"/><path d="M148,119Q155,125 158,125Q158,122 160,121Q165,125 168,124Q181,126 192,126Q199,126 199,125Q193,124 190,123Q198,118 197,117Q181,118 178,117Q169,122 166,122Q162,118 161,119L155,116Z" fill="#1e4c78"/><path d="M199,167Q202,164 204,164Q215,164 218,165Q221,170 220,171Q213,170 212,169L201,169Z" fill="#1e4c78"/><path d="M234,221Q231,225 230,227Q228,234 229,238Q231,243 231,245Q234,245 235,244" fill="#2a5a89"/><path d="M0,284Q2,295 5,294Q13,295 20,292Q34,298 36,297Q50,298 61,294Q54,288 48,289Q34,290 24,287Q34,282 44,282Q22,277 19,279Q11,277 8,278Q9,274 12,273Q5,276 8,280Q17,285 13,287L7,283Z" fill="#143c5a"/><path d="M103,124Q97,124 93,123Q94,126 93,127Q82,124 77,128Q57,128 54,130Q49,124 46,125Q43,127 41,126Q37,125 36,123Q48,119 51,119Q62,120 70,117Q76,119 80,119Q90,118 94,120L97,119Z" fill="#1e4c78"/><path d="M360,192Q348,190 341,192Q340,188 342,187Q349,183 348,183Q325,199 330,205Q334,195 333,192Q338,193 342,196Q335,206 335,211Q345,201 346,200Q343,195 344,194L352,199Z" fill="#8b97aa"/><path d="M47,307Q66,313 74,311Q74,314 73,316Q69,322 74,326Q77,327 79,330Q85,324 87,326Q94,320 96,322Q97,317 95,316Q92,310 93,314Q80,315 76,311Q58,302 56,299" fill="#8b97aa"/><path d="M248,198Q242,200 241,202Q242,208 244,212Q248,210 249,209L250,202Z" fill="#d6dbe2"/><path d="M218,212Q215,219 214,224Q214,231 211,235Q214,235 216,233Q217,229 217,226Q224,224 228,228Q225,238 225,242Q228,239 228,237Q228,231 227,229Q231,225 231,224" fill="#1e4c78"/><path d="M300,275Q295,277 294,277Q288,283 288,285Q281,294 282,297Q290,294 294,292Q297,289 298,289Q300,283 301,279" fill="#d6dbe2"/><path d="M148,104Q152,103 154,104Q167,105 169,107Q169,112 170,113Q165,116 164,116Q158,113 157,114Q153,112 152,111Q157,108 159,108L151,108Z" fill="#2a5a89"/><path d="M112,252Q107,255 106,258Q101,268 106,272Q103,278 102,275Q100,275 101,276Q96,277 93,274Q93,265 91,263Q89,271 87,273Q85,269 86,268Q79,264 78,265Q85,279 91,279Q98,281 102,280Q105,284 107,284Q111,267 111,261L106,258Z" fill="#8b97aa"/><path d="M289,196Q303,198 310,195Q307,188 309,187Q319,191 322,190Q316,187 313,187Q301,180 301,181Q302,184 301,185Q296,185 297,186Q298,192 303,195L300,197Z" fill="#1e4c78"/><path d="M306,162Q321,170 320,172Q329,166 333,167Q338,165 339,167Q336,172 338,171Q346,171 349,169Q354,175 358,178Q366,175 367,176Q365,170 362,168Q364,162 361,161Q357,166 356,164Q348,163 346,164Q331,159 326,160Q316,161 311,158" fill="#2a5a89"/><path d="M200,326Q196,326 194,329Q190,328 190,330Q156,336 147,341Q145,348 146,351Q140,349 138,345Q136,348 139,350Q135,357 139,361Q153,348 158,348Q153,340 155,339Q167,337 169,334Q176,338 177,341Q184,336 186,339Q193,337 195,338L194,334Z" fill="#61768c"/><path d="M203,123Q204,125 204,126Q208,125 210,124Q210,128 209,130Q223,134 226,138Q228,132 227,127Q212,123 209,121" fill="#1e4c78"/><path d="M302,178Q307,181 309,183Q306,187 306,189Q307,195 305,197Q295,191 294,191Q293,188 295,187Q296,183 298,182Q301,182 300,180" fill="#2a5a89"/><path d="M108,187Q114,185 118,186Q121,186 123,189Q131,192 133,194Q129,196 128,196Q123,197 122,196Q119,196 118,195Q116,191 115,192Q111,189 110,189" fill="#1e4c78"/><path d="M115,347Q78,353 67,357Q67,362 70,361Q79,362 80,363Q81,367 85,369Q91,377 96,380Q92,377 91,378Q93,369 99,363Q93,354 97,353L102,355Z" fill="#61768c"/><path d="M79,142Q84,139 86,139Q90,145 91,147Q95,145 97,145Q99,149 99,150Q94,151 93,150Q88,152 86,152L80,147Z" fill="#1e4c78"/><path d="M231,337Q234,335 236,336Q240,333 241,334Q243,331 243,330Q253,333 261,339Q248,339 245,338Q250,342 251,341Q257,346 256,347Q248,345 244,344Q234,345 230,344L234,340Z" fill="#3b556a"/><path d="M84,283Q79,285 78,285Q73,289 73,292Q76,299 74,302Q72,298 73,296Q71,303 74,305Q81,307 83,309Q86,299 86,295Q85,290 86,288" fill="#2a5a89"/><path d="M4,109Q7,108 8,109Q17,102 23,101Q30,109 29,112Q31,112 31,111Q37,111 41,114Q50,108 52,110Q37,119 36,118Q26,118 25,119Q19,112 16,110Q9,115 8,115" fill="#1e4c78"/></svg>